<svg viewBox="0 0 730.6000366210938 400" xmlns="http://www.w3.org/2000/svg"><g><g><g><g><g><line x1="40" y1="378" x2="35" y2="378" style="visibility: inherit;" fill="rgb(0, 0, 0)" stroke="rgb(204, 204, 204)" stroke-width="1px"></line><line x1="40" y1="336" x2="35" y2="336" style="visibility: inherit;" fill="rgb(0, 0, 0)" stroke="rgb(204, 204, 204)" stroke-width="1px"></line><line x1="40" y1="294.00000000000006" x2="35" y2="294.00000000000006" style="visibility: inherit;" fill="rgb(0, 0, 0)" stroke="rgb(204, 204, 204)" stroke-width="1px"></line><line x1="40" y1="252" x2="35" y2="252" style="visibility: inherit;" fill="rgb(0, 0, 0)" stroke="rgb(204, 204, 204)" stroke-width="1px"></line><line x1="40" y1="209.99999999999997" x2="35" y2="209.99999999999997" style="visibility: inherit;" fill="rgb(0, 0, 0)" stroke="rgb(204, 204, 204)" stroke-width="1px"></line><line x1="40" y1="168.00000000000003" x2="35" y2="168.00000000000003" style="visibility: inherit;" fill="rgb(0, 0, 0)" stroke="rgb(204, 204, 204)" stroke-width="1px"></line><line x1="40" y1="126" x2="35" y2="126" style="visibility: inherit;" fill="rgb(0, 0, 0)" stroke="rgb(204, 204, 204)" stroke-width="1px"></line><line x1="40" y1="84.00000000000006" x2="35" y2="84.00000000000006" style="visibility: inherit;" fill="rgb(0, 0, 0)" stroke="rgb(204, 204, 204)" stroke-width="1px"></line><line x1="40" y1="42" x2="35" y2="42" style="visibility: inherit;" fill="rgb(0, 0, 0)" stroke="rgb(204, 204, 204)" stroke-width="1px"></line><line x1="40" y1="0" x2="35" y2="0" style="visibility: inherit;" fill="rgb(0, 0, 0)" stroke="rgb(204, 204, 204)" stroke-width="1px"></line></g><g transform="translate(30, 0)"><text x="0" y="378" dx="0em" dy="0.3em" style="text-anchor: end; visibility: hidden; font-family: &quot;Helvetica Neue&quot;, sans-serif; font-size: 12px; font-weight: 200;" fill="rgb(50, 49, 63)" stroke="none" stroke-width="1px">2.4</text><text x="0" y="336" dx="0em" dy="0.3em" style="text-anchor: end; visibility: inherit; font-family: &quot;Helvetica Neue&quot;, sans-serif; font-size: 12px; font-weight: 200;" fill="rgb(50, 49, 63)" stroke="none" stroke-width="1px">2.6</text><text x="0" y="294.00000000000006" dx="0em" dy="0.3em" style="text-anchor: end; visibility: inherit; font-family: &quot;Helvetica Neue&quot;, sans-serif; font-size: 12px; font-weight: 200;" fill="rgb(50, 49, 63)" stroke="none" stroke-width="1px">2.8</text><text x="0" y="252" dx="0em" dy="0.3em" style="text-anchor: end; visibility: inherit; font-family: &quot;Helvetica Neue&quot;, sans-serif; font-size: 12px; font-weight: 200;" fill="rgb(50, 49, 63)" stroke="none" stroke-width="1px">3</text><text x="0" y="209.99999999999997" dx="0em" dy="0.3em" style="text-anchor: end; visibility: inherit; font-family: &quot;Helvetica Neue&quot;, sans-serif; font-size: 12px; font-weight: 200;" fill="rgb(50, 49, 63)" stroke="none" stroke-width="1px">3.2</text><text x="0" y="168.00000000000003" dx="0em" dy="0.3em" style="text-anchor: end; visibility: inherit; font-family: &quot;Helvetica Neue&quot;, sans-serif; font-size: 12px; font-weight: 200;" fill="rgb(50, 49, 63)" stroke="none" stroke-width="1px">3.4</text><text x="0" y="126" dx="0em" dy="0.3em" style="text-anchor: end; visibility: inherit; font-family: &quot;Helvetica Neue&quot;, sans-serif; font-size: 12px; font-weight: 200;" fill="rgb(50, 49, 63)" stroke="none" stroke-width="1px">3.6</text><text x="0" y="84.00000000000006" dx="0em" dy="0.3em" style="text-anchor: end; visibility: inherit; font-family: &quot;Helvetica Neue&quot;, sans-serif; font-size: 12px; font-weight: 200;" fill="rgb(50, 49, 63)" stroke="none" stroke-width="1px">3.8</text><text x="0" y="42" dx="0em" dy="0.3em" style="text-anchor: end; visibility: inherit; font-family: &quot;Helvetica Neue&quot;, sans-serif; font-size: 12px; font-weight: 200;" fill="rgb(50, 49, 63)" stroke="none" stroke-width="1px">4</text><text x="0" y="0" dx="0em" dy="0.3em" style="text-anchor: end; visibility: hidden; font-family: &quot;Helvetica Neue&quot;, sans-serif; font-size: 12px; font-weight: 200;" fill="rgb(50, 49, 63)" stroke="none" stroke-width="1px">4.2</text></g><line x1="40" y1="0" x2="40" y2="378" fill="rgb(0, 0, 0)" stroke="rgb(204, 204, 204)" stroke-width="1px"></line></g></g><g transform="translate(40, 0)" clip-path="url(#clip_0)"><clipPath id="clip_0"><rect width="690" height="378"></rect></clipPath><g><g><g><line x1="0" y1="0" x2="0" y2="378" fill="rgb(0, 0, 0)" stroke="rgb(60, 60, 60)" stroke-width="1px" opacity="0.25"></line><line x1="86.325" y1="0" x2="86.325" y2="378" fill="rgb(0, 0, 0)" stroke="rgb(60, 60, 60)" stroke-width="1px" opacity="0.25"></line><line x1="172.65" y1="0" x2="172.65" y2="378" fill="rgb(0, 0, 0)" stroke="rgb(60, 60, 60)" stroke-width="1px" opacity="0.25"></line><line x1="258.975" y1="0" x2="258.975" y2="378" fill="rgb(0, 0, 0)" stroke="rgb(60, 60, 60)" stroke-width="1px" opacity="0.25"></line><line x1="345.3" y1="0" x2="345.3" y2="378" fill="rgb(0, 0, 0)" stroke="rgb(60, 60, 60)" stroke-width="1px" opacity="0.25"></line><line x1="431.625" y1="0" x2="431.625" y2="378" fill="rgb(0, 0, 0)" stroke="rgb(60, 60, 60)" stroke-width="1px" opacity="0.25"></line><line x1="517.95" y1="0" x2="517.95" y2="378" fill="rgb(0, 0, 0)" stroke="rgb(60, 60, 60)" stroke-width="1px" opacity="0.25"></line><line x1="604.275" y1="0" x2="604.275" y2="378" fill="rgb(0, 0, 0)" stroke="rgb(60, 60, 60)" stroke-width="1px" opacity="0.25"></line><line x1="690.6" y1="0" x2="690.6" y2="378" fill="rgb(0, 0, 0)" stroke="rgb(60, 60, 60)" stroke-width="1px" opacity="0.25"></line></g><g><line x1="0" y1="378" x2="690.6" y2="378" fill="rgb(0, 0, 0)" stroke="rgb(60, 60, 60)" stroke-width="1px" opacity="0.25"></line><line x1="0" y1="336" x2="690.6" y2="336" fill="rgb(0, 0, 0)" stroke="rgb(60, 60, 60)" stroke-width="1px" opacity="0.25"></line><line x1="0" y1="294.00000000000006" x2="690.6" y2="294.00000000000006" fill="rgb(0, 0, 0)" stroke="rgb(60, 60, 60)" stroke-width="1px" opacity="0.25"></line><line x1="0" y1="252" x2="690.6" y2="252" fill="rgb(0, 0, 0)" stroke="rgb(60, 60, 60)" stroke-width="1px" opacity="0.25"></line><line x1="0" y1="209.99999999999997" x2="690.6" y2="209.99999999999997" fill="rgb(0, 0, 0)" stroke="rgb(60, 60, 60)" stroke-width="1px" opacity="0.25"></line><line x1="0" y1="168.00000000000003" x2="690.6" y2="168.00000000000003" fill="rgb(0, 0, 0)" stroke="rgb(60, 60, 60)" stroke-width="1px" opacity="0.25"></line><line x1="0" y1="126" x2="690.6" y2="126" fill="rgb(0, 0, 0)" stroke="rgb(60, 60, 60)" stroke-width="1px" opacity="0.25"></line><line x1="0" y1="84.00000000000006" x2="690.6" y2="84.00000000000006" fill="rgb(0, 0, 0)" stroke="rgb(60, 60, 60)" stroke-width="1px" opacity="0.25"></line><line x1="0" y1="42" x2="690.6" y2="42" fill="rgb(0, 0, 0)" stroke="rgb(60, 60, 60)" stroke-width="1px" opacity="0.25"></line><line x1="0" y1="0" x2="690.6" y2="0" fill="rgb(0, 0, 0)" stroke="rgb(60, 60, 60)" stroke-width="1px" opacity="0.25"></line></g></g></g><g><g><line x1="0" y1="881.9999999999999" x2="690.6" y2="881.9999999999999" fill="rgb(0, 0, 0)" stroke="rgb(153, 153, 153)" stroke-width="1.5px"></line></g></g><g><g><line x1="86.325" y1="0" x2="86.325" y2="378" fill="rgb(0, 0, 0)" stroke="rgb(153, 153, 153)" stroke-width="1.5px"></line></g></g><g><g><g><g><g><path stroke="rgb(255, 112, 67)" stroke-width="2px" d="M86.325,142.56113004684448L86.325,178.41947954893124L86.325,211.72440821783877L88.0515,104.739228807828L88.0515,-149.425488848888L100.137,-60.554013737107994L101.8635,2.546273243022995L101.8635,-52.749387203602396L110.49600000000001,-14.577895626563532L113.94900000000001,42.222522694643146L113.94900000000001,24.421172299625482L113.94900000000001,15.948396584115983L113.94900000000001,6.162554107831909L113.94900000000001,-16.87306919174779L113.94900000000001,56.68578106339152L115.67550000000001,106.82473329597798L115.67550000000001,127.45484421236395L115.67550000000001,136.6258413648832L115.67550000000001,130.32224821182334L115.67550000000001,78.86143097335321L117.40200000000002,103.07945929209023L117.40200000000002,147.37534338386425L117.40200000000002,109.6665493377742L117.40200000000002,134.26860216432556L119.12849999999999,138.6979418466927L119.12849999999999,150.09403671446358L119.12849999999999,206.30044706835866L120.85499999999999,57.43326506717494L120.85499999999999,44.8839519602264L120.85499999999999,89.09309166563912L122.58149999999999,57.43230382140439L122.58149999999999,111.47490601263075L122.58149999999999,149.5948499949078L124.30799999999999,145.5499119348109L124.30799999999999,58.55970523278569L124.30799999999999,51.516854938987876L124.30799999999999,21.80381909437409L124.30799999999999,54.324940344258835L126.0345,72.21465204987788L127.761,125.23356570502432L127.761,25.860602985026276L127.761,27.837888127685574L127.761,60.13809550173352L127.761,64.41389558534189L129.4875,89.32443979871493L129.4875,95.45825488264694L129.4875,91.57324394521311L131.214,44.274572664125L131.214,36.36661280013516L131.214,48.448977689846686L131.214,87.60843271070974L131.214,67.37339855464853L131.214,116.79350667734474L132.94050000000001,99.29090083563045L132.94050000000001,85.47754591061903L132.94050000000001,75.36111327024838L132.94050000000001,51.61584246166075L132.94050000000001,112.98118493561469L134.667,113.16206186774087L134.667,71.45896350003909L134.667,99.66725470219632L134.667,104.53798156735053L136.39350000000002,66.55844682310084L136.39350000000002,80.7663791290168L136.39350000000002,87.14707074828408L138.12,72.88773528496893L138.12,81.35157561159423L139.84650000000002,114.24053635511564L139.84650000000002,159.06868609377005L141.573,138.59483218543681L141.573,98.93383183689684L141.573,143.5420816338764L143.2995,142.28909385184684L143.2995,179.36790668952617L145.026,166.46876914494126L145.026,150.36404175277286L145.026,142.38354689309443L145.026,112.26237377184299L145.026,96.95119505320599L146.7525,163.60792597052222L148.479,156.7183413977431L148.479,172.53320477455898L150.2055,207.06728881627345L150.2055,152.40033956784026L150.2055,154.05161273728615L150.2055,212.15379059464212L150.2055,178.36279170602845L151.93200000000002,188.6551269584315L151.93200000000002,158.5491636689555L153.6585,179.22316122627564L153.6585,188.6226244960804L153.6585,169.76273637977712L153.6585,159.6558231709449L155.38500000000002,188.15725275266456L155.38500000000002,167.08930633299522L155.38500000000002,163.4258334030687L155.38500000000002,176.38130074679728L155.38500000000002,157.25453957283426L157.1115,201.41463608958674L157.1115,196.39429175507047L158.83800000000002,210.2813237407865L158.83800000000002,202.6722034394181L158.83800000000002,230.27980407353857L158.83800000000002,205.69095258877644L158.83800000000002,157.51044805625662L158.83800000000002,134.42329993116607L160.5645,136.12696789662678L162.291,127.95814389562989L164.01749999999998,157.39325620279544L164.01749999999998,121.36637249914304L164.01749999999998,157.16743092136088L164.01749999999998,180.49989741084877L164.01749999999998,198.9675570073003L164.01749999999998,165.3016680087014L164.01749999999998,171.3069132808068L164.01749999999998,213.13738397617445L167.4705,195.52009594356605L167.4705,198.47586715171096L167.4705,205.19569809406605L167.4705,236.10264434319498L167.4705,204.57564605415922L169.197,223.7349847623173L169.197,242.48396494796663L170.9235,211.33589402920475L170.9235,176.59904732755706L170.9235,159.0674489882701L170.9235,176.7588686315485L172.65,208.45661283542327L174.37650000000002,253.03191905623447L174.37650000000002,237.85677083376513L174.37650000000002,237.39448318507357L176.103,246.0489638902312L176.103,201.38233358011044L176.103,201.73253621068832L176.103,183.37908204440615L176.103,191.3738664629718L176.103,180.82820972458484L176.103,167.56807356271725L177.82950000000002,175.9098348450278L177.82950000000002,209.07319964358905L177.82950000000002,215.36152118080676L177.82950000000002,194.34695745488298L177.82950000000002,194.56451411831554L177.82950000000002,209.38164594047177L179.556,185.80044752522062L181.28250000000003,157.81304057934142L183.00900000000001,196.00534620582022L183.00900000000001,191.10865110575526L183.00900000000001,205.6041171694956L183.00900000000001,216.9381928053595L184.73550000000003,207.20074965996125L184.73550000000003,194.16358639265644L186.46200000000002,178.4265144912336L186.46200000000002,172.9146416811904L186.46200000000002,201.53742102555992L186.46200000000002,207.6996750579629L186.46200000000002,187.5793061105224L186.46200000000002,179.46515263604L188.18850000000003,128.66180413655567L188.18850000000003,138.49599147851535L189.91500000000002,150.36179395327136L189.91500000000002,174.34867083912593L189.91500000000002,152.96704094341692L189.91500000000002,205.74463801819866L191.64150000000004,191.5914559676575L191.64150000000004,152.8243277737097L191.64150000000004,188.9917261045335L193.36800000000002,230.06455775744664L193.36800000000002,221.791895894092L193.36800000000002,206.44980355970958L195.09449999999998,218.27248604817933L195.09449999999998,223.19170665576303L196.821,233.89875697990803L196.821,210.19729099214402L198.54749999999999,240.58030277216625L198.54749999999999,230.04862378671285L200.274,207.49716209551406L200.274,232.01278337943984L202.0005,230.67567406361354L202.0005,237.48014465728437L202.0005,256.5746859536113L202.0005,255.06348375234256L203.727,218.7247498735979L203.727,197.5079248371836L203.727,217.63096492428275L205.4535,219.65664177500423L207.18,230.17770813323978L207.18,243.07804211627194L207.18,244.4562544384643L207.18,225.8531910633471L207.18,231.74119587274944L207.18,227.28310157974096L207.18,240.5576954967948L208.9065,226.90922018809152L208.9065,235.16734054638763L208.9065,241.53915440412655L208.9065,244.65380193813027L210.633,276.00819855942365L212.3595,284.50811051138663L212.3595,286.20512265448815L212.3595,310.998934188396L212.3595,301.79592499668024L212.3595,311.9633570762552L212.3595,283.6325209291027L212.3595,278.8738988489655L214.086,269.23999234740415L214.086,277.98202355327896L214.086,244.73676185383013L214.086,220.16995971544748L217.53900000000002,216.72623844828698L219.2655,223.6414862864404L219.2655,263.6256541009658L220.99200000000002,243.62567532038165L220.99200000000002,221.89116618618658L220.99200000000002,227.676372227581L222.7185,226.6649767026375L222.7185,227.12106091171918L222.7185,236.68443006509798L222.7185,257.3297486915247L224.44500000000002,237.59838098371367L224.44500000000002,255.82100940993033L226.1715,238.47627568990347L226.1715,209.15037761181802L226.1715,208.1342235687388L227.89800000000002,205.5164878537066L227.89800000000002,226.08390985547348L227.89800000000002,240.91343871723916L227.89800000000002,256.90523695928636L229.6245,286.1210854052471L229.6245,293.1846206187586L229.6245,241.11690030094263L229.6245,237.98026247975992L229.6245,233.3647926578389L229.6245,232.42140702780878L231.35100000000003,262.45687711463455L231.35100000000003,268.91615889207173L231.35100000000003,270.6078862532117L231.35100000000003,273.5431268324934L233.07750000000001,288.23472734156144L233.07750000000001,250.39441420950226L233.07750000000001,275.9190738339289L233.07750000000001,248.6328344904818L234.80400000000003,211.92693389436232L234.80400000000003,219.36076334107298L234.80400000000003,229.01728808276874L236.53050000000002,248.32537071343074L236.53050000000002,254.65923896095643L236.53050000000002,274.49967335856854L236.53050000000002,292.0093560170942L236.53050000000002,286.91925458620864L236.53050000000002,283.2381233007364L238.25699999999998,284.84461863223635L238.25699999999998,253.16530542006444L238.25699999999998,259.32745244759536L238.25699999999998,274.2010979334009L238.25699999999998,266.9671116637881L238.25699999999998,255.46769089506245L239.9835,250.36711832884657L239.9835,284.85980384948084L239.9835,276.6157274329796L239.9835,300.1019216587624L241.70999999999998,306.40992199244977L241.70999999999998,313.3420105151109L241.70999999999998,284.4581709010465L241.70999999999998,273.17877331394334L241.70999999999998,273.55268005739674L241.70999999999998,251.02915365821727L241.70999999999998,225.8910735090173L243.4365,228.87723043200955L243.4365,253.80816580437175L245.16299999999998,259.02936130513285L245.16299999999998,254.4293115004869L245.16299999999998,230.19395698696206L245.16299999999998,231.5661258553852L246.8895,238.2593278798692L246.8895,230.533945650651L246.8895,254.9301885192358L248.61599999999999,254.79015275387547L250.3425,284.0785659107482L250.3425,275.313093754823L250.3425,259.21939693282536L250.3425,244.73957711690952L252.069,233.73932923218186L252.069,240.65779431665288L252.069,250.88853855135653L252.069,253.45369903566012L253.7955,245.27427516175257L253.7955,249.93788128967844L255.522,268.7530070178256L255.522,261.7807566185322L255.522,257.8566980278209L255.522,270.55493716691234L257.2485,254.1603537338632L257.2485,254.2568350277935L257.2485,239.50996573225228L257.2485,247.07834806117754L258.975,249.57780870242917L258.975,244.0588464763403L258.975,263.42458362738125L258.975,250.61255218601133L260.7015,257.1333020330423L260.7015,249.32485617404902L262.428,271.339438469444L262.428,254.291113490602L264.15450000000004,253.22454449816973L264.15450000000004,249.58004835417526L267.6075,266.6487246225516L267.6075,290.9511801165485L267.6075,283.6714855052318L269.334,264.31416010959657L269.334,248.27145924629997L269.334,254.23439978636634L269.334,236.49391250060404L269.334,229.60331084875114L271.06050000000005,240.9777627619973L271.06050000000005,257.01630968051387L271.06050000000005,264.3961955678298L271.06050000000005,254.27002897094698L271.06050000000005,293.33701108831764L271.06050000000005,275.29764618240955L272.78700000000003,277.6507974491308L272.78700000000003,297.14451060448823L272.78700000000003,318.9947292432471L274.5135,280.0837899461558L274.5135,283.2799834022028L276.24,278.6488379722299L276.24,267.9055491975225L276.24,275.6697676593826L276.24,270.255397964404L276.24,288.43768053584455L277.96650000000005,264.38227117856235L277.96650000000005,265.02384989738397L277.96650000000005,282.2533815937039L279.69300000000004,243.77850142936688L279.69300000000004,227.5648320664214L279.69300000000004,233.22940598423764L279.69300000000004,256.1258329063385L281.41949999999997,251.46445619521913L281.41949999999997,255.12699029122814L281.41949999999997,280.33693998619924L283.146,274.2071829889119L283.146,267.73197504603274L284.8725,270.1075009150708L284.8725,285.41015675326616L284.8725,272.12604247725267L284.8725,277.75379569051415L284.8725,285.662734262453L286.599,279.046388764564L286.599,294.90661476813784L286.599,311.5311907694521L286.599,292.070215926515L286.599,288.5737247860116L288.3255,288.06606676552786L288.3255,277.76795884593776L288.3255,289.16881554498946L290.052,281.3388736318033L290.052,282.81934762421145L290.052,291.34332747711477L291.7785,313.3804057803972L291.7785,309.2244245748057L293.505,271.3084763848981L293.505,275.5583638765932L293.505,269.46629617324595L293.505,269.57782400674296L293.505,295.4686228098075L295.2315,270.06428125271805L295.2315,270.603699748335L295.2315,283.6498850253926L295.2315,281.6261157076184L296.958,280.8020432877912L296.958,286.53476505806293L296.958,275.0452713807239L296.958,297.93634900091973L296.958,283.76983628653807L298.6845,283.5711867450674L298.6845,276.4442531847357L298.6845,270.52039846082914L298.6845,272.2195503252768L300.411,252.02118599045423L300.411,282.8104391791113L300.411,268.98122238503026L300.411,263.63080916038825L300.411,287.69422951478765L300.411,281.05429596387745L300.411,282.2825045268738L302.1375,275.0332789230945L302.1375,262.8445921783806L305.5905,257.45324654848343L305.5905,249.78454596680976L305.5905,264.75679096509555L305.5905,267.25061693745573L307.317,266.603445571409L307.317,271.5399441967882L309.0435,280.1931418568181L309.0435,275.1722499364785L309.0435,276.8574858566625L310.77000000000004,281.74902997377535L310.77000000000004,284.5692408678712L312.4965,288.5661931871045L312.4965,288.7243667148751L314.223,279.8382508577824L314.223,265.0781145466518L314.223,295.1099121316166L315.9495,284.5027280178005L315.9495,293.23483116187657L317.67600000000004,297.1751514360786L317.67600000000004,288.3864982179093L317.67600000000004,281.2222616703086L317.67600000000004,280.219689704822L319.40250000000003,272.9964061843434L319.40250000000003,284.14178902310607L319.40250000000003,301.33390535356097L319.40250000000003,305.86941669846476L321.129,297.97757004776537L322.8555,285.9810141508516L322.8555,291.9372001042805L322.8555,289.41206047241945L322.8555,296.91642878833443L322.8555,274.9711213492336L322.8555,276.0139483680118L322.8555,276.89539142070953L324.582,269.7235536314174L324.582,265.5749605022147L324.582,291.15667407049386L324.582,284.35049553116346L328.03499999999997,279.5041741573822L328.03499999999997,294.91921057963435L328.03499999999997,298.9918923298363L331.488,295.63429383753794L331.488,308.6089629907552L333.2145,299.76168821925785L333.2145,297.27386855289257L333.2145,303.7507450056369L334.941,309.9655890627084L334.941,318.1561263181792L334.941,301.2052553044573L334.941,288.01587855498883L336.6675,289.4388947706276L336.6675,301.64984694843616L336.6675,291.916922329218L336.6675,268.97325138947417L338.394,290.8307213109794L340.1205,302.8940977646151L340.1205,278.5882641549849L341.847,265.5680641219583L341.847,256.9077537945251L341.847,276.3876931244933L343.5735,270.12769586889766L343.5735,288.3341227474738L343.5735,288.1676382603007L345.3,302.8046135653113L345.3,303.64466770583715L347.0265,293.9979738717933L347.0265,301.8905911162889L347.0265,304.73928249570105L347.0265,295.54579117710813L347.0265,296.59051410445824L347.0265,307.1714675431803L348.75300000000004,310.07168297799564L348.75300000000004,322.65273459453664L348.75300000000004,314.5615550023274L348.75300000000004,310.26442342650626L350.4795,307.4157577851518L350.4795,320.0415794193211L352.206,313.6151230895199L353.9325,308.0970750667857L353.9325,308.3606538306597L355.65900000000005,278.1987012583567L355.65900000000005,277.2350259994598L355.65900000000005,295.6040569052179L355.65900000000005,278.7271800461459L357.3855,290.8298203720479L357.3855,273.7024084433215L357.3855,288.9900310340104L357.3855,296.1712038697349L359.112,291.2450833905665L359.112,307.2918219917374L359.112,301.83148243149265L359.112,288.29019728970616L360.8385,285.1636447410111L360.8385,283.45728318097144L360.8385,288.8924859058974L360.8385,283.327357464559L360.8385,298.59651671262213L362.56500000000005,311.22905966288823L362.56500000000005,309.47458675293313L362.56500000000005,274.2632774042378L362.56500000000005,278.5447302059704L364.2915,272.2613966105207L364.2915,300.6338677667274L364.2915,282.9680651821312L366.01800000000003,284.1800021646987L366.01800000000003,274.4989087771517L367.7445,272.8564829463447L367.7445,288.9924673816374L367.7445,300.703770719815L367.7445,300.98474412134215L367.7445,294.5940325079615L369.47100000000006,279.5775205027017L369.47100000000006,274.53233021086174L369.47100000000006,282.44230881682466L371.1975,279.11506714434285L371.1975,287.1645862460784L372.92400000000004,291.8692481160553L372.92400000000004,289.04646876099065L372.92400000000004,295.73204499865983L372.92400000000004,304.4800545596208L372.92400000000004,300.3836864604429L372.92400000000004,308.50595421635364L372.92400000000004,320.4708122911647L372.92400000000004,318.88698318616116L372.92400000000004,331.64701954731686L372.92400000000004,321.93068113451807L374.6505,308.32857736662396L374.6505,301.26488361785033L376.37700000000007,314.45087791698705L376.37700000000007,307.2285299850555L376.37700000000007,293.48239577728816L376.37700000000007,295.9090316588778L376.37700000000007,302.7948170360982L378.1035,316.40105785471553L378.1035,327.9484712454221L378.1035,327.29063082769767L381.5565,319.2386618675902L381.5565,321.47987200153545L381.5565,318.54515434105804L381.5565,320.84074502467877L383.2830000000001,318.5609396295534L383.2830000000001,314.4432070730201L383.2830000000001,320.17439077365816L385.0095,321.7148666266705L385.0095,309.2656150748792L385.0095,310.56798053326975L385.0095,317.43385148371914L386.73600000000005,311.33032965854204L386.73600000000005,311.5167158615315L386.73600000000005,309.42247572968756L388.46250000000003,298.30700106281245L388.46250000000003,282.3654813460005L390.18899999999996,328.119452458113L390.18899999999996,337.64372118800264L390.18899999999996,328.1298297434412L391.9155,335.69687882598413L391.9155,329.0635347815524L391.9155,321.3069666178328L393.642,299.9584446878018L393.642,304.8544430333842L393.642,307.7913410901111L393.642,301.471779599135L395.36850000000004,288.1285090055137L395.36850000000004,288.09157416856704L395.36850000000004,290.1356554844166L395.36850000000004,288.70884595025694L397.09499999999997,300.5702675921268L397.09499999999997,299.5616208519069L397.09499999999997,305.782209861608L398.8215,316.6310545851777L398.8215,307.8037220150226L398.8215,296.680600327849L398.8215,288.3701878563163L400.548,285.37109533402895L400.548,291.9662044492577L400.548,278.14912479205225L400.548,295.1549232547479L400.548,279.61657150655964L402.27450000000005,265.12266774219256L402.27450000000005,287.04476992632146L402.27450000000005,260.59460144248715L402.27450000000005,248.41947143678138L404.001,271.58932324292823L405.7275,267.213666463152L405.7275,283.49717647090876L405.7275,304.4059085741956L405.7275,292.83253840776194L405.7275,290.8083685646768L407.454,291.92456753315423L407.454,304.39296817339596L409.18050000000005,300.6564954731293L410.907,296.37172130426336L410.907,301.1322395544086L410.907,315.3929370248816L412.6335,299.7061170580686L412.6335,286.32912792221913L412.6335,272.2913616028798L412.6335,273.8905132965668L414.36,275.81431209781306L414.36,283.3852135404261L416.08650000000006,284.4228010215945L416.08650000000006,283.7803979896657L416.08650000000006,299.0879188169928L416.08650000000006,320.4664487236673L417.813,293.3983010884485L421.266,284.5655793926931L421.266,298.0656223167073L421.266,308.28722533399406L424.719,310.6340524245175L424.719,334.27618226342634L424.719,305.09620862563395L426.44550000000004,287.5809746108052L426.44550000000004,293.34600507745716L426.44550000000004,316.27657048421844L428.172,288.55900049518203L428.172,255.9957106608788L428.172,266.22090128056044L428.172,269.7604155241956L429.89850000000007,268.98174789545L429.89850000000007,276.6006936728779L429.89850000000007,261.85424249767203L429.89850000000007,274.46353178858135L429.89850000000007,274.5169774868451L429.89850000000007,268.5120976554372L431.625,273.99957808178766L431.625,292.2801129837162L431.625,265.3495958816604L431.625,259.4159922702072L431.625,242.65460672992214L433.3515,257.84096998582925L433.3515,238.22606903678565L435.07800000000003,251.34614271143906L436.80449999999996,287.96795708072085L436.80449999999996,291.0654868491405L436.80449999999996,273.2983886365839L438.531,244.1855845430343L438.531,261.483971499136L438.531,270.7203339950626L438.531,277.3941667208901L438.531,296.51108194171377L438.531,279.15405593382707L438.531,269.48224717418793L438.531,284.2126492383507L440.2575,272.0289807631033L441.98400000000004,297.2556258388434L441.98400000000004,277.85000788855984L441.98400000000004,293.0876929502991L443.71049999999997,285.9905598009412L445.437,276.35150255231764L445.437,259.9770247308535L447.1635,278.4778328042104L447.1635,267.20621681814634L447.1635,270.96675911310456L448.89000000000004,243.94770149447407L448.89000000000004,268.96177656685046L448.89000000000004,259.30961713334756L450.6165,246.18655820572874L450.6165,262.60921351840796L452.343,259.6125392957371L452.343,275.16614685319917L452.343,242.76355110325244L452.343,219.84225446413652L454.0695,241.07322110194383L454.0695,238.09684861575607L454.0695,262.25164554640673L455.79600000000005,249.23765915706767L455.79600000000005,245.59065095230943L457.5225,267.86810612466934L457.5225,260.5681315886199L459.249,240.66885975761525L459.249,232.02390477516246L459.249,250.4877868500829L460.9755,241.3107459549594L460.9755,233.6278694632344L462.70200000000006,250.3760890103991L462.70200000000006,243.14132074937913L462.70200000000006,255.00497620359482L464.4285,256.58511882457384L464.4285,288.28132470508365L464.4285,295.5685995105502L466.15500000000003,305.88899105093464L467.8815,277.64888916791426L467.8815,295.3500135086831L467.8815,270.763981112412L467.8815,259.5668021730014L467.8815,250.55648640939165L469.60800000000006,273.82538583367216L469.60800000000006,276.9422983794758L469.60800000000006,293.16026428159176L469.60800000000006,266.76951615104736L471.3345,266.0596591001132L473.06100000000004,264.4440914729464L473.06100000000004,253.250665088846L473.06100000000004,232.23287338039495L473.06100000000004,230.92997385276092L473.06100000000004,235.14815498121226L473.06100000000004,248.904727797077L474.7875,250.60718642495027L474.7875,260.0677666355487L476.51399999999995,262.2571257406065L476.51399999999995,254.57343914828226L476.51399999999995,235.9626197023482L476.51399999999995,243.3020055295998L476.51399999999995,227.5359631062731L478.2405,207.1586111355534L478.2405,229.84400701336338L479.967,265.7084240902202L479.967,235.07995290689087L479.967,243.50600034673462L479.967,230.48877858328495L479.967,222.29580659394065L481.69350000000003,222.80061475470424L481.69350000000003,238.06018376371117L481.69350000000003,251.26111121190107L481.69350000000003,254.76225411422556L481.69350000000003,282.2318649502248L481.69350000000003,255.923700154522L485.1465,248.7755743865365L486.873,224.86626988674362L486.873,210.45928391233178L486.873,233.36766362437655L486.873,251.7848277583662L486.873,267.00846608251004L486.873,268.22545184951827L488.59950000000003,252.1090561286318L488.59950000000003,210.840624984247L488.59950000000003,168.299352941598L488.59950000000003,151.98031443219514L488.59950000000003,178.50748625910964L490.32599999999996,211.18321833322457L492.0525,204.52712193316225L492.0525,222.27186550608872L492.0525,243.25579069800145L492.0525,269.91752928940633L492.0525,244.03785964517695L492.0525,269.7980121890838L493.779,267.3005953383526L493.779,251.8633215279627L493.779,235.60484918661405L495.50550000000004,242.60126400415587L495.50550000000004,261.93804416909506L495.50550000000004,282.0077560058516L495.50550000000004,287.1916424340774L495.50550000000004,293.1701040212375L495.50550000000004,293.782106205467L495.50550000000004,268.4242394236587L497.23199999999997,273.9768237750448L497.23199999999997,277.4113540459107L498.9585,278.55717142870606L500.685,288.0169387367403L500.685,293.10127690476395L500.685,280.93814708615673L500.685,235.511479293259L500.685,246.26885199245928L502.41150000000005,250.09911675272656L502.41150000000005,254.8675457657473L502.41150000000005,274.2204492581544L504.138,293.3986128623877L505.8645,272.4873658451792L505.8645,273.1022072573516L505.8645,260.4407804930218L507.591,265.66447153830575L507.591,269.5482226797584L509.31750000000005,235.56158074072857L509.31750000000005,213.28584084708606L511.044,207.88804255604217L511.044,253.11134726214087L511.044,286.1596310043792L511.044,254.3260569992339L512.7705000000001,268.43126537934995L512.7705000000001,199.236070934153L512.7705000000001,216.14855593634624L512.7705000000001,228.14102908487905L514.497,237.93363516638155L516.2235000000001,261.8909210748045L516.2235000000001,276.7813324681859L516.2235000000001,243.70248154115325L517.95,218.74393918103962L517.95,214.69711462251533L519.6765,238.0120923971665L521.403,225.99168536994048L521.403,234.65697411258932L521.403,230.17217404580063L523.1295,238.68028196654294L524.856,243.09344864464745L524.856,236.71540775642953L524.856,274.2396831914554L524.856,274.7951877835256L526.5825,229.10337171094784L526.5825,227.68770223341693L526.5825,217.10780414034312L528.3090000000001,209.73699808174004L528.3090000000001,211.61349706681753L528.3090000000001,180.33935583133808L530.0355,183.7261724740226L531.7620000000001,168.09026128470646L531.7620000000001,146.73087033283565L533.4885,163.45579839141283L533.4885,175.83519473308982L533.4885,210.57070721766158L535.215,230.07029508102417L535.215,184.19130004971313L536.9415,190.2932308049743L536.9415,198.0744568545667L538.668,203.57472019428297L538.668,184.14653423448968L538.668,205.75701958549357L540.3945,202.30432352192602L540.3945,196.77045040588024L540.3945,204.29669655120642L540.3945,219.17872288677847L540.3945,228.43546287330247L540.3945,198.89475169248735L540.3945,243.91485852281662L540.3945,255.83301240372901L542.1210000000001,225.50147141318467L542.1210000000001,241.38853390992253L542.1210000000001,236.18556766498426L543.8475,164.91041896813118L543.8475,160.34643772884013L543.8475,182.36298138883004L545.5740000000001,204.77905287138404L547.3005,198.122327696036L547.3005,190.3315835301583L547.3005,192.74557029631768L549.027,181.42342307226093L549.027,178.92299667630334L550.7535,192.15409936686595L550.7535,181.9366979013695L550.7535,208.6433503753432L550.7535,203.5391680316024L550.7535,181.45878676866843L550.7535,198.2282677429637L550.7535,184.6724064313007L552.48,182.67288851515247L552.48,206.664241646384L552.48,172.56694899478842L552.48,179.66905066060602L552.48,160.28470371179327L552.48,190.08864868886798L554.2065,203.7802922559233L554.2065,221.1757688899309L554.2065,196.56035673495947L555.9330000000001,157.60639035628333L555.9330000000001,139.04373342946826L555.9330000000001,158.09608258697784L555.9330000000001,181.4290728920304L557.6595,182.27314541063333L557.6595,133.52775405241024L557.6595,164.31373571391688L557.6595,205.47409500501027L557.6595,224.40729483259597L557.6595,193.09546370680857L557.6595,176.7154695235236L559.3860000000001,192.71473970666784L559.3860000000001,229.60459264907394L561.1125000000001,246.96348858352403L562.8389999999999,211.27516079232626L562.8389999999999,229.51870594194847L562.8389999999999,185.207253228255L564.5655,167.11374021209951L564.5655,189.89977755926645L566.292,173.00967244376298L566.292,219.01232144874066L566.292,214.5268947460755L568.0185,228.9576594459119L568.0185,209.44423182172198L568.0185,217.62723130799904L568.0185,228.28789026032436L569.745,239.13668393189045L569.745,190.55714921411473L569.745,168.18183305416466L571.4715,167.69621187778696L571.4715,189.74681915242905L573.198,200.0787927472557L573.198,193.53199091934945L574.9245000000001,198.73609480490552L574.9245000000001,180.35793820160785L574.9245000000001,161.15141109906526L576.651,137.36790850331124L576.651,185.06328393560491L576.651,184.39288960422184L578.3775,210.1953315408534L578.3775,164.741516856641L578.3775,154.01580836074982L580.104,219.21058746395968L580.104,167.71464669834654L580.104,144.67293627340243L580.104,189.35505685376316L580.104,163.7907806942891L581.8305,140.5187356895227L581.8305,119.87376697218531L581.8305,136.85128960225646L581.8305,156.15192366369766L581.8305,204.40091371970303L581.8305,182.05470114014705L581.8305,170.61562345661017L583.557,181.0734878434973L583.557,130.60166735972388L583.557,132.83541409686458L583.557,155.10033998796501L585.2835,172.63878370469305L585.2835,218.10303683963718L585.2835,210.30846288137013L585.2835,112.74710928399776L585.2835,117.37734367251056L587.01,133.5258370506743L587.01,145.32883993792413L587.01,149.58372783665587L587.01,185.32400894167858L588.7365000000001,206.31077728273172L588.7365000000001,217.41764408112587L590.463,213.67989724732058L590.463,205.50440307770143L592.1895000000001,190.44916131683564L592.1895000000001,156.65345350854625L592.1895000000001,197.88722972841873L593.916,138.72490756971726L593.916,86.74548149861738L593.916,74.22552280877738L595.6425,55.304975397912926L595.6425,55.03657887430688L595.6425,96.41293357641524L597.369,67.9672601153315L597.369,94.98910946427952L599.0955,139.47894770371423L599.0955,154.06206611673542L600.822,180.80988581109347L600.822,143.5543869920272L600.822,162.40761159585105L602.5485000000001,140.80558876232018L602.5485000000001,159.6503900768501L602.5485000000001,156.6297800589885L602.5485000000001,160.70047259624516L604.275,127.3239908712847L604.275,131.28164809332748L604.275,82.33716398111864L606.0015,123.0473110534661L606.0015,72.97901071655224L607.7280000000001,79.95687511889622L607.7280000000001,104.58623787956537L607.7280000000001,124.83759897468752L607.7280000000001,167.84710589360157L607.7280000000001,161.65173048562386L607.7280000000001,135.9921472238695L607.7280000000001,138.22013841671915L609.4544999999999,103.94846126200662L609.4544999999999,114.82307036377142L609.4544999999999,100.63146047387812L611.181,105.3374246394294L611.181,158.3222313186919L612.9075,84.20920945771906L612.9075,139.9475349519752L614.634,77.58924545848981L614.634,76.80859488251576L614.634,69.92836886646012L616.3605,87.31232775450746L616.3605,137.98481906176212L616.3605,109.81882245970132L616.3605,93.36913466234415L616.3605,130.3664026724065L618.087,116.04042952458644L618.087,132.01492734670992L621.5400000000001,160.31172320795275L621.5400000000001,149.67633160085802L621.5400000000001,152.76113438684533L623.2665,156.74272570657L623.2665,195.06088734654935L624.993,195.60866718881343L624.993,197.99003895159373L624.993,186.57988991758717L626.7195,157.3857723141998L626.7195,134.95521731765808L628.446,175.78300664181558L628.446,161.75988005015287L628.446,149.09079321869038L628.446,166.26377997784513L628.446,206.95197907679503L628.446,198.26969513650675L630.1725,206.1465121350046L630.1725,196.32629477032165L630.1725,215.02717716126523" style="fill: none;" fill="none"></path></g></g></g></g><g opacity="0.2"><g><g><g><path stroke="rgb(255, 112, 67)" stroke-width="2px" d="M86.325,142.56113004684448L86.325,199.93448925018313L86.325,243.69713973999023L88.0515,-21.07534217834467L93.23100000000001,-104.84675216674799L94.95750000000001,7.853991508483887L94.95750000000001,63.31856203079229L94.95750000000001,-374.6822004318236L96.68400000000001,126.20349597930908L96.68400000000001,-332.340476989746L98.4105,-336.40218544006336L98.4105,174.55552053451538L98.4105,-198.5902862548827L100.137,143.7437839508057L100.137,-119.72282695770258L101.8635,97.19595623016357L101.8635,-135.69248485565186L103.59,-195.40196228027344L105.3165,26.02513504028326L105.3165,-404.9298219680786L105.3165,24.946972846984863L105.3165,-106.02074432373041L105.3165,-119.30856513977045L107.043,17.667300224304256L107.043,-10.424697875976506L110.49600000000001,-85.3360919952392L110.49600000000001,143.42144680023193L110.49600000000001,-24.539540290832463L113.94900000000001,127.42315006256106L113.94900000000001,-2.280853271484318L113.94900000000001,3.2392330169677734L113.94900000000001,-8.516209602355957L113.94900000000001,-51.42650413513178L113.94900000000001,167.02405643463135L115.67550000000001,182.03316164016726L115.67550000000001,158.40001058578494L115.67550000000001,150.3823370933533L115.67550000000001,120.86685848236084L115.67550000000001,1.6702051162719727L117.40200000000002,139.40650177001953L117.40200000000002,213.8191695213318L117.40200000000002,53.10335826873785L117.40200000000002,171.1716814041138L119.12849999999999,145.34195137023926L119.12849999999999,167.1881790161133L119.12849999999999,290.61006259918213L120.85499999999999,-165.8675079345702L120.85499999999999,26.059982299804688L120.85499999999999,155.40680122375488L122.58149999999999,9.941122055053768L122.58149999999999,192.53880929946902L122.58149999999999,206.77476596832278L124.30799999999999,139.48250484466556L124.30799999999999,-71.92560482025141L124.30799999999999,40.95257949829107L124.30799999999999,-22.76573467254633L124.30799999999999,103.1066222190857L126.0345,99.04921960830688L127.761,204.76193618774414L127.761,-123.19884109497065L127.761,30.80381584167486L127.761,108.58840656280523L127.761,70.82759571075445L129.4875,126.69025611877441L129.4875,104.65897750854492L129.4875,85.7457275390625L131.214,-26.673434257507267L131.214,24.504673004150447L131.214,66.57252502441412L131.214,146.3476152420044L131.214,37.0208473205567L131.214,190.92366886138916L132.94050000000001,73.03699207305914L132.94050000000001,64.75751352310186L132.94050000000001,60.18646430969244L132.94050000000001,15.997936248779297L132.94050000000001,205.0291986465454L134.667,113.43337726593023L134.667,8.904315948486328L134.667,141.97969150543216L134.667,111.84407186508184L136.39350000000002,9.589144706726131L136.39350000000002,102.07827758789062L136.39350000000002,96.71810817718506L138.12,51.498732089996395L138.12,94.04733610153198L139.84650000000002,163.57397747039798L139.84650000000002,226.3109107017517L141.573,107.88405132293707L141.573,39.442331314086914L141.573,210.45445632934573L143.2995,140.4096121788025L143.2995,234.98612594604492L145.026,147.12006282806396L145.026,126.20695066452029L145.026,130.41280460357666L145.026,67.08061408996582L145.026,73.98442697525024L146.7525,263.5930223464966L148.479,146.38396453857425L148.479,196.25549983978271L150.2055,258.8684148788452L150.2055,70.39991569519049L150.2055,156.5285224914551L150.2055,299.30705738067627L150.2055,127.67629337310794L151.93200000000002,204.09362983703616L151.93200000000002,113.39021873474121L153.6585,210.23415756225586L153.6585,202.72181940078735L153.6585,141.47290420532227L153.6585,144.49545335769656L155.38500000000002,230.90939712524414L155.38500000000002,135.48738670349124L155.38500000000002,157.9306240081787L155.38500000000002,195.81450176239014L155.38500000000002,128.56439781188965L157.1115,267.6547808647156L157.1115,188.8637752532959L158.83800000000002,231.11187171936035L158.83800000000002,191.25852298736572L158.83800000000002,271.69120502471924L158.83800000000002,168.80767536163333L158.83800000000002,85.2396912574768L158.83800000000002,99.79257774353027L160.5645,138.68246984481814L162.291,115.70490789413458L164.01749999999998,201.5459246635437L164.01749999999998,67.32604694366455L164.01749999999998,210.86901855468753L164.01749999999998,215.49859714508057L164.01749999999998,226.66904640197754L164.01749999999998,114.80283451080328L164.01749999999998,180.31478118896484L164.01749999999998,275.8830900192261L167.4705,169.09416389465332L167.4705,202.90952396392822L167.4705,215.27544450759888L167.4705,282.4630637168884L167.4705,157.2851486206055L169.197,252.47399282455444L169.197,270.60743522644043L170.9235,164.613787651062L170.9235,124.49377727508548L170.9235,132.77005147933963L170.9235,203.29599809646606L172.65,256.00322914123535L174.37650000000002,319.8948783874512L174.37650000000002,215.09404850006104L174.37650000000002,236.70105171203613L176.103,259.03068494796753L176.103,134.38238811492923L176.103,202.2578401565552L176.103,155.8489007949829L176.103,203.3660430908203L176.103,165.0097246170044L176.103,147.67786931991577L177.82950000000002,188.42247676849368L177.82950000000002,258.81824684143066L177.82950000000002,224.7940034866333L177.82950000000002,162.82511186599731L177.82950000000002,194.89084911346436L177.82950000000002,231.60734367370605L179.556,150.42864990234378L181.28250000000003,115.83193016052246L183.00900000000001,253.29380464553833L183.00900000000001,183.763608455658L183.00900000000001,227.3473162651062L183.00900000000001,233.93930625915527L184.73550000000003,192.594584941864L184.73550000000003,174.60784149169922L186.46200000000002,154.82090663909912L186.46200000000002,164.64683246612552L186.46200000000002,244.47159004211426L186.46200000000002,216.94305610656738L186.46200000000002,157.3987526893616L186.46200000000002,167.2939224243164L188.18850000000003,52.4567813873291L188.18850000000003,153.2472724914551L189.91500000000002,168.16049766540527L189.91500000000002,210.32898616790771L189.91500000000002,120.89459609985357L189.91500000000002,284.9110336303711L191.64150000000004,170.3616828918457L191.64150000000004,94.67363548278809L191.64150000000004,243.24282360076904L193.36800000000002,291.6738052368164L193.36800000000002,209.3829030990601L193.36800000000002,183.436665058136L195.09449999999998,236.0065097808838L195.09449999999998,230.57053756713867L196.821,249.9593324661255L196.821,174.64509201049805L198.54749999999999,286.1548204421997L198.54749999999999,214.25110530853271L200.274,173.66996955871582L200.274,268.78621530532837L202.0005,228.67001008987427L202.0005,247.68685054779053L202.0005,285.2164978981018L202.0005,252.79668045043945L203.727,164.21664905548096L203.727,165.68268728256228L203.727,247.81552505493164L205.4535,222.69515705108643L207.18,245.95930767059326L207.18,262.4285430908203L207.18,246.52357292175293L207.18,197.9485960006714L207.18,240.57320308685303L207.18,220.59596014022827L207.18,260.4695863723755L208.9065,206.43650722503662L208.9065,247.5545210838318L208.9065,251.09687519073486L208.9065,249.32577323913574L210.633,323.0397934913635L212.3595,297.25797843933105L212.3595,288.7506408691406L212.3595,348.1896514892578L212.3595,287.99141120910645L212.3595,327.2145051956177L212.3595,241.13626670837402L212.3595,271.73596572875977L214.086,254.78913259506226L214.086,291.09507036209106L214.086,194.86886930465698L214.086,183.31975650787356L217.53900000000002,211.5606565475464L219.2655,234.01435804367065L219.2655,323.6019058227539L220.99200000000002,213.62570714950562L220.99200000000002,189.2894024848938L220.99200000000002,236.35418128967285L222.7185,225.14788341522217L222.7185,227.8051872253418L222.7185,251.02948379516602L222.7185,288.29772663116455L224.44500000000002,208.0013294219971L224.44500000000002,283.15495204925537L226.1715,212.45917510986328L226.1715,165.16153049468994L226.1715,206.60999250411987L227.89800000000002,201.58988428115845L227.89800000000002,256.9350428581238L227.89800000000002,263.1577320098877L227.89800000000002,280.8929343223572L229.6245,329.94485807418823L229.6245,303.7799234390259L229.6245,163.01531982421875L229.6245,233.27530574798584L229.6245,226.44158792495728L229.6245,231.00632858276367L231.35100000000003,307.51008224487305L231.35100000000003,278.60508155822754L231.35100000000003,273.1454772949219L231.35100000000003,277.945987701416L233.07750000000001,310.2721281051636L233.07750000000001,193.63394451141357L233.07750000000001,314.20606327056885L233.07750000000001,207.7034754753113L234.80400000000003,156.8680830001831L234.80400000000003,230.51150751113892L234.80400000000003,243.5020751953125L236.53050000000002,277.2874946594238L236.53050000000002,264.1600413322449L236.53050000000002,304.2603249549866L236.53050000000002,318.2738800048828L236.53050000000002,279.28410243988037L236.53050000000002,277.7164263725281L238.25699999999998,287.2543616294861L238.25699999999998,205.64633560180664L238.25699999999998,268.5706729888916L238.25699999999998,296.5115661621094L238.25699999999998,256.1161322593689L238.25699999999998,238.21855974197388L239.9835,242.7162594795227L239.9835,336.59883213043213L239.9835,264.24961280822754L239.9835,335.3312129974365L241.70999999999998,315.87192249298096L241.70999999999998,323.7401432991028L241.70999999999998,241.13241147994995L241.70999999999998,256.2596769332886L241.70999999999998,274.1135401725769L241.70999999999998,217.24386405944824L241.70999999999998,188.18395328521729L243.4365,233.3564658164978L243.4365,291.20456886291504L245.16299999999998,266.8611545562744L245.16299999999998,247.52923679351807L245.16299999999998,193.8409252166748L245.16299999999998,233.62437915802002L246.8895,248.29913091659546L246.8895,218.94587230682373L246.8895,291.52455282211304L248.61599999999999,254.58009910583496L250.3425,328.01118564605713L250.3425,262.16488552093506L250.3425,235.0788516998291L250.3425,223.0198473930359L252.069,217.23895740509033L252.069,251.03549194335938L252.069,266.23465490341187L252.069,257.3014397621155L253.7955,233.0051393508911L253.7955,256.9332904815674L255.522,296.9756956100464L255.522,251.32238101959229L255.522,251.97061014175415L255.522,289.6022958755493L257.2485,229.56847858428955L257.2485,254.40155696868896L257.2485,217.38966178894043L257.2485,258.43092155456543L258.975,253.32699966430664L258.975,235.78040313720703L258.975,292.47318935394287L258.975,231.3945050239563L260.7015,266.91442680358887L260.7015,237.61218738555908L262.428,304.3613119125366L262.428,228.71862602233887L264.15450000000004,251.62469100952148L264.15450000000004,244.1133041381836L267.6075,292.25173902511597L267.6075,327.40486335754395L267.6075,272.75194358825684L269.334,235.2781720161438L269.334,224.20740795135498L269.334,263.17881059646606L269.334,209.88318157196045L269.334,219.26740837097168L271.06050000000005,258.03944063186646L271.06050000000005,281.0741300582886L271.06050000000005,275.4660243988037L271.06050000000005,239.08077907562256L271.06050000000005,351.9374842643738L271.06050000000005,248.23859882354736L272.78700000000003,281.18052434921265L272.78700000000003,326.3850803375244L272.78700000000003,351.7700572013855L274.5135,221.7173810005188L274.5135,288.0742735862732L276.24,271.7021198272705L276.24,251.79061603546143L276.24,287.31609535217285L276.24,262.13384342193604L276.24,315.71110439300537L277.96650000000005,228.29915714263916L277.96650000000005,265.98621797561646L277.96650000000005,308.0976791381836L279.69300000000004,186.06618118286136L279.69300000000004,203.24432802200317L279.69300000000004,241.7262668609619L279.69300000000004,290.47047328948975L281.41949999999997,244.47239112854004L281.41949999999997,260.6207914352417L281.41949999999997,318.151864528656L283.146,265.01254749298096L283.146,258.01916313171387L284.8725,273.67078971862793L284.8725,308.3641405105591L284.8725,252.19987106323242L284.8725,286.1954255104065L284.8725,297.5261421203613L286.599,269.1218705177307L286.599,318.69695377349854L286.599,336.46805477142334L286.599,262.8787536621094L286.599,283.32898807525635L288.3255,287.30457973480225L288.3255,262.32079696655273L288.3255,306.2701005935669L290.052,269.5939607620239L290.052,285.0400586128235L290.052,304.1292972564697L291.7785,346.43602323532104L291.7785,302.99045276641846L293.505,214.43455410003662L293.505,281.93319511413574L293.505,260.3281946182251L293.505,269.7451157569885L293.505,334.3048210144043L295.2315,231.95776891708374L295.2315,271.41282749176025L295.2315,303.219162940979L295.2315,278.59046173095703L296.958,279.56593465805054L296.958,295.13384771347046L296.958,257.8110308647156L296.958,332.2729654312134L296.958,262.5200672149658L298.6845,283.2732124328613L298.6845,265.7538528442383L298.6845,261.6346163749695L298.6845,274.76827812194824L300.411,221.72363948822021L300.411,328.99431896209717L300.411,248.2373971939087L300.411,255.6051893234253L300.411,323.7893600463867L300.411,271.0943956375122L300.411,284.1248173713684L302.1375,264.15944051742554L302.1375,244.56156206130981L305.5905,249.3662281036377L305.5905,238.28149509429932L305.5905,287.2151584625244L305.5905,270.9913558959961L307.317,265.63268852233887L307.317,278.9446921348572L309.0435,293.1729383468628L309.0435,267.64091205596924L309.0435,279.3853397369385L310.77000000000004,289.0863461494446L310.77000000000004,288.7995572090149L312.4965,294.5616216659546L312.4965,288.96162700653076L314.223,266.50907707214355L314.223,242.93791007995605L314.223,340.1576085090637L315.9495,268.5919518470764L315.9495,306.3329858779907L317.67600000000004,303.0856318473816L317.67600000000004,275.2035183906555L317.67600000000004,270.47590684890747L317.67600000000004,278.7158317565918L319.40250000000003,262.1614809036255L319.40250000000003,300.85986328125L319.40250000000003,327.12207984924316L319.40250000000003,312.6726837158203L321.129,286.1398000717163L322.8555,267.98618030548096L322.8555,300.8714790344238L322.8555,285.6243510246277L322.8555,308.17298126220703L322.8555,242.05316019058228L322.8555,277.5781888961792L322.8555,278.21755599975586L324.582,258.96579694747925L324.582,259.35207080841064L324.582,329.5292444229126L324.582,274.14122772216797L328.03499999999997,272.2346920967102L328.03499999999997,318.0417652130127L328.03499999999997,305.10091495513916L331.488,290.5978960990906L331.488,328.07096672058105L333.2145,286.4907760620117L333.2145,293.5421390533447L333.2145,313.4660596847534L334.941,319.28785514831543L334.941,330.4419322013855L334.941,275.7789487838745L334.941,268.23181343078613L336.6675,291.5734190940857L336.6675,319.9662752151489L336.6675,277.3175354003906L336.6675,234.5577449798584L338.394,323.6169261932373L340.1205,320.98916244506836L340.1205,242.12951374053955L341.847,246.0377640724182L341.847,243.91728830337524L341.847,305.6076021194458L343.5735,260.73769998550415L343.5735,315.64376306533813L343.5735,287.917911529541L345.3,324.76007652282715L345.3,304.904748916626L347.0265,279.52793312072754L347.0265,313.7295169830322L347.0265,309.01231956481934L347.0265,281.75555419921875L347.0265,298.1575984954834L347.0265,323.0428977012634L348.75300000000004,314.4220061302185L348.75300000000004,341.52431201934814L348.75300000000004,302.4247856140137L348.75300000000004,303.81872606277466L350.4795,303.1427593231201L350.4795,338.98031187057495L352.206,303.9754385948181L353.9325,299.8200030326843L353.9325,308.75602197647095L355.65900000000005,232.95577239990234L355.65900000000005,275.7895131111145L355.65900000000005,323.157603263855L355.65900000000005,253.41186475753784L357.3855,308.9837808609009L357.3855,248.01129055023193L357.3855,311.92146492004395L357.3855,306.94296312332153L359.112,283.85590267181396L359.112,331.36192989349365L359.112,293.6409730911255L359.112,267.97826957702637L360.8385,280.47381591796875L360.8385,280.89774084091187L360.8385,297.04528999328613L360.8385,274.97966480255127L360.8385,321.5002555847168L362.56500000000005,330.17787408828735L362.56500000000005,306.8428773880005L362.56500000000005,221.44631338119507L362.56500000000005,284.96690940856934L364.2915,262.8363962173462L364.2915,343.1925745010376L364.2915,256.4693613052368L366.01800000000003,285.9979076385498L366.01800000000003,259.9772686958313L367.7445,270.3928442001343L367.7445,313.1964440345764L367.7445,318.2707257270813L367.7445,301.4062042236328L367.7445,285.0079650878906L369.47100000000006,257.052752494812L369.47100000000006,266.9645447731018L369.47100000000006,294.30727672576904L371.1975,274.1242046356201L371.1975,299.23886489868164L372.92400000000004,298.9262409210205L372.92400000000004,284.81229972839355L372.92400000000004,305.7604093551636L372.92400000000004,317.602068901062L372.92400000000004,294.239134311676L372.92400000000004,320.6893558502197L372.92400000000004,338.41809940338135L372.92400000000004,316.511239528656L372.92400000000004,350.7870740890503L372.92400000000004,307.3561735153198L374.6505,287.9254217147827L374.6505,290.66934299468994L376.37700000000007,334.22986936569214L376.37700000000007,296.3950080871582L376.37700000000007,272.8631944656372L376.37700000000007,299.5489854812622L376.37700000000007,313.1234951019287L378.1035,336.8104190826416L378.1035,345.26959133148193L378.1035,326.30387020111084L381.5565,307.1607084274292L381.5565,324.8416872024536L381.5565,314.1430778503418L381.5565,324.28413105010986L383.2830000000001,315.14123153686523L383.2830000000001,308.2666082382202L383.2830000000001,328.7711663246155L385.0095,324.02558040618896L385.0095,290.5917377471924L385.0095,312.5215287208557L385.0095,327.7326579093933L386.73600000000005,302.17504692077637L386.73600000000005,311.7962951660156L386.73600000000005,306.2811155319214L388.46250000000003,281.6337890625L388.46250000000003,258.45320177078247L390.18899999999996,396.75040912628174L390.18899999999996,351.9301242828369L390.18899999999996,313.8589925765991L391.9155,347.0474524497986L391.9155,319.1135187149048L391.9155,309.6721143722534L393.642,267.9356617927551L393.642,312.1984405517578L393.642,312.1966881752014L393.642,291.9924373626709L395.36850000000004,268.1136031150818L395.36850000000004,288.036171913147L395.36850000000004,293.2017774581909L395.36850000000004,286.56863164901733L397.09499999999997,318.36240005493164L397.09499999999997,298.04865074157715L397.09499999999997,315.11309337615967L398.8215,332.9043216705322L398.8215,294.56272315979004L398.8215,279.9959177970886L398.8215,275.90456914901733L400.548,280.87245655059814L400.548,301.85886812210083L400.548,257.4235053062439L400.548,320.6636209487915L400.548,256.30904388427734L402.27450000000005,243.3818120956421L402.27450000000005,319.92792320251465L402.27450000000005,220.91934871673584L402.27450000000005,230.15677642822266L404.001,306.34410095214844L405.7275,260.65018129348755L405.7275,307.92244148254395L405.7275,335.769006729126L405.7275,275.4724831581116L405.7275,287.7721138000488L407.454,293.59886598587036L407.454,323.09556913375854L409.18050000000005,295.0517864227295L410.907,289.94456005096436L410.907,308.27301692962646L410.907,336.7839832305908L412.6335,276.1758871078491L412.6335,266.2636442184448L412.6335,251.23471212387085L412.6335,276.28924083709717L414.36,278.7000102996826L414.36,294.7415657043457L416.08650000000006,285.97918224334717L416.08650000000006,282.81679344177246L416.08650000000006,322.0492000579834L416.08650000000006,352.5342435836792L417.813,252.79607963562012L421.266,271.31649684906006L421.266,318.31568670272827L421.266,323.6196298599243L424.719,314.15429306030273L424.719,369.73937702178955L424.719,261.3262481689453L426.44550000000004,261.308123588562L426.44550000000004,301.9935507774353L426.44550000000004,350.67241859436035L428.172,246.9826455116272L428.172,207.15077590942383L428.172,281.558687210083L428.172,275.06968688964844L429.89850000000007,267.81374645233154L429.89850000000007,288.0291123390198L429.89850000000007,239.73456573486328L429.89850000000007,293.37746572494507L429.89850000000007,274.5971460342407L429.89850000000007,259.5047779083252L431.625,282.2307987213135L431.625,319.7009153366089L431.625,224.95382022857666L431.625,250.51558685302734L431.625,217.51252841949463L433.3515,280.62051486968994L433.3515,208.80371761322021L435.07800000000003,271.0262532234192L436.80449999999996,342.90067863464355L436.80449999999996,295.71178150177L436.80449999999996,246.64774131774902L438.531,200.51637840270996L438.531,287.4315519332886L438.531,284.57487773895264L438.531,287.40491580963135L438.531,325.1864547729492L438.531,253.11851692199707L438.531,254.974534034729L438.531,306.3082523345947L440.2575,253.75347805023193L441.98400000000004,335.0955934524536L441.98400000000004,248.74158096313477L441.98400000000004,315.9442205429077L443.71049999999997,275.3448600769043L445.437,261.8929166793823L445.437,235.41530799865723L447.1635,306.2290449142456L447.1635,250.2987928390503L447.1635,276.607572555542L448.89000000000004,203.41911506652832L448.89000000000004,306.48288917541504L448.89000000000004,244.83137798309326L450.6165,226.50196981430054L450.6165,287.24319648742676L452.343,255.11752796173096L452.343,298.4965581893921L452.343,194.15965747833255L452.343,185.46030950546265L454.0695,272.9196710586548L454.0695,233.6322898864746L454.0695,298.4838409423828L455.79600000000005,229.71667957305908L455.79600000000005,240.12013864517212L457.5225,301.28428888320923L457.5225,249.6181697845459L459.249,210.8199520111084L459.249,219.05647230148315L459.249,278.1836099624634L460.9755,227.54518461227417L460.9755,222.10355472564697L462.70200000000006,275.49841833114624L462.70200000000006,232.28916835784912L462.70200000000006,272.8004593849182L464.4285,258.9553327560425L464.4285,335.8256335258484L464.4285,306.49951171875L466.15500000000003,321.36957836151123L467.8815,235.2887363433838L467.8815,321.9017000198364L467.8815,233.88493251800537L467.8815,242.7710337638855L467.8815,237.04101276397705L469.60800000000006,308.7287349700928L469.60800000000006,281.61766719818115L469.60800000000006,317.4872131347656L469.60800000000006,227.1833939552307L471.3345,264.99487352371216L473.06100000000004,262.02074003219604L473.06100000000004,236.4605255126953L473.06100000000004,200.7061858177185L473.06100000000004,228.97562456130981L473.06100000000004,241.47542667388916L473.06100000000004,269.539587020874L474.7875,253.16087436676025L474.7875,274.25863695144653L476.51399999999995,265.54116439819336L476.51399999999995,243.04790925979614L476.51399999999995,208.0463905334473L476.51399999999995,254.3110842704773L476.51399999999995,203.88689947128296L478.2405,176.5925831794739L478.2405,263.8721008300781L479.967,319.50504970550537L479.967,189.13724613189697L479.967,256.14507150650024L479.967,210.96294593811035L479.967,210.00634860992432L481.69350000000003,223.5578269958496L481.69350000000003,260.9495372772217L481.69350000000003,271.0625023841858L481.69350000000003,260.0139684677124L481.69350000000003,323.43628120422363L481.69350000000003,216.46145296096802L485.1465,238.0533857345581L486.873,189.00231313705444L486.873,188.8488049507141L486.873,267.73023319244385L486.873,279.4105739593506L486.873,289.8439235687256L486.873,270.0509305000305L488.59950000000003,227.93446254730225L488.59950000000003,148.9379782676697L488.59950000000003,104.48744487762457L488.59950000000003,127.50175666809082L488.59950000000003,218.2982439994812L490.32599999999996,260.196816444397L492.0525,194.54297733306885L492.0525,248.88898086547852L492.0525,274.73167848587036L492.0525,309.9101371765137L492.0525,205.21835517883304L492.0525,308.43824100494385L493.779,263.55447006225586L493.779,228.70741081237793L493.779,211.21714067459106L495.50550000000004,253.09588623046875L495.50550000000004,290.9432144165039L495.50550000000004,312.1123237609863L495.50550000000004,294.967472076416L495.50550000000004,302.13779640197754L495.50550000000004,294.7001094818115L495.50550000000004,230.38743925094604L497.23199999999997,282.305700302124L497.23199999999997,282.5631494522095L498.9585,280.27589750289917L500.685,302.2065896987915L500.685,300.7277841567993L500.685,262.69345235824585L500.685,167.37147760391235L500.685,262.40491104125977L502.41150000000005,255.84451389312744L502.41150000000005,262.0201892852783L502.41150000000005,303.24980449676514L504.138,322.1658582687378L505.8645,241.12049531936646L505.8645,274.02446937561035L505.8645,241.4486403465271L507.591,273.5000081062317L507.591,275.37384939193726L509.31750000000005,184.58161783218384L509.31750000000005,179.87223100662231L511.044,199.79134511947632L511.044,320.94630432128906L511.044,335.7320566177368L511.044,206.5756959915161L512.7705000000001,289.5890779495239L512.7705000000001,95.44327926635742L512.7705000000001,241.51728343963623L512.7705000000001,246.12973880767822L514.497,252.62254428863525L516.2235000000001,297.82684993743896L516.2235000000001,299.11694955825806L516.2235000000001,194.08420515060428L517.95,181.30612564086914L517.95,208.626877784729L519.6765,272.98455905914307L521.403,207.96107482910156L521.403,247.6549072265625L521.403,223.44497394561768L523.1295,251.44244384765625L524.856,249.7131986618042L524.856,227.14834642410278L524.856,330.52609634399414L524.856,275.62844467163086L526.5825,160.56564760208133L526.5825,225.56419801712036L526.5825,201.23795700073242L528.3090000000001,198.68078899383545L528.3090000000001,214.4282455444336L528.3090000000001,133.4281439781189L530.0355,188.80639743804934L531.7620000000001,144.63639450073242L531.7620000000001,114.6917839050293L533.4885,188.5431904792786L533.4885,194.40428924560547L533.4885,262.67397594451904L535.215,259.3196768760681L535.215,115.37280750274664L536.9415,199.4461269378662L536.9415,209.74629592895508L538.668,211.82511520385742L538.668,155.00425529479983L538.668,238.1727476119995L540.3945,197.1252794265747L540.3945,188.46964073181152L540.3945,215.58606576919556L540.3945,241.50176239013672L540.3945,242.32057285308838L540.3945,154.58368492126468L540.3945,311.44501876831055L540.3945,273.71024322509766L542.1210000000001,180.0041599273682L542.1210000000001,265.2191276550293L542.1210000000001,228.3811182975769L543.8475,57.99769592285156L543.8475,153.5004658699036L543.8475,215.3877968788147L545.5740000000001,238.40316009521484L547.3005,188.13723993301394L547.3005,178.64546728134158L547.3005,196.36655044555667L549.027,164.44020223617554L549.027,175.17235708236694L550.7535,212.00075340270996L550.7535,166.61059570312503L550.7535,248.7033290863037L550.7535,195.8828945159912L550.7535,148.3382148742676L550.7535,223.38248920440674L550.7535,164.33861446380618L552.48,179.67361164093018L552.48,242.6512713432312L552.48,121.42101001739502L552.48,190.32220315933228L552.48,131.20818328857425L552.48,234.79456615447998L554.2065,224.31775760650635L554.2065,247.26898384094238L554.2065,159.63723850250244L555.9330000000001,99.17544078826904L555.9330000000001,111.19974803924566L555.9330000000001,186.6746063232422L555.9330000000001,216.42855834960938L557.6595,183.5392541885376L557.6595,60.409667015075684L557.6595,210.49270820617676L557.6595,267.2146339416504L557.6595,252.8070945739746L557.6595,146.12771701812744L557.6595,152.14547824859622L559.3860000000001,216.71364498138428L559.3860000000001,284.9393720626831L561.1125000000001,273.001832485199L562.8389999999999,157.74266910552979L562.8389999999999,256.88402366638184L562.8389999999999,118.74007415771484L564.5655,139.97347068786624L564.5655,224.0788335800171L566.292,147.67451477050784L566.292,288.0162949562073L566.292,207.79875469207764L568.0185,250.6038064956665L568.0185,180.174090385437L568.0185,229.90173053741455L568.0185,244.27887868881226L569.745,255.4098744392395L569.745,117.68784713745117L569.745,134.61885881423953L571.4715,166.96778011322021L571.4715,222.8227300643921L573.198,215.57675313949585L573.198,183.71178817749026L574.9245000000001,206.54225063323977L574.9245000000001,152.7907032966614L574.9245000000001,132.3416204452515L576.651,101.69265460968023L576.651,256.6063470840454L576.651,183.38729810714725L578.3775,248.89899444580078L578.3775,96.56079483032227L578.3775,137.92724561691287L580.104,317.0027561187744L580.104,90.47073554992681L580.104,110.11037063598633L580.104,256.3782377243042L580.104,125.44436645507812L581.8305,105.61066818237305L581.8305,88.9063138961792L581.8305,162.3175735473633L581.8305,185.10287475585938L581.8305,276.77439880371094L581.8305,148.535382270813L581.8305,153.45700693130493L583.557,196.76028442382812L583.557,54.89393663406378L583.557,136.18603420257568L583.557,188.4977288246155L585.2835,198.94644927978516L585.2835,286.2994165420532L585.2835,198.61660194396973L585.2835,-33.59492111206049L585.2835,124.32269525527954L587.01,157.74857711791992L587.01,163.03334426879883L587.01,155.96605968475342L587.01,238.93443059921265L588.7365000000001,237.79092979431152L588.7365000000001,234.07794427871704L590.463,208.07327699661255L590.463,193.2411618232727L592.1895000000001,167.8662986755371L592.1895000000001,105.95989179611206L592.1895000000001,259.73789405822754L593.916,49.981424331665096L593.916,8.776342391967773L593.916,55.44558477401739L595.6425,26.924154281616268L595.6425,54.63398408889776L595.6425,158.47746562957767L597.369,25.29874992370611L597.369,135.52188348770144L599.0955,206.2137050628662L599.0955,175.9367437362671L600.822,220.93161535263062L600.822,87.67113876342773L600.822,190.6874485015869L602.5485000000001,108.40255451202393L602.5485000000001,187.91759204864502L602.5485000000001,152.09886503219604L602.5485000000001,166.80651140213016L604.275,77.25926828384405L604.275,137.21813392639163L604.275,8.920437812805233L606.0015,184.1125316619873L606.0015,-2.1234397888183025L607.7280000000001,90.42367172241211L607.7280000000001,141.53028202056885L607.7280000000001,155.21464061737063L607.7280000000001,232.36136627197266L607.7280000000001,152.35866737365725L607.7280000000001,97.5027723312378L607.7280000000001,141.56212520599365L609.4544999999999,52.5409455299378L609.4544999999999,131.13498401641846L609.4544999999999,79.34404563903809L611.181,112.39637088775635L611.181,237.79944133758545L612.9075,-26.960323333740178L612.9075,223.55502319335938L614.634,-15.948188781738224L614.634,75.63761901855469L614.634,59.60802984237671L616.3605,113.38826608657837L616.3605,213.99355602264404L616.3605,67.56982755661011L616.3605,68.6946029663086L616.3605,185.8623046875L618.087,94.5514698028565L618.087,155.97667407989505L621.5400000000001,202.7569169998169L621.5400000000001,133.7232441902161L621.5400000000001,157.38833856582644L623.2665,162.71511268615725L623.2665,252.53812980651855L624.993,196.43033695220947L624.993,201.5620965957642L624.993,169.46466636657718L626.7195,113.59459590911865L626.7195,101.30938482284546L628.446,237.02469062805176L628.446,140.72519016265872L628.446,130.0871629714966L628.446,192.02326011657715L628.446,267.9842777252197L628.446,185.24626922607422L630.1725,217.96173763275146L630.1725,181.59596872329712L630.1725,243.07850074768066" style="fill: none;" fill="none"></path></g></g></g></g></g><g><g opacity="0.181837"><span fill="rgb(0, 0, 0)" stroke="none" stroke-width="1px">Alt + Scroll to Zoom</span></g></g></g><g transform="translate(40, 378)" clip-path="url(#clip_1)"><clipPath id="clip_1"><rect width="690" height="22"></rect></clipPath><g><g><line x1="0" y1="0" x2="0" y2="5" style="visibility: inherit;" fill="rgb(0, 0, 0)" stroke="rgb(204, 204, 204)" stroke-width="1px"></line><line x1="86.325" y1="0" x2="86.325" y2="5" style="visibility: inherit;" fill="rgb(0, 0, 0)" stroke="rgb(204, 204, 204)" stroke-width="1px"></line><line x1="172.65" y1="0" x2="172.65" y2="5" style="visibility: inherit;" fill="rgb(0, 0, 0)" stroke="rgb(204, 204, 204)" stroke-width="1px"></line><line x1="258.975" y1="0" x2="258.975" y2="5" style="visibility: inherit;" fill="rgb(0, 0, 0)" stroke="rgb(204, 204, 204)" stroke-width="1px"></line><line x1="345.3" y1="0" x2="345.3" y2="5" style="visibility: inherit;" fill="rgb(0, 0, 0)" stroke="rgb(204, 204, 204)" stroke-width="1px"></line><line x1="431.625" y1="0" x2="431.625" y2="5" style="visibility: inherit;" fill="rgb(0, 0, 0)" stroke="rgb(204, 204, 204)" stroke-width="1px"></line><line x1="517.95" y1="0" x2="517.95" y2="5" style="visibility: inherit;" fill="rgb(0, 0, 0)" stroke="rgb(204, 204, 204)" stroke-width="1px"></line><line x1="604.275" y1="0" x2="604.275" y2="5" style="visibility: inherit;" fill="rgb(0, 0, 0)" stroke="rgb(204, 204, 204)" stroke-width="1px"></line><line x1="690.6" y1="0" x2="690.6" y2="5" style="visibility: inherit;" fill="rgb(0, 0, 0)" stroke="rgb(204, 204, 204)" stroke-width="1px"></line></g><g transform="translate(0, 8)"><text x="0" y="0" dx="0em" dy="0.95em" style="text-anchor: middle; visibility: hidden; font-family: &quot;Helvetica Neue&quot;, sans-serif; font-size: 12px; font-weight: 200;" fill="rgb(50, 49, 63)" stroke="none" stroke-width="1px">-50</text><text x="86.325" y="0" dx="0em" dy="0.95em" style="text-anchor: middle; visibility: inherit; font-family: &quot;Helvetica Neue&quot;, sans-serif; font-size: 12px; font-weight: 200;" fill="rgb(50, 49, 63)" stroke="none" stroke-width="1px">0</text><text x="172.65" y="0" dx="0em" dy="0.95em" style="text-anchor: middle; visibility: inherit; font-family: &quot;Helvetica Neue&quot;, sans-serif; font-size: 12px; font-weight: 200;" fill="rgb(50, 49, 63)" stroke="none" stroke-width="1px">50</text><text x="258.975" y="0" dx="0em" dy="0.95em" style="text-anchor: middle; visibility: inherit; font-family: &quot;Helvetica Neue&quot;, sans-serif; font-size: 12px; font-weight: 200;" fill="rgb(50, 49, 63)" stroke="none" stroke-width="1px">100</text><text x="345.3" y="0" dx="0em" dy="0.95em" style="text-anchor: middle; visibility: inherit; font-family: &quot;Helvetica Neue&quot;, sans-serif; font-size: 12px; font-weight: 200;" fill="rgb(50, 49, 63)" stroke="none" stroke-width="1px">150</text><text x="431.625" y="0" dx="0em" dy="0.95em" style="text-anchor: middle; visibility: inherit; font-family: &quot;Helvetica Neue&quot;, sans-serif; font-size: 12px; font-weight: 200;" fill="rgb(50, 49, 63)" stroke="none" stroke-width="1px">200</text><text x="517.95" y="0" dx="0em" dy="0.95em" style="text-anchor: middle; visibility: inherit; font-family: &quot;Helvetica Neue&quot;, sans-serif; font-size: 12px; font-weight: 200;" fill="rgb(50, 49, 63)" stroke="none" stroke-width="1px">250</text><text x="604.275" y="0" dx="0em" dy="0.95em" style="text-anchor: middle; visibility: inherit; font-family: &quot;Helvetica Neue&quot;, sans-serif; font-size: 12px; font-weight: 200;" fill="rgb(50, 49, 63)" stroke="none" stroke-width="1px">300</text><text x="690.6" y="0" dx="0em" dy="0.95em" style="text-anchor: middle; visibility: hidden; font-family: &quot;Helvetica Neue&quot;, sans-serif; font-size: 12px; font-weight: 200;" fill="rgb(50, 49, 63)" stroke="none" stroke-width="1px">350</text></g><line x1="0" y1="0" x2="690.6" y2="0" fill="rgb(0, 0, 0)" stroke="rgb(204, 204, 204)" stroke-width="1px"></line></g></g></g></g></svg>