<svg viewBox="0 0 730.6000366210938 400" xmlns="http://www.w3.org/2000/svg"><g><g><g><g><g><line x1="60" y1="378" x2="55" y2="378" style="visibility: inherit;" fill="rgb(0, 0, 0)" stroke="rgb(204, 204, 204)" stroke-width="1px"></line><line x1="60" y1="330.75" x2="55" y2="330.75" style="visibility: inherit;" fill="rgb(0, 0, 0)" stroke="rgb(204, 204, 204)" stroke-width="1px"></line><line x1="60" y1="283.5" x2="55" y2="283.5" style="visibility: inherit;" fill="rgb(0, 0, 0)" stroke="rgb(204, 204, 204)" stroke-width="1px"></line><line x1="60" y1="236.24999999999997" x2="55" y2="236.24999999999997" style="visibility: inherit;" fill="rgb(0, 0, 0)" stroke="rgb(204, 204, 204)" stroke-width="1px"></line><line x1="60" y1="188.99999999999997" x2="55" y2="188.99999999999997" style="visibility: inherit;" fill="rgb(0, 0, 0)" stroke="rgb(204, 204, 204)" stroke-width="1px"></line><line x1="60" y1="141.75" x2="55" y2="141.75" style="visibility: inherit;" fill="rgb(0, 0, 0)" stroke="rgb(204, 204, 204)" stroke-width="1px"></line><line x1="60" y1="94.5" x2="55" y2="94.5" style="visibility: inherit;" fill="rgb(0, 0, 0)" stroke="rgb(204, 204, 204)" stroke-width="1px"></line><line x1="60" y1="47.25" x2="55" y2="47.25" style="visibility: inherit;" fill="rgb(0, 0, 0)" stroke="rgb(204, 204, 204)" stroke-width="1px"></line><line x1="60" y1="0" x2="55" y2="0" style="visibility: inherit;" fill="rgb(0, 0, 0)" stroke="rgb(204, 204, 204)" stroke-width="1px"></line></g><g transform="translate(50, 0)"><text x="0" y="378" dx="0em" dy="0.3em" style="text-anchor: end; visibility: hidden; font-family: &quot;Helvetica Neue&quot;, sans-serif; font-size: 12px; font-weight: 200;" fill="rgb(50, 49, 63)" stroke="none" stroke-width="1px">-0.05</text><text x="0" y="330.75" dx="0em" dy="0.3em" style="text-anchor: end; visibility: inherit; font-family: &quot;Helvetica Neue&quot;, sans-serif; font-size: 12px; font-weight: 200;" fill="rgb(50, 49, 63)" stroke="none" stroke-width="1px">0</text><text x="0" y="283.5" dx="0em" dy="0.3em" style="text-anchor: end; visibility: inherit; font-family: &quot;Helvetica Neue&quot;, sans-serif; font-size: 12px; font-weight: 200;" fill="rgb(50, 49, 63)" stroke="none" stroke-width="1px">0.05</text><text x="0" y="236.24999999999997" dx="0em" dy="0.3em" style="text-anchor: end; visibility: inherit; font-family: &quot;Helvetica Neue&quot;, sans-serif; font-size: 12px; font-weight: 200;" fill="rgb(50, 49, 63)" stroke="none" stroke-width="1px">0.1</text><text x="0" y="188.99999999999997" dx="0em" dy="0.3em" style="text-anchor: end; visibility: inherit; font-family: &quot;Helvetica Neue&quot;, sans-serif; font-size: 12px; font-weight: 200;" fill="rgb(50, 49, 63)" stroke="none" stroke-width="1px">0.15</text><text x="0" y="141.75" dx="0em" dy="0.3em" style="text-anchor: end; visibility: inherit; font-family: &quot;Helvetica Neue&quot;, sans-serif; font-size: 12px; font-weight: 200;" fill="rgb(50, 49, 63)" stroke="none" stroke-width="1px">0.2</text><text x="0" y="94.5" dx="0em" dy="0.3em" style="text-anchor: end; visibility: inherit; font-family: &quot;Helvetica Neue&quot;, sans-serif; font-size: 12px; font-weight: 200;" fill="rgb(50, 49, 63)" stroke="none" stroke-width="1px">0.25</text><text x="0" y="47.25" dx="0em" dy="0.3em" style="text-anchor: end; visibility: inherit; font-family: &quot;Helvetica Neue&quot;, sans-serif; font-size: 12px; font-weight: 200;" fill="rgb(50, 49, 63)" stroke="none" stroke-width="1px">0.3</text><text x="0" y="0" dx="0em" dy="0.3em" style="text-anchor: end; visibility: hidden; font-family: &quot;Helvetica Neue&quot;, sans-serif; font-size: 12px; font-weight: 200;" fill="rgb(50, 49, 63)" stroke="none" stroke-width="1px">0.35</text></g><line x1="60" y1="0" x2="60" y2="378" fill="rgb(0, 0, 0)" stroke="rgb(204, 204, 204)" stroke-width="1px"></line></g></g><g transform="translate(60, 0)" clip-path="url(#clip_0)"><clipPath id="clip_0"><rect width="670" height="378"></rect></clipPath><g><g><g><line x1="0" y1="0" x2="0" y2="378" fill="rgb(0, 0, 0)" stroke="rgb(60, 60, 60)" stroke-width="1px" opacity="0.25"></line><line x1="83.825" y1="0" x2="83.825" y2="378" fill="rgb(0, 0, 0)" stroke="rgb(60, 60, 60)" stroke-width="1px" opacity="0.25"></line><line x1="167.65" y1="0" x2="167.65" y2="378" fill="rgb(0, 0, 0)" stroke="rgb(60, 60, 60)" stroke-width="1px" opacity="0.25"></line><line x1="251.47500000000002" y1="0" x2="251.47500000000002" y2="378" fill="rgb(0, 0, 0)" stroke="rgb(60, 60, 60)" stroke-width="1px" opacity="0.25"></line><line x1="335.3" y1="0" x2="335.3" y2="378" fill="rgb(0, 0, 0)" stroke="rgb(60, 60, 60)" stroke-width="1px" opacity="0.25"></line><line x1="419.125" y1="0" x2="419.125" y2="378" fill="rgb(0, 0, 0)" stroke="rgb(60, 60, 60)" stroke-width="1px" opacity="0.25"></line><line x1="502.95000000000005" y1="0" x2="502.95000000000005" y2="378" fill="rgb(0, 0, 0)" stroke="rgb(60, 60, 60)" stroke-width="1px" opacity="0.25"></line><line x1="586.775" y1="0" x2="586.775" y2="378" fill="rgb(0, 0, 0)" stroke="rgb(60, 60, 60)" stroke-width="1px" opacity="0.25"></line><line x1="670.6" y1="0" x2="670.6" y2="378" fill="rgb(0, 0, 0)" stroke="rgb(60, 60, 60)" stroke-width="1px" opacity="0.25"></line></g><g><line x1="0" y1="378" x2="670.6" y2="378" fill="rgb(0, 0, 0)" stroke="rgb(60, 60, 60)" stroke-width="1px" opacity="0.25"></line><line x1="0" y1="330.75" x2="670.6" y2="330.75" fill="rgb(0, 0, 0)" stroke="rgb(60, 60, 60)" stroke-width="1px" opacity="0.25"></line><line x1="0" y1="283.5" x2="670.6" y2="283.5" fill="rgb(0, 0, 0)" stroke="rgb(60, 60, 60)" stroke-width="1px" opacity="0.25"></line><line x1="0" y1="236.24999999999997" x2="670.6" y2="236.24999999999997" fill="rgb(0, 0, 0)" stroke="rgb(60, 60, 60)" stroke-width="1px" opacity="0.25"></line><line x1="0" y1="188.99999999999997" x2="670.6" y2="188.99999999999997" fill="rgb(0, 0, 0)" stroke="rgb(60, 60, 60)" stroke-width="1px" opacity="0.25"></line><line x1="0" y1="141.75" x2="670.6" y2="141.75" fill="rgb(0, 0, 0)" stroke="rgb(60, 60, 60)" stroke-width="1px" opacity="0.25"></line><line x1="0" y1="94.5" x2="670.6" y2="94.5" fill="rgb(0, 0, 0)" stroke="rgb(60, 60, 60)" stroke-width="1px" opacity="0.25"></line><line x1="0" y1="47.25" x2="670.6" y2="47.25" fill="rgb(0, 0, 0)" stroke="rgb(60, 60, 60)" stroke-width="1px" opacity="0.25"></line><line x1="0" y1="0" x2="670.6" y2="0" fill="rgb(0, 0, 0)" stroke="rgb(60, 60, 60)" stroke-width="1px" opacity="0.25"></line></g></g></g><g><g><line x1="0" y1="330.75" x2="670.6" y2="330.75" fill="rgb(0, 0, 0)" stroke="rgb(153, 153, 153)" stroke-width="1.5px"></line></g></g><g><g><line x1="83.825" y1="0" x2="83.825" y2="378" fill="rgb(0, 0, 0)" stroke="rgb(153, 153, 153)" stroke-width="1.5px"></line></g></g><g><g><g><g><g><path stroke="rgb(255, 112, 67)" stroke-width="2px" d="M83.825,210.4471119940281L83.825,267.17938574776053L83.825,284.54640832543373L85.50150000000001,292.2083300508778L85.50150000000001,285.2282131242047L85.50150000000001,215.55115786555425L87.17800000000001,107.28582758655324L87.17800000000001,186.18418600364268L87.17800000000001,232.6664456846438L87.17800000000001,260.2541798899764L88.8545,276.6996716940959L90.531,285.7060889017664L92.20750000000001,291.91926818440754L92.20750000000001,295.6419781812152L92.20750000000001,217.0546705746713L93.88400000000001,250.72980246962516L93.88400000000001,270.87141109048014L95.56049999999999,260.1366164600193L95.56049999999999,260.38147765074666L95.56049999999999,249.7612835093369L95.56049999999999,28.51641611759669L97.237,86.19373345491891L97.237,93.0505216837031L98.9135,176.31820756427072L98.9135,-49.563248127399675L98.9135,58.52587568706599L100.59,13.55709686406766L100.59,115.89994267641435L102.26650000000001,121.54675604752646L102.26650000000001,71.54781171911151L102.26650000000001,-15.130074689978642L103.943,-117.65941387231499L103.943,20.803780088003975L105.6195,33.10157038091819L105.6195,83.30312572385463L107.296,153.4381343374111L107.296,155.42678700827298L107.296,168.47937034291053L110.64900000000002,214.27922136118963L110.64900000000002,-93.81397301163412L112.3255,-100.66692057858234L112.3255,17.377175776102945L112.3255,14.057929139073906L112.3255,-3.376579939964813L114.00200000000001,22.87098301677986L114.00200000000001,57.16082758449983L114.00200000000001,32.38627943241073L114.00200000000001,101.57610327512481L115.6785,58.21852069203686L115.6785,106.0453722721723L115.6785,118.09091813244902L117.35499999999999,-6.559185893077938L117.35499999999999,59.76062480763562L117.35499999999999,102.21501458976371L119.0315,15.350387735923846L119.0315,118.65146022961284L119.0315,135.54466813758475L120.708,195.95028722557723L120.708,-56.46679894761331L120.708,18.14354495027021L120.708,59.1656517017982L120.708,3.811146725958679L122.3845,71.4883853434003L124.061,134.43765540352325L124.061,110.49222890991484L124.061,-88.86675100053253L125.73750000000001,-83.96799527948474L125.73750000000001,11.850436238376005L125.73750000000001,27.317277305083053L127.414,70.55183064505849L127.414,105.70588141420717L127.414,-134.6145224705981L127.414,37.65648026253899L127.414,85.90387893906905L127.414,-34.2162991691132L129.09050000000002,-15.112512546604876L129.09050000000002,7.608879829748844L129.09050000000002,-186.44373076838008L129.09050000000002,-32.90015315819829L130.767,16.090050352757885L130.767,81.75206988641366L130.767,111.4502209579274L130.767,119.10173082085402L132.4435,177.5180414273259L132.4435,-22.070592537288917L132.4435,-72.11499954150025L134.12,1.0727696604377002L134.12,103.58660678785122L135.7965,82.96878039074585L135.7965,169.08396516580967L137.47299999999998,199.75599780583136L137.47299999999998,162.61637039723246L137.47299999999998,191.81669933046254L139.1495,223.2591889080128L139.1495,237.5242050931883L140.826,203.02961529767708L140.826,223.76921200440043L140.826,222.83830549827644L140.826,191.26891591853754L140.826,207.11824534360682L142.5025,223.98297671094008L144.179,130.55138141879127L144.179,176.7955442605536L145.8555,223.40873363692288L145.8555,69.59321946548658L145.8555,98.4986822822525L145.8555,151.21725310795506L145.8555,94.74840836473106L147.532,146.43064385502223L147.532,148.0320392480414L149.20850000000002,174.48158152287726L149.20850000000002,136.81563106409027L149.20850000000002,122.50420734424182L149.20850000000002,175.93066873037088L150.88500000000002,212.35014530946773L150.88500000000002,230.56869465666986L150.88500000000002,227.2498054001211L150.88500000000002,209.92168599328267L150.88500000000002,158.8218277213625L152.56150000000002,164.49759336219145L152.56150000000002,194.8279934072847L154.238,231.8933714922878L154.238,257.9328497079976L154.238,254.81904221343802L154.238,231.78010127406003L154.238,234.0286776987355L154.238,48.02463819787744L155.9145,91.37925450924541L157.591,129.2563558395118L159.26749999999998,110.92475685926735L159.26749999999998,135.49949468047893L159.26749999999998,155.40997421068835L159.26749999999998,202.6449785877638L159.26749999999998,234.21469433899958L159.26749999999998,237.5449411976113L159.26749999999998,232.51980533944214L159.26749999999998,259.4514400884309L162.6205,188.64050441532123L162.6205,225.74707114129535L162.6205,239.6394902999954L162.6205,259.7366325757358L162.6205,220.38203164943778L164.297,248.80933060800265L164.297,254.65014156732101L165.9735,242.49424718340117L165.9735,200.9307523996823L165.9735,206.16382400579405L165.9735,226.2451296948621L167.65,239.58215114195522L169.3265,169.4928185625039L169.3265,199.60951192874683L169.3265,234.72448618977648L171.00300000000001,254.69061694156755L171.00300000000001,257.933975247214L171.00300000000001,268.85816603462087L171.00300000000001,241.09937919712178L171.00300000000001,257.7994176240928L171.00300000000001,239.48831452680628L171.00300000000001,231.5276527509272L172.67950000000002,204.83016839058277L172.67950000000002,211.3229473437731L172.67950000000002,212.1212040368238L172.67950000000002,194.07011090418808L172.67950000000002,199.27171970427696L172.67950000000002,217.71249969613947L174.35600000000002,207.6741056907916L176.03250000000003,217.19929032437463L177.709,245.05651737548388L177.709,260.49412727831293L177.709,245.9989037572055L177.709,225.12524063937119L179.3855,236.4291782590881L179.3855,212.301443351098L181.062,232.76114962267167L181.062,231.87112204591799L181.062,253.8979338428996L181.062,268.75458333621157L181.062,263.65529398161016L181.062,233.49190681003236L182.73850000000002,225.0876179446143L182.73850000000002,250.78901164438497L184.41500000000002,228.05840865198473L184.41500000000002,229.0438448245746L184.41500000000002,198.37261144253145L184.41500000000002,239.51106686551884L186.09150000000002,251.4344583729477L186.09150000000002,163.26051506874384L186.09150000000002,215.09266487644567L187.76800000000003,249.5430989258674L187.76800000000003,249.2380371983759L187.76800000000003,250.74604228710604L189.44449999999998,258.03497405991243L189.44449999999998,271.0384329640584L191.12099999999998,283.110559778435L191.12099999999998,245.22445683301865L192.79749999999999,219.3128436960064L192.79749999999999,194.61950659497273L194.474,218.38192151632126L194.474,249.81335416225323L196.1505,269.7332564758523L196.1505,270.6401280204811L196.1505,281.6671637112116L196.1505,289.4877982267269L197.827,271.7826154487448L197.827,281.07800546777946L197.827,279.2509595840734L199.5035,282.4944916569925L201.18,287.4671869205676L201.18,288.58492906554L201.18,293.638457439324L201.18,295.96089293776794L201.18,298.06403576266075L201.18,263.6579845662791L201.18,278.68229073976744L202.8565,273.2455253493504L202.8565,281.5221888835261L202.8565,220.00682561487136L202.8565,252.12634971374376L204.53300000000002,271.76330982824624L206.2095,281.7368384953169L206.2095,287.33112075512577L206.2095,275.9680232202111L206.2095,281.19573484928L206.2095,289.204940909568L206.2095,264.7362741049668L206.2095,268.4637152711475L207.886,192.3283825731232L207.886,235.88452954387392L207.886,251.6145618247731L207.886,250.635023938879L211.239,250.50608528093375L212.9155,257.91764223835395L212.9155,275.23808534301236L214.592,280.2663412741239L214.592,243.8425516099581L214.592,250.15094299977113L216.26850000000002,252.73714949408227L216.26850000000002,266.7931290430966L216.26850000000002,277.62130929608L216.26850000000002,287.0602855776481L217.94500000000002,288.09028227595877L217.94500000000002,293.3416693655752L219.62150000000003,278.66136075842996L219.62150000000003,264.39434863500964L219.62150000000003,258.678502919514L221.29800000000003,262.83254960908835L221.29800000000003,278.18702976545296L221.29800000000003,254.45771629298093L221.29800000000003,273.16212977578857L222.9745,262.58247166043884L222.9745,261.3453700522564L222.9745,248.79113010644807L222.9745,263.6202500020259L222.9745,248.04063040344676L222.9745,265.21211975114795L224.651,279.6147718506888L224.651,288.2563631104133L224.651,289.7772073845089L224.651,293.97555752247695L226.32750000000001,292.9231830337651L226.32750000000001,265.2271592139606L226.32750000000001,275.61571527686147L226.32750000000001,279.94109804729476L228.00400000000002,243.95862587273035L228.00400000000002,266.3838420717711L228.00400000000002,277.9711295788762L229.68050000000002,273.307474161701L229.68050000000002,284.47198449702057L229.68050000000002,270.78435106355545L229.68050000000002,282.95811063813323L229.68050000000002,289.31982874731517L229.68050000000002,291.46180854952513L231.357,278.10050737688647L231.357,226.56249421733438L231.357,256.15005756704704L231.357,253.28723425143176L231.357,251.1058670578791L231.357,260.22077032765105L233.0335,275.87077052498074L233.0335,284.62751276257166L233.0335,271.8817084429415L233.0335,278.86080775098515L234.70999999999998,287.8039846505911L234.70999999999998,293.16989079035466L234.70999999999998,284.6167600477764L234.70999999999998,264.23650846630505L234.70999999999998,263.0666021034132L234.70999999999998,267.85376771986546L234.70999999999998,279.3937000197176L236.38649999999998,273.3031289048197L236.38649999999998,284.4693773428918L238.063,287.1383029663754L238.063,290.9816683080311L238.063,288.2326757041523L238.063,288.3290687011426L239.7395,283.02787945310746L239.7395,268.4100700237779L239.7395,281.4342653449433L241.416,275.89150737202505L243.0925,284.21693101362195L243.0925,289.5259344523299L243.0925,294.2030606713979L243.0925,289.660005716806L244.769,291.90352760453544L244.769,260.36880962967587L244.769,267.7949544246179L244.769,281.16447265477075L246.4455,235.6413153024381L246.4455,258.8256792731205L248.122,275.7829075638723L248.122,271.8221653034849L248.122,277.80763154212013L248.122,280.289694006642L249.79850000000002,270.64752032780666L249.79850000000002,259.9920196439267L249.79850000000002,266.4411585274602L249.79850000000002,262.15721112747576L251.47500000000002,261.07565054452175L251.47500000000002,269.6260358521685L251.47500000000002,282.2631215113011L251.47500000000002,278.97648356006187L253.1515,280.81909848538425L253.1515,280.6100785138451L254.828,275.856303182378L254.828,273.5501335931626L256.5045,276.8547081603293L256.5045,265.5077142985871L259.8575,279.63679307086534L259.8575,286.86691919793645L259.8575,285.04377079951735L261.534,287.8160223272322L261.534,263.610321444683L261.534,277.3866659432129L261.534,272.7360106157944L261.534,282.809179109197L263.2105,282.98762177637883L263.2105,278.01875876314443L263.2105,287.2987552578867L263.2105,283.0248375174773L263.2105,290.30240251048633L263.2105,283.9750131900563L264.887,284.6974458536776L264.887,291.30596751220656L264.887,295.2710805073239L266.56350000000003,277.2970637699877L266.56350000000003,264.45678839510174L268.24,279.16157303706103L268.24,279.44225116941504L268.24,283.4170011125396L268.24,284.1758363614911L268.24,290.99300181689466L269.91650000000004,282.4467882592833L269.91650000000004,279.19086771484353L269.91650000000004,274.7133862094649L271.593,267.9187912444215L271.593,247.6785938739741L271.593,257.3401218116262L271.593,263.8246274819957L273.2695,270.4966646212928L273.2695,270.5490919994469L273.2695,272.43332896215645L274.94599999999997,277.74588446517544L274.94599999999997,285.0867665928588L276.6225,282.9993401346794L276.6225,285.0435692550654L276.6225,285.6833758522221L276.6225,288.6122099977224L276.6225,285.335429562419L278.299,288.66715956228336L278.299,293.68779573737004L278.299,284.6355802380944L278.299,285.7919742085877L278.299,286.54970724692004L279.9755,292.417324348152L279.9755,283.30161271623393L279.9755,286.57839116383565L281.652,272.38561266618353L281.652,267.2569302139126L281.652,273.6344727183845L283.3285,278.17534216376936L283.3285,285.56255388935085L285.005,278.5472069482784L285.005,270.82787338499907L285.005,282.9842240309994L285.005,287.1717326191831L285.005,287.3815685077172L286.6815,285.56888469986086L286.6815,284.5207071121452L286.6815,266.97309087907774L286.6815,264.86609646198457L288.358,279.40715787719074L288.358,287.4949812421821L288.358,277.2640554058327L288.358,286.84593324349964L288.358,286.14109776906156L290.0345,277.32616153652657L290.0345,277.85409783747906L290.0345,286.89875051931807L290.0345,273.71201363835496L291.711,261.5010429062471L291.711,272.8291466497198L291.711,284.1849879898319L291.711,290.6523502336555L291.711,286.88747269759256L291.711,286.9166874563675L291.711,292.6375124738205L293.3875,276.3241833857053L293.3875,281.12492213167866L296.7405,276.78948599110913L296.7405,265.1280654431037L296.7405,277.45184619788245L296.7405,280.91719409861514L298.41700000000003,285.96146340095015L298.41700000000003,292.0643780405701L300.0935,285.3933506429422L300.0935,280.36533904196193L300.0935,269.2544299371324L301.77000000000004,282.0401579622794L301.77000000000004,281.23383669760045L303.4465,288.84567393634444L303.4465,285.6217565791233L305.12300000000005,251.85444304087304L305.12300000000005,262.3944116934451L305.12300000000005,272.28643166895586L306.7995,275.8045923911087L306.7995,285.8489424736829L308.476,288.4438250095565L308.476,281.95553806012384L308.476,285.3648809393377L308.476,291.7064285636026L310.15250000000003,279.8837863004254L310.15250000000003,288.15150144821683L310.15250000000003,291.3705946199672L310.15250000000003,290.28178024247745L311.829,286.5912656841008L313.50550000000004,277.6261772309141L313.50550000000004,287.06320633854847L313.50550000000004,290.2251798711203L313.50550000000004,292.97102524948014L313.50550000000004,287.51510731644566L313.50550000000004,292.26126421402176L313.50550000000004,288.7306551898139L315.182,288.1535079294215L315.182,285.07358302258075L315.182,290.5968640973128L315.182,290.5378916728471L318.53499999999997,281.06187022733536L318.53499999999997,277.909204393672L318.53499999999997,259.21839164796296L321.888,276.0185349887778L321.888,286.09862099326665L323.5645,292.14667259596L323.5645,282.25286115373495L323.5645,289.839216692241L325.241,291.4319710302305L325.241,291.3505139898033L325.241,295.29780839388195L325.241,297.6661850363292L326.9175,290.40408551843626L326.9175,294.72995131106177L326.9175,255.60257096225615L326.9175,266.81212480148434L328.594,274.16718199569436L330.2705,284.98780919741665L330.2705,273.6498473085825L331.947,277.3664472355166L331.947,275.0839748176169L331.947,279.8926598276038L333.62350000000004,279.70856420667997L333.62350000000004,263.3283644644739L333.62350000000004,274.10080055316223L335.3,272.8976168061491L335.3,270.63690621407005L336.9765,282.86964372844204L336.9765,289.6448648366374L336.9765,293.56242517787473L336.9765,285.3483021298543L336.9765,290.0711861306128L336.9765,294.53021167836766L338.653,297.2056270070206L338.653,293.8960354314644L338.653,279.8227697066306L338.653,283.1077726037406L340.3295,276.14382059282684L340.3295,285.4282731646694L342.00600000000003,287.04667405095086L343.6825,292.7155044305705L343.6825,295.4345295535554L345.35900000000004,293.61277647358355L345.35900000000004,282.8768579992186L345.35900000000004,277.1292846430856L345.35900000000004,267.5114604729127L347.0355,280.9943762837476L347.0355,276.04660847596085L347.0355,286.1154650855765L347.0355,292.0727527519289L348.71200000000005,291.6878293860092L348.71200000000005,293.5457254325231L348.71200000000005,294.5757312729883L348.71200000000005,297.232938763793L350.38849999999996,271.00174812215306L350.38849999999996,282.4666773720845L350.38849999999996,289.9675064232507L350.38849999999996,294.46800385395045L350.38849999999996,297.16830231237026L352.06500000000005,298.78848138742217L352.06500000000005,296.5316489937458L352.06500000000005,286.9515929685565L352.06500000000005,287.9278980563004L353.7415,290.7928326976251L353.7415,293.4865751595468L353.7415,286.70708926952904L355.418,292.5117535617174L355.418,288.5608374790085L357.0945,286.3769351774891L357.0945,292.31366110649344L357.0945,284.8588843617239L357.0945,291.0158767714142L357.0945,293.8184818007969L358.771,292.3361521022572L358.771,279.6349724445971L358.771,277.9384686865945L360.4475,286.1152805905664L360.4475,292.1566683543398L362.124,274.324374186556L362.124,273.99880060110115L362.124,282.01174345048446L362.124,289.54918455739124L362.124,282.3451286385018L362.124,289.8945771831011L362.124,294.4242463098606L362.124,297.14204778591636L362.124,298.1482591156354L362.124,296.3456817253942L363.8005,285.25697210934845L363.8005,286.84379860763005L365.47700000000003,279.67304900589136L365.47700000000003,285.77691797645423L365.47700000000003,283.9314830734225L365.47700000000003,290.0480041121776L365.47700000000003,294.51630246730656L367.1535,297.19728148038394L367.1535,292.9815751928401L367.1535,288.42336640765143L370.5065,288.25064128047154L370.5065,293.4378847682829L370.5065,295.9595275672886L370.5065,293.5228167058595L372.18300000000005,292.33629945704746L372.18300000000005,295.8892796742285L372.18300000000005,290.2626399610856L373.8595,293.90206708546987L373.8595,289.87875662467786L373.8595,294.4147539748067L373.8595,291.2365672462174L375.53600000000006,293.58181601154735L375.53600000000006,283.67921631567435L375.53600000000006,282.8986759798691L377.21250000000003,287.05161236923726L377.21250000000003,275.9032152366745L378.88899999999995,282.23210815770074L378.88899999999995,289.82676489462045L378.88899999999995,294.38355893677226L380.56550000000004,295.2542429344997L380.56550000000004,296.28928402675064L380.56550000000004,298.26107041605036L382.24199999999996,291.36236291121077L382.24199999999996,280.56486492747445L382.24199999999996,280.4978694820069L382.24199999999996,277.35757195077315L383.9185,283.58303602708565L383.9185,289.61017892761936L383.9185,278.2079651594395L383.9185,283.8046696150443L385.59499999999997,290.77030176902656L385.59499999999997,291.4856419145158L385.59499999999997,295.37888514870946L387.2715,291.7260460309657L387.2715,290.67284252062274L387.2715,294.89120551237363L387.2715,292.15424846135915L388.948,291.33142464472854L388.948,285.2750614724398L388.948,287.23352745871784L388.948,292.8276164752307L388.948,273.9933735115565L390.6245,271.5729477425359L390.6245,283.4312686455215L390.6245,265.24688604068547L390.6245,276.96979937310095L392.301,286.66937962386055L393.9775,266.05993538029816L393.9775,274.7224237363209L393.9775,285.3209542417925L393.9775,280.5179705461503L393.9775,285.36726734284406L395.654,286.6476581200591L395.654,292.47609487203545L397.33050000000003,295.97315692322127L399.007,298.0713941539328L399.007,299.33033649235966L399.007,296.98095329618457L400.68350000000004,298.6760719777107L400.68350000000004,299.69314318662646L400.68350000000004,300.30338591197585L400.68350000000004,300.6695315471855L402.36,300.8892189283113L402.36,301.0210313569868L404.03650000000005,293.9111690727689L404.03650000000005,296.83420144366136L404.03650000000005,298.5880208661968L404.03650000000005,299.64031251971807L405.713,300.27168751183086L409.06600000000003,300.1980764175828L409.06600000000003,298.9406914371476L409.06600000000003,299.8519148622886L412.419,300.3986489173731L412.419,300.7266893504239L412.419,294.4384311031208L414.0955000000001,292.45641031509075L414.0955000000001,295.96134618905444L414.0955000000001,298.0643077134327L415.772,296.44355630810475L415.772,297.6495173063005L415.772,298.0070399663523L415.772,299.29172397981137L417.4485,300.0625343878868L417.4485,298.6257961726071L417.4485,294.15398223763L417.4485,294.3771722186523L417.4485,291.1226793196152L417.4485,285.76791050233544L419.125,280.62504519640265L419.125,287.2633744559816L419.125,288.4577088032443L419.125,287.9686500891613L419.125,285.0413154476623L420.8015,281.1720653303707L420.8015,261.8504730897095L422.478,271.6557651884524L424.1545,283.3432509483199L424.1545,290.49345056899193L424.1545,283.61841826848865L425.831,285.76225001938747L425.831,291.9448500116325L425.831,292.02238022027353L425.831,287.5490210308906L425.831,293.0169126185343L425.831,291.78458152518067L425.831,288.5740596804344L425.831,293.63193580826066L427.5075,295.34392917048893L429.184,291.68206170583943L429.184,283.18597378364313L429.184,289.31651359815066L430.8605,294.07740815889036L432.53700000000003,291.02396327204224L432.53700000000003,295.1018779632253L434.2135,297.5486267779352L434.2135,283.79628869736683L434.2135,290.7652732184201L435.89000000000004,291.24538366500553L435.89000000000004,293.71626649799356L435.89000000000004,294.23919025810005L437.5665,294.7625688046303L437.5665,293.5264190661959L439.24300000000005,296.6033514397175L439.24300000000005,298.4495108638305L439.24300000000005,297.2909029790222L439.24300000000005,289.7475786518132L440.91949999999997,294.17612389839144L440.91949999999997,296.99317433903485L440.91949999999997,296.22872308772725L442.59600000000006,290.15309185613347L442.59600000000006,294.5793551136801L444.2725,297.235113068208L444.2725,286.6925346933514L445.949,292.5030208160108L445.949,295.9893124896065L445.949,293.5852333842382L447.6255,293.54513277045874L447.6255,287.75350501347776L449.302,293.1396030080866L449.302,285.05874299958657L449.302,291.52274579975193L450.9785,290.71272893502226L450.9785,294.91513736101336L450.9785,297.436582416608L452.65500000000003,298.9494494499648L454.3315,285.93295672249104L454.3315,292.04727403349466L454.3315,295.6850764156984L454.3315,290.4630484611754L454.3315,291.37718129044555L456.00800000000004,287.4327921771156L456.00800000000004,287.138198164293L456.00800000000004,292.7704188985758L456.00800000000004,270.0827038325747L457.6845,277.26291353034253L459.36100000000005,280.7479446382956L459.36100000000005,277.9621400267861L459.36100000000005,280.25488882547506L459.36100000000005,287.7020638125294L459.36100000000005,293.10873828751767L459.36100000000005,294.9619627471144L461.0375,297.46467764826866L461.0375,294.26316855044513L462.714,295.16016814524744L462.714,288.804602236538L462.714,292.20886566697885L462.714,295.8128194001873L462.714,270.9277607969975L464.39050000000003,280.86687679723116L464.39050000000003,289.0076260783387L466.067,293.8920756470032L466.067,296.82274538820195L466.067,298.1522950026107L466.067,295.8781383957095L466.067,295.59031068984433L467.74350000000004,291.8734745693431L467.74350000000004,294.282145362331L467.74350000000004,295.4380034007034L467.74350000000004,297.75030204042207L467.74350000000004,299.13768122425324L467.74350000000004,297.01473349529886L471.09650000000005,293.2558220308923L472.77299999999997,296.44099321853537L472.77299999999997,283.3206216388429L472.77299999999997,277.45180162450583L472.77299999999997,286.9585809747035L472.77299999999997,280.92238999543514L472.77299999999997,289.04093399726105L474.4495,286.5584700291321L474.4495,287.9918271324018L474.4495,280.1030350965845L474.4495,285.3753599996917L474.4495,282.42375089380454L476.126,289.9417505362827L477.8025,288.474826358211L477.8025,293.5723958149266L477.8025,296.09738435803126L477.8025,298.1459306148188L477.8025,294.87480939283944L477.8025,292.5303732908069L479.479,296.0057239744841L479.479,296.325749833213L479.479,298.2829498999278L481.1555,299.4572699399567L481.1555,300.161861963974L481.1555,296.0243918629924L481.1555,296.0636859048867L481.1555,298.125711542932L481.1555,297.5664727792548L481.1555,290.5411203029994L482.832,294.81217218179967L482.832,297.37480330907977L484.5085,291.05548294004006L486.185,291.2118763453734L486.185,295.214625807224L486.185,297.61627548433444L486.185,295.8457246735519L486.185,287.81015902697004L487.86150000000004,288.51067301147555L487.86150000000004,292.48208565719943L487.86150000000004,295.97675139431965L489.538,284.50964371994024L491.21450000000004,290.4807799377137L491.21450000000004,294.2101693819817L491.21450000000004,297.013601629189L492.891,298.6956609775134L492.891,298.84045548972534L494.56750000000005,299.1476641341272L494.56750000000005,285.33094999457734L496.244,284.748773889335L496.244,288.74374802207467L496.244,293.42832741615484L496.244,296.21217075274774L497.92050000000006,298.21480245164867L497.92050000000006,288.47659973068136L497.92050000000006,293.5734598384088L497.92050000000006,296.6315759030453L499.59700000000004,294.9581746895594L501.27350000000007,297.46240481373565L501.27350000000007,298.9649428882414L501.27350000000007,299.86646573294485L502.95000000000005,298.29134907453823L502.95000000000005,299.46230944472296L504.62649999999996,300.16488566683375L506.303,300.34282539896157L506.303,300.6931952393769L506.303,300.90341714362614L507.9795,296.671280423345L509.656,298.49026825400705L509.656,299.5816609524042L509.656,300.2364965714425L509.656,300.62939794286547L511.3325,295.69798815652405L511.3325,297.90629289391444L511.3325,299.23127573634866L513.009,289.27510388139297L513.009,290.7010464098657L513.009,294.45175454179076L514.6855,292.6894958952643L516.3620000000001,292.2267600932465L516.3620000000001,276.0940497123448L518.0385,272.26819981951996L518.0385,273.7477549035519L518.0385,282.07839367056897L519.715,286.15457452991615L519.715,290.9043618777931L521.3915,292.86382672426345L521.3915,292.1697314246728L523.068,286.84925658787694L523.068,292.5970539527261L523.068,296.0457323716357L524.7445,296.58308412291257L524.7445,298.43735047374753L524.7445,293.2467873614704L524.7445,296.4355724168822L524.7445,298.14772585260897L524.7445,273.5462896956684L524.7445,284.61527381740103L524.7445,291.25666429044065L526.421,295.24149857426437L526.421,297.63239914455863L526.421,298.8542820202044L528.0975,282.16973192910734L528.0975,288.6875175337218L528.0975,293.7000105202331L529.774,287.0407192763766L531.4505,282.06979536456345L531.4505,289.7293772187381L531.4505,294.3251263312428L533.1270000000001,290.00877550315437L533.1270000000001,294.49276530189263L534.8035,282.6834482487616L534.8035,285.9988412312613L534.8035,283.5133819193808L534.8035,273.0587302870254L534.8035,284.3227381722152L534.8035,289.7942778254163L534.8035,291.91564726588797L536.48,287.3082910076241L536.48,291.471676730839L536.48,283.93807961566904L536.48,290.8503477694014L536.48,274.74791827627536L536.48,285.3362509657652L538.1565,286.079288652522L538.1565,292.13507319151324L538.1565,295.7685439149079L539.8330000000001,282.6720928346835L539.8330000000001,290.09075570081006L539.8330000000001,279.3137423156162L539.8330000000001,288.07574538936973L541.5095,293.33294723362184L541.5095,296.4872683401731L541.5095,298.3798610041039L541.5095,299.5154166024623L541.5095,298.6489571095525L541.5095,294.9687513417613L541.5095,295.52636484096115L543.186,297.8033189045767L543.186,296.88277371182323L544.8625000000001,298.61716422709395L546.539,299.65779853625634L546.539,293.139364917657L546.539,290.5037538734563L548.2155,290.18663868769926L548.2155,294.5994832126196L549.8919999999999,297.24718992757175L549.8919999999999,291.39849440960506L549.8919999999999,295.32659664576306L551.5685,297.6834579874578L551.5685,299.0975747924747L551.5685,299.9460448754848L551.5685,300.45512692529087L553.245,300.76057615517453L553.245,280.94006926202104L553.245,279.93226533164574L554.9215,287.27403393703696L554.9215,287.66204346309894L556.598,290.6301769291806L556.598,289.9255579173832L558.2745,293.95213332833464L558.2745,285.8861346248484L558.2745,285.53299567870476L559.951,252.50960349900834L559.951,271.993262099405L559.951,280.51104799340953L561.6275,288.7941287960457L561.6275,291.74162614678426L561.6275,286.6212043692773L563.304,292.46022262156634L563.304,246.32802510846037L563.304,249.24638412945495L563.304,270.03533047767297L563.304,275.73878308583386L564.9805,279.3368647602146L564.9805,263.71800411682995L564.9805,274.8338966634373L564.9805,285.10465285131335L564.9805,291.3384847727358L564.9805,287.48348012190695L564.9805,272.8775104142525L566.657,284.2140062485515L566.657,289.3161028703677L566.657,242.56892611864967L566.657,266.02885567118983L568.3335000000001,280.1048134027139L568.3335000000001,287.9044370089898L568.3335000000001,293.23016220539387L568.3335000000001,288.4548894000624L568.3335000000001,293.56043364003745L570.01,294.5386825778809L570.01,297.21070954672854L570.01,298.81392572803713L570.01,290.1930130272115L571.6865,294.60330781632695L571.6865,297.24948468979613L573.363,298.83719081387767L573.363,291.0783610356203L575.0395000000001,295.13451662137214L575.0395000000001,297.5682099728233L575.0395000000001,299.028425983694L576.716,274.1838618678491L576.716,283.1306874372149L576.716,290.36591246232894L578.3925,270.47026966515483L578.3925,282.7696617990929L578.3925,288.4134444952129L580.069,266.83151842118014L580.069,279.2037333784146L581.7455000000001,288.00974002704874L581.7455000000001,287.1297992943278L583.422,292.76537957659673L583.422,251.82433689159933L583.422,271.5821021349596L585.0985000000001,274.8539939136128L585.0985000000001,285.39989634816766L585.0985000000001,291.7274378089006L585.0985000000001,295.5239626853404L586.775,296.1919680171452L586.775,298.2026808102871L586.775,299.4091084861723L588.4515,300.13296509170334L588.4515,264.0566599511135L590.128,278.92149597066805L590.128,287.84039758240084L590.128,293.1917385494405L590.128,296.4025431296643L590.128,290.5863060561667L590.128,282.9119172279745L590.128,274.6381772985881L591.8045,279.5264552373186L591.8045,281.1626026414928L591.8045,289.18506158489566L593.481,293.9985369509374L593.481,296.8866221705624L595.1575,273.84393357631853L595.1575,284.79386014579114L596.8340000000001,281.7963324760698L596.8340000000001,289.56529948564184L596.8340000000001,274.0260678765286L598.5105,276.8299215905135L598.5105,286.5854529543081L598.5105,292.43877177258486L598.5105,295.95076306355094L598.5105,298.05795783813056L600.187,294.32207128712685L600.187,297.0807427722761L603.5400000000001,298.73594566336567L603.5400000000001,291.2524386623579L603.5400000000001,295.2389631974147L605.2165,297.63087791844885L605.2165,299.0660267510693L606.893,299.9271160506416L606.893,300.44376963038496L606.893,295.00300359224826L608.5695,297.4893021553489L608.5695,296.525333800598L610.2460000000001,298.4027002803588L610.2460000000001,290.4042253853144L610.2460000000001,294.73003523118865L610.2460000000001,297.3255211387132L610.2460000000001,298.8828126832279L610.2460000000001,299.81718760993675L611.9225,300.377812565962L611.9225,299.6643734792468L611.9225,300.2861240875481" style="fill: none;" fill="none"></path></g></g></g></g><g opacity="0.2"><g><g><g><path stroke="rgb(255, 112, 67)" stroke-width="2px" d="M83.825,210.4471119940281L83.825,301.21875L83.825,301.21875L85.50150000000001,301.21875L85.50150000000001,276.1149724647403L85.50150000000001,119.16270670294762L87.17800000000001,-47.53532695770264L87.17800000000001,301.21875L87.17800000000001,301.21875L87.17800000000001,301.21875L88.8545,301.21875L90.531,299.1667021885514L92.20750000000001,301.21875L92.20750000000001,301.21875L92.20750000000001,99.2660855948925L93.88400000000001,301.21875L93.88400000000001,301.07530076801777L95.56049999999999,244.0371500775218L95.56049999999999,260.7487321346998L95.56049999999999,233.83196302503347L95.56049999999999,-303.3387513756753L97.237,172.70781156420708L97.237,103.33556865155697L98.9135,301.21875L98.9135,-388.3838261961938L98.9135,220.65910045802593L100.59,-53.89595630764961L100.59,269.414054274559L102.26650000000001,130.01697090268135L102.26650000000001,-3.450577139854431L102.26650000000001,-239.47110342979443L103.943,106.83415558934212L103.943,228.49856507778168L105.6195,51.54825550317764L105.6195,158.6054579615593L107.296,258.64064660668373L107.296,158.4097660034895L107.296,188.05824530124664L110.64900000000002,282.9789977967739L110.64900000000002,-555.9537642002107L110.64900000000002,-607.2574167251588L110.64900000000002,229.49800644814968L112.3255,-51.22586014866829L112.3255,-107.03784871101385L112.3255,194.44332030415535L112.3255,9.079059183597565L112.3255,-29.528343558311462L114.00200000000001,62.24232745170593L114.00200000000001,108.59559443593025L114.00200000000001,-4.775542795658112L114.00200000000001,205.3608390390873L115.6785,-6.817853182554245L115.6785,177.7856496423483L115.6785,136.15923692286015L117.35499999999999,-193.5343419313432L117.35499999999999,159.2403408586979L117.35499999999999,165.8965992629528L119.0315,-114.94655254483229L119.0315,273.6030689701438L119.0315,160.88447999954224L120.708,286.5587158575654L120.708,-435.0924282073976L120.708,130.0590607970953L120.708,120.69881182909012L120.708,-79.2206107378006L122.3845,173.00424326956272L124.061,228.86156049370766L124.061,74.57408916950226L124.061,-387.9052208662034L124.061,-31.04498791694641L124.061,42.42766124010086L125.73750000000001,-176.2123437523843L125.73750000000001,155.57808351516724L125.73750000000001,50.51753890514374L127.414,135.40366065502167L127.414,158.43695756793022L127.414,-495.0951282978059L127.414,296.0629843622446L127.414,158.2749769538641L127.414,-214.39656633138668L129.09050000000002,-197.56573426723492L129.09050000000002,111.55282844603062L129.09050000000002,41.69096839427948L129.09050000000002,-477.52264666557323L129.09050000000002,197.41521325707436L130.767,89.57535561919212L130.767,180.24509918689728L130.767,155.99744756519794L130.767,130.5789956152439L132.4435,265.14250733703375L132.4435,-321.4535434842111L132.4435,-147.18161004781734L134.12,110.85442346334457L134.12,257.3573624789715L135.7965,52.042040795087814L135.7965,298.2567423284054L137.47299999999998,245.7640467658639L137.47299999999998,106.90692928433418L137.47299999999998,235.61719273030758L139.1495,270.42292327433825L139.1495,258.92172937095165L140.826,151.28773060441017L140.826,254.87860706448555L140.826,221.44194573909044L140.826,143.91483154892921L140.826,230.8922394812107L142.5025,249.28007376194L144.179,-9.596011519432068L144.179,246.16178852319717L145.8555,293.3285177014768L145.8555,-161.13005179166805L145.8555,141.85687650740147L145.8555,230.29510934650898L145.8555,10.045141249895096L147.532,223.95399709045887L147.532,150.4341323375702L149.20850000000002,214.15589493513107L149.20850000000002,80.3167053759098L149.20850000000002,101.03707176446915L149.20850000000002,256.0703608095646L150.88500000000002,266.979360178113L150.88500000000002,257.89651867747307L150.88500000000002,222.2714715152979L150.88500000000002,183.92950688302517L150.88500000000002,82.17204031348228L152.56150000000002,173.01124182343483L152.56150000000002,240.32359347492456L154.238,287.49143861979246L154.238,296.9920670315623L154.238,250.14833097159863L154.238,197.2216898649931L154.238,237.40154233574867L154.238,-230.9814210534097L155.9145,156.41117897629738L157.591,186.07200783491135L159.26749999999998,83.42735838890076L159.26749999999998,172.3616014122963L159.26749999999998,185.27569350600243L159.26749999999998,273.49748515337706L159.26749999999998,281.5692679658532L159.26749999999998,242.54031148552895L159.26749999999998,224.9821015521884L159.26749999999998,299.84889221191406L162.6205,82.42410090565681L162.6205,281.40692123025656L162.6205,260.4781190380454L162.6205,289.8823459893465L162.6205,161.3501302599907L164.297,291.45027904585004L164.297,263.41135800629854L165.9735,224.26040560752153L165.9735,138.58551022410393L165.9735,214.01343141496181L165.9735,256.3670882284641L167.65,259.5876833125949L169.3265,64.35881969332695L169.3265,244.78455197811127L169.3265,287.396947581321L171.00300000000001,284.63981306925416L171.00300000000001,262.7990127056837L171.00300000000001,285.24445221573114L171.00300000000001,199.46119894087315L171.00300000000001,282.84947526454926L171.00300000000001,212.02165988087654L171.00300000000001,219.5866600871086L172.67950000000002,164.78394185006618L172.67950000000002,221.06211577355862L172.67950000000002,213.3185890763998L172.67950000000002,166.99347120523453L172.67950000000002,207.07413290441036L172.67950000000002,245.37366968393326L174.35600000000002,192.61651468276978L176.03250000000003,231.48706727474928L177.709,286.8423579521477L177.709,283.65054213255644L177.709,224.25606847554445L177.709,193.81474596261978L179.3855,253.38508468866348L179.3855,176.10984098911285L181.062,263.45070903003216L181.062,230.53608068078756L181.062,286.93815153837204L181.062,291.0395575761795L181.062,256.006359949708L181.062,188.2468260526657L182.73850000000002,212.48118464648724L182.73850000000002,289.341102194041L184.41500000000002,193.96250416338444L184.41500000000002,230.52199908345938L184.41500000000002,152.36576136946678L184.41500000000002,301.21875L186.09150000000002,269.3195456340909L186.09150000000002,30.999600112438202L186.09150000000002,292.8408895879984L187.76800000000003,301.21875L187.76800000000003,248.78044460713863L187.76800000000003,253.0080499202013L189.44449999999998,268.96837171912193L189.44449999999998,290.54362132027745L191.12099999999998,301.21875L191.12099999999998,188.3953024148941L192.79749999999999,180.44542399048805L192.79749999999999,157.57950094342232L194.474,254.02554389834404L194.474,296.9605031311512L196.1505,299.6131099462509L196.1505,272.0004353374243L196.1505,298.2077172473073L196.1505,301.21875L197.827,245.22484128177166L197.827,295.02109049633145L197.827,276.5103907585144L199.5035,287.35978976637125L201.18,294.9262298159301L201.18,290.26154228299856L201.18,301.21875L201.18,299.44454618543386L201.18,301.21875L201.18,212.04890777170658L201.18,301.21875L202.8565,265.0903772637248L202.8565,293.93718418478966L202.8565,127.73378071188927L202.8565,300.30563586205244L204.53300000000002,301.21875L206.2095,296.6971314959228L206.2095,295.72254414483905L206.2095,258.92337691783905L206.2095,289.0373022928834L206.2095,301.21875L206.2095,228.0332738980651L206.2095,274.05487702041864L207.886,78.12538352608681L207.886,301.21875L207.886,275.2096102461219L207.886,249.1657171100378L211.239,250.31267729401588L212.9155,269.03497767448425L212.9155,301.21875L214.592,287.80872517079115L214.592,189.20686711370945L214.592,259.6135300844908L216.26850000000002,256.616459235549L216.26850000000002,287.87709836661816L216.26850000000002,293.86357967555523L216.26850000000002,301.21875L217.94500000000002,289.6352773234248L217.94500000000002,301.21875L219.62150000000003,256.64089784771204L219.62150000000003,242.99383044987917L219.62150000000003,250.10473434627056L221.29800000000003,269.0636196434498L221.29800000000003,301.21875L221.29800000000003,218.86374608427286L221.29800000000003,301.21875L222.9745,246.71298448741436L222.9745,259.4897176399827L222.9745,229.95977018773556L222.9745,285.8639298453927L222.9745,224.67120100557804L222.9745,290.96935377269983L224.651,301.21875L224.651,301.21875L224.651,292.0584737956524L224.651,300.273082729429L226.32750000000001,291.3446213006973L226.32750000000001,223.68312348425388L226.32750000000001,291.1985493712127L226.32750000000001,286.42917220294476L228.00400000000002,189.9849176108837L228.00400000000002,300.02166637033224L228.00400000000002,295.3520608395338L229.68050000000002,266.31199103593826L229.68050000000002,301.21875L229.68050000000002,250.25290091335773L229.68050000000002,301.21875L229.68050000000002,298.862405911088L229.68050000000002,294.67477825284004L231.357,258.0585556179285L231.357,149.25547447800636L231.357,300.5314025916159L231.357,248.99299927800894L231.357,247.83381626755L231.357,273.8931252323091L233.0335,299.3457708209753L233.0335,297.762626118958L233.0335,252.7630019634962L233.0335,289.3294567130506L234.70999999999998,301.21875L234.70999999999998,301.21875L234.70999999999998,271.78706393390894L234.70999999999998,233.6661310940981L234.70999999999998,261.31174255907536L234.70999999999998,275.0345161445439L234.70999999999998,296.7035984694958L236.38649999999998,264.1672722324729L236.38649999999998,301.21875L238.063,291.14169140160084L238.063,296.7467163205147L238.063,284.1091867983341L238.063,288.4736581966281L239.7395,275.0760955810547L239.7395,246.48335587978363L239.7395,300.9705583266914L241.416,267.5773704126477L243.0925,296.70506647601724L243.0925,297.48943961039186L243.0925,301.21875L243.0925,282.84542328491807L244.769,295.26881043612957L244.769,213.06673266738653L244.769,278.9341716170311L244.769,301.21875L246.4455,167.35657927393913L246.4455,293.6022252291441L248.122,301.21875L248.122,265.8810519129038L248.122,286.78583090007305L248.122,284.0127877034247L249.79850000000002,256.1842598095536L249.79850000000002,244.00876861810684L249.79850000000002,276.1148668527603L249.79850000000002,255.7312900274992L251.47500000000002,259.4533096700907L251.47500000000002,282.4516138136387L251.47500000000002,301.21875L251.47500000000002,274.04652663320303L253.1515,283.5830208733678L253.1515,280.29654855653644L254.828,268.7256401851773L254.828,270.0908792093396L256.5045,281.8115700110793L256.5045,248.48722350597382L259.8575,300.8304112292826L259.8575,297.71210838854313L259.8575,282.3090482018888L261.534,291.97439961880445L261.534,227.30177012085915L261.534,298.05118269100785L261.534,265.7600276246667L261.534,297.91893184930086L263.2105,283.2552857771516L263.2105,270.5654642432928L263.2105,301.21875L263.2105,276.6139609068632L263.2105,301.21875L263.2105,274.48392920941114L264.887,285.78109484910965L264.887,301.21875L264.887,301.21875L266.56350000000003,250.33603866398335L266.56350000000003,245.19637533277273L268.24,301.21875L268.24,279.86326836794615L268.24,289.37912602722645L268.24,285.31408923491836L268.24,301.21875L269.91650000000004,269.62746792286634L269.91650000000004,274.3069868981838L269.91650000000004,267.99716395139694L271.593,257.7268987968564L271.593,217.3182978183031L271.593,271.83241371810436L271.593,273.55138598755L273.2695,280.50472033023834L273.2695,270.62773306667805L273.2695,275.2596844062209L274.94599999999997,285.7147177197039L274.94599999999997,296.0980897843838L276.6225,279.86820044741035L276.6225,288.1099129356444L276.6225,286.64308574795723L276.6225,293.0054612159729L276.6225,280.4202589094639L278.299,293.6647545620799L278.299,301.21875L278.299,271.05725698918104L278.299,287.5265651643276L278.299,287.68630680441856L279.9755,301.21875L279.9755,269.6280452683568L279.9755,291.4935588352382L281.652,251.0964449197054L281.652,259.56390653550625L281.652,283.2007864750922L283.3285,284.9866463318467L283.3285,296.6433714777231L285.005,268.02418653666973L285.005,259.24887304008007L285.005,301.21875L285.005,293.45299550145864L285.005,287.69632234051824L286.6815,282.84985898807645L286.6815,282.94844073057175L286.6815,240.65166652947664L286.6815,261.7056048363447L288.358,301.21875L288.358,299.6267162896693L288.358,261.91766665130854L288.358,301.21875L288.358,285.0838445574045L290.0345,264.1037571877241L290.0345,278.64600228890777L290.0345,300.4657295420766L290.0345,253.93190831691027L291.711,243.18458680808544L291.711,289.8213022649288L291.711,301.21875L291.711,300.353393599391L291.711,281.2401563934982L291.711,286.96050959452987L291.711,301.21875L293.3875,251.8541897535324L293.3875,288.3260302506387L296.7405,270.28633178025484L296.7405,247.63593462109566L296.7405,295.93751733005047L296.7405,286.1152159497142L298.41700000000003,293.5278673544526L298.41700000000003,301.21875L300.0935,275.38680954650044L300.0935,272.8233216404915L300.0935,252.58806627988815L301.77000000000004,301.21875L301.77000000000004,280.02435480058193L303.4465,300.26342979446054L303.4465,280.78588054329157L305.12300000000005,201.20347273349762L305.12300000000005,278.2043646723032L305.12300000000005,287.12446163222194L306.7995,281.08183347433805L306.7995,300.9154675975442L308.476,292.3361488133669L308.476,272.2231076359749L308.476,290.47889525815845L308.476,301.21875L310.15250000000003,262.1498229056597L310.15250000000003,300.553074169904L310.15250000000003,296.1992343775928L310.15250000000003,288.6485586762428L311.829,281.0554938465357L313.50550000000004,264.1785445511341L313.50550000000004,301.21875L313.50550000000004,294.96814016997814L313.50550000000004,297.08979331701994L313.50550000000004,279.33123041689396L313.50550000000004,299.38049956038594L313.50550000000004,283.434741653502L315.182,287.2877870388329L315.182,280.45369566231966L315.182,298.8817857094109L315.182,290.44943303614855L318.53499999999997,266.8478380590677L318.53499999999997,273.18020564317703L318.53499999999997,231.1821725293994L321.888,301.21875L321.888,301.21875L323.5645,301.21875L323.5645,267.41214399039745L323.5645,301.21875L325.241,293.82110253721476L325.241,291.2283284291625L325.241,301.21875L325.241,301.21875L326.9175,279.51093624159694L326.9175,301.21875L326.9175,196.9115004390478L326.9175,283.6264555603266L328.594,285.1997677870095L330.2705,301.21875L330.2705,256.6429044753313L331.947,282.9413471259177L331.947,271.6602661907673L331.947,287.10568734258413L333.62350000000004,279.4324207752943L333.62350000000004,238.75806485116482L333.62350000000004,290.25945468619466L335.3,271.09284118562937L335.3,267.2458403259516L336.9765,301.21875L336.9765,299.80769649893045L336.9765,299.43876568973064L336.9765,273.02711755782366L336.9765,297.1555121317506L336.9765,301.21875L338.653,301.21875L338.653,288.93164806813L338.653,258.71287111938L338.653,288.03527694940567L340.3295,265.69789257645607L340.3295,299.3549520224333L342.00600000000003,289.474275380373L343.6825,301.21875L343.6825,299.5130672380328L345.35900000000004,290.8801468536258L345.35900000000004,266.7729802876711L345.35900000000004,268.50792460888624L345.35900000000004,253.08472421765327L347.0355,301.21875L347.0355,268.6249567642808L347.0355,301.21875L347.0355,301.00868425145745L348.71200000000005,291.1104443371296L348.71200000000005,296.33256950229406L348.71200000000005,296.12074003368616L348.71200000000005,301.21875L350.38849999999996,231.65496215969324L350.38849999999996,299.6640712469816L350.38849999999996,301.21875L350.38849999999996,301.21875L350.38849999999996,301.21875L352.06500000000005,301.21875L352.06500000000005,293.1464004032314L352.06500000000005,272.58150893077254L352.06500000000005,289.3923556879163L353.7415,295.0902346596122L353.7415,297.5271888524294L353.7415,276.53786043450236L355.418,301.21875L355.418,282.6344633549452L357.0945,283.10108172520995L357.0945,301.21875L357.0945,273.67671924456954L357.0945,300.2513653859496L357.0945,298.02238934487104L358.771,290.11265755444765L358.771,260.583202958107L358.771,275.3937130495906L360.4475,298.38049844652414L360.4475,301.21875L362.124,247.57593293488026L362.124,273.510440222919L362.124,294.0311577245593L362.124,300.8553462177515L362.124,271.5390447601676L362.124,301.21875L362.124,301.21875L362.124,301.21875L362.124,299.657576110214L362.124,293.6418156400323L363.8005,268.62390768527985L363.8005,289.22403835505247L365.47700000000003,268.9169246032834L365.47700000000003,294.9327214322984L365.47700000000003,281.16333071887493L365.47700000000003,299.22278567031026L365.47700000000003,301.21875L367.1535,301.21875L367.1535,286.65801576152444L367.1535,281.5860532298684L370.5065,287.99155358970165L370.5065,301.21875L370.5065,299.74199176579714L370.5065,289.86775041371584L372.18300000000005,290.5565235838294L372.18300000000005,301.21875L372.18300000000005,281.82268039137125L373.8595,299.3612077720463L373.8595,283.8437909334898L373.8595,301.21875L373.8595,286.4692871533334L375.53600000000006,297.0996891595423L375.53600000000006,268.8253167718649L375.53600000000006,281.72786547616124L377.21250000000003,293.2810169532895L377.21250000000003,259.18061953783035L378.88899999999995,291.7254475392401L378.88899999999995,301.21875L378.88899999999995,301.21875L380.56550000000004,296.56026893109083L380.56550000000004,297.84184566512704L380.56550000000004,301.21875L382.24199999999996,281.0143016539514L382.24199999999996,264.36861795186996L382.24199999999996,280.3973763138056L382.24199999999996,272.64712565392256L383.9185,292.92123214155436L383.9185,298.65089327841997L383.9185,261.1046445071697L383.9185,292.1997262984514L385.59499999999997,301.21875L385.59499999999997,292.55865213274956L385.59499999999997,301.21875L387.2715,286.2467873543501L387.2715,289.09303725510836L387.2715,301.21875L387.2715,288.0488128848374L388.948,290.09718891978264L388.948,276.19051671400666L388.948,290.1712264381349L388.948,301.21875L388.948,245.74200906604528L390.6245,267.942309089005L390.6245,301.21875L390.6245,237.97031213343143L390.6245,294.55416937172413L392.301,301.21875L393.9775,235.14576901495457L393.9775,287.716156270355L393.9775,301.21875L393.9775,273.313495002687L393.9775,292.6412125378847L395.654,288.5682442858815L395.654,301.21875L397.33050000000003,301.21875L399.007,301.21875L399.007,301.21875L399.007,293.4568785019219L400.68350000000004,301.21875L400.68350000000004,301.21875L400.68350000000004,301.21875L400.68350000000004,301.21875L402.36,301.21875L402.36,301.21875L404.03650000000005,283.2463756464422L404.03650000000005,301.21875L404.03650000000005,301.21875L404.03650000000005,301.21875L405.713,301.21875L409.06600000000003,300.0876597762108L409.06600000000003,297.0546139664948L409.06600000000003,301.21875L412.419,301.21875L412.419,301.21875L412.419,285.0060437321663L414.0955000000001,289.4833791330457L414.0955000000001,301.21875L414.0955000000001,301.21875L415.772,294.0124292001128L415.772,299.4584588035941L415.772,298.54332395642996L415.772,301.21875L417.4485,301.21875L417.4485,296.4706888496876L417.4485,287.4462613351643L417.4485,294.7119571901858L417.4485,286.24093997105956L417.4485,277.7357572764158L419.125,272.91074723750353L419.125,297.22086834535L419.125,290.2492103241384L419.125,287.23506201803684L419.125,280.6503134854138L420.8015,275.36819015443325L420.8015,232.8680847287178L422.478,286.3637033365667L424.1545,300.8744795881212L424.1545,301.21875L424.1545,273.30586981773376L425.831,288.97799764573574L425.831,301.21875L425.831,292.1386755332351L425.831,280.83898224681616L425.831,301.21875L425.831,289.9360848851502L425.831,283.75827691331506L425.831,301.21875L427.5075,297.9119192138314L429.184,286.1892605088651L429.184,270.44184190034866L429.184,298.51232331991196L430.8605,301.21875L432.53700000000003,286.4437959417701L432.53700000000003,301.21875L434.2135,301.21875L434.2135,263.16778157651424L434.2135,301.21875L435.89000000000004,291.9655493348837L435.89000000000004,297.4225907474756L435.89000000000004,295.0235758982599L437.5665,295.54763662442565L437.5665,291.67219445854425L439.24300000000005,301.21875L439.24300000000005,301.21875L439.24300000000005,295.5529911518097L439.24300000000005,278.4325921609998L440.91949999999997,300.8189417682588L440.91949999999997,301.21875L440.91949999999997,295.08204621076584L442.59600000000006,281.0396450087428L442.59600000000006,301.21875L444.2725,301.21875L444.2725,270.8786671310663L445.949,301.21875L445.949,301.21875L445.949,289.9791147261858L447.6255,293.4849818497896L447.6255,279.0660633780062L449.302,301.21875L449.302,272.93745298683643L449.302,301.21875L450.9785,289.49770363792777L450.9785,301.21875L450.9785,301.21875L452.65500000000003,301.21875L454.3315,266.4082176312804L454.3315,301.21875L454.3315,301.14177998900414L454.3315,282.6300065293908L454.3315,292.7483805343509L456.00800000000004,281.5162085071206L456.00800000000004,286.6963071450591L456.00800000000004,301.21875L456.00800000000004,236.05113123357296L457.6845,288.0332280769944L459.36100000000005,285.97549130022526L459.36100000000005,273.78343310952187L459.36100000000005,283.69401202350855L459.36100000000005,298.87282629311085L459.36100000000005,301.21875L459.36100000000005,297.7417994365096L461.0375,301.21875L461.0375,289.4609049037099L462.714,296.5056675374508L462.714,279.2712533734739L462.714,297.3152608126402L462.714,301.21875L462.714,233.60017289221287L464.39050000000003,295.7755507975817L464.39050000000003,301.21875L466.067,301.21875L466.067,301.21875L466.067,300.1466194242239L466.067,292.46690348535776L466.067,295.15856913104653L467.74350000000004,286.2982203885913L467.74350000000004,297.8951515518129L467.74350000000004,297.17179045826197L467.74350000000004,301.21875L467.74350000000004,301.21875L467.74350000000004,293.8303119018674L471.09650000000005,287.6174548342824L472.77299999999997,301.21875L472.77299999999997,263.6400642693043L472.77299999999997,268.64857160300016L472.77299999999997,301.21875L472.77299999999997,271.86810352653265L472.77299999999997,301.21875L474.4495,282.83477407693863L474.4495,290.1418627873063L474.4495,268.2698470428586L474.4495,293.2838473543525L474.4495,277.9963372349739L476.126,301.21875L477.8025,286.2744400911033L477.8025,301.21875L477.8025,299.88486717268825L477.8025,301.21875L477.8025,289.9681275598705L477.8025,289.013719137758L479.479,301.21875L479.479,296.8057886213064L479.479,301.21875L481.1555,301.21875L481.1555,301.21875L481.1555,289.81818671151996L481.1555,296.12262696772814L481.1555,301.21875L481.1555,296.727614633739L481.1555,280.00309158861637L482.832,301.21875L482.832,301.21875L484.5085,281.57650238648057L486.185,291.44646645337343L486.185,301.21875L486.185,301.21875L486.185,293.18989845737815L486.185,275.7568105570972L487.86150000000004,289.5614439882338L487.86150000000004,298.43920462578535L487.86150000000004,301.21875L489.538,267.30898220837116L491.21450000000004,299.4374842643738L491.21450000000004,299.8042535483837L491.21450000000004,301.21875L492.891,301.21875L492.891,299.0576472580433L494.56750000000005,299.60847710072994L494.56750000000005,264.60587878525257L496.244,283.87550973147154L496.244,294.73620922118425L496.244,300.4551965072751L496.244,300.387935757637L497.92050000000006,301.21875L497.92050000000006,273.8692956492305L497.92050000000006,301.21875L497.92050000000006,301.21875L499.59700000000004,292.44807286933064L501.27350000000007,301.21875L501.27350000000007,301.21875L501.27350000000007,301.21875L502.95000000000005,295.92867408692837L502.95000000000005,301.21875L504.62649999999996,301.21875L506.303,300.6097349971533L506.303,301.21875L506.303,301.21875L507.9795,290.3230753429234L509.656,301.21875L509.656,301.21875L509.656,301.21875L509.656,301.21875L511.3325,288.3008734770119L511.3325,301.21875L511.3325,301.21875L513.009,274.34084609895945L513.009,292.83996020257473L513.009,300.0778167396784L514.6855,290.04610792547464L516.3620000000001,291.5326563902199L516.3620000000001,251.89498414099216L518.0385,266.5294249802828L518.0385,275.96708752959967L518.0385,294.57435182109475L519.715,292.2688458189368L519.715,298.0290428996086L521.3915,295.80302399396896L521.3915,291.12858847528696L523.068,278.8685443326831L523.068,301.21875L523.068,301.21875L524.7445,297.38911174982786L524.7445,301.21875L524.7445,285.4609426930547L524.7445,301.21875L524.7445,300.7159560061991L524.7445,236.64413546025753L524.7445,301.21875L524.7445,301.21875L526.421,301.21875L526.421,301.21875L526.421,300.687106333673L528.0975,257.1429067924619L528.0975,298.46419594064355L528.0975,301.21875L529.774,277.05178241059184L531.4505,274.6134094968438L531.4505,301.21875L531.4505,301.21875L533.1270000000001,283.5342492610216L533.1270000000001,301.21875L534.8035,264.969472669065L534.8035,290.9719307050109L534.8035,279.78519295156L534.8035,257.3767528384924L534.8035,301.21875L534.8035,298.001587305218L534.8035,295.09770142659545L536.48,280.3972566202283L536.48,297.71675531566143L536.48,272.637683942914L536.48,301.21875L536.48,250.59427403658628L536.48,301.21875L538.1565,287.19384518265724L538.1565,301.21875L538.1565,301.21875L539.8330000000001,263.0274162143469L539.8330000000001,301.21875L539.8330000000001,263.1482222378254L539.8330000000001,301.21875L541.5095,301.21875L541.5095,301.21875L541.5095,301.21875L541.5095,301.21875L541.5095,297.34926787018776L541.5095,289.44844269007444L541.5095,296.362785089761L543.186,301.21875L543.186,295.501955922693L544.8625000000001,301.21875L546.539,301.21875L546.539,283.361714489758L546.539,286.55033730715513L548.2155,289.7109659090638L548.2155,301.21875L549.8919999999999,301.21875L549.8919999999999,282.62545113265514L549.8919999999999,301.21875L551.5685,301.21875L551.5685,301.21875L551.5685,301.21875L551.5685,301.21875L553.245,301.21875L553.245,251.2093089222908L553.245,278.42055943608284L554.9215,298.28668684512377L554.9215,288.244057752192L556.598,295.08237712830305L556.598,288.86862939968705L558.2745,299.99199644476175L558.2745,273.7871365696192L558.2745,285.0032872594893L559.951,202.97451522946358L559.951,301.21875L559.951,293.2877268344164L561.6275,301.21875L561.6275,296.1628721728921L561.6275,278.94057170301676L563.304,301.21875L563.304,177.12972883880138L563.304,253.62392266094685L563.304,301.21875L563.304,284.29396199807525L564.9805,284.73398727178574L564.9805,240.28971315175295L564.9805,291.50773548334837L564.9805,300.51078713312745L564.9805,300.68923265486956L564.9805,281.70097314566374L564.9805,250.9685558527708L566.657,301.21875L566.657,296.969247803092L566.657,172.44816099107265L566.657,301.21875L568.3335000000001,301.21875L568.3335000000001,299.6038724184036L568.3335000000001,301.21875L568.3335000000001,281.29198019206524L568.3335000000001,301.21875L570.01,296.0060559846461L570.01,301.21875L570.01,301.21875L570.01,277.26164397597313L571.6865,301.21875L571.6865,301.21875L573.363,301.21875L573.363,279.44011636823416L575.0395000000001,301.21875L575.0395000000001,301.21875L575.0395000000001,301.21875L576.716,236.91701569408178L576.716,296.5509257912636L576.716,301.21875L578.3925,240.62680546939373L578.3925,301.21875L578.3925,296.87911853939295L580.069,234.45862931013107L580.069,297.7620558142662L581.7455000000001,301.21875L581.7455000000001,285.80988819524646L583.422,301.21875L583.422,190.41277286410332L583.422,301.21875L585.0985000000001,279.76183158159256L585.0985000000001,301.21875L585.0985000000001,301.21875L585.0985000000001,301.21875L586.775,297.1939760148525L586.775,301.21875L586.775,301.21875L588.4515,301.21875L588.4515,209.94220224022865L590.128,301.21875L590.128,301.21875L590.128,301.21875L590.128,301.21875L590.128,281.86195044592023L590.128,271.4003339856863L590.128,262.2275674045086L591.8045,286.85887214541435L591.8045,283.6168237477541L591.8045,301.21875L593.481,301.21875L593.481,301.21875L595.1575,239.27990068495274L595.1575,301.21875L596.8340000000001,277.30004097148776L596.8340000000001,301.21875L596.8340000000001,250.71722046285868L598.5105,281.0357021614909L598.5105,301.21875L598.5105,301.21875L598.5105,301.21875L598.5105,301.21875L600.187,288.71824146062136L600.187,301.21875L603.5400000000001,301.21875L603.5400000000001,280.02717816084623L603.5400000000001,301.21875L605.2165,301.21875L605.2165,301.21875L606.893,301.21875L606.893,301.21875L606.893,286.84185453504324L608.5695,301.21875L608.5695,295.0793812684715L610.2460000000001,301.21875L610.2460000000001,278.406513042748L610.2460000000001,301.21875L610.2460000000001,301.21875L610.2460000000001,301.21875L610.2460000000001,301.21875L611.9225,301.21875L611.9225,298.594214849174L611.9225,301.21875" style="fill: none;" fill="none"></path></g></g></g></g></g></g><g transform="translate(60, 378)" clip-path="url(#clip_1)"><clipPath id="clip_1"><rect width="670" height="22"></rect></clipPath><g><g><line x1="0" y1="0" x2="0" y2="5" style="visibility: inherit;" fill="rgb(0, 0, 0)" stroke="rgb(204, 204, 204)" stroke-width="1px"></line><line x1="83.825" y1="0" x2="83.825" y2="5" style="visibility: inherit;" fill="rgb(0, 0, 0)" stroke="rgb(204, 204, 204)" stroke-width="1px"></line><line x1="167.65" y1="0" x2="167.65" y2="5" style="visibility: inherit;" fill="rgb(0, 0, 0)" stroke="rgb(204, 204, 204)" stroke-width="1px"></line><line x1="251.47500000000002" y1="0" x2="251.47500000000002" y2="5" style="visibility: inherit;" fill="rgb(0, 0, 0)" stroke="rgb(204, 204, 204)" stroke-width="1px"></line><line x1="335.3" y1="0" x2="335.3" y2="5" style="visibility: inherit;" fill="rgb(0, 0, 0)" stroke="rgb(204, 204, 204)" stroke-width="1px"></line><line x1="419.125" y1="0" x2="419.125" y2="5" style="visibility: inherit;" fill="rgb(0, 0, 0)" stroke="rgb(204, 204, 204)" stroke-width="1px"></line><line x1="502.95000000000005" y1="0" x2="502.95000000000005" y2="5" style="visibility: inherit;" fill="rgb(0, 0, 0)" stroke="rgb(204, 204, 204)" stroke-width="1px"></line><line x1="586.775" y1="0" x2="586.775" y2="5" style="visibility: inherit;" fill="rgb(0, 0, 0)" stroke="rgb(204, 204, 204)" stroke-width="1px"></line><line x1="670.6" y1="0" x2="670.6" y2="5" style="visibility: inherit;" fill="rgb(0, 0, 0)" stroke="rgb(204, 204, 204)" stroke-width="1px"></line></g><g transform="translate(0, 8)"><text x="0" y="0" dx="0em" dy="0.95em" style="text-anchor: middle; visibility: hidden; font-family: &quot;Helvetica Neue&quot;, sans-serif; font-size: 12px; font-weight: 200;" fill="rgb(50, 49, 63)" stroke="none" stroke-width="1px">-50</text><text x="83.825" y="0" dx="0em" dy="0.95em" style="text-anchor: middle; visibility: inherit; font-family: &quot;Helvetica Neue&quot;, sans-serif; font-size: 12px; font-weight: 200;" fill="rgb(50, 49, 63)" stroke="none" stroke-width="1px">0</text><text x="167.65" y="0" dx="0em" dy="0.95em" style="text-anchor: middle; visibility: inherit; font-family: &quot;Helvetica Neue&quot;, sans-serif; font-size: 12px; font-weight: 200;" fill="rgb(50, 49, 63)" stroke="none" stroke-width="1px">50</text><text x="251.47500000000002" y="0" dx="0em" dy="0.95em" style="text-anchor: middle; visibility: inherit; font-family: &quot;Helvetica Neue&quot;, sans-serif; font-size: 12px; font-weight: 200;" fill="rgb(50, 49, 63)" stroke="none" stroke-width="1px">100</text><text x="335.3" y="0" dx="0em" dy="0.95em" style="text-anchor: middle; visibility: inherit; font-family: &quot;Helvetica Neue&quot;, sans-serif; font-size: 12px; font-weight: 200;" fill="rgb(50, 49, 63)" stroke="none" stroke-width="1px">150</text><text x="419.125" y="0" dx="0em" dy="0.95em" style="text-anchor: middle; visibility: inherit; font-family: &quot;Helvetica Neue&quot;, sans-serif; font-size: 12px; font-weight: 200;" fill="rgb(50, 49, 63)" stroke="none" stroke-width="1px">200</text><text x="502.95000000000005" y="0" dx="0em" dy="0.95em" style="text-anchor: middle; visibility: inherit; font-family: &quot;Helvetica Neue&quot;, sans-serif; font-size: 12px; font-weight: 200;" fill="rgb(50, 49, 63)" stroke="none" stroke-width="1px">250</text><text x="586.775" y="0" dx="0em" dy="0.95em" style="text-anchor: middle; visibility: inherit; font-family: &quot;Helvetica Neue&quot;, sans-serif; font-size: 12px; font-weight: 200;" fill="rgb(50, 49, 63)" stroke="none" stroke-width="1px">300</text><text x="670.6" y="0" dx="0em" dy="0.95em" style="text-anchor: middle; visibility: hidden; font-family: &quot;Helvetica Neue&quot;, sans-serif; font-size: 12px; font-weight: 200;" fill="rgb(50, 49, 63)" stroke="none" stroke-width="1px">350</text></g><line x1="0" y1="0" x2="670.6" y2="0" fill="rgb(0, 0, 0)" stroke="rgb(204, 204, 204)" stroke-width="1px"></line></g></g></g></g></svg>