<svg viewBox="0 0 730.6000366210938 400" xmlns="http://www.w3.org/2000/svg"><g><g><g><g><g><line x1="60" y1="378" x2="55" y2="378" style="visibility: inherit;" fill="rgb(0, 0, 0)" stroke="rgb(204, 204, 204)" stroke-width="1px"></line><line x1="60" y1="340.2" x2="55" y2="340.2" style="visibility: inherit;" fill="rgb(0, 0, 0)" stroke="rgb(204, 204, 204)" stroke-width="1px"></line><line x1="60" y1="302.4" x2="55" y2="302.4" style="visibility: inherit;" fill="rgb(0, 0, 0)" stroke="rgb(204, 204, 204)" stroke-width="1px"></line><line x1="60" y1="264.59999999999997" x2="55" y2="264.59999999999997" style="visibility: inherit;" fill="rgb(0, 0, 0)" stroke="rgb(204, 204, 204)" stroke-width="1px"></line><line x1="60" y1="226.79999999999998" x2="55" y2="226.79999999999998" style="visibility: inherit;" fill="rgb(0, 0, 0)" stroke="rgb(204, 204, 204)" stroke-width="1px"></line><line x1="60" y1="189" x2="55" y2="189" style="visibility: inherit;" fill="rgb(0, 0, 0)" stroke="rgb(204, 204, 204)" stroke-width="1px"></line><line x1="60" y1="151.20000000000002" x2="55" y2="151.20000000000002" style="visibility: inherit;" fill="rgb(0, 0, 0)" stroke="rgb(204, 204, 204)" stroke-width="1px"></line><line x1="60" y1="113.40000000000003" x2="55" y2="113.40000000000003" style="visibility: inherit;" fill="rgb(0, 0, 0)" stroke="rgb(204, 204, 204)" stroke-width="1px"></line><line x1="60" y1="75.60000000000002" x2="55" y2="75.60000000000002" style="visibility: inherit;" fill="rgb(0, 0, 0)" stroke="rgb(204, 204, 204)" stroke-width="1px"></line><line x1="60" y1="37.80000000000001" x2="55" y2="37.80000000000001" style="visibility: inherit;" fill="rgb(0, 0, 0)" stroke="rgb(204, 204, 204)" stroke-width="1px"></line><line x1="60" y1="0" x2="55" y2="0" style="visibility: inherit;" fill="rgb(0, 0, 0)" stroke="rgb(204, 204, 204)" stroke-width="1px"></line></g><g transform="translate(50, 0)"><text x="0" y="378" dx="0em" dy="0.3em" style="text-anchor: end; visibility: hidden; font-family: &quot;Helvetica Neue&quot;, sans-serif; font-size: 12px; font-weight: 200;" fill="rgb(50, 49, 63)" stroke="none" stroke-width="1px">-0.05</text><text x="0" y="340.2" dx="0em" dy="0.3em" style="text-anchor: end; visibility: inherit; font-family: &quot;Helvetica Neue&quot;, sans-serif; font-size: 12px; font-weight: 200;" fill="rgb(50, 49, 63)" stroke="none" stroke-width="1px">0</text><text x="0" y="302.4" dx="0em" dy="0.3em" style="text-anchor: end; visibility: inherit; font-family: &quot;Helvetica Neue&quot;, sans-serif; font-size: 12px; font-weight: 200;" fill="rgb(50, 49, 63)" stroke="none" stroke-width="1px">0.05</text><text x="0" y="264.59999999999997" dx="0em" dy="0.3em" style="text-anchor: end; visibility: inherit; font-family: &quot;Helvetica Neue&quot;, sans-serif; font-size: 12px; font-weight: 200;" fill="rgb(50, 49, 63)" stroke="none" stroke-width="1px">0.1</text><text x="0" y="226.79999999999998" dx="0em" dy="0.3em" style="text-anchor: end; visibility: inherit; font-family: &quot;Helvetica Neue&quot;, sans-serif; font-size: 12px; font-weight: 200;" fill="rgb(50, 49, 63)" stroke="none" stroke-width="1px">0.15</text><text x="0" y="189" dx="0em" dy="0.3em" style="text-anchor: end; visibility: inherit; font-family: &quot;Helvetica Neue&quot;, sans-serif; font-size: 12px; font-weight: 200;" fill="rgb(50, 49, 63)" stroke="none" stroke-width="1px">0.2</text><text x="0" y="151.20000000000002" dx="0em" dy="0.3em" style="text-anchor: end; visibility: inherit; font-family: &quot;Helvetica Neue&quot;, sans-serif; font-size: 12px; font-weight: 200;" fill="rgb(50, 49, 63)" stroke="none" stroke-width="1px">0.25</text><text x="0" y="113.40000000000003" dx="0em" dy="0.3em" style="text-anchor: end; visibility: inherit; font-family: &quot;Helvetica Neue&quot;, sans-serif; font-size: 12px; font-weight: 200;" fill="rgb(50, 49, 63)" stroke="none" stroke-width="1px">0.3</text><text x="0" y="75.60000000000002" dx="0em" dy="0.3em" style="text-anchor: end; visibility: inherit; font-family: &quot;Helvetica Neue&quot;, sans-serif; font-size: 12px; font-weight: 200;" fill="rgb(50, 49, 63)" stroke="none" stroke-width="1px">0.35</text><text x="0" y="37.80000000000001" dx="0em" dy="0.3em" style="text-anchor: end; visibility: inherit; font-family: &quot;Helvetica Neue&quot;, sans-serif; font-size: 12px; font-weight: 200;" fill="rgb(50, 49, 63)" stroke="none" stroke-width="1px">0.4</text><text x="0" y="0" dx="0em" dy="0.3em" style="text-anchor: end; visibility: hidden; font-family: &quot;Helvetica Neue&quot;, sans-serif; font-size: 12px; font-weight: 200;" fill="rgb(50, 49, 63)" stroke="none" stroke-width="1px">0.45</text></g><line x1="60" y1="0" x2="60" y2="378" fill="rgb(0, 0, 0)" stroke="rgb(204, 204, 204)" stroke-width="1px"></line></g></g><g transform="translate(60, 0)" clip-path="url(#clip_0)"><clipPath id="clip_0"><rect width="670" height="378"></rect></clipPath><g><g><g><line x1="0" y1="0" x2="0" y2="378" fill="rgb(0, 0, 0)" stroke="rgb(60, 60, 60)" stroke-width="1px" opacity="0.25"></line><line x1="83.825" y1="0" x2="83.825" y2="378" fill="rgb(0, 0, 0)" stroke="rgb(60, 60, 60)" stroke-width="1px" opacity="0.25"></line><line x1="167.65" y1="0" x2="167.65" y2="378" fill="rgb(0, 0, 0)" stroke="rgb(60, 60, 60)" stroke-width="1px" opacity="0.25"></line><line x1="251.47500000000002" y1="0" x2="251.47500000000002" y2="378" fill="rgb(0, 0, 0)" stroke="rgb(60, 60, 60)" stroke-width="1px" opacity="0.25"></line><line x1="335.3" y1="0" x2="335.3" y2="378" fill="rgb(0, 0, 0)" stroke="rgb(60, 60, 60)" stroke-width="1px" opacity="0.25"></line><line x1="419.125" y1="0" x2="419.125" y2="378" fill="rgb(0, 0, 0)" stroke="rgb(60, 60, 60)" stroke-width="1px" opacity="0.25"></line><line x1="502.95000000000005" y1="0" x2="502.95000000000005" y2="378" fill="rgb(0, 0, 0)" stroke="rgb(60, 60, 60)" stroke-width="1px" opacity="0.25"></line><line x1="586.775" y1="0" x2="586.775" y2="378" fill="rgb(0, 0, 0)" stroke="rgb(60, 60, 60)" stroke-width="1px" opacity="0.25"></line><line x1="670.6" y1="0" x2="670.6" y2="378" fill="rgb(0, 0, 0)" stroke="rgb(60, 60, 60)" stroke-width="1px" opacity="0.25"></line></g><g><line x1="0" y1="378" x2="670.6" y2="378" fill="rgb(0, 0, 0)" stroke="rgb(60, 60, 60)" stroke-width="1px" opacity="0.25"></line><line x1="0" y1="340.2" x2="670.6" y2="340.2" fill="rgb(0, 0, 0)" stroke="rgb(60, 60, 60)" stroke-width="1px" opacity="0.25"></line><line x1="0" y1="302.4" x2="670.6" y2="302.4" fill="rgb(0, 0, 0)" stroke="rgb(60, 60, 60)" stroke-width="1px" opacity="0.25"></line><line x1="0" y1="264.59999999999997" x2="670.6" y2="264.59999999999997" fill="rgb(0, 0, 0)" stroke="rgb(60, 60, 60)" stroke-width="1px" opacity="0.25"></line><line x1="0" y1="226.79999999999998" x2="670.6" y2="226.79999999999998" fill="rgb(0, 0, 0)" stroke="rgb(60, 60, 60)" stroke-width="1px" opacity="0.25"></line><line x1="0" y1="189" x2="670.6" y2="189" fill="rgb(0, 0, 0)" stroke="rgb(60, 60, 60)" stroke-width="1px" opacity="0.25"></line><line x1="0" y1="151.20000000000002" x2="670.6" y2="151.20000000000002" fill="rgb(0, 0, 0)" stroke="rgb(60, 60, 60)" stroke-width="1px" opacity="0.25"></line><line x1="0" y1="113.40000000000003" x2="670.6" y2="113.40000000000003" fill="rgb(0, 0, 0)" stroke="rgb(60, 60, 60)" stroke-width="1px" opacity="0.25"></line><line x1="0" y1="75.60000000000002" x2="670.6" y2="75.60000000000002" fill="rgb(0, 0, 0)" stroke="rgb(60, 60, 60)" stroke-width="1px" opacity="0.25"></line><line x1="0" y1="37.80000000000001" x2="670.6" y2="37.80000000000001" fill="rgb(0, 0, 0)" stroke="rgb(60, 60, 60)" stroke-width="1px" opacity="0.25"></line><line x1="0" y1="0" x2="670.6" y2="0" fill="rgb(0, 0, 0)" stroke="rgb(60, 60, 60)" stroke-width="1px" opacity="0.25"></line></g></g></g><g><g><line x1="0" y1="340.2" x2="670.6" y2="340.2" fill="rgb(0, 0, 0)" stroke="rgb(153, 153, 153)" stroke-width="1.5px"></line></g></g><g><g><line x1="83.825" y1="0" x2="83.825" y2="378" fill="rgb(0, 0, 0)" stroke="rgb(153, 153, 153)" stroke-width="1.5px"></line></g></g><g><g><g><g><g><path stroke="rgb(255, 112, 67)" stroke-width="2px" d="M83.825,-228.97342977225787L83.825,2.854037960938001L85.50150000000001,133.73381661851613L85.50150000000001,192.12975161705972L85.50150000000001,76.30588135374217L87.17800000000001,43.07837258657503L87.17800000000001,120.89338447960063L87.17800000000001,101.714142927799L87.17800000000001,132.14489130404655L88.8545,136.61127805486797L90.531,146.68995874990387L92.20750000000001,176.65384824633017L92.20750000000001,188.3447071050278L92.20750000000001,180.53654171952752L93.88400000000001,190.54011394683576L93.88400000000001,231.79477193264321L95.56049999999999,237.84321594323052L95.56049999999999,174.38457877870658L95.56049999999999,210.5004940738565L95.56049999999999,169.14205558245834L97.237,49.949600110718904L97.237,79.34622239355303L98.9135,117.571705890526L98.9135,-5.798182350516186L98.9135,76.93024274423306L100.59,65.54539240947736L100.59,149.04986429001644L102.26650000000001,-23.267224022724292L102.26650000000001,36.84451751380942L102.26650000000001,58.177055192021726L102.26650000000001,-186.34821990132798L103.943,-10.604925750166444L103.943,55.91456947805483L105.6195,91.8701525992285L105.6195,100.63603479005559L107.296,129.49158085056433L107.296,118.36850817984754L107.296,154.01196446883762L110.64900000000002,195.53336832079455L110.64900000000002,20.72708008193871L110.64900000000002,-32.559503175481666L112.3255,-99.03832849371707L112.3255,22.72425082067798L112.3255,41.79652309159053L112.3255,30.343849066080452L114.00200000000001,16.223506981797698L114.00200000000001,29.291360153380595L114.00200000000001,48.68219922879803L114.00200000000001,109.55894453350237L115.6785,92.18568398846645L115.6785,144.1602053826775L115.6785,49.87544821891254L117.35499999999999,3.819081568672914L117.35499999999999,29.159680981610222L117.35499999999999,93.9852599544389L119.0315,-42.09312587243181L119.0315,-1.1630654839383965L119.0315,59.04887223078606L120.708,115.66488964935445L120.708,44.31725585687326L120.708,100.35973144190416L120.708,130.5857119167859L120.708,-42.72707275837587L122.3845,79.50079804962922L124.061,97.99791132870945L124.061,59.98004546322602L124.061,17.844552870739562L124.061,67.93415761241266L124.061,116.04284437327954L125.73750000000001,90.06478150266031L125.73750000000001,98.2005551599122L125.73750000000001,102.93039772645574L127.414,162.85876906237567L127.414,68.03589015675522L127.414,40.68983308239541L127.414,82.90749791004515L127.414,101.819213578333L127.414,44.437467668789395L129.09050000000002,-60.52822500327966L129.09050000000002,-50.31407519018495L129.09050000000002,24.821577554727583L129.09050000000002,-74.29111844671678L129.09050000000002,34.056359186333964L130.767,69.0910415783897L130.767,153.22950632663816L130.767,57.34387757833156L130.767,155.12267638597103L132.4435,179.73469737859494L132.4435,-44.29574613277964L134.12,-8.280727843182717L134.12,75.73006943956773L135.7965,102.17276936111307L135.7965,154.90032061420357L137.47299999999998,91.69518450070905L137.47299999999998,30.275770330247212L137.47299999999998,79.18774113167342L139.1495,-7.364665806835774L139.1495,63.093212263258806L140.826,77.3849888947442L140.826,102.75783686559413L140.826,111.38148971510537L140.826,156.6069660956419L140.826,199.3285659345839L142.5025,217.51220313744867L144.179,74.57558138869484L144.179,137.446729162349L145.8555,128.45943919838288L145.8555,106.43031361592307L145.8555,146.98254573161896L145.8555,132.0600017584294L145.8555,123.97421719771205L147.532,144.49203504885185L147.532,158.67060345748035L149.20850000000002,183.37796208345276L149.20850000000002,136.1358016603195L149.20850000000002,161.4373898001315L149.20850000000002,167.47740332912218L150.88500000000002,197.22851527590043L150.88500000000002,184.17768713032297L150.88500000000002,202.1343350231355L150.88500000000002,214.5356652438465L150.88500000000002,156.8150050270452L152.56150000000002,145.36658678697907L152.56150000000002,173.68981327442742L154.238,139.875165049007L154.238,140.43580991731315L154.238,164.18139016333956L154.238,124.36153288187822L154.238,115.83534937085057L154.238,124.14876972306575L155.9145,120.5792482344437L157.591,146.57348604965975L159.26749999999998,130.75790091019135L159.26749999999998,171.4163713244275L159.26749999999998,53.08875090287182L159.26749999999998,87.28458559039865L159.26749999999998,127.66750719740173L159.26749999999998,127.72331218358386L159.26749999999998,196.6307675256521L159.26749999999998,242.1360204156751L162.6205,238.77822656729901L162.6205,219.609312344188L162.6205,238.34589595591697L162.6205,242.9341607081632L162.6205,213.4651263992632L164.297,221.74829674486188L164.297,205.28522375538267L165.9735,217.99070224830103L165.9735,204.6020291237151L165.9735,213.80112252641413L165.9735,157.15891050582346L167.65,172.57286312630902L169.3265,-39.991257290535486L169.3265,54.000247304145546L169.3265,150.115794320407L171.00300000000001,152.44662148207573L171.00300000000001,161.9838394358763L171.00300000000001,160.16925771921925L171.00300000000001,135.42269518786702L171.00300000000001,171.29829344519396L171.00300000000001,99.27400025229707L171.00300000000001,138.4756834822956L172.67950000000002,108.53719115245718L172.67950000000002,150.78710506432282L172.67950000000002,137.39837638660092L172.67950000000002,185.4614374454249L172.67950000000002,121.49092227789333L172.67950000000002,163.852176829413L174.35600000000002,118.89593737854688L176.03250000000003,87.31909302672221L177.709,122.37675030589389L177.709,178.37375411009958L177.709,179.3177978838454L177.709,206.04117195159017L179.3855,216.2310676404823L179.3855,199.3368736451262L181.062,222.19547290953358L181.062,215.65514466853355L181.062,228.31591735179077L181.062,187.24513916191367L181.062,194.2973017026002L181.062,185.46771267706245L182.73850000000002,182.95707011493496L182.73850000000002,226.20375376386914L184.41500000000002,202.95110448743986L184.41500000000002,204.26685934869099L184.41500000000002,195.1160248423079L184.41500000000002,203.08653082754967L186.09150000000002,210.05513195459102L186.09150000000002,206.43277156987222L186.09150000000002,210.08668530844707L187.76800000000003,170.97216607131398L187.76800000000003,191.72633467792176L187.76800000000003,196.2653836934489L189.44449999999998,207.39606744102966L189.44449999999998,181.04080774100024L191.12099999999998,175.23106996125816L191.12099999999998,211.49373734418654L192.79749999999999,162.37084933056894L192.79749999999999,146.60710387667694L194.474,169.0635419967215L194.474,183.237956450131L196.1505,201.54664576872972L196.1505,164.0660745240735L196.1505,176.682824970334L196.1505,196.2668299490507L197.827,173.407636230844L197.827,166.82449185470207L197.827,183.4216429258553L199.5035,171.3898137775164L201.18,184.44239003939038L201.18,238.16940103937748L201.18,199.45602474075298L201.18,209.18520921624744L201.18,225.73134208295969L201.18,221.71284437998668L201.18,233.70156014933903L202.8565,231.5110745058937L202.8565,235.5635344568779L202.8565,197.2527631797725L202.8565,206.93295211543645L204.53300000000002,160.00880899280315L206.2095,166.25690006643535L206.2095,185.95243594783545L206.2095,112.86439463220836L206.2095,159.5685333342719L206.2095,162.51797773905804L206.2095,198.51487502615575L206.2095,164.91677478528575L207.886,157.91262293086385L207.886,192.88530231133657L207.886,190.12924743542408L207.886,209.897653374966L211.239,197.65360233896732L212.9155,193.97985056944944L212.9155,205.0438032192484L214.592,208.85283268228144L214.592,196.1183725448547L214.592,167.34327816558474L216.26850000000002,177.64194569821709L216.26850000000002,188.11065310618613L216.26850000000002,164.99776653755507L216.26850000000002,189.52241247361184L217.94500000000002,182.44935957351493L217.94500000000002,158.5766238007496L219.62150000000003,149.93895559987726L219.62150000000003,178.7265161888677L219.62150000000003,196.88159694056978L221.29800000000003,210.2463735257463L221.29800000000003,215.03297891586283L221.29800000000003,233.03663460713182L221.29800000000003,177.56518934429621L222.9745,200.01649133599363L222.9745,200.34117091319894L222.9745,222.4152278388854L222.9745,241.58555863888958L222.9745,181.11353861923158L222.9745,199.59406867286646L224.651,211.40123760379007L224.651,167.22874098108204L224.651,192.1949457280993L224.651,184.5217674275136L226.32750000000001,177.904922019237L226.32750000000001,228.66776094960792L226.32750000000001,220.72167808370367L226.32750000000001,251.56603653047426L228.00400000000002,180.14448888071743L228.00400000000002,185.49628808360316L228.00400000000002,196.87586564458024L229.68050000000002,168.95810665748485L229.68050000000002,192.4301168612359L229.68050000000002,231.24745943377718L229.68050000000002,228.9588867606539L229.68050000000002,242.4068406380307L229.68050000000002,220.08226504546948L231.357,199.5271153177175L231.357,154.16890813144164L231.357,156.5881939532287L231.357,159.6645925213055L231.357,163.94794940049388L231.357,175.209738230079L233.0335,170.67016211948967L233.0335,164.84836590648993L233.0335,182.49791661001032L233.0335,169.84684708056918L234.70999999999998,216.4707178183679L234.70999999999998,208.71455967356468L234.70999999999998,185.09229078727785L234.70999999999998,214.62106988214148L234.70999999999998,177.07990537990747L234.70999999999998,177.9669054014064L234.70999999999998,184.4277417744742L236.38649999999998,175.2022207597224L236.38649999999998,199.71287320252227L238.063,169.8473817050217L238.063,182.12447486041538L238.063,198.0589118392381L238.063,205.68527625030953L239.7395,196.24286700979874L239.7395,194.61331090030674L239.7395,191.54603041110994L241.416,200.7299080949936L243.0925,168.12041797291718L243.0925,172.53037595064333L243.0925,176.78366706437404L243.0925,168.91671968976576L244.769,181.63775185513447L244.769,197.34965720515223L244.769,208.21487171376214L244.769,220.12148437335767L246.4455,196.87093471428562L246.4455,205.25348656023033L248.122,226.44785776999288L248.122,263.84878667930775L248.122,247.82669728720197L248.122,224.83458336904056L249.79850000000002,227.89590626665597L249.79850000000002,211.2645882279196L249.79850000000002,226.16672042551747L249.79850000000002,221.78014188017315L251.47500000000002,224.14092084053675L251.47500000000002,234.19076822449873L251.47500000000002,195.59471585184403L251.47500000000002,191.00280307906905L253.1515,243.4440444199922L253.1515,202.96736676506296L254.828,207.48694603331145L254.828,198.06210056237734L256.5045,212.56937754209255L256.5045,197.86930885824808L259.8575,223.48012494869977L259.8575,231.05360629932852L259.8575,221.42584037528496L261.534,185.5652833255891L261.534,169.6429165811994L261.534,179.82023867915024L261.534,191.6978022441265L261.534,226.97768017441015L263.2105,246.80516503804913L263.2105,208.77988803001637L263.2105,221.34906323201892L263.2105,215.0209790482964L263.2105,212.40340035527026L263.2105,208.50281065803216L264.887,218.30631822884945L264.887,228.23032335842174L264.887,225.12025128128838L266.56350000000003,219.03592924548812L266.56350000000003,212.19717226668374L268.24,228.01236003067595L268.24,235.27676956788602L268.24,236.84550388894024L268.24,240.87268260146107L268.24,218.93723971739365L269.91650000000004,193.8610275500712L269.91650000000004,203.05023393593413L269.91650000000004,210.06690181709635L271.593,237.07729321847745L271.593,243.13727305490008L271.593,215.54847695206544L271.593,186.59384969815576L273.2695,221.8222402974663L273.2695,201.92005440739976L273.2695,198.9100579377901L274.94599999999997,213.7875580571229L274.94599999999997,223.2923634208521L276.6225,227.77974568827634L276.6225,216.80004804029278L276.6225,225.92526882585415L276.6225,207.89130748806318L276.6225,205.6695190089817L278.299,171.94304930555077L278.299,187.77342319600135L278.299,195.0672128970167L278.299,183.81128697721604L278.299,173.11192816453246L279.9755,202.32708591674012L279.9755,201.20554875883008L279.9755,204.25134875984514L281.652,215.22363435871318L281.652,210.12481794623682L281.652,196.47385076682656L283.3285,197.9537499713951L283.3285,206.09420328426683L285.005,201.02772015266612L285.005,215.72350072105522L285.005,205.4558670284736L285.005,196.2398054982655L285.005,204.03337388428645L286.6815,192.40535036321043L286.6815,213.28974936244225L286.6815,171.46009685180982L286.6815,180.88738092411998L288.358,186.31738236802482L288.358,179.8803499225239L288.358,207.1275985695994L288.358,252.39481500018098L288.358,252.26656159179484L290.0345,247.50556333790468L290.0345,240.38775136906054L290.0345,224.74487433217854L290.0345,214.11248289455705L291.711,243.24906927174172L291.711,232.0662129081836L291.711,229.19247039780322L291.711,237.6320424641687L291.711,204.59809848341453L291.711,177.75889621658987L291.711,182.23949784805697L293.3875,185.81273288470695L293.3875,191.7213990911376L296.7405,196.50964562323878L296.7405,203.122769433422L296.7405,201.61869271168896L296.7405,186.3538330100166L298.41700000000003,180.15695077074693L298.41700000000003,205.26379257853702L300.0935,174.41929485330508L300.0935,193.068808118877L300.0935,185.49888594649863L301.77000000000004,216.12840986551421L301.77000000000004,231.92368994415747L303.4465,219.44635900891393L303.4465,226.10269669196947L305.12300000000005,201.50449409664836L305.12300000000005,181.19817120660048L305.12300000000005,206.45696625488222L306.7995,207.97041086064112L306.7995,233.6347728759428L308.476,253.77102071466325L308.476,264.03699588312077L308.476,265.0594723363719L308.476,213.12225068926824L310.15250000000003,208.57744864296922L310.15250000000003,198.68107872290616L310.15250000000003,208.98006848027234L310.15250000000003,217.68960769373132L311.829,221.12590942500802L313.50550000000004,216.55304111551504L313.50550000000004,210.10986596531427L313.50550000000004,198.73730241648408L313.50550000000004,157.84493246192963L313.50550000000004,168.7111193139269L313.50550000000004,209.33591491454325L313.50550000000004,209.82660977407386L315.182,220.54415744044834L315.182,222.9644003289846L315.182,230.86113665449068L315.182,210.83353301732208L318.53499999999997,200.22743769674582L318.53499999999997,194.99752257459807L318.53499999999997,215.54359905119807L321.888,203.5945486128096L321.888,221.60908861039664L323.5645,235.86483442710986L323.5645,236.2691196008155L323.5645,250.08206972382243L325.241,256.73984646619425L325.241,200.8659570969407L325.241,223.2362124346056L325.241,216.03770033731212L326.9175,214.4767972291359L326.9175,231.31105996017746L326.9175,240.12036891964132L326.9175,223.50606487385662L328.594,217.5096554696097L330.2705,215.47054126379098L330.2705,209.39322499821904L331.947,215.37749424690202L331.947,208.81343970247624L331.947,220.93070906608412L333.62350000000004,227.07605244522756L333.62350000000004,216.97448176506438L333.62350000000004,206.78399490811395L335.3,221.31090018926838L335.3,231.15577463256588L336.9765,213.258153299971L336.9765,228.87186371593688L336.9765,207.16482548778663L336.9765,215.53364909687883L336.9765,229.93495434402968L336.9765,220.31391097712248L338.653,229.35057868008454L338.653,215.98741754439257L338.653,209.75005660859816L338.653,192.3837104034905L340.3295,186.5270026130965L340.3295,226.28173862001245L342.00600000000003,241.70915273964968L343.6825,221.2946707781587L343.6825,220.58879084923467L345.35900000000004,218.09000044070842L345.35900000000004,213.63881784560184L345.35900000000004,199.70370911766233L345.35900000000004,210.8813445807048L347.0355,210.74980306151798L347.0355,192.15714199735694L347.0355,196.24996862527118L347.0355,211.82452677796118L348.71200000000005,227.06706947034496L348.71200000000005,238.2186616942042L348.71200000000005,231.75163955478394L348.71200000000005,235.80090215080094L350.38849999999996,219.61484939499567L350.38849999999996,239.52044434215946L350.38849999999996,172.46280040542078L350.38849999999996,173.19557759165642L350.38849999999996,179.96774498104975L352.06500000000005,201.79078750777202L352.06500000000005,229.33440919976206L352.06500000000005,222.6748920027064L352.06500000000005,219.49230944059173L353.7415,224.59317836607624L353.7415,234.5255845561333L353.7415,219.6746647032921L355.418,232.2873476477161L355.418,242.11202117274374L357.0945,211.69381492894988L357.0945,219.99493931747733L357.0945,189.66936795602598L357.0945,176.9032041400096L357.0945,196.52123164233097L358.771,213.52479224143343L358.771,227.4300642582054L358.771,200.62755223824232L360.4475,207.73543024965315L360.4475,204.6702553135645L362.124,231.04334671392985L362.124,220.06763048109383L362.124,208.90746152363403L362.124,206.23740373112074L362.124,200.31941580091305L362.124,213.55266139575474L362.124,210.65624958556074L362.124,233.7182132666181L362.124,224.10243930488056L362.124,207.7896391562773L363.8005,202.10310600353202L363.8005,188.3160274204786L365.47700000000003,207.40777105433796L365.47700000000003,219.543068785328L365.47700000000003,228.61315552405017L365.47700000000003,216.74636948592362L365.47700000000003,225.48591652683555L367.1535,228.95178563578213L367.1535,211.10640113343766L367.1535,231.09102343076452L370.5065,232.34692427726972L370.5065,212.90042918927904L370.5065,207.37451483492512L370.5065,195.91145314266956L372.18300000000005,200.6624470370452L372.18300000000005,228.12194598301892L372.18300000000005,228.8966981255093L373.8595,246.35233490247L373.8595,235.35723586904092L373.8595,229.5775759984677L373.8595,229.27765281496195L375.53600000000006,234.81786003290264L375.53600000000006,256.73433863746317L375.53600000000006,271.98398459808345L377.21250000000003,263.3993623116989L377.21250000000003,250.37482211228482L378.88899999999995,228.3319664361255L378.88899999999995,219.7583081032143L378.88899999999995,185.10229796083604L380.56550000000004,202.80559801287555L380.56550000000004,213.65640738026562L380.56550000000004,210.35633651743092L382.24199999999996,215.42279289442155L382.24199999999996,213.46224419521008L382.24199999999996,212.20510688451952L382.24199999999996,226.75728422300833L383.9185,259.532909051757L383.9185,259.50931345473583L383.9185,250.69564478308473L383.9185,250.84090338653633L385.59499999999997,236.54315487924998L385.59499999999997,223.06618722190728L385.59499999999997,233.63321593231123L387.2715,217.58779396787978L387.2715,227.14052349910554L387.2715,238.95420362583053L387.2715,248.98679709929974L388.948,238.56441653548924L388.948,219.56489406573326L388.948,226.43252708523005L388.948,226.27788438086827L388.948,225.81871136716077L390.6245,220.38704482013625L390.6245,221.8982547050395L390.6245,232.7444254163312L390.6245,212.3839805175905L392.301,202.02903488457468L393.9775,208.95224666583698L393.9775,219.71078083984946L393.9775,227.5415630034977L393.9775,232.32882522179926L393.9775,213.77140218874362L395.654,198.1278271416458L395.654,197.056601728179L397.33050000000003,200.89063833545325L399.007,193.99482645506072L399.007,224.55124987789634L399.007,223.68365861432935L400.68350000000004,199.21284374151938L400.68350000000004,214.97088397356458L400.68350000000004,194.3863805628573L400.68350000000004,252.33711984913083L402.36,249.34062757468539L402.36,247.12609717354965L404.03650000000005,237.10171996298902L404.03650000000005,247.34735514845536L404.03650000000005,243.12434503392032L404.03650000000005,219.43134606931002L405.713,232.32070419700975L409.06600000000003,228.84620348401089L409.06600000000003,193.97540786616338L409.06600000000003,203.55052954883774L412.419,218.4676701291287L412.419,217.09281361960672L412.419,215.40894931354106L414.0955000000001,214.53500367759455L414.0955000000001,221.83729623769992L414.0955000000001,210.84159452805088L415.772,213.50686347418525L415.772,202.4351151748508L415.772,193.4961529996401L415.772,225.2635325733665L417.4485,224.69395228766464L417.4485,256.4841809472028L417.4485,256.8817897129407L417.4485,250.26090700437726L417.4485,273.2395137537128L417.4485,264.3565407793883L419.125,236.44867531544946L419.125,229.5417880111157L419.125,232.84661333401317L419.125,239.51653778218812L419.125,225.16279688157792L420.8015,219.29856817411275L420.8015,224.90669945053395L422.478,207.86156234724604L424.1545,227.74859105577042L424.1545,228.21821231740697L424.1545,200.9801459306358L425.831,216.34202473603958L425.831,211.7916756990151L425.831,237.85075128093936L425.831,224.94875367173898L425.831,209.2038140087685L425.831,228.66397678073412L425.831,247.82296316633324L425.831,229.90789581304608L427.5075,220.87249342063558L429.184,228.76408422147924L429.184,220.60222867104824L429.184,235.09402840002426L430.8605,243.8200156537536L432.53700000000003,245.6270251946356L432.53700000000003,240.39859277944007L434.2135,237.73438210332534L434.2135,239.99310035612666L434.2135,216.04138476792863L435.89000000000004,227.50640952553684L435.89000000000004,237.14252453307114L435.89000000000004,225.33251136577007L437.5665,210.7011420180552L437.5665,205.39595532000976L439.24300000000005,221.55419435728143L439.24300000000005,226.7087756838116L439.24300000000005,232.28793352399546L439.24300000000005,222.83111514064237L440.91949999999997,207.64082933791022L440.91949999999997,210.8513494856807L440.91949999999997,234.84558613345936L442.59600000000006,218.81602978733727L442.59600000000006,233.69078095452514L444.2725,223.73161032495813L444.2725,199.56151261030385L445.949,213.25479072868077L445.949,211.73012244307546L445.949,214.38394520523278L447.6255,212.79465853358585L447.6255,205.15910949698255L449.302,232.10829245562059L449.302,238.73158549257937L449.302,221.91977407806408L450.9785,238.5554786746102L450.9785,247.7044987859963L450.9785,231.1488480486058L452.65500000000003,240.9464881418695L454.3315,245.53655872813164L454.3315,229.42855605406345L454.3315,228.30134805275665L454.3315,227.16790531297724L454.3315,227.9744417847407L456.00800000000004,236.43163218863083L456.00800000000004,240.20188011865181L456.00800000000004,258.959583741071L456.00800000000004,213.05765349247585L457.6845,214.153642769924L459.36100000000005,208.60406823412848L459.36100000000005,225.53429038677376L459.36100000000005,234.52881510349368L459.36100000000005,240.62590577657375L459.36100000000005,226.31159445795626L459.36100000000005,215.54782220097312L461.0375,229.42796585066276L461.0375,242.48290179910154L462.714,222.18441426480945L462.714,211.63259113147936L462.714,225.48043072888302L462.714,223.95232990663675L462.714,184.49247026492017L464.39050000000003,211.38193927317175L464.39050000000003,191.00650436228105L466.067,187.06940123644824L466.067,211.12767889504048L466.067,199.13299459936863L466.067,210.60706178857473L466.067,228.2984363634204L467.74350000000004,255.81838092081637L467.74350000000004,258.04496595664557L467.74350000000004,230.17156778695426L467.74350000000004,240.08441808058166L467.74350000000004,234.32285425086823L467.74350000000004,229.39343598973755L471.09650000000005,236.33689857895376L472.77299999999997,227.8275175462675L472.77299999999997,233.10710525813772L472.77299999999997,233.55484302701396L472.77299999999997,204.00523245729116L472.77299999999997,209.73038745639982L472.77299999999997,219.14673016976278L474.4495,197.3914492804465L474.4495,212.90519592515574L474.4495,233.0124834665772L474.4495,243.49188997561436L474.4495,234.63575152763548L476.126,232.74199953680528L477.8025,215.74915327909764L477.8025,170.8551234905909L477.8025,193.5562145343417L477.8025,202.2246710366603L477.8025,211.05984246650914L477.8025,206.60212350320566L479.479,213.91701782483904L479.479,229.23636063062574L479.479,245.89735923363824L481.1555,219.68200659128462L481.1555,221.09201405151148L481.1555,222.56741861405052L481.1555,232.24844160498427L481.1555,266.4617055155113L481.1555,243.6670821891591L481.1555,214.11662145056516L482.832,220.82323808907384L482.832,234.35052888535805L484.5085,239.27122341241449L486.185,257.4404980864883L486.185,259.5839086655832L486.185,261.6030700066123L486.185,257.9099915229341L486.185,254.04958284396292L487.86150000000004,255.86464622794608L487.86150000000004,251.5440482615174L487.86150000000004,232.15005927078371L489.538,237.71646389718322L491.21450000000004,237.23621715399904L491.21450000000004,242.56420666034987L491.21450000000004,199.06537820610978L492.891,192.3093653113459L492.891,197.79373939459413L494.56750000000005,210.59213669553333L494.56750000000005,231.43718694600423L496.244,227.95048529954528L496.244,219.520961450647L496.244,199.60144821113985L496.244,223.09277827803277L497.92050000000006,231.7396924499511L497.92050000000006,239.44220591091153L497.92050000000006,247.5557135540428L497.92050000000006,253.06465248335496L499.59700000000004,220.94197867434676L501.27350000000007,175.96567413164053L501.27350000000007,184.98665743918937L501.27350000000007,206.07782856614426L502.95000000000005,210.1107409524383L502.95000000000005,221.48408166214597L504.62649999999996,214.77225542333585L506.303,208.4050280157737L506.303,206.1081176271446L506.303,229.02031222286266L507.9795,232.1137357717898L509.656,191.61242174185196L509.656,191.9709705822282L509.656,179.8127783055671L509.656,188.93321578476238L511.3325,194.6556034897173L511.3325,230.36946677532222L511.3325,232.30822544197096L513.009,237.5076990228883L513.009,234.49715241086435L513.009,213.6343947952506L514.6855,212.5436387768696L516.3620000000001,212.86442027040184L516.3620000000001,214.96224419085897L518.0385,214.34413874512148L518.0385,231.21742833355208L518.0385,224.4044398397156L519.715,181.04816820680787L519.715,207.48793620621973L521.3915,225.48225706550963L521.3915,222.4656114490836L523.068,241.65238518667275L523.068,255.84426526994736L523.068,235.8810502622797L524.7445,240.04703497971738L524.7445,239.00537670186546L524.7445,221.9223515113079L524.7445,206.9144525289466L524.7445,196.95718883513987L524.7445,193.9647676935171L524.7445,208.22116437377778L524.7445,229.1143343664542L526.421,227.37594870909064L526.421,214.441695552969L526.421,230.59863758677483L528.0975,212.70578430529977L528.0975,199.75628301642266L528.0975,245.717948335063L529.774,196.7698958549807L531.4505,194.4213785597032L531.4505,188.0744445531574L531.4505,219.9496646099691L533.1270000000001,220.70998295863893L533.1270000000001,245.00362809610618L534.8035,280.89581848926696L534.8035,259.8071582469186L534.8035,235.73157416777855L534.8035,246.72564542172577L534.8035,268.27344831632513L534.8035,215.78013962272962L534.8035,187.42920369246102L536.48,202.26436600171624L536.48,210.3563415639585L536.48,218.7647352285973L536.48,205.4697548715944L536.48,196.40793842367378L536.48,211.3609474128011L538.1565,225.4622145834877L538.1565,234.62867244621003L538.1565,241.807891424536L539.8330000000001,237.14480995180566L539.8330000000001,222.4271390190265L539.8330000000001,214.92801119271166L539.8330000000001,230.95318132748156L541.5095,241.20696383064956L541.5095,248.99314472762327L541.5095,245.37464291147938L541.5095,218.95171472485393L541.5095,205.04963115367607L541.5095,204.27218597122024L541.5095,202.59897779099933L543.186,213.27245967073912L543.186,213.92739535143184L544.8625000000001,219.8381033752573L546.539,207.12169368828606L546.539,226.1648760829286L546.539,228.47777053558326L548.2155,233.57404569174946L548.2155,234.12582719436944L549.8919999999999,219.62689228601252L549.8919999999999,207.0226390632808L549.8919999999999,205.00075633244634L551.5685,222.7416955215747L551.5685,238.0516657151589L551.5685,235.9158047555571L551.5685,208.38850690118585L553.245,235.14631422753402L553.245,227.016263015242L553.245,220.5124093622992L554.9215,248.48685913151678L554.9215,219.00008510152207L556.598,219.9561200582964L556.598,236.43125301146404L558.2745,229.17625307049693L558.2745,220.83033845309222L558.2745,246.75469674041153L559.951,232.4831953178065L559.951,239.3877102261911L559.951,242.55057206190406L561.6275,256.95889617941845L561.6275,250.22295617307464L561.6275,244.812669921191L563.304,260.1477381207177L563.304,230.94726502285175L563.304,274.64835901371106L563.304,256.64182291097325L563.304,235.88272112886236L564.9805,232.5617061083324L564.9805,207.3558520141129L564.9805,208.24120512860324L564.9805,188.72700409923377L564.9805,198.8897140361928L564.9805,210.88659200776L564.9805,209.4964629799627L566.657,231.21851572218551L566.657,230.18358951582323L566.657,238.5481033001769L566.657,247.0695041390913L568.3335000000001,234.93860860184773L568.3335000000001,232.30090613553494L568.3335000000001,220.6899388086174L568.3335000000001,236.03553447314349L568.3335000000001,232.8734545587793L570.01,244.4723159050521L570.01,250.58198968503336L570.01,256.60375107963955L570.01,201.77108413243337L571.6865,207.7818798724654L571.6865,236.2245639433767L573.363,212.25317790212068L573.363,186.54266328157084L575.0395000000001,202.7762012919253L575.0395000000001,210.99800797226823L575.0395000000001,249.68548962308645L576.716,240.11476958771752L576.716,254.74219947922353L576.716,244.1386619488485L578.3925,239.33773571014927L578.3925,246.64421302414252L578.3925,245.9030018039722L580.069,238.21393086124533L580.069,251.8714644694869L581.7455000000001,233.27880536702537L581.7455000000001,223.14900357715646L583.422,241.00911923642374L583.422,241.3570977759088L583.422,231.48788621376306L585.0985000000001,227.58911201447455L585.0985000000001,212.75722662145026L585.0985000000001,197.89478450020627L585.0985000000001,228.7039363372354L586.775,245.01939471173455L586.775,238.05166805033787L586.775,268.9203857782179L588.4515,251.6765029837307L588.4515,232.80516977844337L590.128,245.73794828973828L590.128,235.94359304858816L590.128,202.6136284300898L590.128,178.15487900431242L590.128,213.67383224877884L590.128,224.45112848230104L590.128,216.13495176284255L591.8045,217.93069659500563L591.8045,209.99652502315783L591.8045,214.62304016457526L593.481,233.93294349495486L593.481,237.558695959949L595.1575,233.52084201330155L595.1575,232.6902017984045L596.8340000000001,230.23120420415717L596.8340000000001,224.6835473897428L596.8340000000001,233.16049361243074L598.5105,234.01167614945308L598.5105,227.88075185113271L598.5105,219.06689332183075L598.5105,236.77651678953094L598.5105,208.13161335130647L600.187,191.7946184786565L600.187,220.5542427296881L603.5400000000001,224.7232566401627L603.5400000000001,201.09866515429417L603.5400000000001,223.83576927442311L605.2165,208.55563396608213L605.2165,211.14695727345574L606.893,227.12459638307826L606.893,239.33232612246476L606.893,243.95099465628982L608.5695,244.84221241104913L608.5695,242.44531897323319L610.2460000000001,234.04030699978463L610.2460000000001,210.51233968883867L610.2460000000001,216.04431726068327L610.2460000000001,225.35662712055486L610.2460000000001,214.43105331777357L610.2460000000001,193.8918898136546L611.9225,231.77032935089645L611.9225,231.74041202227338L611.9225,243.38046509838145" style="fill: none;" fill="none"></path></g></g></g></g><g opacity="0.2"><g><g><g><path stroke="rgb(255, 112, 67)" stroke-width="2px" d="M83.825,-1047.5386679649353L83.825,262.1657131433487L83.825,225.40840698480608L85.50150000000001,287.648436319828L85.50150000000001,268.37148435115813L85.50150000000001,-83.92022781372071L87.17800000000001,-4.43749659061433L87.17800000000001,234.3484188437462L87.17800000000001,73.4284870147705L87.17800000000001,177.33100612163545L88.8545,143.27034838199617L90.531,161.75313205718996L92.20750000000001,221.50184519290926L92.20750000000001,205.85809178352358L92.20750000000001,168.83347184658052L93.88400000000001,205.53841699361803L93.88400000000001,293.6593013226986L95.56049999999999,246.9143462598324L95.56049999999999,79.20629031658171L95.56049999999999,264.6710658788681L95.56049999999999,107.10666604042052L97.237,-128.8351610183716L97.237,123.44057543277742L98.9135,174.90947831869127L98.9135,-190.85213785171516L98.9135,201.0225275874138L100.59,48.46814603805541L100.59,274.30644391179084L102.26650000000001,-281.74269776344306L102.26650000000001,127.01209659576418L102.26650000000001,90.17585463523864L102.26650000000001,-553.1360838890076L102.26650000000001,75.18528456687926L103.943,96.08990020751952L103.943,155.69380946159364L105.6195,145.80352635383608L105.6195,113.78485794067382L107.296,172.77489967346193L107.296,101.68389923572539L107.296,207.47714878320696L110.64900000000002,257.8154740154743L110.64900000000002,-241.4823520660401L110.64900000000002,-290.6976473808289L110.64900000000002,72.3333668231964L112.3255,-114.84201865196229L112.3255,-101.82435922622682L112.3255,205.36811978816988L112.3255,70.40493149757384L112.3255,13.16483802795409L114.00200000000001,-4.957006144523632L114.00200000000001,48.893139910697926L114.00200000000001,77.76845784187316L114.00200000000001,200.87406249046327L115.6785,66.12579317092894L115.6785,222.1219874739647L115.6785,-91.55168752670289L117.35499999999999,-65.26546840667726L117.35499999999999,67.17058010101317L117.35499999999999,191.22362841367723L119.0315,-246.210704612732L119.0315,60.23202509880065L119.0315,149.36677880287172L120.708,200.58891577720644L120.708,-62.704194831848156L120.708,184.4234448194504L120.708,175.92468262910845L120.708,-302.69624977111823L122.3845,262.8426042616367L124.061,125.74358124732973L124.061,2.953246665000904L124.061,-45.358686017990124L124.061,143.0685647249222L124.061,188.2058745145798L125.73750000000001,51.097687196731556L125.73750000000001,110.40421564579009L125.73750000000001,110.02516157627105L127.414,252.75132606625556L127.414,-74.19842820167543L127.414,-0.3292525291442985L127.414,146.2339951515198L127.414,130.1867870807648L127.414,-41.635151195526134L129.09050000000002,-34.99285047054292L129.09050000000002,137.52505667209627L129.09050000000002,-222.96016244888312L129.09050000000002,196.57757563591005L130.767,121.64306516647338L130.767,279.43720344901084L130.767,-86.48456554412843L130.767,301.7908745974302L132.4435,216.65272886753084L132.4435,-380.3414113998414L132.4435,-123.11321096420289L134.12,93.03227849006652L134.12,201.74626536369325L135.7965,141.8368192434311L135.7965,233.99164749383928L137.47299999999998,-3.1125196695327872L137.47299999999998,-61.85335092544557L137.47299999999998,152.55569733381273L139.1495,-137.19327621459968L139.1495,168.7800293684006L140.826,98.82265384197234L140.826,140.8171088218689L140.826,124.31696898937227L140.826,224.4451806664467L140.826,263.41096569299697L142.5025,244.78765894174578L144.179,-139.8293512344361L144.179,231.75345082283022L145.8555,114.97850425243377L145.8555,73.38662524223326L145.8555,207.81089390516283L145.8555,109.67618579864501L145.8555,111.84554035663604L147.532,175.26876182556154L147.532,179.93845607042314L149.20850000000002,220.43900002241136L149.20850000000002,65.2725610256195L149.20850000000002,199.38977200984957L149.20850000000002,176.5374236226082L150.88500000000002,241.85518319606783L150.88500000000002,164.6014449119568L150.88500000000002,229.0693068623543L150.88500000000002,233.13766057491304L150.88500000000002,70.23401470184325L152.56150000000002,128.1939594268799L152.56150000000002,216.1746530056L154.238,89.15319271087645L154.238,141.27677721977236L154.238,199.79976053237917L154.238,64.63174695968627L154.238,103.04607410430907L154.238,136.61890025138857L155.9145,115.22496600151061L157.591,185.56484277248384L159.26749999999998,107.03452320098876L159.26749999999998,232.40407694578172L159.26749999999998,-124.40267972946168L159.26749999999998,138.57833762168886L159.26749999999998,188.24188960790636L159.26749999999998,127.80701966285707L159.26749999999998,299.99195053875445L159.26749999999998,310.3938997507095L162.6205,233.74153579473497L162.6205,190.8559410095215L162.6205,266.45077137351035L162.6205,249.8165578365326L162.6205,169.2615749359131L164.297,234.1730522632599L164.297,180.59061427116396L165.9735,237.04891998767854L165.9735,184.51901943683626L165.9735,227.59976263046266L165.9735,72.19559247493743L167.65,195.69379205703737L169.3265,-358.83743791580207L169.3265,194.987504196167L169.3265,294.28911484479903L171.00300000000001,155.94286222457887L171.00300000000001,176.28966636657717L171.00300000000001,157.44738514423372L171.00300000000001,98.30285139083861L171.00300000000001,225.1116908311844L171.00300000000001,-8.762439537048351L171.00300000000001,197.2782083272934L172.67950000000002,63.629452657699574L172.67950000000002,214.1619759321213L172.67950000000002,117.315283370018L172.67950000000002,257.5560290336609L172.67950000000002,25.535149526596058L172.67950000000002,227.39405865669252L174.35600000000002,51.46157820224761L176.03250000000003,39.95382649898528L177.709,174.96323622465135L177.709,262.36925981640815L177.709,180.73386354446413L177.709,246.12623305320741L179.3855,231.5159111738205L179.3855,173.995582652092L181.062,256.4833718061447L181.062,205.84465230703356L181.062,247.30707637667658L181.062,125.6389718770981L181.062,204.87554551362993L181.062,172.22332913875582L182.73850000000002,179.1911062717438L182.73850000000002,291.07377923727034L184.41500000000002,168.07213057279588L184.41500000000002,206.2404916405678L184.41500000000002,181.38977308273317L184.41500000000002,215.0422898054123L186.09150000000002,220.50803364515306L186.09150000000002,200.99923099279405L186.09150000000002,215.56755591630937L187.76800000000003,112.30038721561431L187.76800000000003,222.85758758783342L187.76800000000003,203.07395721673967L189.44449999999998,224.09209306240083L189.44449999999998,141.50791819095613L191.12099999999998,166.51646329164507L191.12099999999998,265.8877384185791L192.79749999999999,88.6865173101425L192.79749999999999,122.96148569583895L194.474,202.74819917678835L194.474,204.49957813024523L196.1505,229.00967974662782L196.1505,107.84521765708922L196.1505,195.60795063972475L196.1505,225.64283741712572L197.827,139.11884565353395L197.827,156.9497752904892L197.827,208.31736953258516L199.5035,153.34207005500795L201.18,204.0212544322014L201.18,318.7599175393581L201.18,141.38596029281618L201.18,223.77898592948915L201.18,250.55054138302802L201.18,215.6850978255272L201.18,251.6846338033676L202.8565,228.22534604072573L202.8565,241.6422243833542L202.8565,139.7866062641144L202.8565,221.45323551893236L204.53300000000002,89.62259430885314L206.2095,175.62903667688371L206.2095,215.49573976993562L206.2095,3.232332658767689L206.2095,229.62474138736727L206.2095,166.9421443462372L206.2095,252.51022095680236L206.2095,114.5196244239807L207.886,147.40639514923097L207.886,245.34432138204576L207.886,185.99516512155535L207.886,239.5502622842789L211.239,179.28752578496935L212.9155,188.4692229151726L212.9155,221.63973219394686L214.592,214.56637687683107L214.592,177.01668233871462L214.592,124.1806365966797L216.26850000000002,193.0899469971657L216.26850000000002,203.81371421813967L216.26850000000002,130.32843668460848L216.26850000000002,226.309381377697L217.94500000000002,171.83978022336962L217.94500000000002,122.76752014160158L219.62150000000003,136.98245329856874L219.62150000000003,221.90785707235338L219.62150000000003,224.11421806812288L221.29800000000003,230.29353840351106L221.29800000000003,222.21288700103761L221.29800000000003,260.0421181440353L221.29800000000003,94.35802145004271L222.9745,233.69344432353975L222.9745,200.82819027900698L222.9745,255.52631322741507L222.9745,270.3410548388958L222.9745,90.40550858974456L222.9745,227.3148637533188L224.651,229.1119910001755L224.651,100.96999604701995L224.651,229.6442528486252L224.651,173.011999976635L226.32750000000001,167.97965390682222L226.32750000000001,304.8120193451643L226.32750000000001,208.80255378484728L226.32750000000001,297.8325742006302L228.00400000000002,73.01216740608214L228.00400000000002,193.52398688793184L228.00400000000002,213.94523198604585L229.68050000000002,127.08146817684175L229.68050000000002,227.6381321668625L229.68050000000002,289.4734732925892L229.68050000000002,225.52602775096895L229.68050000000002,262.57877145409583L229.68050000000002,186.59540165662767L231.357,168.6943907260895L231.357,86.13159735202788L231.357,160.2171226859093L231.357,164.27919037342073L231.357,170.37298471927645L231.357,192.1024214744568L233.0335,163.86079795360567L233.0335,156.11567158699037L233.0335,208.97224266529085L233.0335,150.8702427864075L234.70999999999998,286.406523925066L234.70999999999998,197.08032245635988L234.70999999999998,149.6588874578476L234.70999999999998,258.91423852443694L234.70999999999998,120.76815862655639L234.70999999999998,179.2974054336548L234.70999999999998,194.11899633407594L236.38649999999998,161.36393923759462L236.38649999999998,236.47885186672212L238.063,125.04914445877077L238.063,200.54011459350588L238.063,221.96056730747225L238.063,217.12482286691667L239.7395,182.0792531490326L239.7395,192.16897673606874L239.7395,186.94510967731478L241.416,214.5057246208191L243.0925,119.20618278980254L243.0925,179.14531291723253L243.0925,183.1636037349701L243.0925,157.1162986278534L244.769,200.71930010318758L244.769,220.91751523017885L244.769,224.51269347667696L244.769,237.98140336275102L246.4455,161.9951102256775L246.4455,217.82731432914736L248.122,258.2394145846367L248.122,319.9501800432801L248.122,223.7935631990433L248.122,190.34641249179842L249.79850000000002,232.4878906130791L249.79850000000002,186.31761116981508L249.79850000000002,248.5199187219143L249.79850000000002,215.2002740621567L251.47500000000002,227.68208928108217L251.47500000000002,249.26553930044176L251.47500000000002,137.70063729286196L251.47500000000002,184.11493391990663L253.1515,322.1059064313769L253.1515,142.25235028266908L254.828,214.26631493568422L254.828,183.92483235597612L256.5045,234.33029301166536L256.5045,175.8192058324814L259.8575,261.8963490843773L259.8575,242.41382832527162L259.8575,206.98419148921968L261.534,131.77444775104524L261.534,145.75936646461489L261.534,195.08622182607652L261.534,209.5141475915909L261.534,279.89749706983565L263.2105,276.5463923335075L263.2105,151.74197251796724L263.2105,240.20282603502275L263.2105,205.52885277271272L263.2105,208.47703231573107L263.2105,202.651926112175L264.887,233.0115795850754L264.887,243.11633105278017L264.887,220.4551431655884L266.56350000000003,209.90944619178774L266.56350000000003,201.9390367984772L268.24,251.73514167666434L268.24,246.1733838737011L268.24,239.19860537052156L268.24,246.91345067024233L268.24,186.0340753912926L269.91650000000004,156.24670929908754L269.91650000000004,216.83404351472856L269.91650000000004,220.59190363883974L271.593,277.592880320549L271.593,252.22724280953406L271.593,174.16528279781343L271.593,143.16190881729128L273.2695,274.6648261964321L273.2695,172.06677557229997L273.2695,194.39506323337557L274.94599999999997,236.10380823612215L274.94599999999997,237.54957146644594L276.6225,234.5108190894127L276.6225,200.33050156831743L276.6225,239.61310000419618L276.6225,180.84036548137667L276.6225,202.3368362903595L278.299,121.35334475040435L278.299,211.51898403167726L278.299,206.00789744853975L278.299,166.92739809751512L278.299,157.06288994550707L279.9755,246.1498225450516L279.9755,199.52324302196504L279.9755,208.82004876136781L281.652,231.68206275701525L281.652,202.4765933275223L281.652,175.9973999977112L283.3285,200.17359877824785L283.3285,218.3048832535744L285.005,193.42799545526506L285.005,237.76717157363893L285.005,190.05441648960115L285.005,182.41571320295336L285.005,215.7237264633179L286.6815,174.9633150815964L286.6815,244.61634786129L286.6815,108.7156180858612L286.6815,195.02830703258516L288.358,194.46238453388216L288.358,170.22480125427248L288.358,247.99847154021265L288.358,320.2956396460533L288.358,252.0741814792156L290.0345,240.3640659570694L290.0345,229.7110334157944L290.0345,201.2805587768555L290.0345,198.16389573812486L291.711,286.9539488375187L291.711,215.2919283628464L291.711,224.88185663223268L291.711,250.29140056371688L291.711,155.04718251228334L291.711,137.50009281635286L291.711,188.96040029525759L293.3875,191.17258543968202L293.3875,200.58439840078356L296.7405,203.69201542139055L296.7405,213.04245514869692L296.7405,199.36257762908937L296.7405,163.4565434575081L298.41700000000003,170.86162741184236L298.41700000000003,242.92405529022219L300.0935,128.15254826545717L300.0935,221.04307801723482L300.0935,174.14400268793108L301.77000000000004,262.0726957440376L301.77000000000004,255.61661006212233L303.4465,200.7303626060486L303.4465,236.08720321655275L305.12300000000005,164.6071902036667L305.12300000000005,150.73868687152864L305.12300000000005,244.34515882730486L306.7995,210.2405777692795L306.7995,272.13131589889525L308.476,283.975392472744L308.476,279.435958635807L308.476,266.5931870162487L308.476,135.2164182186127L310.15250000000003,201.76024557352068L310.15250000000003,183.8365238428116L310.15250000000003,224.42855311632158L310.15250000000003,230.75391651391985L311.829,226.28036202192308L313.50550000000004,209.69373865127565L313.50550000000004,200.44510324001314L313.50550000000004,181.67845709323885L313.50550000000004,96.50637753009795L313.50550000000004,185.01039959192278L313.50550000000004,270.2731083154678L313.50550000000004,210.56265206336977L315.182,236.6204789400101L315.182,226.59476466178896L315.182,242.7062411427498L315.182,180.79212756156923L318.53499999999997,184.31829471588136L318.53499999999997,187.1526498913765L318.53499999999997,246.36271376609804L321.888,185.67097295522692L321.888,248.6308986067772L323.5645,257.2484531521797L323.5645,236.87554736137392L323.5645,270.8014949083328L325.241,266.72651157975196L325.241,117.05512304306029L325.241,256.79159544110297L325.241,205.23993219137193L326.9175,212.13544256687166L326.9175,256.5624540567398L326.9175,253.33433235883712L326.9175,198.5846088051796L328.594,208.5150413632393L330.2705,212.41186995506288L330.2705,200.27725059986116L331.947,224.35389811992647L331.947,198.96735788583757L331.947,239.106613111496L333.62350000000004,236.29406751394274L333.62350000000004,201.82212574481966L333.62350000000004,191.4982646226883L335.3,243.10125811100008L335.3,245.92308629751207L336.9765,186.4117213010788L336.9765,252.2924293398857L336.9765,174.60426814556124L336.9765,228.08688451051714L336.9765,251.536912214756L336.9765,205.88234592676164L338.653,242.9055802345276L338.653,195.94267584085466L338.653,200.39401520490648L338.653,166.33419109582903L340.3295,177.7419409275055L340.3295,285.91384263038634L342.00600000000003,264.8502739191055L343.6825,190.67294783592226L343.6825,219.5299709558487L345.35900000000004,214.34181482791902L345.35900000000004,206.9620439529419L345.35900000000004,178.80104602575304L345.35900000000004,227.64779777526857L347.0355,210.55249078273775L347.0355,164.26815040111543L347.0355,202.3892085671425L347.0355,235.18636400699617L348.71200000000005,249.9308835089207L348.71200000000005,254.94605002999305L348.71200000000005,222.05110634565355L348.71200000000005,241.87479604482652L350.38849999999996,195.3357702612877L350.38849999999996,269.3788367629051L350.38849999999996,71.8763345003128L350.38849999999996,174.29474337100984L350.38849999999996,190.1259960651398L352.06500000000005,234.5253512978554L352.06500000000005,270.6498417377472L352.06500000000005,212.68561620712282L352.06500000000005,214.71843559741976L353.7415,232.244481754303L353.7415,249.42419384121897L353.7415,197.39828492403032L355.418,251.20637206435202L355.418,256.8490314602852L357.0945,166.06650556325914L357.0945,232.44662590026857L357.0945,144.1810109138489L357.0945,157.75395841598512L357.0945,225.948272895813L358.771,239.03013314008714L358.771,248.28797228336336L358.771,160.42378420829775L360.4475,218.39724726676943L360.4475,200.07249290943147L362.124,270.6029838144779L362.124,203.60405613183977L362.124,192.16720808744432L362.124,202.2323170423508L362.124,191.44243390560152L362.124,233.4025297880173L362.124,206.3116318702698L362.124,268.3111587882042L362.124,209.6787783622742L362.124,183.32043893337251L363.8005,193.57330627441408L363.8005,167.63540954589845L365.47700000000003,236.04538650512697L365.47700000000003,237.74601538181307L365.47700000000003,242.2182856321335L365.47700000000003,198.94619042873384L365.47700000000003,238.59523708820345L367.1535,234.15058929920198L367.1535,184.33832437992098L367.1535,261.06795687675475L370.5065,234.2307755470276L370.5065,183.73068655729296L370.5065,199.08564330339433L370.5065,178.7168606042862L372.18300000000005,207.78893787860872L372.18300000000005,269.31119440197944L372.18300000000005,230.05882633924486L373.8595,272.53579006791114L373.8595,218.86458731889726L373.8595,220.9080861926079L373.8595,228.8277680397034L375.53600000000006,243.1281708598137L375.53600000000006,289.6090565443039L375.53600000000006,294.85845353901385L377.21250000000003,250.52242888212203L377.21250000000003,230.83801181316377L378.88899999999995,195.26768292188646L378.88899999999995,206.89782060384752L378.88899999999995,133.1182827472687L380.56550000000004,229.36054809093477L380.56550000000004,229.93262143135073L380.56550000000004,205.40623022317888L382.24199999999996,223.02247745990755L382.24199999999996,210.52142114639284L382.24199999999996,210.31940091848375L382.24199999999996,248.58555023074152L383.9185,308.6963462948799L383.9185,259.4739200592041L383.9185,237.47514177560808L383.9185,251.0587912917137L385.59499999999997,215.09653211832048L385.59499999999997,202.85073573589327L385.59499999999997,249.4837589979172L387.2715,193.51966102123262L387.2715,241.46961779594423L387.2715,256.67472381591796L387.2715,264.03568730950354L388.948,222.93084568977358L388.948,191.06561036109926L388.948,236.73397661447527L388.948,226.04592032432558L388.948,225.1299518465996L390.6245,212.23954499959947L390.6245,224.16506953239443L390.6245,249.01368148326875L390.6245,181.8433131694794L392.301,186.49661643505098L393.9775,219.33706433773042L393.9775,235.84858210086824L393.9775,239.28773624897005L393.9775,239.50971854925157L393.9775,185.93526763916017L395.654,174.66246457099916L395.654,195.44976360797884L397.33050000000003,206.6416932463646L399.007,183.6511086344719L399.007,270.3858850121498L399.007,222.3822717189789L400.68350000000004,162.5066214323044L400.68350000000004,238.6079443216324L400.68350000000004,163.50962544679643L400.68350000000004,339.2632287785411L402.36,244.8458891630173L402.36,243.80430157184603L404.03650000000005,222.06515414714815L404.03650000000005,262.7158079266548L404.03650000000005,236.78982986211778L404.03650000000005,183.89184762239458L405.713,251.65474138855933L409.06600000000003,223.63445241451265L409.06600000000003,141.6692144393921L409.06600000000003,217.9132120728493L412.419,240.84338099956514L412.419,215.0305288553238L412.419,212.8831528544426L414.0955000000001,213.2240852236748L414.0955000000001,232.790735077858L414.0955000000001,194.3480419635773L415.772,217.50476689338686L415.772,185.82749272584917L415.772,180.08770973682405L415.772,272.91460193395613L417.4485,223.8395818591118L417.4485,304.1695239365101L417.4485,257.47820286154746L417.4485,240.32958294153215L417.4485,307.70742387771605L417.4485,251.0320813179016L419.125,194.58687711954119L419.125,219.18145705461504L419.125,237.8038513183594L419.125,249.52142445445062L419.125,203.63218553066255L420.8015,210.50222511291506L420.8015,233.31889636516573L422.478,182.29385669231417L424.1545,257.57913411855696L424.1545,228.92264420986177L424.1545,160.12304635047914L425.831,239.38484294414522L425.831,204.9661521434784L425.831,276.93936465382575L425.831,205.5957572579384L425.831,185.58640451431276L425.831,257.85422093868254L425.831,276.5614427447319L425.831,203.0352947831154L427.5075,207.31938983201982L429.184,240.60147042274477L429.184,208.35944534540178L429.184,256.8317279934883L430.8605,256.9089965343475L432.53700000000003,248.33753950595857L432.53700000000003,232.55594415664675L434.2135,233.7380660891533L434.2135,243.3811777353287L434.2135,180.11381138563158L435.89000000000004,244.70394666194917L435.89000000000004,251.59669704437255L435.89000000000004,207.6174916148186L437.5665,188.75408799648287L437.5665,197.4381752729416L439.24300000000005,245.79155291318895L439.24300000000005,234.4406476736069L439.24300000000005,240.65667028427126L439.24300000000005,208.6458875656128L440.91949999999997,184.85540063381197L440.91949999999997,215.66712970733644L440.91949999999997,270.8369411051273L442.59600000000006,194.77169526815416L442.59600000000006,256.002907705307L444.2725,208.79285438060762L444.2725,163.30636603832247L445.949,233.7947079062462L445.949,209.44312001466753L445.949,218.3646793484688L447.6255,210.41072852611543L447.6255,193.70578594207765L449.302,272.53206689357756L449.302,248.66652504801752L449.302,196.70205695629122L450.9785,263.5090355694294L450.9785,261.4280289530754L450.9785,206.31537194252016L452.65500000000003,255.64294828176497L454.3315,252.42166460752486L454.3315,205.26655204296114L454.3315,226.61053605079653L454.3315,225.46774120330812L454.3315,229.18424649238588L456.00800000000004,249.11741779446604L456.00800000000004,245.85725201368334L456.00800000000004,287.0961391746998L456.00800000000004,144.20475811958315L457.6845,215.7976266860962L459.36100000000005,200.2797064304352L459.36100000000005,250.92962361574172L459.36100000000005,248.02060217857363L459.36100000000005,249.77154178619386L459.36100000000005,204.84012748003008L459.36100000000005,199.40216381549837L461.0375,250.2481813251972L461.0375,262.0653057217598L462.714,191.7366829633713L462.714,195.80485643148424L462.714,246.25219012498857L462.714,221.66017867326738L462.714,125.3026808023453L464.39050000000003,251.71614278554915L464.39050000000003,160.443351995945L466.067,181.163746547699L466.067,247.21509538292887L466.067,181.14096815586092L466.067,227.8181625723839L466.067,254.83549822568892L467.74350000000004,297.0982977569103L467.74350000000004,261.3848435103893L467.74350000000004,188.36147053241731L467.74350000000004,254.95369352102279L467.74350000000004,225.68050850629808L467.74350000000004,221.99930859804155L471.09650000000005,246.7520924627781L472.77299999999997,215.06344599723818L472.77299999999997,241.026486825943L472.77299999999997,234.2264496803284L472.77299999999997,159.68081660270693L472.77299999999997,218.31811995506288L472.77299999999997,233.27124423980715L474.4495,164.75852794647219L474.4495,236.17581589221956L474.4495,263.1734147787094L474.4495,259.21099973917006L474.4495,221.35154385566713L476.126,229.90137155056001L477.8025,190.25988389253618L477.8025,103.5140788078308L477.8025,227.60785109996797L477.8025,215.22735579013826L477.8025,224.31259961128237L477.8025,199.91554505825044L479.479,224.88935930728914L479.479,252.21537483930587L479.479,270.8888571381569L481.1555,180.35897762775423L481.1555,223.20702524185182L481.1555,224.78052545785906L481.1555,246.7699760913849L481.1555,317.78160138130187L481.1555,209.47514719963075L481.1555,169.79093034267427L482.832,230.88316304683687L482.832,254.64146507978438L484.5085,246.65226520299913L486.185,284.694410097599L486.185,262.79902453422545L486.185,264.63181201815604L486.185,252.37037379741668L486.185,248.25896982550623L487.86150000000004,258.58724130392073L487.86150000000004,245.0631513118744L487.86150000000004,203.05907578468324L489.538,246.06607083678247L491.21450000000004,236.51584703922273L491.21450000000004,250.5561909198761L491.21450000000004,133.81713552474977L492.891,182.17534596920015L492.891,206.02030051946642L494.56750000000005,229.78973264694216L494.56750000000005,262.7047623217106L496.244,222.7204328298569L496.244,206.87667567729952L496.244,169.72217835187914L496.244,258.3297733783722L497.92050000000006,244.71006370782854L497.92050000000006,250.99597610235213L497.92050000000006,259.7259750187397L497.92050000000006,261.32806087732314L499.59700000000004,172.75796796083452L501.27350000000007,108.50121731758117L501.27350000000007,198.5181324005127L501.27350000000007,237.71458525657656L502.95000000000005,216.16010953187944L502.95000000000005,238.54409272670748L504.62649999999996,204.7045160651207L506.303,198.8541869044304L506.303,202.66275204420091L506.303,263.3886041164398L507.9795,236.75387109518053L509.656,130.8604506969452L509.656,192.50879384279253L509.656,161.57548989057543L509.656,202.61387200355531L511.3325,203.23918504714968L511.3325,283.9402617037296L511.3325,235.21636344194414L513.009,245.30690939426424L513.009,229.9813324928284L513.009,182.34025837183L514.6855,210.9075047492981L516.3620000000001,213.34559251070024L516.3620000000001,218.10898007154466L518.0385,213.41698057651521L518.0385,256.52736271619796L518.0385,214.1849570989609L519.715,116.01376075744628L519.715,247.14758820533754L521.3915,252.4737383544445L521.3915,217.9406430244446L523.068,270.4325457930565L523.068,277.1320853948593L523.068,205.93622775077822L524.7445,246.2960120558739L524.7445,237.4428892850876L524.7445,196.2978137254715L524.7445,184.40260405540468L524.7445,182.0212932944298L524.7445,189.47613598108293L524.7445,229.60575939416887L524.7445,260.45408935546874L526.421,224.76837022304537L526.421,195.04031581878664L526.421,254.83405063748359L528.0975,185.86650438308718L528.0975,180.332031083107L528.0975,314.66044631302356L529.774,123.3478171348572L531.4505,190.89860261678697L531.4505,178.5540435433388L531.4505,267.7624946951866L533.1270000000001,221.8504604816437L533.1270000000001,281.4440958023071L534.8035,334.7341040790081L534.8035,228.17416788339617L534.8035,199.61819804906847L534.8035,263.2167523026466L534.8035,300.5951526582241L534.8035,137.04017658233644L534.8035,144.90279979705812L536.48,224.51710946559908L536.48,222.49430490732195L536.48,231.37732572555544L536.48,185.5272843360901L536.48,182.81521375179292L536.48,233.79046089649202L538.1565,246.6141153395176L538.1565,248.37835924029352L538.1565,252.57671989202498L539.8330000000001,230.15018774271013L539.8330000000001,200.3506326198578L539.8330000000001,203.67931945323946L539.8330000000001,254.99093652963637L541.5095,256.5876375854015L541.5095,260.67241607308387L541.5095,239.9468901872635L541.5095,179.3173224449158L541.5095,184.19650579690935L541.5095,203.10601819753649L541.5095,200.08916552066805L543.186,229.28268249034883L543.186,214.90979887247087L544.8625000000001,228.7041654109955L546.539,188.0470791578293L546.539,254.7296496748924L546.539,231.9471122145653L548.2155,241.2184584259987L548.2155,234.95349944829943L549.8919999999999,197.8784899234772L549.8919999999999,188.1162592291832L549.8919999999999,201.96793223619463L551.5685,249.35310430526735L551.5685,261.0166210055351L551.5685,232.7120133161545L551.5685,167.09756011962892L553.245,275.28302521705626L553.245,214.82118619680406L553.245,210.756628882885L554.9215,290.44853378534316L554.9215,174.76992405653002L556.598,221.3901724934578L556.598,261.1439524412155L558.2745,218.2937531590462L558.2745,208.31146652698519L558.2745,285.6412341713905L559.951,211.07594318389894L559.951,249.74448258876802L559.951,247.29486481547357L561.6275,278.57138235569L561.6275,240.11904616355898L561.6275,236.6972405433655L563.304,283.1503404200077L563.304,187.14655537605287L563.304,340.2L563.304,229.63201875686647L563.304,204.74406845569612L564.9805,227.58018357753755L564.9805,169.54707087278368L564.9805,209.56923480033876L564.9805,159.4557025551796L564.9805,214.13377894163133L564.9805,228.8819089651108L564.9805,207.41126943826677L566.657,263.8015948355198L566.657,228.63120020627977L566.657,251.09487397670745L566.657,259.85160539746283L568.3335000000001,216.74226529598238L568.3335000000001,228.3443524360657L568.3335000000001,203.27348781824114L568.3335000000001,259.05392796993254L568.3335000000001,228.130334687233L570.01,261.87060792446135L570.01,259.74650035500525L570.01,265.63639317154883L570.01,119.52208371162413L571.6865,216.79807348251344L571.6865,278.88859004974364L573.363,176.29609884023668L573.363,147.97689135074617L575.0395000000001,227.126508307457L575.0395000000001,223.3307179927826L575.0395000000001,307.7167120993137L576.716,225.75868953466417L576.716,276.68334431648253L576.716,228.233355653286L578.3925,232.1363463521004L578.3925,257.60392899513243L578.3925,244.79118497371675L580.069,226.68032444715502L580.069,272.3577648818493L581.7455000000001,205.38981671333315L581.7455000000001,207.95430089235307L583.422,267.7992927253246L583.422,241.87906558513643L583.422,216.68406887054445L585.0985000000001,221.74095071554186L585.0985000000001,190.50939853191377L585.0985000000001,175.60112131834032L585.0985000000001,274.91766409277915L586.775,269.49258227348326L586.775,227.60007805824281L586.775,315.223462370038L588.4515,225.81067879199983L588.4515,204.4981699705124L590.128,265.13711605668067L590.128,221.25206018686296L590.128,152.61868150234224L590.128,141.46675486564638L590.128,266.9522621154785L590.128,240.6170728325844L590.128,203.6606866836548L591.8045,220.6243138432503L591.8045,198.09526766538622L591.8045,221.56281287670137L593.481,262.8977984905243L593.481,242.9973246574402L595.1575,227.4640610933304L595.1575,231.44424147605898L596.8340000000001,226.54270781278612L596.8340000000001,216.36206216812135L596.8340000000001,245.87591294646265L598.5105,235.2884499549866L598.5105,218.6843654036522L598.5105,205.84610552787782L598.5105,263.3409519910812L598.5105,165.16425819396974L600.187,167.28912616968157L600.187,263.6936791062355L603.5400000000001,230.97677750587465L603.5400000000001,165.66177792549135L603.5400000000001,257.94142545461654L605.2165,185.63543100357057L605.2165,215.03394223451616L606.893,251.09105504751204L606.893,257.6439207315445L606.893,250.87899745702742L608.5695,246.1790390431881L608.5695,238.84997881650926L610.2460000000001,221.43278903961183L610.2460000000001,175.22038872241976L610.2460000000001,224.34228361845018L610.2460000000001,239.32509191036226L610.2460000000001,198.0426926136017L610.2460000000001,163.08314455747606L611.9225,288.58798865675925L611.9225,231.69553602933885L611.9225,260.8405447125435" style="fill: none;" fill="none"></path></g></g></g></g></g></g><g transform="translate(60, 378)" clip-path="url(#clip_1)"><clipPath id="clip_1"><rect width="670" height="22"></rect></clipPath><g><g><line x1="0" y1="0" x2="0" y2="5" style="visibility: inherit;" fill="rgb(0, 0, 0)" stroke="rgb(204, 204, 204)" stroke-width="1px"></line><line x1="83.825" y1="0" x2="83.825" y2="5" style="visibility: inherit;" fill="rgb(0, 0, 0)" stroke="rgb(204, 204, 204)" stroke-width="1px"></line><line x1="167.65" y1="0" x2="167.65" y2="5" style="visibility: inherit;" fill="rgb(0, 0, 0)" stroke="rgb(204, 204, 204)" stroke-width="1px"></line><line x1="251.47500000000002" y1="0" x2="251.47500000000002" y2="5" style="visibility: inherit;" fill="rgb(0, 0, 0)" stroke="rgb(204, 204, 204)" stroke-width="1px"></line><line x1="335.3" y1="0" x2="335.3" y2="5" style="visibility: inherit;" fill="rgb(0, 0, 0)" stroke="rgb(204, 204, 204)" stroke-width="1px"></line><line x1="419.125" y1="0" x2="419.125" y2="5" style="visibility: inherit;" fill="rgb(0, 0, 0)" stroke="rgb(204, 204, 204)" stroke-width="1px"></line><line x1="502.95000000000005" y1="0" x2="502.95000000000005" y2="5" style="visibility: inherit;" fill="rgb(0, 0, 0)" stroke="rgb(204, 204, 204)" stroke-width="1px"></line><line x1="586.775" y1="0" x2="586.775" y2="5" style="visibility: inherit;" fill="rgb(0, 0, 0)" stroke="rgb(204, 204, 204)" stroke-width="1px"></line><line x1="670.6" y1="0" x2="670.6" y2="5" style="visibility: inherit;" fill="rgb(0, 0, 0)" stroke="rgb(204, 204, 204)" stroke-width="1px"></line></g><g transform="translate(0, 8)"><text x="0" y="0" dx="0em" dy="0.95em" style="text-anchor: middle; visibility: hidden; font-family: &quot;Helvetica Neue&quot;, sans-serif; font-size: 12px; font-weight: 200;" fill="rgb(50, 49, 63)" stroke="none" stroke-width="1px">-50</text><text x="83.825" y="0" dx="0em" dy="0.95em" style="text-anchor: middle; visibility: inherit; font-family: &quot;Helvetica Neue&quot;, sans-serif; font-size: 12px; font-weight: 200;" fill="rgb(50, 49, 63)" stroke="none" stroke-width="1px">0</text><text x="167.65" y="0" dx="0em" dy="0.95em" style="text-anchor: middle; visibility: inherit; font-family: &quot;Helvetica Neue&quot;, sans-serif; font-size: 12px; font-weight: 200;" fill="rgb(50, 49, 63)" stroke="none" stroke-width="1px">50</text><text x="251.47500000000002" y="0" dx="0em" dy="0.95em" style="text-anchor: middle; visibility: inherit; font-family: &quot;Helvetica Neue&quot;, sans-serif; font-size: 12px; font-weight: 200;" fill="rgb(50, 49, 63)" stroke="none" stroke-width="1px">100</text><text x="335.3" y="0" dx="0em" dy="0.95em" style="text-anchor: middle; visibility: inherit; font-family: &quot;Helvetica Neue&quot;, sans-serif; font-size: 12px; font-weight: 200;" fill="rgb(50, 49, 63)" stroke="none" stroke-width="1px">150</text><text x="419.125" y="0" dx="0em" dy="0.95em" style="text-anchor: middle; visibility: inherit; font-family: &quot;Helvetica Neue&quot;, sans-serif; font-size: 12px; font-weight: 200;" fill="rgb(50, 49, 63)" stroke="none" stroke-width="1px">200</text><text x="502.95000000000005" y="0" dx="0em" dy="0.95em" style="text-anchor: middle; visibility: inherit; font-family: &quot;Helvetica Neue&quot;, sans-serif; font-size: 12px; font-weight: 200;" fill="rgb(50, 49, 63)" stroke="none" stroke-width="1px">250</text><text x="586.775" y="0" dx="0em" dy="0.95em" style="text-anchor: middle; visibility: inherit; font-family: &quot;Helvetica Neue&quot;, sans-serif; font-size: 12px; font-weight: 200;" fill="rgb(50, 49, 63)" stroke="none" stroke-width="1px">300</text><text x="670.6" y="0" dx="0em" dy="0.95em" style="text-anchor: middle; visibility: hidden; font-family: &quot;Helvetica Neue&quot;, sans-serif; font-size: 12px; font-weight: 200;" fill="rgb(50, 49, 63)" stroke="none" stroke-width="1px">350</text></g><line x1="0" y1="0" x2="670.6" y2="0" fill="rgb(0, 0, 0)" stroke="rgb(204, 204, 204)" stroke-width="1px"></line></g></g></g></g></svg>