<svg viewBox="0 0 330 200" xmlns="http://www.w3.org/2000/svg"><g><g><g><g><g><line x1="40" y1="178" x2="35" y2="178" style="visibility: inherit;" fill="rgb(0, 0, 0)" stroke="rgb(204, 204, 204)" stroke-width="1px"></line><line x1="40" y1="164.3076923076923" x2="35" y2="164.3076923076923" style="visibility: inherit;" fill="rgb(0, 0, 0)" stroke="rgb(204, 204, 204)" stroke-width="1px"></line><line x1="40" y1="150.6153846153846" x2="35" y2="150.6153846153846" style="visibility: inherit;" fill="rgb(0, 0, 0)" stroke="rgb(204, 204, 204)" stroke-width="1px"></line><line x1="40" y1="136.9230769230769" x2="35" y2="136.9230769230769" style="visibility: inherit;" fill="rgb(0, 0, 0)" stroke="rgb(204, 204, 204)" stroke-width="1px"></line><line x1="40" y1="123.23076923076923" x2="35" y2="123.23076923076923" style="visibility: inherit;" fill="rgb(0, 0, 0)" stroke="rgb(204, 204, 204)" stroke-width="1px"></line><line x1="40" y1="109.53846153846152" x2="35" y2="109.53846153846152" style="visibility: inherit;" fill="rgb(0, 0, 0)" stroke="rgb(204, 204, 204)" stroke-width="1px"></line><line x1="40" y1="95.84615384615387" x2="35" y2="95.84615384615387" style="visibility: inherit;" fill="rgb(0, 0, 0)" stroke="rgb(204, 204, 204)" stroke-width="1px"></line><line x1="40" y1="82.15384615384616" x2="35" y2="82.15384615384616" style="visibility: inherit;" fill="rgb(0, 0, 0)" stroke="rgb(204, 204, 204)" stroke-width="1px"></line><line x1="40" y1="68.46153846153845" x2="35" y2="68.46153846153845" style="visibility: inherit;" fill="rgb(0, 0, 0)" stroke="rgb(204, 204, 204)" stroke-width="1px"></line><line x1="40" y1="54.76923076923076" x2="35" y2="54.76923076923076" style="visibility: inherit;" fill="rgb(0, 0, 0)" stroke="rgb(204, 204, 204)" stroke-width="1px"></line><line x1="40" y1="41.07692307692304" x2="35" y2="41.07692307692304" style="visibility: inherit;" fill="rgb(0, 0, 0)" stroke="rgb(204, 204, 204)" stroke-width="1px"></line><line x1="40" y1="27.384615384615415" x2="35" y2="27.384615384615415" style="visibility: inherit;" fill="rgb(0, 0, 0)" stroke="rgb(204, 204, 204)" stroke-width="1px"></line><line x1="40" y1="13.692307692307708" x2="35" y2="13.692307692307708" style="visibility: inherit;" fill="rgb(0, 0, 0)" stroke="rgb(204, 204, 204)" stroke-width="1px"></line><line x1="40" y1="0" x2="35" y2="0" style="visibility: inherit;" fill="rgb(0, 0, 0)" stroke="rgb(204, 204, 204)" stroke-width="1px"></line></g><g transform="translate(30, 0)"><text x="0" y="178" dx="0em" dy="0.3em" style="text-anchor: end; visibility: hidden; font-family: &quot;Helvetica Neue&quot;, sans-serif; font-size: 12px; font-weight: 200;" fill="rgb(50, 49, 63)" stroke="none" stroke-width="1px">3.4</text><text x="0" y="164.3076923076923" dx="0em" dy="0.3em" style="text-anchor: end; visibility: inherit; font-family: &quot;Helvetica Neue&quot;, sans-serif; font-size: 12px; font-weight: 200;" fill="rgb(50, 49, 63)" stroke="none" stroke-width="1px">3.6</text><text x="0" y="150.6153846153846" dx="0em" dy="0.3em" style="text-anchor: end; visibility: hidden; font-family: &quot;Helvetica Neue&quot;, sans-serif; font-size: 12px; font-weight: 200;" fill="rgb(50, 49, 63)" stroke="none" stroke-width="1px">3.8</text><text x="0" y="136.9230769230769" dx="0em" dy="0.3em" style="text-anchor: end; visibility: inherit; font-family: &quot;Helvetica Neue&quot;, sans-serif; font-size: 12px; font-weight: 200;" fill="rgb(50, 49, 63)" stroke="none" stroke-width="1px">4</text><text x="0" y="123.23076923076923" dx="0em" dy="0.3em" style="text-anchor: end; visibility: hidden; font-family: &quot;Helvetica Neue&quot;, sans-serif; font-size: 12px; font-weight: 200;" fill="rgb(50, 49, 63)" stroke="none" stroke-width="1px">4.2</text><text x="0" y="109.53846153846152" dx="0em" dy="0.3em" style="text-anchor: end; visibility: inherit; font-family: &quot;Helvetica Neue&quot;, sans-serif; font-size: 12px; font-weight: 200;" fill="rgb(50, 49, 63)" stroke="none" stroke-width="1px">4.4</text><text x="0" y="95.84615384615387" dx="0em" dy="0.3em" style="text-anchor: end; visibility: hidden; font-family: &quot;Helvetica Neue&quot;, sans-serif; font-size: 12px; font-weight: 200;" fill="rgb(50, 49, 63)" stroke="none" stroke-width="1px">4.6</text><text x="0" y="82.15384615384616" dx="0em" dy="0.3em" style="text-anchor: end; visibility: inherit; font-family: &quot;Helvetica Neue&quot;, sans-serif; font-size: 12px; font-weight: 200;" fill="rgb(50, 49, 63)" stroke="none" stroke-width="1px">4.8</text><text x="0" y="68.46153846153845" dx="0em" dy="0.3em" style="text-anchor: end; visibility: hidden; font-family: &quot;Helvetica Neue&quot;, sans-serif; font-size: 12px; font-weight: 200;" fill="rgb(50, 49, 63)" stroke="none" stroke-width="1px">5</text><text x="0" y="54.76923076923076" dx="0em" dy="0.3em" style="text-anchor: end; visibility: inherit; font-family: &quot;Helvetica Neue&quot;, sans-serif; font-size: 12px; font-weight: 200;" fill="rgb(50, 49, 63)" stroke="none" stroke-width="1px">5.2</text><text x="0" y="41.07692307692304" dx="0em" dy="0.3em" style="text-anchor: end; visibility: hidden; font-family: &quot;Helvetica Neue&quot;, sans-serif; font-size: 12px; font-weight: 200;" fill="rgb(50, 49, 63)" stroke="none" stroke-width="1px">5.4</text><text x="0" y="27.384615384615415" dx="0em" dy="0.3em" style="text-anchor: end; visibility: inherit; font-family: &quot;Helvetica Neue&quot;, sans-serif; font-size: 12px; font-weight: 200;" fill="rgb(50, 49, 63)" stroke="none" stroke-width="1px">5.6</text><text x="0" y="13.692307692307708" dx="0em" dy="0.3em" style="text-anchor: end; visibility: hidden; font-family: &quot;Helvetica Neue&quot;, sans-serif; font-size: 12px; font-weight: 200;" fill="rgb(50, 49, 63)" stroke="none" stroke-width="1px">5.8</text><text x="0" y="0" dx="0em" dy="0.3em" style="text-anchor: end; visibility: hidden; font-family: &quot;Helvetica Neue&quot;, sans-serif; font-size: 12px; font-weight: 200;" fill="rgb(50, 49, 63)" stroke="none" stroke-width="1px">6</text></g><line x1="40" y1="0" x2="40" y2="178" fill="rgb(0, 0, 0)" stroke="rgb(204, 204, 204)" stroke-width="1px"></line></g></g><g transform="translate(40, 0)" clip-path="url(#clip_0)"><clipPath id="clip_0"><rect width="290" height="178"></rect></clipPath><g><g><g><line x1="0" y1="0" x2="0" y2="178" fill="rgb(0, 0, 0)" stroke="rgb(60, 60, 60)" stroke-width="1px" opacity="0.25"></line><line x1="36.25" y1="0" x2="36.25" y2="178" fill="rgb(0, 0, 0)" stroke="rgb(60, 60, 60)" stroke-width="1px" opacity="0.25"></line><line x1="72.5" y1="0" x2="72.5" y2="178" fill="rgb(0, 0, 0)" stroke="rgb(60, 60, 60)" stroke-width="1px" opacity="0.25"></line><line x1="108.75" y1="0" x2="108.75" y2="178" fill="rgb(0, 0, 0)" stroke="rgb(60, 60, 60)" stroke-width="1px" opacity="0.25"></line><line x1="145" y1="0" x2="145" y2="178" fill="rgb(0, 0, 0)" stroke="rgb(60, 60, 60)" stroke-width="1px" opacity="0.25"></line><line x1="181.25" y1="0" x2="181.25" y2="178" fill="rgb(0, 0, 0)" stroke="rgb(60, 60, 60)" stroke-width="1px" opacity="0.25"></line><line x1="217.5" y1="0" x2="217.5" y2="178" fill="rgb(0, 0, 0)" stroke="rgb(60, 60, 60)" stroke-width="1px" opacity="0.25"></line><line x1="253.75" y1="0" x2="253.75" y2="178" fill="rgb(0, 0, 0)" stroke="rgb(60, 60, 60)" stroke-width="1px" opacity="0.25"></line><line x1="290" y1="0" x2="290" y2="178" fill="rgb(0, 0, 0)" stroke="rgb(60, 60, 60)" stroke-width="1px" opacity="0.25"></line></g><g><line x1="0" y1="178" x2="290" y2="178" fill="rgb(0, 0, 0)" stroke="rgb(60, 60, 60)" stroke-width="1px" opacity="0.25"></line><line x1="0" y1="164.3076923076923" x2="290" y2="164.3076923076923" fill="rgb(0, 0, 0)" stroke="rgb(60, 60, 60)" stroke-width="1px" opacity="0.25"></line><line x1="0" y1="150.6153846153846" x2="290" y2="150.6153846153846" fill="rgb(0, 0, 0)" stroke="rgb(60, 60, 60)" stroke-width="1px" opacity="0.25"></line><line x1="0" y1="136.9230769230769" x2="290" y2="136.9230769230769" fill="rgb(0, 0, 0)" stroke="rgb(60, 60, 60)" stroke-width="1px" opacity="0.25"></line><line x1="0" y1="123.23076923076923" x2="290" y2="123.23076923076923" fill="rgb(0, 0, 0)" stroke="rgb(60, 60, 60)" stroke-width="1px" opacity="0.25"></line><line x1="0" y1="109.53846153846152" x2="290" y2="109.53846153846152" fill="rgb(0, 0, 0)" stroke="rgb(60, 60, 60)" stroke-width="1px" opacity="0.25"></line><line x1="0" y1="95.84615384615387" x2="290" y2="95.84615384615387" fill="rgb(0, 0, 0)" stroke="rgb(60, 60, 60)" stroke-width="1px" opacity="0.25"></line><line x1="0" y1="82.15384615384616" x2="290" y2="82.15384615384616" fill="rgb(0, 0, 0)" stroke="rgb(60, 60, 60)" stroke-width="1px" opacity="0.25"></line><line x1="0" y1="68.46153846153845" x2="290" y2="68.46153846153845" fill="rgb(0, 0, 0)" stroke="rgb(60, 60, 60)" stroke-width="1px" opacity="0.25"></line><line x1="0" y1="54.76923076923076" x2="290" y2="54.76923076923076" fill="rgb(0, 0, 0)" stroke="rgb(60, 60, 60)" stroke-width="1px" opacity="0.25"></line><line x1="0" y1="41.07692307692304" x2="290" y2="41.07692307692304" fill="rgb(0, 0, 0)" stroke="rgb(60, 60, 60)" stroke-width="1px" opacity="0.25"></line><line x1="0" y1="27.384615384615415" x2="290" y2="27.384615384615415" fill="rgb(0, 0, 0)" stroke="rgb(60, 60, 60)" stroke-width="1px" opacity="0.25"></line><line x1="0" y1="13.692307692307708" x2="290" y2="13.692307692307708" fill="rgb(0, 0, 0)" stroke="rgb(60, 60, 60)" stroke-width="1px" opacity="0.25"></line><line x1="0" y1="0" x2="290" y2="0" fill="rgb(0, 0, 0)" stroke="rgb(60, 60, 60)" stroke-width="1px" opacity="0.25"></line></g></g></g><g><g><line x1="0" y1="410.7692307692308" x2="290" y2="410.7692307692308" fill="rgb(0, 0, 0)" stroke="rgb(153, 153, 153)" stroke-width="1.5px"></line></g></g><g><g><line x1="36.25" y1="0" x2="36.25" y2="178" fill="rgb(0, 0, 0)" stroke="rgb(153, 153, 153)" stroke-width="1.5px"></line></g></g><g><g><g><g><g><path stroke="rgb(255, 112, 67)" stroke-width="2px" d="M36.25,38.31700985248273L36.25,-8.066646135770412L36.25,24.129357240638L36.25,81.96662413116499L36.25,119.32269478406786L36.25,130.903246858603L36.25,137.90388576725948L36.25,163.75350681621202L36.25,146.32638450855808L38.0625,163.72949959266646L38.0625,167.52709734881074L38.0625,164.05572421821665L38.0625,150.48519930240266L38.0625,177.26319893119054L38.0625,180.717305250855L38.0625,159.78538741504963L38.0625,157.7678713833255L39.875,155.25202621744756L39.875,146.0639527658662L39.875,186.18560378718374L39.875,174.2299286133616L39.875,195.7055548034443L39.875,179.90225784049397L39.875,176.9108483483736L41.6875,186.27402951277026L41.6875,179.8703519188913L41.6875,163.10335579862883L43.5,141.82348780164102L43.5,145.53609181343393L43.5,110.55746860174071L43.5,147.78601595611752L43.5,167.73001721115602L43.5,151.01204810542168L45.3125,142.10543007486723L45.3125,151.75617863477177L45.3125,146.13003604262L45.3125,168.1416595707938L47.125,167.28209670445273L47.125,93.6629031401883L47.125,141.42975089447265L47.125,157.11890200868743L47.125,142.62191100328317L47.125,154.96574673500504L47.125,164.77302303450927L47.125,164.88296396777736L47.125,148.39576272510087L47.125,148.8985975927828L47.125,105.77301992130963L47.125,114.89993543395511L47.125,129.5316637949808L47.125,120.76884184505482L48.9375,69.40672500542587L48.9375,85.2146839302118L48.9375,103.49455913038233L48.9375,119.96701977881392L48.9375,122.94692628613987L48.9375,161.15948825130795L48.9375,128.90751223272943L50.75,126.45685486912228L50.75,117.8682170134111L50.75,114.02400761236228L50.75,126.37441040096982L50.75,66.73084459544965L50.75,64.22041206357238L50.75,100.03253862232685L50.75,79.04701716378077L50.75,125.58175054273767L52.5625,145.8323723224782L52.5625,186.24763334679503L52.5625,150.4938662160097L52.5625,145.25044528068287L52.5625,122.69000971155688L52.5625,119.77319475773902L52.5625,152.54180396425315L52.5625,108.70831637325591L52.5625,124.8870409514607L52.5625,140.61801045133203L52.5625,144.96044564105728L52.5625,113.75237986773233L52.5625,180.79408852379586L52.5625,147.74774176596395L52.5625,144.2305928263959L52.5625,124.15211378299576L52.5625,149.74604955266253L54.375,153.02496033556386L54.375,155.90320692127145L54.375,157.34892467977795L54.375,142.26567922380727L54.375,142.94705790671617L54.375,100.47977173837691L54.375,120.36318688148017L54.375,160.0590797255584L54.375,110.91414031556904L56.1875,143.74706661849365L56.1875,107.172931097993L56.1875,78.60342014842918L56.1875,124.27883919256371L56.1875,107.33561567632364L56.1875,128.31447925851165L56.1875,131.76826026206308L56.1875,165.70277236981863L56.1875,137.2691075160356L56.1875,98.64262559783124L58,97.89329369436393L58,83.87191222008332L58,97.2555266878474L58,132.94078115224414L58,102.57426524473816L58,95.00742644350194L58,88.65834588896585L59.8125,116.24538171116555L59.8125,109.72166497969286L59.8125,114.3529702484734L59.8125,102.13373690560073L59.8125,-3.338509089080219L61.625,65.89559394019112L61.625,98.60396912128398L61.625,137.6245867727347L61.625,143.62704950908477L61.625,152.4056985646099L61.625,158.01286614264401L63.4375,126.81021919261016L63.4375,101.29880939783402L63.4375,112.99549417000674L63.4375,91.654841034193L63.4375,91.51220625508422L63.4375,106.35493827613121L63.4375,101.12032808972091L65.25,79.92223837534513L65.25,83.41211289684547L65.25,19.21455629824095L67.0625,69.88486716658355L67.0625,69.010788029724L67.0625,81.71772687901979L67.0625,111.19001711355219L67.0625,113.43841482323194L68.875,123.21745155342867L68.875,11.731341387285568L68.875,43.08591605016355L68.875,67.80752435567464L70.6875,96.58879916399825L70.6875,90.57662171899872L70.6875,17.136699619721867L70.6875,42.483235956009054L70.6875,106.97140507927705L70.6875,90.06503081752945L70.6875,137.44211718377846L70.6875,171.3192883749127L70.6875,143.2896479233006L70.6875,102.68113691729162L70.6875,119.2326141818597L72.5,110.97414747804423L72.5,88.92615566211947L72.5,82.46557120371511L72.5,94.49335791998297L72.5,116.00666198287172L72.5,82.88662312168292L74.3125,87.81587227060214L74.3125,105.6922806548887L74.3125,88.52477053597143L74.3125,80.50083573842475L74.3125,128.02757012403816L74.3125,153.42090052743993L74.3125,146.63300460620252L74.3125,139.48286156405203L74.3125,102.1871343883824L74.3125,128.93677503892263L76.125,86.89268295736048L76.125,108.84661769959659L76.125,150.2918253537386L76.125,157.863142914739L76.125,163.5665025689587L76.125,135.7523015963069L76.125,155.2288125191808L77.9375,157.38956591280993L77.9375,154.39092764043122L77.9375,146.7962899181398L77.9375,123.23541323428422L77.9375,105.87623757633148L77.9375,83.45123534599796L77.9375,93.27375514122072L77.9375,142.8656950256269L77.9375,118.33501584068415L77.9375,132.61603502473523L77.9375,34.91645064928747L79.75,98.41588070334011L79.75,105.27332834758813L79.75,74.2281467184011L79.75,90.333234255312L79.75,81.11809798398278L79.75,70.07793863376402L81.5625,75.09435989163723L81.5625,66.50888952389646L81.5625,117.19720251105323L81.5625,106.09024838651476L81.5625,122.61464593437472L81.5625,96.49728135381895L81.5625,-33.19012805613562L81.5625,8.229130129490926L81.5625,30.324793681097532L81.5625,88.76291852362807L81.5625,88.61624858708659L81.5625,23.29800220870473L83.375,37.2374275294934L83.375,39.551049152630696L83.375,60.69233623995396L83.375,87.60068100328729L83.375,88.77270354732246L83.375,138.21174363941265L83.375,141.6424117402178L85.1875,105.73705435215167L85.1875,106.79737227029233L85.1875,80.45882526694179L85.1875,-1.9304772397372574L85.1875,51.088451796557266L85.1875,21.77323785649881L85.1875,12.321138259976124L85.1875,56.98743225995014L85.1875,40.692210520333106L85.1875,66.68500648211234L85.1875,71.3853482014951L87,124.13465268286933L87,129.6787949384851L87,142.5825740546485L87,156.69995405791587L87,152.97362041507276L87,138.5707328945139L87,128.8494300520723L87,182.16134795680395L87,145.1910891343776L87,164.23929497244313L87,100.74168272217906L87,113.41685863467839L87,103.2852667651388L88.8125,108.5015357598138L88.8125,115.61742207562989L88.8125,145.68812978956737L88.8125,83.6265534460624L88.8125,93.27099549724986L88.8125,77.86086695167025L90.625,67.90579253803942L90.625,83.65792066630321L90.625,100.0663966399412L90.625,70.87839764817747L92.4375,124.02046322457355L92.4375,121.44520390731591L92.4375,117.89427389233505L92.4375,135.32954560054247L92.4375,158.61857004455774L92.4375,124.92709060696299L92.4375,139.04507922321005L92.4375,100.34256636796673L92.4375,126.5134089250187L92.4375,126.7254806929582L92.4375,139.56471499048195L92.4375,115.25675909847146L94.25,107.38652780546208L94.25,100.27903153970377L94.25,137.62137017257808L94.25,133.51274150192802L94.25,105.2181569743802L94.25,62.310877763823626L94.25,85.52150884072356L94.25,45.95388815238147L94.25,22.73032121962902L94.25,-6.013369298721415L94.25,40.888165484131065L94.25,74.36837286460349L96.0625,83.26764366223415L96.0625,89.22212052139959L96.0625,93.67649600199238L96.0625,60.1725530389584L96.0625,82.70200500546638L96.0625,90.80721263040198L97.875,61.893111564259414L97.875,74.02977653962053L97.875,99.13124761768572L97.875,100.1739209538465L97.875,-35.90411224092449L97.875,-4.072714666050359L97.875,28.277332257592604L97.875,36.86889701291827L97.875,63.47096460216953L99.6875,69.8283840615008L99.6875,39.78838507111203L99.6875,14.301384865815521L99.6875,-0.8855416437994563L99.6875,46.31339600089359L99.6875,4.0875677765521345L101.5,47.237348751446206L101.5,-7.071623905307149L101.5,48.65230253341207L101.5,85.67124974866614L101.5,44.428444769666186L101.5,82.43798593681188L101.5,104.58868860282104L101.5,59.456093727629366L101.5,60.94939121136534L101.5,87.70498018580358L103.3125,19.306252917202528L103.3125,69.66169745955007L103.3125,83.80163425942143L103.3125,101.4988787044096L103.3125,88.90165140031439L103.3125,99.25629546430596L105.125,106.13288544344421L105.125,113.72400229502534L105.125,127.92584606742612L105.125,76.62849245326552L105.125,124.64765425468357L105.125,62.12295722378373L106.9375,53.87261049947831L106.9375,58.04963259560421L106.9375,80.9472612292093L106.9375,109.13052207120009L106.9375,132.67075753053368L106.9375,127.38053538520722L108.75,68.30425905977518L108.75,75.39039117617459L108.75,55.02065890238816L108.75,82.04386160542403L108.75,58.55693853589564L108.75,82.08798371691189L108.75,56.71645699932158L108.75,84.26355155015072L108.75,74.96386345173445L108.75,98.12831739613267L110.5625,67.71895545279753L110.5625,93.37717519733773L110.5625,102.11648250769424L110.5625,128.61292520255358L110.5625,97.85990934563446L110.5625,97.82041828123695L110.5625,106.11733486273819L110.5625,123.45563470870081L112.375,113.32811193014462L112.375,114.05543112410427L112.375,124.08830513747527L112.375,142.08329482834887L112.375,143.6149505521231L112.375,91.09595042324915L112.375,115.00658981806457L112.375,96.3073354439018L114.1875,81.71855709731128L114.1875,99.91980099821734L114.1875,70.91306796160134L114.1875,73.63070436456032L114.1875,63.731501196804885L114.1875,63.55659105387022L114.1875,78.40378871059735L114.1875,115.55295547909559L114.1875,64.65669511550719L114.1875,87.95436581479711L116,116.79770171027626L116,94.40607082474973L116,103.64223897969434L116,122.16941790704738L116,85.58839508204387L116,106.7720078908542L116,117.40731126198773L117.8125,119.97550441654138L117.8125,115.58483587769865L117.8125,85.01721352425287L117.8125,106.3222168093149L117.8125,132.13086975844047L117.8125,120.57333075633755L119.625,94.83438321590626L119.625,124.13385435816079L119.625,142.6364505214845L119.625,140.04171783650662L119.625,128.5533012766204L119.625,111.6299167213133L119.625,114.55453286805877L119.625,147.486497151443L119.625,104.53519481139234L121.4375,89.1234048835677L121.4375,122.67978305183533L121.4375,89.11333335790033L121.4375,97.2396638272308L121.4375,138.69507865545995L121.4375,141.33625618938848L121.4375,136.78776272453493L123.25,93.8295604761422L123.25,94.41963346961714L123.25,95.94129770449787L123.25,137.45406686474539L123.25,127.1340981858169L123.25,94.97198356382448L125.0625,125.79674622256076L125.0625,82.62876642250129L125.0625,78.53271372618144L125.0625,80.63935007385304L125.0625,87.56727950138064L125.0625,103.52034904989316L125.0625,109.93702488661974L126.875,113.56082661691775L126.875,81.27740340446745L126.875,70.28378365644996L126.875,70.39918988334189L126.875,111.86734091411722L126.875,91.9846165846031L126.875,106.72542911636432L126.875,115.44139977798042L126.875,134.8830505859702L126.875,129.2575486461659L126.875,142.46453262973023L128.6875,99.15243267504366L128.6875,107.16862823107783L128.6875,75.26558962785573L128.6875,85.71669894695458L128.6875,88.81427000904192L128.6875,124.61136990431334L128.6875,124.06501095907686L128.6875,63.070096152754175L128.6875,42.382664557168596L130.5,42.4403626362317L130.5,61.50683684678181L130.5,78.37392741254062L130.5,88.53178879826993L130.5,46.39298776283934L130.5,37.134526589024944L132.3125,38.98816858074372L132.3125,6.585006368360581L132.3125,43.18437203437642L132.3125,98.50492143663867L132.3125,93.61559212777725L132.3125,110.92295561728946L132.3125,140.47785282523583L132.3125,147.7456838190945L132.3125,147.5934650435131L132.3125,112.20782944396394L132.3125,104.20382560897717L132.3125,99.31962798233904L132.3125,106.48257946626455L134.125,74.66481520741237L135.9375,85.21719268749202L135.9375,82.89735322423645L135.9375,116.17599923242159L135.9375,109.98080045662354L135.9375,107.75222814948117L135.9375,130.58749690391457L135.9375,122.00346684070362L135.9375,105.20895404217569L137.75,102.2911132453832L137.75,67.83027000622744L137.75,57.740369574912876L137.75,78.21270304354108L137.75,112.28375191258334L137.75,100.26858183602658L139.5625,95.13536262841507L139.5625,91.66687719102514L139.5625,41.20484321712783L139.5625,33.06802702050544L139.5625,82.11573440171884L139.5625,76.8645118467573L139.5625,103.57831724012509L139.5625,109.34532203024165L139.5625,97.03359978505829L141.375,64.3260294576861L141.375,72.25017644325085L141.375,52.245791502030755L141.375,86.4041514724042L141.375,81.72780509125316L141.375,65.62220005773793L143.1875,50.78157421789848L143.1875,97.65951499524009L143.1875,56.212936991622755L143.1875,32.857185189734L143.1875,50.786219037612184L143.1875,48.76769001490885L143.1875,-35.30347642637619L143.1875,12.874985829965311L143.1875,50.79978890821057L145,88.93971338586688L145,52.6373983123288L145,31.795310538910968L145,42.49822795871319L145,52.55941337176674L145,45.82808843748879L145,58.681373197052324L146.8125,102.62030313458692L146.8125,79.49875570746863L146.8125,108.56343729054186L146.8125,112.3456913580428L148.625,104.98192054743534L148.625,77.21340385551387L148.625,63.95127874941865L148.625,91.81066728110775L148.625,54.83438092661986L148.625,90.8511412219406L148.625,68.24728516886147L148.625,82.61538529668574L148.625,80.95248104772487L148.625,85.47652364755584L150.4375,90.81789279571124L150.4375,60.7608749314832L150.4375,53.85289166515116L150.4375,77.43836240763184L150.4375,76.92587403074198L150.4375,92.48564259776644L150.4375,113.80745046661417L152.25,96.41830159757666L152.25,88.4279122517401L152.25,67.09396911289427L152.25,74.00770003251834L152.25,69.8883559109999L152.25,90.8236361990939L152.25,82.46610686805349L154.0625,84.57482086380836L154.0625,76.31233020373804L154.0625,74.5633697549802L154.0625,70.13366846178096L154.0625,87.66156035347333L154.0625,81.71672504218091L154.0625,81.09385491056247L154.0625,68.81430347532445L154.0625,23.135073238618276L154.0625,64.96537178764399L154.0625,49.17406240340634L154.0625,25.26997543760234L154.0625,41.04118275002571L154.0625,71.73038175272352L155.875,107.38300381136688L155.875,91.73844621476111L155.875,57.03566662928485L155.875,84.90167406063503L155.875,102.79798732775723L155.875,92.47189891591324L157.6875,61.25190355195929L157.6875,69.05428908035674L157.6875,59.86475311928146L159.5,72.98807820988208L159.5,39.624236426473885L159.5,62.471487339752315L159.5,64.55475557828981L159.5,71.85501125079188L159.5,88.881591662115L159.5,-2.7955135860580924L161.3125,80.4743834318518L161.3125,89.68212708951602L161.3125,63.61614928180454L161.3125,68.69782310813585L161.3125,17.742717214350023L161.3125,34.95008498535765L163.125,55.84928061016738L163.125,87.14754523260243L164.9375,93.58999562194577L164.9375,107.78552079892994L164.9375,125.36624505018219L164.9375,112.94294423352538L164.9375,121.67717797223474L164.9375,97.0990259347644L164.9375,91.30933659662523L164.9375,21.713208100459383L166.75,36.072386770816934L166.75,93.36827626145066L166.75,108.27927328720016L166.75,78.58256829173114L166.75,79.25091567455792L166.75,113.77167420050166L168.5625,84.77732929540996L168.5625,73.86172222558956L168.5625,52.75072685435913L168.5625,56.18737544014891L168.5625,64.57386430874827L168.5625,64.90616958786876L170.375,67.69321787304503L170.375,63.27924260878045L170.375,65.53084665169408L170.375,103.40886716530468L170.375,119.85363132142774L170.375,124.60113923503289L170.375,63.55354870731708L170.375,67.0310811216446L170.375,90.00168131036281L172.1875,84.58179219005444L172.1875,115.93289853274511L172.1875,83.19561012653935L172.1875,89.77831493198396L172.1875,87.43855106598309L172.1875,73.92957216086762L172.1875,59.54153599765486L172.1875,37.61812298643849L174,26.76468623552293L174,65.62330565423069L174,73.05064935886577L174,78.33437142566916L174,96.77196858082783L174,94.81422314772668L174,144.78948754828048L174,113.15698295184801L174,124.01897174648815L174,93.42293321761754L175.8125,95.09927572459097L175.8125,87.88926047611761L175.8125,105.51444506318333L175.8125,84.8951638312168L175.8125,65.44678469540229L175.8125,87.2815091153934L175.8125,98.24297292247373L175.8125,97.76395972957725L175.8125,101.43831050078536L177.625,68.61270166536752L177.625,79.60212675530526L177.625,81.7851020654278L177.625,80.74998345229756L177.625,90.29174645189987L177.625,59.9219007458958L177.625,88.47140668523657L177.625,89.94100080224207L177.625,39.06547222770192L177.625,52.200930340968696L177.625,59.933644318144175L177.625,57.67172681305445L177.625,60.49300642709423L177.625,67.08208104037615L177.625,64.61532399325361L179.4375,108.01745137274004L179.4375,122.19921517789207L179.4375,93.58681511395618L179.4375,100.66128190190736L179.4375,64.61349837862753L179.4375,90.73428599077137L179.4375,76.31437055170062L181.25,78.02828127360975L181.25,103.58581710999577L181.25,58.078333762466855L181.25,70.82724144611628L181.25,68.17524565971824L181.25,91.19919189045984L183.0625,109.99739426236523L183.0625,91.74234008431218L183.0625,137.21771421951385L183.0625,108.41961588217218L183.0625,106.81277522435288L183.0625,113.38428719083919L183.0625,150.38526359985696L183.0625,128.86936874998332L183.0625,75.28378943001552L184.875,65.62751442292064L184.875,90.93882466796889L184.875,81.51017983636953L184.875,118.87523188887286L184.875,111.43400721874477L184.875,129.75427182392264L184.875,153.1309206001519L184.875,143.418800350626L184.875,119.38504303949588L186.6875,117.32272521851047L186.6875,135.02507874166446L186.6875,82.04401781666336L186.6875,84.51062118851442L186.6875,81.82481935664455L186.6875,110.20305119275027L186.6875,92.72957331865874L186.6875,65.23114479967627L188.5,72.55988609151326L188.5,102.74464812078463L188.5,15.864584464558732L188.5,60.91580461738083L188.5,70.91174608313506L190.3125,84.39517633546546L190.3125,52.16235880373942L190.3125,46.94662129702354L190.3125,20.553146575821586L190.3125,47.123158861771486L190.3125,83.57198823252452L190.3125,71.18062685722056L192.125,101.60928935285772L192.125,98.91850024745685L192.125,82.59149738170358L192.125,41.87287574741907L192.125,37.768102349931326L192.125,51.75257553537193L192.125,-10.801153665123735L192.125,17.472567489083076L192.125,56.44911842595437L192.125,57.613593780839295L192.125,65.55817746061409L192.125,80.73974210399763L192.125,69.67952576917813L192.125,70.15119300409066L193.9375,81.71438770092948L193.9375,138.3302659418796L193.9375,76.90579195272915L193.9375,78.33711771454989L193.9375,87.12575061858871L193.9375,80.93007398964592L195.75,108.27990770027324L195.75,103.2907522256139L195.75,108.29016653828678L195.75,70.53618206690234L195.75,86.84461297596246L195.75,102.81122528867621L195.75,100.13352850934038L195.75,79.13114161591446L197.5625,72.2125781439402L197.5625,80.45323602609704L197.5625,82.90176339300199L197.5625,59.32312449839132L197.5625,90.78215634517646L197.5625,60.8869884857793L197.5625,84.20609721697464L197.5625,87.91678841253531L199.375,82.53696909291257L199.375,94.26683618456366L199.375,83.81562568581707L199.375,67.5648380755809L199.375,82.77271268327672L199.375,90.36167275368031L201.1875,85.00346364835828L201.1875,90.40110021801135L201.1875,69.1215855294133L201.1875,75.28048458180811L201.1875,77.43070978947136L201.1875,78.93050419704707L201.1875,155.61353459560672L201.1875,74.19380259048454L201.1875,105.75362394860603L201.1875,147.27803894095504L203,143.0373095213301L203,100.84640069927647L203,70.14663084361939L203,84.51613059052222L203,61.75865466563015L203,85.87626853226948L204.8125,106.66854215691234L204.8125,73.68890934237457L204.8125,106.41587023076278L204.8125,132.81043777730795L204.8125,126.02745403155345L204.8125,113.12694170885845L206.625,65.22345799876013L206.625,37.676540596093474L206.625,44.091796186175486L206.625,66.93804450153777L208.4375,90.28376126067138L208.4375,71.74021654362488L208.4375,72.75410128073283L210.25,85.96801370000523L210.25,97.89002053783665L210.25,115.05446846072597L210.25,94.87347497949298L210.25,107.42934266756168L210.25,123.11641694967221L212.0625,112.29409233617577L212.0625,84.98336933509262L212.0625,44.76055802378508L212.0625,73.56397289457452L212.0625,102.26406297293667L212.0625,96.71569474646482L213.875,131.92058360825018L213.875,136.07028825065285L213.875,110.09344430095885L213.875,55.87719718641962L213.875,95.95908163160087L213.875,95.09636467062967L213.875,84.19676093400714L213.875,51.65569582619831L213.875,57.88912822076965L213.875,82.43798901507526L213.875,90.26945501488012L215.6875,74.18308989313033L215.6875,52.757000835761744L215.6875,73.88375343067504L215.6875,90.30523175247802L215.6875,103.56188288341475L217.5,94.96118650213423L217.5,89.97826609697799L217.5,118.39372728326194L217.5,117.89657472773587L217.5,117.28606636233263L217.5,91.97268322513317L217.5,102.75192705497174L217.5,39.42907424164068L219.3125,65.74953588526951L219.3125,100.75544868288573L219.3125,121.30800561121598L219.3125,114.71349992575529L219.3125,93.2281653041517L219.3125,90.17991681930368L219.3125,57.826673241982235L221.125,44.58349707873421L221.125,48.92047054995615L221.125,68.7957929723922L221.125,13.03980723250379L221.125,51.38408686471446L222.9375,40.359516150576354L222.9375,13.893150040218103L222.9375,17.49270958777646L222.9375,41.67091387968475L222.9375,74.60753510548321L222.9375,109.56814749057358L222.9375,110.74859667704584L222.9375,86.2509523517898L222.9375,125.76110789835981L222.9375,111.88339819614102L224.75,88.79984576489014L224.75,64.23914917928036L224.75,86.92708299347377L224.75,122.43338593852155L224.75,56.402546129387744L224.75,88.05389994396188L224.75,124.36233918583142L224.75,136.3365208961893L224.75,145.75952406185533L226.5625,125.61422625915347L226.5625,130.69877747231715L226.5625,124.52856078787119L226.5625,107.63419233632322L226.5625,100.51758683522803L226.5625,109.44942043304603L226.5625,95.79697042201214L226.5625,105.15333994692347L226.5625,102.60382101996824L226.5625,96.04429780466423L226.5625,88.10570553967581L226.5625,105.47209011058624L228.375,107.35440315880594L228.375,119.51862548269528L228.375,101.851760382015L228.375,81.56251229915524L230.1875,104.04413080901165L230.1875,94.7674936409058L230.1875,91.48143852040585L230.1875,99.39983183407341L232,114.7482265992468L232,97.19332756228434L232,108.80793505501448L232,127.42921672265899L232,64.90663023454195L232,45.45411041682007L232,71.38456523737796L233.8125,82.21678151725774L233.8125,40.31986459516909L233.8125,67.74116561848592L233.8125,96.38799181282648L233.8125,95.50889207725416L233.8125,89.61098933195196L233.8125,81.87573223465988L235.625,86.31097330451287L235.625,88.35139275486816L235.625,98.79057209842118L235.625,85.46040379771148L235.625,46.621795750118736L235.625,72.33152870645651L235.625,75.45713522619324L235.625,57.606767655162685L237.4375,15.092986268709836L237.4375,98.67704580187059L237.4375,107.84575780972627L237.4375,114.55286539961841L237.4375,124.72906817189055L237.4375,97.1209477367243L237.4375,107.8664430598531L237.4375,97.9088676528815L239.25,143.37156887804954L239.25,62.28372841038214L239.25,74.43723046616991L239.25,68.64386854257563L239.25,77.71343144541653L239.25,102.59260609789709L239.25,156.88475772764693L239.25,142.57789695507898L239.25,114.8964261894987L239.25,99.33933968962317L239.25,130.91979130555762L239.25,132.46058320900312L239.25,133.72413549363918L239.25,123.7721065356291L241.0625,122.36293726591623L241.0625,84.49298525524537L241.0625,77.2435975261565L241.0625,112.02395942781739L241.0625,95.91697437518688L241.0625,106.07424304045169L241.0625,126.93366598488736L242.875,130.34603799683498L242.875,95.7552142275913L242.875,119.30713508374907L242.875,95.04534546229307L242.875,111.4947720802792L242.875,91.75462463122416L242.875,101.37274689036308L244.6875,84.13912887997361L244.6875,76.15896998146414L244.6875,48.006517794448655L244.6875,51.87572910177438L244.6875,82.68618651501971L244.6875,86.9852549880946L244.6875,46.90479056492521L244.6875,60.021453405304996L244.6875,78.29662873944386L244.6875,50.45969765452682L244.6875,91.54384076314969L244.6875,101.46519397604071L244.6875,100.48649189738074L246.5,101.07579664646633L246.5,96.61461987466424L246.5,81.76136595415177L246.5,96.68956487513155L246.5,110.38115912161214L246.5,70.43854314330237L246.5,94.16317406854228L246.5,63.14795321056273L246.5,24.78628113442997L246.5,17.836091871200296L248.3125,69.70935670306123L248.3125,90.57633323899046L248.3125,54.42353423036279L248.3125,42.09950889200556L248.3125,37.33365646951822L248.3125,82.44571935919363L248.3125,97.64328534476422L248.3125,88.12637134512663L248.3125,87.92104574972169L248.3125,61.186425432855884L250.125,85.76348307906828L250.125,83.20533152787965L250.125,79.56246118948917L250.125,70.98672727239995L250.125,110.17678221070184L250.125,99.51882001071914L250.125,86.14486697638343L250.125,94.63215609844652L250.125,104.35907570487242L250.125,105.06798985534344L250.125,102.20601241319666L251.9375,80.70753266576655L251.9375,88.96650855913913L251.9375,78.77168657563146L251.9375,33.62407230797464L251.9375,73.39504732765586L251.9375,78.86003025816576L251.9375,93.87181778587151L251.9375,114.29509680907739L253.75,108.3311794256846L253.75,77.95695975525484L253.75,72.07559591822573L253.75,131.8325222830615L253.75,114.24115660056857L253.75,120.28987423706516L253.75,90.3225235799964L253.75,102.99957317838398L255.5625,62.61851981762793L255.5625,77.08919678343656L255.5625,109.73490425475431L255.5625,109.66837709264753L255.5625,99.81991634300967L255.5625,81.08284136511317L257.375,117.46501720462697L257.375,133.4322656093597L257.375,92.12833540110071L257.375,128.48524101609803L257.375,77.91134384249385L257.375,68.8462736563827L257.375,40.249661219304784L257.375,71.1332459339003L257.375,98.0563231988618L257.375,82.42788019955293L257.375,62.63311414596747L257.375,22.752089157840373L259.1875,26.950606727454755L259.1875,-9.156806408896045L259.1875,-33.514206079975565L259.1875,27.974853309834685L259.1875,40.59002863934319L261,44.936418899398035L261,88.96511085173316L261,76.91525360961633L261,69.94636872789417L261,83.85225116837714L262.8125,78.49229529049443L262.8125,93.04004924531336L262.8125,81.9522300781939L262.8125,87.11154618853669L262.8125,64.56806196933817L262.8125,83.71868171332243L264.625,96.22887047185048L264.625,108.74676248508969L264.625,102.75297713005433L264.625,64.69599832590293L264.625,71.43586165329421L264.625,107.35057614678048L266.4375,69.05353621869858L266.4375,52.21782260261338L266.4375,82.24084071498226L266.4375,59.37537442645403L266.4375,60.710482552882624L266.4375,72.05402995155752L266.4375,82.89545974597772L266.4375,67.98736167827511L266.4375,97.50016043160073L266.4375,90.64405310358372" style="fill: none;" fill="none"></path></g></g></g></g><g opacity="0.2"><g><g><g><path stroke="rgb(255, 112, 67)" stroke-width="2px" d="M36.25,38.31700985248273L36.25,-35.89683972872223L36.25,55.03752048198993L36.25,149.98324999442468L36.25,168.09478062849777L36.25,146.92331937643198L36.25,147.91491141686072L36.25,201.44250246194693L36.25,120.62476414900559L38.0625,189.57109726392306L38.0625,173.1890500508822L38.0625,158.86755558160635L38.0625,130.1737220470722L38.0625,217.37773748544546L38.0625,185.89440455803503L38.0625,128.40227347153882L38.0625,154.74245108090915L39.875,151.47889724144568L39.875,132.28324229900653L39.875,246.36441304133487L39.875,156.29707153026874L39.875,227.9182874239408L39.875,236.2894788155189L39.875,161.5925647662236L39.875,211.1657193990854L39.875,190.62620016244742L39.875,143.81765310580914L39.875,172.42373686570386L41.6875,200.31879608447736L41.6875,185.67721733680136L41.6875,170.62292410777164L41.6875,137.95286361987775L43.5,109.90368733039269L43.5,151.10499767156747L43.5,58.089534686161926L43.5,203.6288364116962L43.5,197.64601890857404L43.5,125.93509453993576L45.3125,128.74550305880032L45.3125,166.23230145527765L45.3125,137.69082216116098L45.3125,201.15909484716562L47.125,165.99275240531335L47.125,-16.765887187077453L47.125,180.6526286785419L47.125,120.87642449599045L47.125,173.4815003321721L47.125,179.48393748356744L47.125,165.04787536767813L47.125,123.66496086120605L47.125,149.65284989430353L47.125,41.08465341421274L47.125,128.59030870290903L47.125,151.47925633650559L47.125,107.6246089201707L48.9375,-7.636450254000124L48.9375,108.9266223173875L48.9375,130.9143719306359L48.9375,144.67571075146014L48.9375,127.41678604712853L48.9375,218.4783311990591L48.9375,80.52954820486215L50.75,122.78086882371169L50.75,104.98526022984431L50.75,108.25769351078914L50.75,144.90001458388107L50.75,-22.734504112830507L50.75,60.45476326575647L50.75,153.75072846045862L50.75,47.56873497596155L50.75,195.3838506111732L52.5625,176.2083049920889L52.5625,246.87052488327026L52.5625,96.86321551983173L52.5625,137.38531387769257L52.5625,88.84935635786789L52.5625,115.39797232701228L52.5625,201.69471777402438L52.5625,42.95808498676007L52.5625,149.15512781876782L52.5625,164.214464701139L52.5625,151.47409842564508L52.5625,66.94028120774487L52.5625,281.3566515078911L52.5625,98.17822162921611L52.5625,138.95486941704382L52.5625,94.03439521789551L52.5625,188.13695320716272L54.375,157.94332650991586L54.375,160.22057679983286L54.375,159.51750131753775L54.375,119.64081103985126L54.375,143.96912593107956L54.375,36.77884248586801L54.375,150.18830959613507L54.375,219.60291899167572L54.375,37.19673120058499L56.1875,192.99645607288068L56.1875,52.31172781724197L56.1875,35.74915372408353L56.1875,192.79196775876557L56.1875,81.92078040196344L56.1875,159.78277463179367L56.1875,136.94893176739032L56.1875,216.60454053145187L56.1875,94.61861023536095L56.1875,40.70290272052472L58,96.76929583916296L58,62.83984000866229L58,117.3309483894935L58,186.4686628488394L58,57.02449138347919L58,83.65716824164758L58,79.13472505716177L59.8125,157.62593544446506L59.8125,99.93608988248384L59.8125,121.2999281516442L59.8125,83.80488689129169L59.8125,-161.54687808110157L61.625,169.746748484098L61.625,147.66653189292322L61.625,196.1555132499108L61.625,152.6307436136099L61.625,165.57367214789758L61.625,166.4236175096952L63.4375,80.00624876755933L63.4375,63.03169470566971L63.4375,130.54052132826584L63.4375,59.643861330472504L63.4375,91.29825408642108L63.4375,128.6190363077017L63.4375,93.26841281010554L65.25,48.12510380378137L65.25,88.64692467909592L65.25,-77.08177859966571L67.0625,145.8903334690974L67.0625,67.69966932443472L67.0625,100.77813515296349L67.0625,155.3984524653508L67.0625,116.81101138775165L68.875,137.88600664872388L68.875,-155.49782386192902L68.875,90.11777804448054L68.875,104.88993681394136L70.6875,139.7607113764836L70.6875,81.55835555149957L70.6875,-93.0231835291936L70.6875,80.50304046043982L70.6875,203.70365876417893L70.6875,64.70546942490799L70.6875,208.50774673315195L70.6875,222.13504516161404L70.6875,101.24518724588246L70.6875,41.76837040827823L70.6875,144.05983007871185L72.5,98.58644742232102L72.5,55.85416793823242L72.5,72.77469451610858L72.5,112.53503799438477L72.5,148.27661807720477L72.5,33.20656482989972L74.3125,95.20974599398099L74.3125,132.50689323131854L74.3125,62.77350535759558L74.3125,68.46493354210486L74.3125,199.3176717024583L74.3125,191.51089613254254L74.3125,136.45116072434644L74.3125,128.75764700082632L74.3125,46.24354362487793L74.3125,169.06123601473294L76.125,23.826544835017273L76.125,141.77751981295071L76.125,212.45963683495154L76.125,169.22011925623966L76.125,172.12154205028827L76.125,94.0310001373291L76.125,184.44357890349167L77.9375,160.63069600325363L77.9375,149.89297023186316L77.9375,135.4043333347027L77.9375,87.8940982085008L77.9375,79.8374740894024L77.9375,49.81373200049768L77.9375,108.0075348340548L77.9375,217.25360485223624L77.9375,81.53899706326999L77.9375,154.03756380081177L77.9375,-111.63292591388404L79.75,193.66502578441913L79.75,115.55949981396014L79.75,27.660374274620636L79.75,114.49086556067833L79.75,67.2953935769888L79.75,53.517699608436004L81.5625,82.61899177844708L81.5625,53.63068397228534L81.5625,193.22967199178842L81.5625,89.42981719970703L81.5625,147.40124225616455L81.5625,57.32123448298526L81.5625,-227.7212421710674L81.5625,70.35801740793082L81.5625,63.468289008507355L81.5625,176.42010578742392L81.5625,88.39624368227445L81.5625,-74.67936735886792L83.375,58.14656551067645L83.375,43.02148158733661L83.375,92.40426687093881L83.375,127.96319814828726L83.375,90.53073736337515L83.375,212.37030377754797L83.375,146.7884138914255L85.1875,51.8790182700524L85.1875,108.38784914750319L85.1875,40.951004761915925L85.1875,-125.5144309997558L85.1875,130.61684535099909L85.1875,-22.199583053588867L85.1875,-1.8570111348078626L85.1875,123.98687325991116L85.1875,16.24937791090744L85.1875,105.6742004247812L85.1875,78.43586078056921L87,203.2586094049307L87,137.9950083219088L87,161.93824272889356L87,177.8760240628169L87,147.384119950808L87,116.96640161367563L87,114.26747578840988L87,262.12922481390143L87,89.73570090073805L87,192.81160372954147L87,5.495264346782989L87,132.42962250342737L87,88.0878789608295L88.8125,116.32593925182636L88.8125,126.29125154935396L88.8125,190.79419136047363L88.8125,-9.46581106919507L88.8125,107.73765857403095L88.8125,54.74567413330078L90.625,52.97318091759314L90.625,107.28611285869891L90.625,124.67911060039813L90.625,27.09639916053186L92.4375,203.73356158916766L92.4375,117.58231493142935L92.4375,112.56787886986365L92.4375,161.48245316285352L92.4375,193.5521067105807L92.4375,74.38987145057092L92.4375,160.22206214758066L92.4375,42.28879708510178L92.4375,165.76967276059665L92.4375,127.0435883448674L92.4375,158.82356643676758L92.4375,78.79482526045578L94.25,95.58118086594801L94.25,89.61778714106633L94.25,193.63487812188956L94.25,127.3497984959529L94.25,62.7762801830585L94.25,-2.050041052011352L94.25,120.33745545607346L94.25,-13.397542880131653L94.25,-49.12890507624701L94.25,111.2404676584097L94.25,124.58868393531212L96.0625,96.61654985868013L96.0625,98.1538358101478L96.0625,100.35805922288161L96.0625,9.916638594407289L96.0625,116.49618295522836L96.0625,102.96502406780536L97.875,18.521959965045625L97.875,92.23477400266206L97.875,136.78345423478345L97.875,101.73793095808762L97.875,-240.02116203308105L97.875,43.674381696260895L97.875,76.80240264305701L97.875,49.75624414590689L97.875,103.37406598604642L99.6875,79.36451325049768L99.6875,-5.2716134144709486L99.6875,-23.665931408221923L99.6875,117.11180246793306L99.6875,-59.25117455996002L101.5,111.96202021378737L101.5,-88.5350828904372L101.5,132.23819219149075L101.5,141.19967057154727L101.5,-17.43576269883374L101.5,139.45229768753052L101.5,137.8147426018348L101.5,-8.242798585158141L101.5,63.18933743696945L101.5,127.83836364746094L103.3125,-83.29183798569898L103.3125,145.1948642730713L103.3125,105.01153945922852L103.3125,128.0447453718919L103.3125,70.0058104441716L103.3125,114.78826156029334L105.125,116.44777041215163L105.125,125.11067757239708L105.125,149.22861172602725L105.125,-0.3175379679753405L105.125,-31.6640883225661L106.9375,41.4970904130202L106.9375,64.31516573979303L106.9375,115.29370417961707L106.9375,151.40541333418625L106.9375,167.98111071953406L106.9375,119.44520216721754L108.75,-20.310155428372923L108.75,86.01958935077374L108.75,24.466060491708618L108.75,122.57866565997783L108.75,23.32655393160306L108.75,117.38455148843619L108.75,18.659166922936066L108.75,125.58419337639441L108.75,61.014331304110016L108.75,132.87499831273004L110.5625,22.10491253779486L110.5625,131.86450481414795L110.5625,115.22544347322903L110.5625,168.35758924484253L110.5625,51.73038556025577L110.5625,97.76118168464073L110.5625,118.56270973499004L110.5625,149.46308447764468L112.375,98.13682776231032L112.375,115.14640991504375L112.375,139.13761615753174L112.375,169.07577936465924L112.375,145.91243413778452L112.375,12.317450229938203L112.375,150.87254891028772L112.375,68.25845388265756L114.1875,59.835389577425445L114.1875,127.22166684957651L114.1875,27.402968406677246L114.1875,77.70715896899884L114.1875,48.88269644517166L114.1875,63.29422583946814L114.1875,100.6745851956881L114.1875,171.276705631843L114.1875,-11.687695429875305L114.1875,122.90087186373196L116,160.06270555349496L116,60.81862449645996L116,117.49649121211125L116,149.9601862980769L116,30.716860844538758L116,138.54742710406964L116,133.36026631868802L117.8125,123.82779414837177L117.8125,108.99883306943453L117.8125,39.16577999408429L117.8125,138.27972173690796L117.8125,170.8438491821289L117.8125,103.23702225318321L119.625,56.22596190525934L119.625,168.0830610715426L119.625,170.3903447664701L119.625,136.14961880903977L119.625,111.32067643679105L119.625,86.2448398883526L119.625,118.94145708817702L119.625,196.8844435765193L119.625,40.10824130131647L121.4375,66.00571999183069L121.4375,173.01435030423679L121.4375,38.76365881699783L121.4375,109.42915953122652L121.4375,200.87820089780368L121.4375,145.2980224902813L121.4375,129.96502252725455L123.25,29.39225710355319L123.25,95.30474295982947L123.25,98.22379405681903L123.25,199.7232206051166L123.25,111.65414516742412L123.25,46.72881163083591L125.0625,172.0338902106652L125.0625,17.87679672241211L125.0625,72.38863468170166L125.0625,83.79930459536038L125.0625,97.95917364267203L125.0625,127.44995337266188L125.0625,119.56203864170955L126.875,118.99652921236478L126.875,32.85226858579196L126.875,53.79335403442383L126.875,70.57229922367975L126.875,174.06956746028018L126.875,62.16053009033203L126.875,128.83664791400616L126.875,128.5153557704045L126.875,164.04552679795484L126.875,120.81929573645958L126.875,162.27500860507672L128.6875,34.184282743013824L128.6875,119.1929215651292L128.6875,27.41103172302246L128.6875,101.39336292560283L128.6875,93.46062660217285L128.6875,178.30701974722055L128.6875,123.2454725412222L128.6875,-28.422276056729856L128.6875,11.351517163790191L130.5,42.52690975482648L130.5,90.10654816260704L130.5,103.67456326117882L130.5,103.76858087686391L130.5,-16.8152137903067L130.5,23.246834828303406L132.3125,41.76863156832181L132.3125,-42.01973695021411L132.3125,98.08342053340031L132.3125,181.485745540032L132.3125,86.28159816448505L132.3125,136.8840008515578L132.3125,184.81019863715537L132.3125,158.64743030988254L132.3125,147.36513688014102L132.3125,59.12937604464017L132.3125,92.19781985649695L132.3125,91.99333154238187L132.3125,117.22700669215276L134.125,26.938168819134063L135.9375,101.04575890761154L135.9375,79.41759402935321L135.9375,166.09396824469934L135.9375,100.68800229292648L135.9375,104.40936968876765L135.9375,164.8404000355647L135.9375,109.12742174588716L135.9375,80.01718484438382L137.75,97.91435205019437L137.75,16.139005147493805L137.75,42.60551892794095L137.75,108.92120324648343L137.75,163.3903252161466L137.75,82.2458267211914L139.5625,87.4355338169978L139.5625,86.46414903494028L139.5625,-34.48820774371808L139.5625,20.86280272557184L139.5625,155.6872954735389L139.5625,68.9876780143151L139.5625,143.6490253301767L139.5625,117.99582921541653L139.5625,78.56601641728327L141.375,15.264673966627868L141.375,84.13639692159799L141.375,22.239214090200562L141.375,137.64169142796442L141.375,74.71328551952655L141.375,41.46379250746506L143.1875,28.52063545813928L143.1875,167.97642616125253L143.1875,-5.956930013803344L143.1875,-2.1764425130990617L143.1875,77.67976980942944L143.1875,45.73989648085373L143.1875,-161.41022608830372L143.1875,85.14267921447754L143.1875,107.68699352557842L145,146.14960010235126L145,-1.8160742979783322L145,0.5321788787841797L145,58.55260408841647L145,67.65119149134708L145,35.73110103607178L145,77.96130033639761L146.8125,168.52869804088886L146.8125,44.81643456679123L146.8125,152.16045966515173L146.8125,118.01907245929424L148.625,93.93626433152419L148.625,35.56062881763165L148.625,44.058091090275695L148.625,133.59975007864145L148.625,-0.6300486051119378L148.625,144.8762816649217L148.625,34.3415010892428L148.625,104.16753548842209L148.625,78.45812467428354L148.625,92.26258754730225L150.4375,98.82994651794434L150.4375,15.675348135141235L150.4375,43.49091676565317L150.4375,112.8165685213529L150.4375,76.15714146540714L150.4375,115.82529544830322L150.4375,145.7901622698857L152.25,70.33457829402042L152.25,76.44232823298526L152.25,35.09305440462552L152.25,84.37829641195444L152.25,63.7093397287222L152.25,122.22655663123497L152.25,69.92981287149283L154.0625,87.73789185744064L154.0625,63.918594213632446L154.0625,71.93992908184345L154.0625,63.489116521982055L154.0625,113.95339819101186L154.0625,72.79947207524225L154.0625,80.15954971313477L154.0625,50.3949763224675L154.0625,-45.38377211644098L154.0625,127.71081961118257L154.0625,25.487098327049836L154.0625,-10.586155011103699L154.0625,64.6979937186608L154.0625,117.7641802567702L155.875,160.8619368993319L155.875,68.27160981985239L155.875,4.981497251070465L155.875,126.70068520766037L155.875,129.6424572284405L155.875,76.98276629814734L157.6875,14.421910506028382L157.6875,80.75786737295297L157.6875,46.08044917766864L159.5,92.67306584578293L159.5,-10.421526248638429L159.5,96.74236370966985L159.5,67.67965793609619L159.5,82.80539475954495L159.5,114.42146227909969L159.5,-140.31117145831763L161.3125,205.37922895871677L161.3125,103.49374257601224L161.3125,24.517182570237367L161.3125,76.32033384763278L161.3125,-58.689941626328675L161.3125,60.76113664186917L163.125,87.19807404738205L163.125,134.09494216625507L164.9375,103.25367120596079L164.9375,129.0788085644062L164.9375,151.73733142706064L164.9375,94.30799300854022L164.9375,134.77852858029877L164.9375,60.23179787855881L164.9375,82.6248025894165L164.9375,-82.68098464378943L166.75,57.61115477635309L166.75,179.3121104974013L166.75,130.64576882582443L166.75,34.03751079852765L166.75,80.25343674879807L166.75,165.55281198941745L168.5625,41.28581193777231L168.5625,57.48831162085901L168.5625,21.08423379751352L168.5625,61.34234831883356L168.5625,77.15359761164737L168.5625,65.40462750654953L170.375,71.87379030080942L170.375,56.658279712383575L170.375,68.90825271606445L170.375,160.22589793572058L170.375,144.52077755561243L170.375,131.72240110544058L170.375,-28.017837084256712L170.375,72.2473797431359L170.375,124.45758159344012L172.1875,76.45195850959192L172.1875,162.9595580467811L172.1875,34.08967751723068L172.1875,99.6523721401508L172.1875,83.92890526698184L172.1875,53.66610380319449L172.1875,37.959481752835785L172.1875,4.733003469613891L174,10.484531109149628L174,123.91123478229228L174,84.19166491581842L174,86.2599545258742L174,124.42836431356577L174,91.87760499807504L174,219.75238414911124L174,65.70822605719934L174,140.3119549384484L174,47.52887542431171L175.8125,97.61378948505107L175.8125,77.07423760340762L175.8125,131.95222194378192L175.8125,53.96624198326697L175.8125,36.27421599168045L175.8125,120.0335957453801L175.8125,114.6851686330942L175.8125,97.0454399402325L175.8125,106.94983665759746L177.625,19.374288412240844L177.625,96.08626439021184L177.625,85.05956503061148L177.625,79.19730553260217L177.625,104.60439095130333L177.625,14.367132186889648L177.625,131.29566559424768L177.625,92.14539197775034L177.625,-37.247820634108336L177.625,71.90411751086896L177.625,71.53271528390738L177.625,54.27885055541992L177.625,64.72492584815393L177.625,76.96569296029898L177.625,60.915188422569855L179.4375,173.12064244196964L179.4375,143.47186088562012L179.4375,50.66821501805231L179.4375,111.27298208383412L179.4375,10.541823093707734L179.4375,129.91546740898718L179.4375,54.684497393094574L181.25,80.59914735647348L181.25,141.9221208645747L181.25,-10.1828912588266L181.25,89.95060297159048L181.25,64.19725198012131L181.25,125.73511123657227L183.0625,138.1946978202233L183.0625,64.35975881723257L183.0625,205.43077542231632L183.0625,65.22246837615967L183.0625,104.40251423762395L183.0625,123.24155514056865L183.0625,205.8867282133836L183.0625,96.59552647517278L183.0625,-5.094579549936157L184.875,51.14310191227838L184.875,128.90579003554123L184.875,67.36721258897046L184.875,174.9228099676279L184.875,100.27217021355261L184.875,157.23466873168945L184.875,188.19589376449585L184.875,128.85061997633713L184.875,83.33440707280084L186.6875,114.22924848703238L186.6875,161.57860902639536L186.6875,2.572426429161652L186.6875,88.21052624629093L186.6875,77.79611660883975L186.6875,152.7703989469088L186.6875,66.5193565075214L186.6875,23.983502021202668L188.5,83.55299802926871L188.5,148.02179116469162L188.5,-114.45551101978003L188.5,128.49263484661395L188.5,85.90565828176645L190.3125,104.62032171396108L190.3125,3.8131325061504526L190.3125,39.12301503694974L190.3125,-19.037065505981445L190.3125,86.97817729069635L190.3125,138.24523228865402L190.3125,52.59358479426456L192.125,147.25228309631348L192.125,94.88231658935547L192.125,58.10099308307355L192.125,-19.20505670400769L192.125,31.610942253699676L192.125,72.7292853135329L192.125,-104.63174746586719L192.125,59.88314922039325L192.125,114.91394483126126L192.125,59.36030681316669L192.125,77.47505298027625L192.125,103.51208906907301L192.125,53.089201266949004L192.125,70.85869385645938L193.9375,99.05917974618765L193.9375,223.2540833033048L193.9375,-15.23091903099646L193.9375,80.48410635728101L193.9375,100.30869997464693L193.9375,71.63655904623178L195.75,149.30465826621423L195.75,95.80701901362492L195.75,115.78928800729605L195.75,13.905205359825715L195.75,111.30725933955266L195.75,126.76114375774677L195.75,96.11698334033672L195.75,47.627561275775605L197.5625,61.83473293597882L197.5625,92.81422284933237L197.5625,86.57455444335938L197.5625,23.95516615647537L197.5625,137.9707041153541L197.5625,16.04423669668344L197.5625,119.18476031376765L197.5625,93.48282520587627L199.375,74.46724011347843L199.375,111.86163682204025L199.375,68.13880993769718L199.375,43.188656660226684L199.375,105.58452459482045L199.375,101.74511285928578L201.1875,76.96614999037521L201.1875,98.49755507249098L201.1875,37.2023134965163L201.1875,84.51883316040039L201.1875,80.65604760096622L201.1875,81.18019580841064L201.1875,270.6380801934462L201.1875,-47.93579541719879L201.1875,153.0933559857882L201.1875,209.56466142947858L203,136.67621539189264L203,37.56003746619592L203,24.0969760601337L203,106.07038021087646L203,27.622440778292145L203,122.05268933222844L204.8125,137.85695259387677L204.8125,24.219460120567902L204.8125,155.5063115633451L204.8125,172.4022890971257L204.8125,115.8529784129216L204.8125,93.77617322481595L206.625,-6.6317675663874525L206.625,-3.643835507906374L206.625,53.71467957129846L206.625,101.2074169745812L208.4375,125.3023363993718L208.4375,43.924899468055145L208.4375,74.27492838639478L210.25,105.78888232891376L210.25,115.77303079458383L210.25,140.8011403450599L210.25,64.60198475764346L210.25,126.26314419966477L210.25,146.64702837283795L212.0625,96.06060541593111L212.0625,44.017284833467926L212.0625,-15.57365894317627L212.0625,116.76909520075871L212.0625,145.31419809047992L212.0625,88.39314240675705L213.875,184.7279169009282L213.875,142.29484521425687L213.875,71.12817837641788L213.875,-25.4471734853891L213.875,156.08190829937274L213.875,93.80228922917293L213.875,67.8473553290734L213.875,2.8440981644850467L213.875,67.23927681262677L213.875,119.26128020653357L213.875,102.0166540145874L215.6875,50.053542210505555L215.6875,20.617867249708922L215.6875,105.573882323045L215.6875,114.93744923518254L215.6875,123.44685957981989L217.5,82.06014193021335L217.5,82.50388548924371L217.5,161.0169190626878L217.5,117.15084589444673L217.5,116.37030381422775L217.5,54.002608519334046L217.5,118.92079279972957L217.5,-55.55520497835602L219.3125,105.2302283507127L219.3125,153.26431787931003L219.3125,152.1368410037114L219.3125,104.82174139756422L219.3125,61.00016337174637L219.3125,85.60754409203162L219.3125,9.296807876000031L221.125,24.718732833862305L221.125,55.42593075678897L221.125,98.60877660604623L221.125,-70.59417137732873L221.125,108.90050631303053L222.9375,23.82266007936917L222.9375,-25.806399125319274L222.9375,22.892048909113953L222.9375,77.93822031754712L222.9375,124.012466944181L222.9375,162.00906606820914L222.9375,112.51927045675424L222.9375,49.50448586390567L222.9375,185.02634121821475L222.9375,91.06683364281287L224.75,54.174517118013824L224.75,27.398104300865754L224.75,120.95898371476393L224.75,175.69284035609317L224.75,-42.64371358431305L224.75,135.53093066582312L224.75,178.82499804863562L224.75,154.29779346172626L224.75,159.89402881035437L226.5625,95.39627955510066L226.5625,138.32560429206262L226.5625,115.2732357612023L226.5625,82.29263965900128L226.5625,89.8426785835853L226.5625,122.84717082977295L226.5625,75.31829540546124L226.5625,119.18789423429048L226.5625,98.77954262953537L226.5625,86.20501298170822L226.5625,76.19781714219312L226.5625,131.5216669669518L228.375,110.17787273113544L228.375,137.76495896852933L228.375,75.3514627309946L228.375,51.12864017486572L230.1875,137.7665585737962L230.1875,80.85253788874698L230.1875,86.55235583965595L230.1875,111.27742180457481L232,137.77081874700693L232,70.86097900684064L232,126.22984629410963L232,155.3611392241258L232,-28.877249497633727L232,16.275330690237183L232,110.28024746821477L233.8125,98.46510593707744L233.8125,-22.525510787963867L233.8125,108.87311715346115L233.8125,139.35823110433725L233.8125,94.19024247389572L233.8125,80.76413521399866L233.8125,70.27284658872165L235.625,92.96383490929236L235.625,91.41202193040114L235.625,114.44934111375075L235.625,65.46515134664682L235.625,-11.636116321270265L235.625,110.89612814096303L235.625,80.14554500579834L235.625,30.83121629861685L237.4375,-48.67768581096942L237.4375,224.0531351016118L237.4375,121.59882582150972L237.4375,124.6135267844567L237.4375,139.99337233029877L237.4375,55.708767083974976L237.4375,123.98468604454627L237.4375,82.97250454242413L239.25,211.56562071580151L239.25,-59.3480322911189L239.25,92.66748354985164L239.25,59.9538256571843L239.25,91.31777579967792L239.25,139.9113680766179L239.25,238.32298517227173L239.25,121.11760579622708L239.25,73.3742200411283L239.25,76.00370993980994L239.25,178.29046872945932L239.25,134.77177106417142L239.25,135.61946392059326L239.25,108.84406309861403L241.0625,120.2491833613469L241.0625,27.688057239239043L241.0625,66.36951593252329L241.0625,164.19450228030865L241.0625,71.75649679624118L241.0625,121.31014603834885L241.0625,158.2228004015409L242.875,135.4645960147564L242.875,43.86897857372577L242.875,154.63501636798566L242.875,58.6526610301091L242.875,136.16891200725848L242.875,62.1444034576416L242.875,115.7999302790715L244.6875,58.28870186438928L244.6875,64.18873163369986L244.6875,5.777839513925414L244.6875,57.67954606276291L244.6875,128.9018726348877L244.6875,93.43385769770696L244.6875,-13.215906069828918L244.6875,79.69644766587476L244.6875,105.70939174065222L244.6875,8.704301027151246L244.6875,153.17005542608408L244.6875,116.34722379537729L244.6875,99.01843877939078L246.5,101.95975377009465L246.5,89.9228547169612L246.5,59.48148507338303L246.5,119.08186325660118L246.5,130.918550491333L246.5,10.524619175837586L246.5,129.7501204564021L246.5,16.625121923593383L246.5,-32.75622697976917L246.5,7.410807976355926L248.3125,147.5192539508526L248.3125,121.87679804288423L248.3125,0.19433571742132472L248.3125,23.613470884469848L248.3125,30.184877835787262L248.3125,150.1138136937068L248.3125,120.43963432312012L248.3125,73.85100034567026L248.3125,87.61305735661432L248.3125,21.084494957557098L250.125,122.62906954838678L250.125,79.36810420109674L250.125,74.09815568190353L250.125,58.12312639676608L250.125,168.96186461815466L250.125,83.531876710745L250.125,66.08393742487979L250.125,107.36308978154109L250.125,118.94945511451134L250.125,106.13136108104999L250.125,97.91304624997652L251.9375,48.4598130446214L251.9375,101.35497239919809L251.9375,63.479453600369965L251.9375,-34.09734909351056L251.9375,133.05150985717773L251.9375,87.05750465393066L251.9375,116.38949907743013L251.9375,144.93001534388614L253.75,99.38530335059532L253.75,32.39563024961032L253.75,63.25355016268216L253.75,221.46791183031522L253.75,87.85410807682916L253.75,129.36295069181L253.75,45.37149759439322L253.75,122.01514757596529L255.5625,2.046939776493957L255.5625,98.79521223214957L255.5625,158.70346546173096L255.5625,109.5685863494873L255.5625,85.0472252185528L255.5625,52.977228898268464L257.375,172.0382809638977L257.375,157.38313821645883L257.375,30.17244008871225L257.375,183.02059943859393L257.375,2.0504980820875858L257.375,55.248668377216035L257.375,-2.6452574363121357L257.375,117.45862300579364L257.375,138.44093909630408L257.375,58.98521570058969L257.375,32.940965065589324L257.375,-37.06944832435022L259.1875,33.24838308187631L259.1875,-63.31792611342212L259.1875,-70.05030558659479L259.1875,120.20844239455002L259.1875,59.51279163360596L261,51.45600428948035L261,155.00814878023587L261,58.84046774644119L261,59.493041405311004L261,104.71107482910156L262.8125,70.45236147367038L262.8125,114.86168017754187L262.8125,65.32050132751465L262.8125,94.85052035405086L262.8125,30.752835640540496L262.8125,112.44461132929875L264.625,114.99415360964261L264.625,127.52360050494853L264.625,93.76229909750131L264.625,7.610530119675843L264.625,81.54565664438101L264.625,161.22264788700983L266.4375,11.607976326575653L266.4375,26.964252178485566L266.4375,127.27536788353552L266.4375,25.077174993661743L266.4375,62.71314474252554L266.4375,89.06935104956993L266.4375,99.15760443760799L266.4375,45.62521457672119L266.4375,141.76935856158917L266.4375,80.35989211155817" style="fill: none;" fill="none"></path></g></g></g></g></g></g><g transform="translate(40, 178)" clip-path="url(#clip_1)"><clipPath id="clip_1"><rect width="290" height="22"></rect></clipPath><g><g><line x1="0" y1="0" x2="0" y2="5" style="visibility: inherit;" fill="rgb(0, 0, 0)" stroke="rgb(204, 204, 204)" stroke-width="1px"></line><line x1="36.25" y1="0" x2="36.25" y2="5" style="visibility: inherit;" fill="rgb(0, 0, 0)" stroke="rgb(204, 204, 204)" stroke-width="1px"></line><line x1="72.5" y1="0" x2="72.5" y2="5" style="visibility: inherit;" fill="rgb(0, 0, 0)" stroke="rgb(204, 204, 204)" stroke-width="1px"></line><line x1="108.75" y1="0" x2="108.75" y2="5" style="visibility: inherit;" fill="rgb(0, 0, 0)" stroke="rgb(204, 204, 204)" stroke-width="1px"></line><line x1="145" y1="0" x2="145" y2="5" style="visibility: inherit;" fill="rgb(0, 0, 0)" stroke="rgb(204, 204, 204)" stroke-width="1px"></line><line x1="181.25" y1="0" x2="181.25" y2="5" style="visibility: inherit;" fill="rgb(0, 0, 0)" stroke="rgb(204, 204, 204)" stroke-width="1px"></line><line x1="217.5" y1="0" x2="217.5" y2="5" style="visibility: inherit;" fill="rgb(0, 0, 0)" stroke="rgb(204, 204, 204)" stroke-width="1px"></line><line x1="253.75" y1="0" x2="253.75" y2="5" style="visibility: inherit;" fill="rgb(0, 0, 0)" stroke="rgb(204, 204, 204)" stroke-width="1px"></line><line x1="290" y1="0" x2="290" y2="5" style="visibility: inherit;" fill="rgb(0, 0, 0)" stroke="rgb(204, 204, 204)" stroke-width="1px"></line></g><g transform="translate(0, 8)"><text x="0" y="0" dx="0em" dy="0.95em" style="text-anchor: middle; visibility: hidden; font-family: &quot;Helvetica Neue&quot;, sans-serif; font-size: 12px; font-weight: 200;" fill="rgb(50, 49, 63)" stroke="none" stroke-width="1px">-20</text><text x="36.25" y="0" dx="0em" dy="0.95em" style="text-anchor: middle; visibility: inherit; font-family: &quot;Helvetica Neue&quot;, sans-serif; font-size: 12px; font-weight: 200;" fill="rgb(50, 49, 63)" stroke="none" stroke-width="1px">0</text><text x="72.5" y="0" dx="0em" dy="0.95em" style="text-anchor: middle; visibility: inherit; font-family: &quot;Helvetica Neue&quot;, sans-serif; font-size: 12px; font-weight: 200;" fill="rgb(50, 49, 63)" stroke="none" stroke-width="1px">20</text><text x="108.75" y="0" dx="0em" dy="0.95em" style="text-anchor: middle; visibility: inherit; font-family: &quot;Helvetica Neue&quot;, sans-serif; font-size: 12px; font-weight: 200;" fill="rgb(50, 49, 63)" stroke="none" stroke-width="1px">40</text><text x="145" y="0" dx="0em" dy="0.95em" style="text-anchor: middle; visibility: inherit; font-family: &quot;Helvetica Neue&quot;, sans-serif; font-size: 12px; font-weight: 200;" fill="rgb(50, 49, 63)" stroke="none" stroke-width="1px">60</text><text x="181.25" y="0" dx="0em" dy="0.95em" style="text-anchor: middle; visibility: inherit; font-family: &quot;Helvetica Neue&quot;, sans-serif; font-size: 12px; font-weight: 200;" fill="rgb(50, 49, 63)" stroke="none" stroke-width="1px">80</text><text x="217.5" y="0" dx="0em" dy="0.95em" style="text-anchor: middle; visibility: inherit; font-family: &quot;Helvetica Neue&quot;, sans-serif; font-size: 12px; font-weight: 200;" fill="rgb(50, 49, 63)" stroke="none" stroke-width="1px">100</text><text x="253.75" y="0" dx="0em" dy="0.95em" style="text-anchor: middle; visibility: inherit; font-family: &quot;Helvetica Neue&quot;, sans-serif; font-size: 12px; font-weight: 200;" fill="rgb(50, 49, 63)" stroke="none" stroke-width="1px">120</text><text x="290" y="0" dx="0em" dy="0.95em" style="text-anchor: middle; visibility: hidden; font-family: &quot;Helvetica Neue&quot;, sans-serif; font-size: 12px; font-weight: 200;" fill="rgb(50, 49, 63)" stroke="none" stroke-width="1px">140</text></g><line x1="0" y1="0" x2="290" y2="0" fill="rgb(0, 0, 0)" stroke="rgb(204, 204, 204)" stroke-width="1px"></line></g></g></g></g></svg>