<svg viewBox="0 0 330 200" xmlns="http://www.w3.org/2000/svg"><g><g><g><g><g><line x1="40" y1="122.31269540876994" x2="35" y2="122.31269540876994" style="visibility: inherit;" fill="rgb(0, 0, 0)" stroke="rgb(204, 204, 204)" stroke-width="1px"></line><line x1="40" y1="61.33071332181554" x2="35" y2="61.33071332181554" style="visibility: inherit;" fill="rgb(0, 0, 0)" stroke="rgb(204, 204, 204)" stroke-width="1px"></line><line x1="40" y1="11.504805985516072" x2="35" y2="11.504805985516072" style="visibility: inherit;" fill="rgb(0, 0, 0)" stroke="rgb(204, 204, 204)" stroke-width="1px"></line></g><g transform="translate(30, 0)"><text x="0" y="122.31269540876994" dx="0em" dy="0.3em" style="text-anchor: end; visibility: inherit; font-family: &quot;Helvetica Neue&quot;, sans-serif; font-size: 12px; font-weight: 200;" fill="rgb(50, 49, 63)" stroke="none" stroke-width="1px">0.4</text><text x="0" y="61.33071332181554" dx="0em" dy="0.3em" style="text-anchor: end; visibility: inherit; font-family: &quot;Helvetica Neue&quot;, sans-serif; font-size: 12px; font-weight: 200;" fill="rgb(50, 49, 63)" stroke="none" stroke-width="1px">0.5</text><text x="0" y="11.504805985516072" dx="0em" dy="0.3em" style="text-anchor: end; visibility: inherit; font-family: &quot;Helvetica Neue&quot;, sans-serif; font-size: 12px; font-weight: 200;" fill="rgb(50, 49, 63)" stroke="none" stroke-width="1px">0.6</text></g><line x1="40" y1="0" x2="40" y2="178" fill="rgb(0, 0, 0)" stroke="rgb(204, 204, 204)" stroke-width="1px"></line></g></g><g transform="translate(40, 0)" clip-path="url(#clip_0)"><clipPath id="clip_0"><rect width="290" height="178"></rect></clipPath><g><g><g><line x1="0" y1="0" x2="0" y2="178" fill="rgb(0, 0, 0)" stroke="rgb(60, 60, 60)" stroke-width="1px" opacity="0.25"></line><line x1="36.25" y1="0" x2="36.25" y2="178" fill="rgb(0, 0, 0)" stroke="rgb(60, 60, 60)" stroke-width="1px" opacity="0.25"></line><line x1="72.5" y1="0" x2="72.5" y2="178" fill="rgb(0, 0, 0)" stroke="rgb(60, 60, 60)" stroke-width="1px" opacity="0.25"></line><line x1="108.75" y1="0" x2="108.75" y2="178" fill="rgb(0, 0, 0)" stroke="rgb(60, 60, 60)" stroke-width="1px" opacity="0.25"></line><line x1="145" y1="0" x2="145" y2="178" fill="rgb(0, 0, 0)" stroke="rgb(60, 60, 60)" stroke-width="1px" opacity="0.25"></line><line x1="181.25" y1="0" x2="181.25" y2="178" fill="rgb(0, 0, 0)" stroke="rgb(60, 60, 60)" stroke-width="1px" opacity="0.25"></line><line x1="217.5" y1="0" x2="217.5" y2="178" fill="rgb(0, 0, 0)" stroke="rgb(60, 60, 60)" stroke-width="1px" opacity="0.25"></line><line x1="253.75" y1="0" x2="253.75" y2="178" fill="rgb(0, 0, 0)" stroke="rgb(60, 60, 60)" stroke-width="1px" opacity="0.25"></line><line x1="290" y1="0" x2="290" y2="178" fill="rgb(0, 0, 0)" stroke="rgb(60, 60, 60)" stroke-width="1px" opacity="0.25"></line></g><g><line x1="0" y1="122.31269540876994" x2="290" y2="122.31269540876994" fill="rgb(0, 0, 0)" stroke="rgb(60, 60, 60)" stroke-width="1px" opacity="0.25"></line><line x1="0" y1="61.33071332181554" x2="290" y2="61.33071332181554" fill="rgb(0, 0, 0)" stroke="rgb(60, 60, 60)" stroke-width="1px" opacity="0.25"></line><line x1="0" y1="11.504805985516072" x2="290" y2="11.504805985516072" fill="rgb(0, 0, 0)" stroke="rgb(60, 60, 60)" stroke-width="1px" opacity="0.25"></line></g></g></g><g><g><line x1="36.25" y1="0" x2="36.25" y2="178" fill="rgb(0, 0, 0)" stroke="rgb(153, 153, 153)" stroke-width="1.5px"></line></g></g><g><g><g><g><g><path stroke="rgb(255, 112, 67)" stroke-width="2px" d="M36.25,92.64382057296123L36.25,118.7347248069081L36.25,130.2801078330735L36.25,70.48022693277397L36.25,40.565449928356855L36.25,-54.17370404748223L36.25,1.7612472808810367L36.25,3.9502443986106073L36.25,-23.455955207977837L38.0625,-32.88347686252925L38.0625,21.209097381706954L38.0625,-63.488533765531486L39.875,-57.860827421679886L39.875,3.753769436234336L39.875,-18.030719537877616L39.875,-29.176040617520528L39.875,11.699396078176989L39.875,56.316261586281584L39.875,63.96254840429063L41.6875,78.38039321463636L41.6875,91.83833625452813L41.6875,-34.21095623849658L41.6875,-18.390354652463287L43.5,36.791046745288696L43.5,75.93448681834514L43.5,14.064327643052764L43.5,-51.82276286600427L43.5,8.797070541138453L43.5,36.44397700825141L45.3125,77.67741458347238L45.3125,13.488660279603948L45.3125,59.60030465719775L45.3125,63.57011549780731L47.125,75.14122575144938L47.125,60.92904746572299L47.125,58.898405188097016L47.125,65.54204161893594L47.125,96.02979094247516L47.125,75.01669285565033L47.125,-58.51599869868127L47.125,-0.9162665392632334L47.125,50.33499102037345L47.125,65.48268448701641L47.125,87.65694772439178L47.125,5.10506242788L47.125,38.21772989323222L47.125,73.88942044735026L48.9375,83.11675455403171L48.9375,87.12669480116337L48.9375,102.09079954545362L48.9375,121.60085641369974L48.9375,127.81582980159163L48.9375,110.84856413120158L48.9375,126.34033320510996L50.75,102.0703691869314L50.75,-34.498108545505204L50.75,23.369719983104318L50.75,66.38245623532507L50.75,84.71306289120449L50.75,49.932562967443715L50.75,75.00938459650305L50.75,105.88230362318804L50.75,113.83654272948132L52.5625,77.98485444254631L52.5625,-0.5579295348476876L52.5625,29.33157068107866L52.5625,66.71113357365977L52.5625,61.83630160699347L52.5625,87.61111069484129L52.5625,77.07619885752925L52.5625,101.06060395966405L52.5625,114.39076505657798L52.5625,81.97507617405991L52.5625,105.67201909325442L52.5625,121.9741954933487L52.5625,49.00275717274576L52.5625,71.70113195403437L52.5625,96.78289033002207L52.5625,-114.23035354707827L52.5625,-50.2911489511651L54.375,14.216840617422548L54.375,59.79619646099785L54.375,93.17281472735866L54.375,111.84985666296143L54.375,117.56788316533624L54.375,107.83625764791277L54.375,119.39223200639515L54.375,100.63372711016319L54.375,118.21809476634556L56.1875,-48.97387396611856L56.1875,-28.952735081551026L56.1875,14.563436837006947L56.1875,5.554615403013543L56.1875,55.03116026920139L56.1875,79.73029808242852L56.1875,105.82579022423957L56.1875,45.31612243111417L56.1875,83.1734053735558L56.1875,108.23257460680567L58,128.03932160407857L58,74.16822019085438L58,81.40543191549365L58,64.73051353048321L58,98.49497572603329L58,120.01639053604113L58,105.15323350950266L59.8125,97.33952531023853L59.8125,114.35112687208819L59.8125,130.6183886453934L59.8125,129.06530805527444L59.8125,139.13770220696716L61.625,129.38077277490459L61.625,136.7116073432611L61.625,76.45092016103779L61.625,99.76171234054813L61.625,96.64895113766748L61.625,98.62522739910074L63.4375,97.34184442829616L63.4375,116.72156126479206L63.4375,82.42685613416806L63.4375,100.78619812645238L63.4375,108.66479333339052L63.4375,119.70280376420479L63.4375,127.77385784203634L65.25,132.39784277540465L65.25,133.5852880511597L65.25,127.56491584732015L67.0625,60.71283984722426L67.0625,76.43237578537887L67.0625,99.9996852846307L67.0625,105.31031749862335L67.0625,121.82885630980519L68.875,125.79573044008292L68.875,-101.00766448053218L68.875,-30.192012874331994L68.875,15.35400574310134L70.6875,56.24833139109069L70.6875,83.00191351147994L70.6875,33.20217762492936L70.6875,72.88032410570565L70.6875,63.68158977367054L70.6875,87.1188032642689L70.6875,32.95374089781836L70.6875,22.848854874051682L70.6875,46.26154802660815L70.6875,77.40397940124885L70.6875,104.78160780734603L72.5,101.13362908258435L72.5,109.38374160754063L72.5,114.98868991711787L72.5,121.47436632082511L72.5,131.85071596450314L72.5,141.6542532149314L74.3125,122.02207412710047L74.3125,106.4451790914877L74.3125,118.70822883357869L74.3125,110.3534797166702L74.3125,81.08744152731177L74.3125,30.547662854015726L74.3125,52.852066922096114L74.3125,79.59226672078252L74.3125,96.4966577069567L74.3125,41.25834038512821L76.125,82.61955987285803L76.125,71.61846666581171L76.125,49.43319753658284L76.125,81.0353119225585L76.125,67.71357534431068L76.125,84.80183997600824L76.125,42.886084923478194L77.9375,82.71702328339116L77.9375,96.22923023636618L77.9375,91.66159831065916L77.9375,114.57833784575256L77.9375,128.6262217213082L77.9375,133.10874989655565L77.9375,133.52754213861016L77.9375,64.30019350323388L77.9375,95.66499679095155L77.9375,40.541757762922L77.9375,71.7411378778393L79.75,90.21006118124228L79.75,89.77697959636994L79.75,83.15761467800475L79.75,104.20985724678788L79.75,117.55725368196192L79.75,119.68357483176268L81.5625,128.66733023826123L81.5625,135.0796776324656L81.5625,99.67490144001579L81.5625,109.39175377849261L81.5625,101.46538851076505L81.5625,117.71219530335638L81.5625,39.46823558090426L81.5625,66.44339438988719L81.5625,97.70662490718826L81.5625,77.35739367633843L81.5625,96.60392724235547L81.5625,113.02415334547688L83.375,100.86620223208482L83.375,118.98124283861725L83.375,105.45206716608874L83.375,104.91278920967781L83.375,122.12698886073474L83.375,133.7774880052271L83.375,123.38827787570438L85.1875,129.88022906414687L85.1875,129.0525200283182L85.1875,130.32462650652923L85.1875,104.27188857996276L85.1875,108.6487896122658L85.1875,116.01907237267679L85.1875,107.30532278518119L85.1875,112.00414840067354L85.1875,117.09348222327408L85.1875,129.181332796621L85.1875,123.3272259366239L87,55.96771934824662L87,88.63013467460341L87,92.86042017773494L87,40.133784258462384L87,54.59606571831573L87,84.58721608258239L87,89.48846191590897L87,77.35172617020551L87,101.13789312282935L87,85.539625386074L87,110.82187158142534L87,120.67378918224135L87,127.80539747502003L88.8125,108.04739758603449L88.8125,59.391263643791476L88.8125,38.86507321218721L88.8125,60.88572037442559L88.8125,79.82317275128703L88.8125,57.83377574327791L90.625,64.91941382511801L90.625,97.28990996439666L90.625,108.82240864661327L90.625,127.35491893354805L92.4375,62.98910483600832L92.4375,84.04327137604307L92.4375,105.47572540234812L92.4375,125.04692330325702L92.4375,42.532432727949214L92.4375,83.85527245995L92.4375,66.74691480732683L92.4375,86.56572169116505L92.4375,90.2939146409741L92.4375,91.80252782967L92.4375,72.92293480128359L92.4375,105.4626974919219L94.25,116.58734376780629L94.25,124.76015911956978L94.25,128.45393188934855L94.25,120.82929870060579L94.25,134.9694639006904L94.25,106.18925224802754L94.25,119.42366160346026L94.25,107.86236090461468L94.25,121.35189567228463L94.25,135.51282175692683L94.25,108.76658189482282L94.25,99.34648747068861L96.0625,124.38302296812807L96.0625,122.41211948007273L96.0625,117.40659091056106L96.0625,128.60732588592145L96.0625,137.93617410844385L96.0625,141.25798767112244L97.875,144.4022960519811L97.875,145.29920239784886L97.875,145.28546713313827L97.875,112.35688682997029L97.875,-76.32349345377386L97.875,-10.934681752690068L97.875,33.935914649693274L97.875,73.52925052917212L97.875,98.97864311960662L99.6875,118.18857944425142L99.6875,96.33048922810745L99.6875,118.07408779165266L99.6875,130.59793084382403L99.6875,123.61312411192965L99.6875,127.2435662622919L101.5,130.35035485567127L101.5,139.18784652164067L101.5,141.5945701071119L101.5,146.97154476557353L101.5,150.78703899426174L101.5,149.35868213697515L101.5,153.4233202124609L101.5,140.2576081975746L101.5,106.63506794701921L101.5,103.7986898479372L103.3125,110.26619135896424L103.3125,126.72234552374803L103.3125,124.9292961306653L103.3125,131.5964000063887L103.3125,123.05340748871183L103.3125,123.79429201153096L105.125,98.55863598763555L105.125,67.88116797984834L105.125,42.11567148625056L105.125,81.05680108456356L105.125,48.667362328696925L105.125,74.73794854908787L106.9375,105.85241794859873L106.9375,121.47558036778503L106.9375,118.86137597084198L106.9375,131.3084071567239L106.9375,102.4906530843922L106.9375,91.95925103084774L108.75,118.90093004244338L108.75,119.28165040055458L108.75,133.25521190124593L108.75,136.19936162902724L108.75,142.27606301604163L108.75,142.09977058117929L108.75,146.22113189598252L108.75,110.93796843298897L108.75,124.16121706129016L108.75,94.92440744105062L110.5625,108.5308373012188L110.5625,97.45128621509784L110.5625,116.92016691865395L110.5625,111.82764846804037L110.5625,125.70960836615336L110.5625,133.559371094859L110.5625,113.51698169112852L110.5625,128.29086649403234L112.375,110.15957127874341L112.375,123.76262729378351L112.375,102.23008188654138L112.375,114.62250891691698L112.375,122.25402246320947L112.375,110.69973209114893L112.375,93.64790089862672L112.375,117.4704974873465L114.1875,129.3189248649476L114.1875,141.12563912873995L114.1875,143.17543667494226L114.1875,150.11713235197618L114.1875,149.748966650836L114.1875,149.3626680836453L114.1875,149.80218757297277L114.1875,138.50428969753642L114.1875,145.6557737151548L114.1875,150.3183501004008L116,150.2313724316287L116,83.21579288463184L116,103.87967074432703L116,43.96745697683289L116,53.091216820469285L116,68.11206585469691L116,51.588764087626515L117.8125,83.20635716214683L117.8125,105.07492283798025L117.8125,123.60956729198185L117.8125,129.21730020846746L117.8125,140.15056394145603L117.8125,137.52242928720244L119.625,135.7820033430043L119.625,8.384436491369541L119.625,26.901968038701966L119.625,64.7896669003606L119.625,98.59637579377095L119.625,109.47341089861348L119.625,127.28677753290059L119.625,124.91764685835119L119.625,133.62126526961583L121.4375,140.52879804390312L121.4375,133.36565649312038L121.4375,123.4435198202934L121.4375,128.04557227104604L121.4375,112.68960462454577L121.4375,121.19124981446934L121.4375,130.5812591358018L123.25,143.5760762844793L123.25,135.04994229876797L123.25,142.0292880079362L123.25,110.1183735033478L123.25,103.66364218677964L123.25,70.30291487041333L125.0625,85.62806568722156L125.0625,74.05318924901763L125.0625,103.6447144312524L125.0625,123.24488601596241L125.0625,125.91993012815689L125.0625,125.06132766204036L125.0625,129.81096197913612L126.875,120.410203186063L126.875,110.70485597135823L126.875,122.40296527152113L126.875,131.64497892948157L126.875,137.86015001352365L126.875,101.29453332577275L126.875,114.57731875753576L126.875,62.89598939337418L126.875,96.256612567669L126.875,53.51171296011729L126.875,74.73066483287216L128.6875,103.77704040869133L128.6875,115.01108918444139L128.6875,104.7208909377901L128.6875,122.64694338110073L128.6875,138.4369477009996L128.6875,117.59078659033483L128.6875,127.98287902686761L128.6875,130.9279443275176L128.6875,134.91902832487787L130.5,138.47560725698645L130.5,113.99975747517328L130.5,121.05218113100906L130.5,130.59222476359759L130.5,142.65766479584664L130.5,138.83229286103233L132.3125,149.23328248487263L132.3125,147.17054544522261L132.3125,149.90539791641555L132.3125,90.19924956517082L132.3125,114.19115691643837L132.3125,108.5720145428656L132.3125,128.0476964073473L132.3125,64.84746336783907L132.3125,85.63904412373444L132.3125,104.82742795070325L132.3125,124.56344201004057L132.3125,138.93669621263433L132.3125,140.06228438985192L134.125,136.74990760403435L135.9375,143.34610083721867L135.9375,149.0200970661885L135.9375,119.07728020326738L135.9375,135.73042570613143L135.9375,145.95432707256862L135.9375,147.39153478375223L135.9375,152.1806666163805L135.9375,150.78860725579753L137.75,135.89680874344424L137.75,142.90092931441518L137.75,147.56033357032615L137.75,151.66907343561905L137.75,123.85796075726091L137.75,136.49613816763525L139.5625,128.5513461557995L139.5625,69.35958872430167L139.5625,102.47142365758461L139.5625,120.96066232303838L139.5625,130.54721917939568L139.5625,136.75575905158283L139.5625,120.83086467095586L139.5625,123.25449535569408L139.5625,135.6135867018569L141.375,136.59402622000067L141.375,117.14189033886662L141.375,132.96484650677715L141.375,112.31942077276746L141.375,106.81360796267775L141.375,125.89854540880108L143.1875,138.03485930603114L143.1875,24.989721768383873L143.1875,68.43609638520117L143.1875,98.03299950358848L143.1875,111.33728633149322L143.1875,125.07794544654078L143.1875,136.76614798933556L143.1875,142.41101617567713L143.1875,148.77247780400876L145,117.65934777885224L145,135.54483088198108L145,141.75085688383712L145,124.27909948813829L145,124.9358149425505L145,119.90043815466915L145,124.76157621414973L146.8125,137.3961961980917L146.8125,143.38752544488887L146.8125,134.1183991023348L146.8125,127.03820830076143L148.625,137.26807461506573L148.625,122.73811394895372L148.625,133.16973377912066L148.625,142.9519609617323L148.625,145.2752825902718L148.625,46.76059542235262L148.625,25.428571428571445L148.625,66.17308725006241L148.625,96.27167773377876L148.625,121.4189554780151L150.4375,134.365844381911L150.4375,139.459107943258L150.4375,143.82201228490527L150.4375,125.51618129081638L150.4375,121.32817479479856L150.4375,134.1626858375957L150.4375,132.02285283569344L152.25,143.40828967542902L152.25,124.48004059209367L152.25,138.2394478195465L152.25,144.07229044128223L152.25,86.25873133940358L152.25,101.57326604248479L152.25,108.24998919969975L154.0625,114.64266968660517L154.0625,95.12033136368272L154.0625,108.74193714585479L154.0625,127.3274171792414L154.0625,134.19321645011968L154.0625,142.8102023757773L154.0625,112.66350999140857L154.0625,119.96621239539509L154.0625,121.17299557489346L154.0625,130.1477851220261L154.0625,130.39628331262603L154.0625,140.0901569879141L154.0625,123.41465869782057L154.0625,86.01093722666316L155.875,40.37059510648666L155.875,72.09631035130714L155.875,101.1230083058032L155.875,114.08552597892732L155.875,126.21944812542971L155.875,128.27588302454123L157.6875,143.5637884582558L157.6875,146.83346668580631L157.6875,150.7507793441757L159.5,119.7241269537231L159.5,138.43500811941522L159.5,143.6775145827514L159.5,135.61856888820776L159.5,127.72536261221455L159.5,124.99571361151769L159.5,135.78631433767387L161.3125,146.15636734922256L161.3125,152.57142857142853L161.3125,138.68851298970174L161.3125,130.50881274923205L161.3125,110.33313330648386L161.3125,127.23342655466826L163.125,102.9082644219802L163.125,113.47106837458789L164.9375,85.06899491763964L164.9375,102.67769139303587L164.9375,108.20487186582871L164.9375,120.29736199934183L164.9375,123.84202373844167L164.9375,130.74279301564576L164.9375,115.71660378226082L164.9375,128.97037356472208L166.75,137.68532101459476L166.75,133.37040440677723L166.75,145.55591058243402L166.75,141.7463050967155L166.75,146.37990013314587L166.75,95.67351010873206L168.5625,116.01387783389146L168.5625,131.86328258385078L168.5625,138.60983766166655L168.5625,144.57794219799604L168.5625,149.83644579473136L168.5625,106.90314691190368L170.375,114.82596852245013L170.375,128.1555372716007L170.375,106.36343606514899L170.375,127.76279132220652L170.375,122.11732922479979L170.375,121.3613203768862L170.375,132.97191791792162L170.375,141.7337740753465L170.375,109.58314794217291L172.1875,123.39871919959424L172.1875,134.1377887554999L172.1875,117.27358741162703L172.1875,123.04823208509171L172.1875,134.78098979500746L172.1875,143.11610791529654L172.1875,132.55736951156075L172.1875,130.8312929743742L174,141.618787145037L174,147.2693811892254L174,148.4760917635749L174,148.09129836950734L174,144.5794789467202L174,150.81081965251354L174,35.58128350403899L174,68.82673230291296L174,101.08479875997851L174,124.05856091005508L175.8125,138.37173853957995L175.8125,146.68988719388284L175.8125,143.41205900806932L175.8125,142.30854994345063L175.8125,146.223165895978L175.8125,122.04363192320135L175.8125,115.46887117002463L175.8125,124.12808190044873L175.8125,135.41539497266035L177.625,145.4151134106732L177.625,145.5530585301073L177.625,148.09369457574078L177.625,150.29262337504292L177.625,154.67312632588374L177.625,140.9018317726664L177.625,150.4837895246365L177.625,137.36895763041463L177.625,134.0929092678793L177.625,126.2218429304452L177.625,131.84845663573023L177.625,145.42934227278204L177.625,155.25715041422998L177.625,147.2854096441233L177.625,146.47626150128235L179.4375,112.89523605241997L179.4375,89.32855868988874L179.4375,116.13073534256276L179.4375,115.23908885460824L179.4375,76.63460891110033L179.4375,90.93828231677833L179.4375,107.83299588620511L181.25,125.95096984837892L181.25,134.22119785809286L181.25,145.2816145567681L181.25,151.64220989293216L181.25,125.47630571548915L181.25,143.16686702216754L183.0625,146.06373697173635L183.0625,145.50168447001872L183.0625,22.552282369640437L183.0625,70.12708503716215L183.0625,103.01558204967003L183.0625,123.56275395301257L183.0625,55.687904093196636L183.0625,93.88970966357329L183.0625,110.81689526830874L184.875,129.7839939760523L184.875,120.36739624916737L184.875,131.59354909369375L184.875,70.97682635440032L184.875,80.85369708312234L184.875,95.62851961073657L184.875,71.5981233576122L184.875,69.05177672471298L184.875,88.81880105809861L186.6875,117.47037119922767L186.6875,129.27508023376942L186.6875,142.52044618636077L186.6875,152.12224826592106L186.6875,150.00930667820776L186.6875,88.45081379771617L186.6875,115.92368289546492L186.6875,100.24067519155477L188.5,122.6805323803635L188.5,108.34053455130874L188.5,101.49409733212958L188.5,108.45808303326798L188.5,129.10854335626533L190.3125,126.2229288097264L190.3125,137.01922432731823L190.3125,142.01960290058668L190.3125,139.4418522160939L190.3125,149.03453251855768L190.3125,127.7501005759166L190.3125,123.71918030068312L192.125,104.54211988215705L192.125,120.94264802474076L192.125,119.48429423393385L192.125,130.0499882023895L192.125,139.4829126254196L192.125,150.15709913409077L192.125,155.85046384175376L192.125,127.63160185426102L192.125,137.86396578743373L192.125,147.31151771743075L192.125,151.2066799665342L192.125,153.7727340791504L192.125,147.8069098450042L192.125,141.40652045724815L193.9375,115.70862656044514L193.9375,80.43042507893992L193.9375,107.77008865001976L193.9375,127.71331778607208L193.9375,141.1591128411235L193.9375,144.50521059101553L195.75,142.10973061902328L195.75,133.3071367482183L195.75,102.60902982270171L195.75,102.54680863269176L195.75,124.62144069812828L195.75,127.73107815202917L195.75,140.2038495415796L195.75,141.87286231370274L197.5625,147.72719865233216L197.5625,142.778366246888L197.5625,145.962934624285L197.5625,144.23697245019792L197.5625,148.29134275319933L197.5625,145.10230262347503L197.5625,146.37041946879194L197.5625,146.11882657449806L199.375,152.5902924712381L199.375,119.39174331792552L199.375,134.27171403222712L199.375,136.5933592734422L199.375,104.42133104086834L199.375,119.0396362864574L201.1875,99.26906905623602L201.1875,121.08497105047462L201.1875,138.1676979605436L201.1875,146.90554076817517L201.1875,150.12677931708757L201.1875,149.841450555844L201.1875,46.066262216516066L201.1875,86.70133027466342L201.1875,99.32673584293089L201.1875,49.89606523610331L203,86.24634132770912L203,110.49618583628978L203,110.09527919821016L203,122.1362599086503L203,133.31703955456516L203,85.49984597446308L204.8125,113.76872330076576L204.8125,128.08657443564076L204.8125,84.99363606003133L204.8125,87.27358144195311L204.8125,110.35408244815171L204.8125,103.3572390981276L206.625,124.8149864636646L206.625,132.635201135847L206.625,140.81734739725556L206.625,113.11236981452518L208.4375,104.16844425031208L208.4375,126.78819679312443L208.4375,137.07377812272588L210.25,139.6714581199532L210.25,104.15476659247867L210.25,126.89671659748208L210.25,139.5969813727126L210.25,150.2445162987406L210.25,144.82148882185595L212.0625,147.25970422204813L212.0625,146.8148387887216L212.0625,147.30039256873917L212.0625,148.13074882051964L212.0625,152.5627731766653L212.0625,138.8120808883826L213.875,149.50764641043617L213.875,152.64183882378654L213.875,155.9724418422231L213.875,153.60799501908346L213.875,79.02581083062334L213.875,105.90293281307888L213.875,123.08836074754876L213.875,130.65907875670086L213.875,73.97424589814416L213.875,87.82310993812825L213.875,105.35886116858194L215.6875,118.51724657790825L215.6875,131.98352660989357L215.6875,134.29710698605723L215.6875,145.67063590047772L215.6875,152.97044864656965L217.5,152.91634396481086L217.5,157.51118747220997L217.5,152.62439798831613L217.5,157.35754771773887L217.5,159.75359997728802L217.5,159.78634596742558L217.5,158.33836617926346L217.5,146.88193080198917L219.3125,152.21211117044865L219.3125,103.16961532710906L219.3125,109.97050321498833L219.3125,103.83184890336801L219.3125,106.0706749073429L219.3125,122.8390825096628L219.3125,129.52626888979734L221.125,131.9989643202005L221.125,145.99417852154735L221.125,139.6246192380549L221.125,133.50763648141844L221.125,145.04092800078865L222.9375,133.68989709288644L222.9375,148.06286803032538L222.9375,146.67271269828157L222.9375,147.87461824872258L222.9375,135.36591923140287L222.9375,144.88235960888613L222.9375,143.7885260286622L222.9375,146.67106803523887L222.9375,87.9693704721277L222.9375,108.52158831881496L224.75,117.51094165178122L224.75,110.13323588657387L224.75,121.34279662185727L224.75,26.73046223291439L224.75,70.25256722357004L224.75,101.3094775572149L224.75,71.30646252451453L224.75,99.26924017308514L224.75,109.95031860724984L226.5625,130.06604995301797L226.5625,143.37836325561042L226.5625,142.03059423514887L226.5625,150.97835560381841L226.5625,152.8561534265653L226.5625,152.06947635818184L226.5625,154.8293803968178L226.5625,150.57427652096166L226.5625,147.88300138541098L226.5625,154.65126469207792L226.5625,153.96789673642584L226.5625,138.47702162920802L228.375,147.975233626416L228.375,150.33561968380158L228.375,152.1758427661726L228.375,147.19064732047497L230.1875,153.72188990623073L230.1875,153.25664026644688L230.1875,149.09288127623603L230.1875,145.57558896016164L232,153.5564548928325L232,154.99883269451777L232,154.3014266452004L232,157.73703461450452L232,159.66864941354402L232,160.59170044457477L232,156.8275996483942L233.8125,159.66104911964516L233.8125,152.96657776118943L233.8125,158.7073353995091L233.8125,161.51554886571688L233.8125,160.30539745641903L233.8125,157.0149641713407L233.8125,119.02704447629363L235.625,136.97332772331555L235.625,144.48364173595218L235.625,134.60426907246062L235.625,136.16300931362707L235.625,135.6878477074433L235.625,143.09186875092104L235.625,143.29088839384508L235.625,112.82809451591156L237.4375,130.71395620814718L237.4375,114.5599689058034L237.4375,114.2717163895632L237.4375,115.31676104055319L237.4375,134.16826914414204L237.4375,145.11666895160005L237.4375,140.9768404355558L237.4375,125.92620919369989L239.25,83.4714546502085L239.25,63.634799494401705L239.25,72.99316765918799L239.25,64.65699499174171L239.25,102.29789446164958L239.25,110.46904926993402L239.25,113.54999578723333L239.25,127.73876160966708L239.25,138.0716637111596L239.25,138.93857115074485L239.25,126.68609461514001L239.25,130.21455795216113L239.25,106.47537603891558L239.25,126.7204913867763L241.0625,119.737484323422L241.0625,131.60713792122527L241.0625,135.96376306948127L241.0625,113.46815781603496L241.0625,115.08817736156328L241.0625,136.31359085052685L241.0625,126.60085637253685L242.875,126.6465694162259L242.875,135.9060114023629L242.875,129.15704976063134L242.875,112.03546527266886L242.875,130.69143178015472L242.875,136.5504276087254L242.875,142.26720064884148L244.6875,148.04630669750128L244.6875,142.40518498462166L244.6875,143.68024303935215L244.6875,136.20213185723935L244.6875,140.62725223502784L244.6875,148.0324300416287L244.6875,153.05822520267316L244.6875,156.11974265878806L244.6875,158.5286447131839L244.6875,155.0436059843062L244.6875,159.82851158748392L244.6875,139.8311210459622L244.6875,137.59307277967451L246.5,134.68488613634653L246.5,142.27849516600048L246.5,147.21012307253338L246.5,144.67060056506924L246.5,148.02238548690747L246.5,150.56694018664246L246.5,153.7958356888896L246.5,157.1673349281669L246.5,153.79277311695083L246.5,133.74627926910324L248.3125,116.70925878316716L248.3125,124.34847248435258L248.3125,132.7963970057562L248.3125,141.57316207649916L248.3125,136.03983101864006L248.3125,139.96709760902408L248.3125,143.851413663572L248.3125,145.23631432551386L248.3125,153.57224554061165L248.3125,138.94280427530316L250.125,142.6165923161913L250.125,144.8849021081017L250.125,128.54935053688746L250.125,133.91007686487632L250.125,145.35921752162062L250.125,143.02441808969445L250.125,144.79060445290907L250.125,140.07796644503145L250.125,138.34428067108382L250.125,144.32892153772121L250.125,150.73802541393263L251.9375,155.70656737385661L251.9375,136.78469139717183L251.9375,145.42228989522772L251.9375,150.12285449134103L251.9375,153.38301061252818L251.9375,156.52135684721333L251.9375,144.00187921519966L251.9375,99.8708184624197L253.75,120.6852222315411L253.75,138.0338262843877L253.75,136.1043641284227L253.75,118.75027796545938L253.75,136.7475764795435L253.75,145.44119258697668L253.75,147.14253246291452L253.75,118.05927925099138L255.5625,136.20273243115827L255.5625,133.5491884552675L255.5625,87.37349752649949L255.5625,116.45154793116004L255.5625,133.1996316081857L255.5625,133.72086249786176L257.375,131.3242627823214L257.375,121.61690059551664L257.375,128.39796554618815L257.375,101.41796188515906L257.375,125.47868442777443L257.375,137.2312349382737L257.375,129.67420181892098L257.375,141.0851391346665L257.375,124.48978391059782L257.375,138.42026410853447L257.375,147.4532480144342L257.375,144.90949497051815L259.1875,152.22971162617986L259.1875,151.51133223043257L259.1875,148.59043660201277L259.1875,153.0743785305532L259.1875,129.35248518953185L261,138.24178052573683L261,105.02762103121002L261,114.37293663808863L261,128.19562263008535L261,141.37783884901285L262.8125,141.3685368254943L262.8125,138.54945992131408L262.8125,144.32543260821149L262.8125,114.64075874233896L262.8125,121.66547393474372L262.8125,75.78912345805293L264.625,100.32841203022687L264.625,121.46904384924909L264.625,138.7408531278155L264.625,141.2224405727351L264.625,131.94594964134876L264.625,120.06572511931755L266.4375,136.3519060682447L266.4375,147.48918957833018L266.4375,151.45303544915743L266.4375,145.26765649677458L266.4375,134.93199152324883L266.4375,140.50510839636965L266.4375,148.36828832269555L266.4375,155.91979327992732L266.4375,117.62525138390183L266.4375,134.63741595569843" style="fill: none;" fill="none"></path></g></g></g></g><g opacity="0.2"><g><g><g><path stroke="rgb(255, 112, 67)" stroke-width="2px" d="M36.25,92.64382057296123L36.25,135.67528126618356L36.25,141.84230263282439L36.25,13.65705739224532L36.25,5.86920232442921L36.25,-147.15321734773977L36.25,109.09130369373496L36.25,7.173574163143883L36.25,-59.43793385565428L38.0625,-197.7425716566853L38.0625,116.98805074254294L38.0625,55.619639858593075L38.0625,129.8661078834965L38.0625,-155.35517592926726L38.0625,119.70317287631131L39.875,-116.0069596344859L39.875,-207.2220251147295L39.875,147.5230042931086L39.875,-40.590150520829525L39.875,-60.651911017000714L39.875,134.104484877797L39.875,-47.7613796491346L39.875,-45.085457150881496L39.875,87.42001106474198L39.875,140.8345697972575L39.875,75.84870878107041L41.6875,101.54216696618451L41.6875,113.3558619409873L41.6875,-154.7271203574487L41.6875,7.202729022660776L43.5,148.5386958144062L43.5,147.71595082733197L43.5,-58.453422113800315L43.5,-127.97416845166634L43.5,136.15885011674897L43.5,83.9909471002982L45.3125,154.22270473171764L45.3125,-61.138855465314435L45.3125,147.749112570612L45.3125,69.63509606032785L47.125,93.47182198004896L47.125,40.9072919572404L47.125,55.88045567788271L47.125,75.82050421438028L47.125,149.27595271460072L47.125,46.24723822288681L47.125,-183.48751856254523L47.125,117.62647018872265L47.125,151.50890865371858L47.125,89.9052069542319L47.125,124.70669096792264L47.125,-85.09973087852984L47.125,96.89223025754059L47.125,138.01381279344372L48.9375,97.56959798692439L48.9375,93.2541325477109L48.9375,126.19532574421129L48.9375,153.75546265681268L48.9375,137.41161413276038L48.9375,87.22293545339727L48.9375,151.36040892606047L50.75,69.28303338152482L50.75,-161.22251925828385L50.75,142.68003596931914L50.75,147.07937349642037L50.75,114.74321079659074L50.75,4.872800203852762L50.75,117.55014283619454L50.75,159.91504147658355L50.75,126.21959377713635L52.5625,31.7303396809925L52.5625,-87.52409641419683L52.5625,81.36266985329081L52.5625,134.56334517427464L52.5625,54.683318160178914L52.5625,131.49778391480794L52.5625,61.99824109523348L52.5625,141.51491248634355L52.5625,135.69059100429283L52.5625,39.588390753189L52.5625,145.58130596495403L52.5625,148.4098784161161L52.5625,-33.31662157880521L52.5625,109.72997181081338L52.5625,139.33313272397896L52.5625,-275.91892799178083L52.5625,87.22286382189331L54.375,153.52168435551442L54.375,146.64440746106246L54.375,152.4021056545393L54.375,142.5013529541408L54.375,126.37570422775576L54.375,93.85926020636364L54.375,137.697501123334L54.375,74.70937870335295L54.375,146.9172634382391L56.1875,-191.79630227837265L56.1875,4.1304717923995895L56.1875,96.45152934972629L56.1875,-7.42513741006394L56.1875,151.6090714791074L56.1875,121.54695537770684L56.1875,150.33421825455846L56.1875,-25.94761868311278L56.1875,152.0817368130293L56.1875,150.7394243156409L58,160.73239749447305L58,9.200048901268843L58,92.63381063505435L58,41.48334032387726L58,158.54249002610743L58,155.85403550566176L58,84.27235576153078L59.8125,86.02252446029104L59.8125,142.03554605299192L59.8125,156.9928450605598L59.8125,126.75211182202625L59.8125,154.97852948230135L61.625,115.36897731875845L61.625,148.0903042943825L61.625,5.417975550412734L61.625,138.94147132172185L61.625,92.04529399608587L61.625,101.61669952177714L63.4375,95.42800017173705L63.4375,148.64012986132906L63.4375,37.912203726106725L63.4375,130.86780062494603L63.4375,120.92565677885315L63.4375,137.14360980316226L63.4375,140.3457740355392L65.25,139.48390963825412L65.25,135.3761864870186L65.25,118.77595597453602L67.0625,-16.296477000669086L67.0625,101.84914738544329L67.0625,139.66373248894448L67.0625,113.47492496947415L67.0625,148.6444346359479L68.875,131.85614124677278L68.875,-268.51827670698265L68.875,130.07427222920478L68.875,102.12105000718812L70.6875,132.01251007449886L70.6875,128.79302393688891L70.6875,-27.753630505705672L70.6875,145.86923686220644L70.6875,50.43920788192624L70.6875,126.53707349887776L70.6875,-32.2995757881408L70.6875,8.359323426991438L70.6875,85.63353235681235L70.6875,131.98911444105724L70.6875,151.79750878610847L72.5,95.75137093100493L72.5,122.24556809557279L72.5,123.6177296853254L72.5,131.5009425366886L72.5,148.19356418132517L72.5,157.05226057850385L74.3125,94.98891531632009L74.3125,84.62778402483465L74.3125,138.2006767413941L74.3125,98.28157812365428L74.3125,42.33884613922049L74.3125,-31.14633066835131L74.3125,90.14442498182562L74.3125,125.35720277348089L74.3125,123.99178921372754L74.3125,-25.030937650195995L76.125,159.46001579987987L76.125,55.90507861844381L76.125,19.205333311742464L76.125,136.56646877556443L76.125,48.874700380180116L76.125,112.62173912053335L76.125,-9.949946593843265L77.9375,156.05238077410408L77.9375,117.8392947082566L77.9375,84.9501785551308L77.9375,153.01670025523362L77.9375,151.15242755289495L77.9375,139.9734890364599L77.9375,134.1569362864634L77.9375,-14.796690491595228L77.9375,150.70716282329843L77.9375,-25.636822851325007L77.9375,126.4432089093601L79.75,120.4880228372004L79.75,89.12864134325626L79.75,73.51981073295902L79.75,139.18150766288832L79.75,138.88642777156858L79.75,122.90440208397602L81.5625,142.72220184505642L81.5625,144.98945015349784L81.5625,53.91764703201571L81.5625,124.64723258783428L81.5625,89.99090478657156L81.5625,144.050791740429L81.5625,-47.25307052534649L81.5625,112.66843627216628L81.5625,152.53989202030814L81.5625,49.42017909238899L81.5625,128.28163577052433L81.5625,139.66700861349872L83.375,83.58695012856825L83.375,148.62587077971187L83.375,86.3368233227248L83.375,104.10586234598229L83.375,150.16967047881832L83.375,152.2409882889816L83.375,108.50944566379877L85.1875,139.91680398147298L85.1875,127.81563802710312L85.1875,132.24395836879L85.1875,69.32985941961836L85.1875,115.34845261598588L85.1875,127.46114643934199L85.1875,94.73448687903186L85.1875,119.20743229626856L85.1875,124.90972739759341L85.1875,148.37885390225676L85.1875,114.77468299703867L87,-21.49043546187346L87,146.36208479414753L87,99.33122033855982L87,-23.71846040277157L87,77.83434611992875L87,136.82420201395513L87,97.00919377330503L87,60.101050038852094L87,141.2161690716898L87,63.694273611092626L87,153.7577013918514L87,136.15139620299885L87,138.86438316959075L88.8125,80.85521620413442L88.8125,-0.4159164166195808L88.8125,10.705572494292767L88.8125,97.64951042591416L88.8125,110.94317988846609L88.8125,27.84863937773187L90.625,75.90471429544276L90.625,154.41331986546732L90.625,127.0884029846797L90.625,157.74692319467826L92.4375,-11.798124859841892L92.4375,119.01846441570312L92.4375,141.1488419039373L92.4375,157.31236124574488L92.4375,-47.642546782236394L92.4375,160.60702634013055L92.4375,42.93896874237845L92.4375,119.28072017875951L92.4375,95.983337391691L92.4375,94.08117840833259L92.4375,46.84442841402324L92.4375,162.93871934144045L94.25,134.1724376367298L94.25,137.49677412181768L94.25,134.08992273345885L94.25,109.77695534007083L94.25,157.65398624189487L94.25,68.00993541861534L94.25,140.56053359832345L94.25,91.38875618319668L94.25,142.92329223007263L94.25,158.2329811834545L94.25,72.99470553154217L94.25,85.79853649952555L96.0625,166.84640483625634L96.0625,119.48216173868678L96.0625,110.06611292376643L96.0625,146.31924244581353L96.0625,152.5551528362363L96.0625,146.31766405477438L97.875,149.18764908062113L97.875,146.65010541250012L97.875,145.26486553035477L97.875,69.38625586445262L97.875,-228.93783643263748L97.875,131.1742817635004L97.875,119.06578468147268L97.875,146.32613411911987L97.875,142.23656965424559L99.6875,149.80016008339481L99.6875,66.50828865375422L99.6875,154.32331793820862L99.6875,150.5303344865862L99.6875,113.45964747057728L99.6875,132.78129115531036L101.5,135.07778138616953L101.5,153.00419296470523L101.5,145.2448690389001L101.5,155.24072842810716L101.5,156.61206029774092L101.5,147.23004777355888L101.5,159.63592712101817L101.5,121.62692585419552L101.5,62.87805503687072L101.5,99.59856692426182L103.3125,120.26380972950955L103.3125,153.42830201505117L103.3125,122.26158903944277L103.3125,141.91231652982452L103.3125,110.71969228079931L103.3125,124.90939850497344L105.125,64.6002946641549L105.125,27.491081305679074L105.125,7.518714887591301L105.125,152.3834211702737L105.125,6.310626748452819L105.125,119.19801099426482L106.9375,160.3801643467565L106.9375,146.72438996919286L106.9375,114.98636777849899L106.9375,151.11111270554858L106.9375,64.26726662618863L106.9375,76.88608701785122L108.75,165.06033896020816L108.75,119.8537272692642L108.75,155.654016813456L108.75,140.67592503142302L108.75,151.65222985798837L108.75,141.83554497718904L108.75,152.52210776313333L108.75,65.31632516829262L108.75,145.27910534144965L108.75,56.209999226339036L110.5625,130.30169406593598L110.5625,81.63120731873398L110.5625,149.00017150448065L110.5625,104.36249758321931L110.5625,147.95152217336152L110.5625,145.77368470821494L110.5625,85.96597548528997L110.5625,152.06652511334948L112.375,85.0362194391534L112.375,145.52772396879135L112.375,72.81260080085401L112.375,134.33307402530522L112.375,134.11639027302698L112.375,94.23561790560684L112.375,69.91297175260308L112.375,157.6178165861266L114.1875,148.11422470999682L114.1875,159.85095914941388L114.1875,146.2792519397989L114.1875,160.87191736742832L114.1875,149.19764640580058L114.1875,148.7842421429283L114.1875,150.4627950356118L114.1875,122.3876722396316L114.1875,156.74662801668688L114.1875,157.46484941065336L116,150.10095781030873L116,6.061680569106443L116,138.1376697686513L116,-26.741783184036905L116,67.37472093707363L116,92.3148172240213L116,28.53823106002892L117.8125,138.76945377490998L117.8125,141.5560687813959L117.8125,154.00540044586L117.8125,137.8507402628524L117.8125,157.41708208615788L117.8125,133.6270173101979L119.625,133.19197196536345L119.625,-112.94892043620735L119.625,57.26710140882811L119.625,133.76544142142518L119.625,158.73323517591675L119.625,126.64644366309552L119.625,156.3933098560639L119.625,121.402020310952L119.625,147.2195868637803L121.4375,151.2289194945871L121.4375,122.96113531295812L121.4375,109.20471884073848L121.4375,135.09730362667318L121.4375,91.16149113184561L121.4375,134.46117006907812L121.4375,145.30041107889355L123.25,164.30587603109308L123.25,122.73965678584653L123.25,152.84433687933955L123.25,68.30868739453109L123.25,94.25869581016299L123.25,26.842083083801526L125.0625,110.35851974592227L125.0625,57.561207407091615L125.0625,155.07361381691243L125.0625,155.56286955899225L125.0625,129.98224240104994L125.0625,123.77846075042888L125.0625,137.09387048666355L126.875,106.88891996070898L126.875,96.7640046276846L126.875,140.94621872761587L126.875,146.1218364632909L126.875,147.45624855155953L126.875,54.24921154016596L126.875,135.7964997172457L126.875,0.07109740925307051L126.875,155.45223652913901L126.875,-0.20089660116912L126.875,110.00954161643277L128.6875,154.10931895898884L128.6875,132.77856198204444L128.6875,89.97751838160593L128.6875,151.95427986678197L128.6875,163.97663612009543L128.6875,89.03017982192752L128.6875,144.3517688201706L128.6875,135.4059188978789L128.6875,141.01711539100694L130.5,143.89879682486L130.5,80.96199422484374L130.5,131.98426257667143L130.5,145.5573623596606L130.5,161.8174970198387L130.5,133.1927983104841L132.3125,165.61689168099298L132.3125,144.10534184961142L132.3125,154.0596874507926L132.3125,19.68180311220638L132.3125,154.65971178387696L132.3125,100.35416848608351L132.3125,160.14002094001114L132.3125,-8.88474302184457L132.3125,120.1313900525389L132.3125,136.40007681228172L132.3125,157.1279936296394L132.3125,162.0217501027823L132.3125,141.75940715055413L134.125,131.85542435812275L135.9375,153.54886981598813L135.9375,157.7582817476887L135.9375,79.53930340338906L135.9375,162.78276916671103L135.9375,162.04520260863865L135.9375,149.56161823579455L135.9375,159.52549972794685L135.9375,148.71372393122937L137.75,114.97824055845538L137.75,153.7556454100059L137.75,154.7018646451691L137.75,157.9503823271439L137.75,86.82080561615865L137.75,156.6217789097725L139.5625,117.05111856658112L139.5625,-0.6778714891142954L139.5625,161.14417677412163L139.5625,151.27505131576396L139.5625,145.58868899973322L139.5625,146.3413186448917L139.5625,98.55889359160136L139.5625,126.93072532935223L139.5625,155.26792464373784L141.375,138.0713123775231L141.375,90.33657337335192L141.375,158.56204213993243L141.375,84.0103263746872L141.375,98.75744470831937L141.375,157.28445172058932L143.1875,157.3139118584964L143.1875,-87.29955565469538L143.1875,150.15860043991225L143.1875,149.4727499966773L143.1875,132.59306325279374L143.1875,147.0781250999974L143.1875,155.29280328213173L143.1875,151.10314911564186L143.1875,158.6012435758722L145,76.76627321636445L145,164.77984696640166L145,151.3324213713802L145,100.00256420053542L145,125.92385659467976L145,112.5171711617209L145,132.21936058157843L146.8125,157.51582123609847L146.8125,152.6282391666512L146.8125,120.77878303130281L146.8125,116.75040904304214L148.625,153.36880225135747L148.625,102.29637544117023L148.625,149.604026960345L148.625,158.31491892849385L148.625,148.7977243182707L148.625,-55.53345048420252L148.625,-3.739081030515081L148.625,141.5932108860463L148.625,148.7265297987703L148.625,164.09511679908346L150.4375,155.0143285347637L150.4375,147.2815328828096L150.4375,150.49981325577647L150.4375,100.16951279159991L150.4375,115.1640971594574L150.4375,154.6206591440115L150.4375,128.84419457069635L152.25,161.42845474603314L152.25,98.33963361654266L152.25,160.2716818262677L152.25,153.0618360579641L152.25,17.515947371941536L152.25,126.28528317882632L152.25,118.58126046224152L154.0625,124.52112916627331L154.0625,68.22613386219786L154.0625,130.53870580080076L154.0625,157.8144787593636L154.0625,144.826584830132L154.0625,156.26758453801457L154.0625,72.88856498230633L154.0625,131.29972702360635L154.0625,122.99322133093212L154.0625,144.18802564651526L154.0625,130.7694547856288L154.0625,155.3078739928456L154.0625,100.16673386035968L154.0625,38.042790462711366L155.875,-16.360718498684463L155.875,127.8826681446968L155.875,151.4158263999105L155.875,134.76052185040533L155.875,145.49447604696314L155.875,131.38984416212597L157.6875,168.2295673720408L157.6875,151.81252406018461L157.6875,156.7340874217067L159.5,78.93075665967612L159.5,169.14731480026018L159.5,151.73480285030433L159.5,123.95895073064135L159.5,116.297215547776L159.5,120.95168993970384L159.5,152.81574163334045L161.3125,162.4888008524263L161.3125,162.4855224241057L161.3125,119.10311150475832L161.3125,118.68076086962697L161.3125,82.61424043219355L161.3125,154.72132729545723L163.125,70.05374781369306L163.125,130.1226034408024L164.9375,47.334295287001L164.9375,131.42009330969614L164.9375,116.71106820466557L164.9375,139.50268671144786L164.9375,129.2467414152895L164.9375,141.43209439954072L164.9375,94.62130774648456L164.9375,150.14018143005944L166.75,151.3020821146198L166.75,127.02314173817491L166.75,164.91776060320947L166.75,136.12965678240346L166.75,153.4810139301427L166.75,33.81387299792874L168.5625,149.6795915427454L168.5625,157.50664977465047L168.5625,149.0526199286907L168.5625,153.78182606770218L168.5625,157.9189283237513L168.5625,52.99212125700784L170.375,127.15826014464892L170.375,149.4543546650613L170.375,76.62318611474217L170.375,163.37473226046544L170.375,113.86195713177666L170.375,120.23121406970317L170.375,151.36860647101471L170.375,155.42690667133547L170.375,67.49916660930434L172.1875,145.52701463756517L172.1875,151.08165763065242L172.1875,93.78127370425824L172.1875,131.94564058926147L172.1875,153.38230719620321L172.1875,156.11573973478892L172.1875,117.44687268693505L172.1875,128.26244870414519L174,158.64305533731573L174,155.9705657702691L174,150.29620739892215L174,147.5151222478815L174,139.39494206475499L174,160.43261924827473L174,-78.13511937559178L174,127.78011415955041L174,157.9743695975599L174,162.604018949809L175.8125,161.35347020459074L175.8125,159.66200028403952L175.8125,138.5678733468642L175.8125,140.66159642688018L175.8125,152.20227973607905L175.8125,89.36642222617174L175.8125,105.8941218584242L175.8125,137.65414349431325L175.8125,153.27173228822366L177.625,161.13612661618942L177.625,145.76010685316632L177.625,151.949491458997L177.625,153.62455139762628L177.625,161.37841578512555L177.625,121.46463338469377L177.625,165.51771028801264L177.625,118.80622761099411L177.625,129.2513151856654L177.625,114.82464191191052L177.625,140.5117355057203L177.625,167.15659274988013L177.625,170.69508574773002L177.625,135.74753963943672L177.625,145.26701363473933L179.4375,69.18514726390802L179.4375,57.39982419807404L179.4375,162.016923280536L179.4375,113.90705018915705L179.4375,27.354621771034687L179.4375,113.9036738750705L179.4375,135.31105134730973L181.25,155.6008381376101L181.25,147.1156240652255L181.25,162.75972546912868L181.25,161.46959692378255L181.25,90.39854523074946L181.25,172.05482441696185L183.0625,150.46744460985977L183.0625,144.66076718582116L183.0625,-96.06026169587301L183.0625,161.89649223696944L183.0625,161.22020730728912L183.0625,157.6068577314927L183.0625,-22.22448437641222L183.0625,163.5633878152234L183.0625,138.35225506090148L184.875,160.95741785933097L184.875,106.82426759821413L184.875,149.34785249454535L184.875,-0.38602656726698115L184.875,96.3723737851105L184.875,119.40579791286065L184.875,39.102710928378485L184.875,65.27619713601271L184.875,121.4396879159257L186.6875,167.0125571267164L186.6875,147.9970369107047L186.6875,163.67595672037703L186.6875,167.18874428412596L186.6875,146.87021292231015L186.6875,16.21927803390369L186.6875,163.12723953052634L186.6875,78.28452836894446L188.5,160.22576054936638L188.5,88.14971568325477L188.5,91.5356775186202L188.5,119.24854357278254L188.5,163.34193794614697L190.3125,121.95084449429677L190.3125,154.05810945391266L190.3125,149.69602139102903L190.3125,135.62025026805097L190.3125,164.08605400005854L190.3125,98.64180330520725L190.3125,117.78213277351995L192.125,78.08556429071467L192.125,147.5509170460595L192.125,117.3112523650795L192.125,146.70631227561904L192.125,154.27238874443194L192.125,166.9933021628881L192.125,164.61927730551238L192.125,90.11280550903254L192.125,153.96881882469026L192.125,162.12497031903735L192.125,157.15554022795956L192.125,157.66756558051722L192.125,139.09547473045072L192.125,132.0785096340322L193.9375,81.19299934748773L193.9375,34.814317662896656L193.9375,154.71124047210301L193.9375,160.65465170109783L193.9375,162.65593486671702L193.9375,149.6024519828855L195.75,138.55542671185182L195.75,120.61306766047669L195.75,62.195075741898364L195.75,102.45350340161178L195.75,161.48567013657328L195.75,132.46290230568206L195.75,160.05000692800968L195.75,144.3956503876392L197.5625,156.7507852469974L197.5625,135.5191965512065L197.5625,150.8104672457827L197.5625,141.66829704980927L197.5625,154.48795854483689L197.5625,140.38745073766358L197.5625,148.28369669678952L197.5625,145.7418709916765L199.375,162.5942268256092L199.375,76.11468250333976L199.375,158.23070548562947L199.375,140.11323207246974L199.375,62.31288496485283L199.375,142.5467801707786L201.1875,72.06101314694257L201.1875,157.46834603816055L201.1875,165.97780724747068L201.1875,160.55957321759652L201.1875,155.03096751118866L201.1875,149.41401520447104L201.1875,-59.950560253551544L201.1875,161.87048741766918L201.1875,119.4307800350413L201.1875,-10.690107686586515L203,151.84303346472822L203,151.4552392058064L203,109.4950198223079L203,141.25496717596897L203,150.99568597322303L203,26.541451543438L204.8125,162.54831470098708L204.8125,151.07634157668448L204.8125,30.914702791521478L204.8125,90.72956539473392L204.8125,149.10018246751338L204.8125,93.18680591587993L206.625,160.5348661913021L206.625,144.80182294011092L206.625,153.5690723504556L206.625,76.20084088803763L208.4375,91.27853520298723L208.4375,164.66981815993938L208.4375,153.26655588782424L210.25,143.61487046361194L210.25,58.2728273713754L210.25,165.00720257010636L210.25,159.8276474696767L210.25,167.0365138262021L210.25,136.88353502932063L212.0625,150.9583065778038L212.0625,146.14889551617733L212.0625,148.0303446346026L212.0625,149.38103301349457L212.0625,159.34856357336974L212.0625,119.40225224832693L213.875,166.37931790861467L213.875,157.41157189947214L213.875,161.0457135805812L213.875,150.09924472304223L213.875,-4.65493492546986L213.875,151.93585289948186L213.875,151.08011935759544L213.875,142.4235391219048L213.875,6.301277184331241L213.875,110.0083737155734L213.875,133.971668595958L215.6875,139.52484791953324L215.6875,153.51527071587088L215.6875,137.8046215847256L215.6875,163.6709110872412L215.6875,164.29932295829823L217.5,152.83520702103715L217.5,164.55163470297452L217.5,145.4542514690847L217.5,164.61461831816703L217.5,163.3875339950724L217.5,159.8354723108003L217.5,156.18068063191933L217.5,130.5503519401104L219.3125,160.40752577682179L219.3125,42.973296947526876L219.3125,120.50009795969342L219.3125,94.87491254720142L219.3125,109.46368354028796L219.3125,150.09442108763838L219.3125,139.87424362289676L221.125,135.75046972498163L221.125,168.43009005930514L221.125,130.3402731197114L221.125,124.58146348158455L221.125,163.3082486073528L222.9375,117.50120368535431L222.9375,171.14743460413092L222.9375,144.60064943759454L222.9375,149.68744623739127L222.9375,117.61498169943883L222.9375,159.80877534186456L222.9375,142.15594103619082L222.9375,151.05270335491616L222.9375,18.390821583606936L222.9375,142.57493480358434L224.75,131.5749489658843L224.75,99.42719154864879L224.75,139.06942982799006L224.75,-72.72133675119233L224.75,152.15474204938354L224.75,155.71914718629836L224.75,31.698476524210037L224.75,147.44115820895087L224.75,126.79795475581255L226.5625,163.32166233383987L226.5625,164.647803449732L226.5625,140.02132212543185L226.5625,164.9744974023123L226.5625,155.69726661897883L226.5625,150.89369049900563L226.5625,159.0222110776044L226.5625,144.31332305689463L226.5625,143.89513905629786L226.5625,165.12872679472173L226.5625,152.9460381654363L226.5625,116.77219656862654L228.375,162.87175118557914L228.375,153.9148698700047L228.375,154.9596221317288L228.375,139.87932446015344L230.1875,163.8210881529548L230.1875,152.5602475457448L230.1875,142.9638267201849L230.1875,140.3831000541133L232,165.9825373116014L232,157.1767745136583L232,153.2586432537965L232,162.97281208165919L232,162.59191451977824L232,161.9821491345068L232,151.2769076167846L233.8125,163.96707925720452L233.8125,143.2226557746609L233.8125,167.5511183846373L233.8125,165.78272760051547L233.8125,158.5001590292836L233.8125,152.15242556500988L233.8125,70.41914880462983L235.625,166.3167395511846L235.625,156.15088149101533L235.625,120.42419738528781L235.625,138.5179173653747L235.625,134.97665077091784L235.625,154.58816536760418L235.625,143.58968987639616L235.625,72.68649354179158L237.4375,159.9496470413891L237.4375,91.98947136966785L237.4375,113.83990688748044L237.4375,116.89185940315834L237.4375,165.13351363148905L237.4375,162.40836099365478L237.4375,134.88235848733115L237.4375,104.79879279425518L239.25,30.064966699091855L239.25,36.34329132637413L239.25,87.66048848716243L239.25,52.6109533736517L239.25,170.72712153837057L239.25,123.20297542298313L239.25,118.237536707548L239.25,150.50672086904973L239.25,154.34266207404187L239.25,140.24411041804967L239.25,109.27958504064655L239.25,135.59417107013874L239.25,74.33558634652425L239.25,160.21219384434815L241.0625,109.58654311301112L241.0625,150.43805882490994L241.0625,142.63175723031011L241.0625,82.85651628219487L241.0625,117.53635655504614L241.0625,171.60438639222977L241.0625,112.64984293168673L242.875,126.71515332215824L242.875,150.41138414332843L242.875,119.33618237060412L242.875,88.21043870505275L242.875,161.30506536255098L242.875,145.58139464887296L242.875,151.07303888885204L244.6875,156.95077651326042L244.6875,134.15600070498098L244.6875,145.60405433322487L244.6875,125.35518501124946L244.6875,147.40225307748275L244.6875,159.5305860619843L244.6875,160.77458349167534L244.6875,160.7773023681975L244.6875,162.18228461500706L244.6875,149.89798664424154L244.6875,167.1667176757662L244.6875,112.33683535752593L244.6875,134.26999511669004L246.5,130.3798223026776L246.5,154.07981342755937L246.5,154.77855414069623L246.5,140.9050233964398L246.5,153.12842554674555L246.5,154.42875436107528L246.5,158.71185635084402L246.5,162.30387877276567L246.5,148.80779712628288L246.5,106.19010051200848L248.3125,92.9934667932475L248.3125,136.22324497388547L248.3125,145.9790765643265L248.3125,155.29057490915596L248.3125,127.94439361025174L248.3125,145.9658881403439L248.3125,149.7834087699166L248.3125,147.32691385031552L248.3125,166.57319603710783L248.3125,118.36982439529208L250.125,148.22156789744278L250.125,148.32306344032628L250.125,105.74266905458035L250.125,142.1536420898206L250.125,163.485826806387L250.125,139.5591991751809L250.125,147.46147232583928L250.125,133.15796685253753L250.125,135.76420090938285L250.125,153.55902796585127L250.125,160.64263330370886L251.9375,163.3329710662623L251.9375,110.65239090933788L251.9375,158.91319530854196L251.9375,157.32886299402458L251.9375,158.34734779166897L251.9375,161.29750361424317L251.9375,126.23646907538367L251.9375,44.704884708968336L253.75,155.21948326763464L253.75,166.3145868809969L253.75,133.2354750166186L253.75,94.62531882348577L253.75,166.1819911735215L253.75,159.02323578065412L253.75,149.71456805042106L253.75,79.5246085790466L255.5625,165.8981251409139L255.5625,129.61656579661232L255.5625,30.09114772577408L255.5625,166.84736344011375L255.5625,160.4191593105866L255.5625,134.504577579275L257.375,127.76831544032792L257.375,107.6732773430011L257.375,138.89588218399447L257.375,65.36740272692565L257.375,166.07796831340798L257.375,155.86573003669173L257.375,118.71658827889328L257.375,159.14790559924035L257.375,101.34576942692044L257.375,160.745263533435L257.375,161.58847645996337L257.375,141.13771684643623L259.1875,163.5913540052828L259.1875,150.43729149651415L259.1875,144.2668069420289L259.1875,159.94132822059981L259.1875,97.23383430049898L261,152.14256937061614L261,61.73286135432002L261,129.01888079128366L261,150.33609073600763L261,162.4259515052391L262.8125,141.3545843838511L262.8125,134.37463108941603L262.8125,153.22494301535662L262.8125,75.40337544783755L262.8125,132.55317135981176L262.8125,18.81461570227512L264.625,141.8394814552989L264.625,156.603519285095L264.625,166.88554257245613L264.625,144.98759182677833L264.625,118.59616413203457L264.625,103.16096849440393L266.4375,162.75953659439008L266.4375,165.09534034474746L266.4375,157.5087341706797L266.4375,136.24441333034002L266.4375,120.12640081866451L266.4375,149.0838557716194L266.4375,160.6042623093746L266.4375,167.6533240361919L266.4375,68.68272108587804L266.4375,162.32282971176485" style="fill: none;" fill="none"></path></g></g></g></g></g></g><g transform="translate(40, 178)" clip-path="url(#clip_1)"><clipPath id="clip_1"><rect width="290" height="22"></rect></clipPath><g><g><line x1="0" y1="0" x2="0" y2="5" style="visibility: inherit;" fill="rgb(0, 0, 0)" stroke="rgb(204, 204, 204)" stroke-width="1px"></line><line x1="36.25" y1="0" x2="36.25" y2="5" style="visibility: inherit;" fill="rgb(0, 0, 0)" stroke="rgb(204, 204, 204)" stroke-width="1px"></line><line x1="72.5" y1="0" x2="72.5" y2="5" style="visibility: inherit;" fill="rgb(0, 0, 0)" stroke="rgb(204, 204, 204)" stroke-width="1px"></line><line x1="108.75" y1="0" x2="108.75" y2="5" style="visibility: inherit;" fill="rgb(0, 0, 0)" stroke="rgb(204, 204, 204)" stroke-width="1px"></line><line x1="145" y1="0" x2="145" y2="5" style="visibility: inherit;" fill="rgb(0, 0, 0)" stroke="rgb(204, 204, 204)" stroke-width="1px"></line><line x1="181.25" y1="0" x2="181.25" y2="5" style="visibility: inherit;" fill="rgb(0, 0, 0)" stroke="rgb(204, 204, 204)" stroke-width="1px"></line><line x1="217.5" y1="0" x2="217.5" y2="5" style="visibility: inherit;" fill="rgb(0, 0, 0)" stroke="rgb(204, 204, 204)" stroke-width="1px"></line><line x1="253.75" y1="0" x2="253.75" y2="5" style="visibility: inherit;" fill="rgb(0, 0, 0)" stroke="rgb(204, 204, 204)" stroke-width="1px"></line><line x1="290" y1="0" x2="290" y2="5" style="visibility: inherit;" fill="rgb(0, 0, 0)" stroke="rgb(204, 204, 204)" stroke-width="1px"></line></g><g transform="translate(0, 8)"><text x="0" y="0" dx="0em" dy="0.95em" style="text-anchor: middle; visibility: hidden; font-family: &quot;Helvetica Neue&quot;, sans-serif; font-size: 12px; font-weight: 200;" fill="rgb(50, 49, 63)" stroke="none" stroke-width="1px">-20</text><text x="36.25" y="0" dx="0em" dy="0.95em" style="text-anchor: middle; visibility: inherit; font-family: &quot;Helvetica Neue&quot;, sans-serif; font-size: 12px; font-weight: 200;" fill="rgb(50, 49, 63)" stroke="none" stroke-width="1px">0</text><text x="72.5" y="0" dx="0em" dy="0.95em" style="text-anchor: middle; visibility: inherit; font-family: &quot;Helvetica Neue&quot;, sans-serif; font-size: 12px; font-weight: 200;" fill="rgb(50, 49, 63)" stroke="none" stroke-width="1px">20</text><text x="108.75" y="0" dx="0em" dy="0.95em" style="text-anchor: middle; visibility: inherit; font-family: &quot;Helvetica Neue&quot;, sans-serif; font-size: 12px; font-weight: 200;" fill="rgb(50, 49, 63)" stroke="none" stroke-width="1px">40</text><text x="145" y="0" dx="0em" dy="0.95em" style="text-anchor: middle; visibility: inherit; font-family: &quot;Helvetica Neue&quot;, sans-serif; font-size: 12px; font-weight: 200;" fill="rgb(50, 49, 63)" stroke="none" stroke-width="1px">60</text><text x="181.25" y="0" dx="0em" dy="0.95em" style="text-anchor: middle; visibility: inherit; font-family: &quot;Helvetica Neue&quot;, sans-serif; font-size: 12px; font-weight: 200;" fill="rgb(50, 49, 63)" stroke="none" stroke-width="1px">80</text><text x="217.5" y="0" dx="0em" dy="0.95em" style="text-anchor: middle; visibility: inherit; font-family: &quot;Helvetica Neue&quot;, sans-serif; font-size: 12px; font-weight: 200;" fill="rgb(50, 49, 63)" stroke="none" stroke-width="1px">100</text><text x="253.75" y="0" dx="0em" dy="0.95em" style="text-anchor: middle; visibility: inherit; font-family: &quot;Helvetica Neue&quot;, sans-serif; font-size: 12px; font-weight: 200;" fill="rgb(50, 49, 63)" stroke="none" stroke-width="1px">120</text><text x="290" y="0" dx="0em" dy="0.95em" style="text-anchor: middle; visibility: hidden; font-family: &quot;Helvetica Neue&quot;, sans-serif; font-size: 12px; font-weight: 200;" fill="rgb(50, 49, 63)" stroke="none" stroke-width="1px">140</text></g><line x1="0" y1="0" x2="290" y2="0" fill="rgb(0, 0, 0)" stroke="rgb(204, 204, 204)" stroke-width="1px"></line></g></g></g></g></svg>