<svg viewBox="0 0 330 200" xmlns="http://www.w3.org/2000/svg"><g><g><g><g><g><line x1="60" y1="178" x2="55" y2="178" style="visibility: inherit;" fill="rgb(0, 0, 0)" stroke="rgb(204, 204, 204)" stroke-width="1px"></line><line x1="60" y1="158.22222222222223" x2="55" y2="158.22222222222223" style="visibility: inherit;" fill="rgb(0, 0, 0)" stroke="rgb(204, 204, 204)" stroke-width="1px"></line><line x1="60" y1="138.44444444444446" x2="55" y2="138.44444444444446" style="visibility: inherit;" fill="rgb(0, 0, 0)" stroke="rgb(204, 204, 204)" stroke-width="1px"></line><line x1="60" y1="118.66666666666666" x2="55" y2="118.66666666666666" style="visibility: inherit;" fill="rgb(0, 0, 0)" stroke="rgb(204, 204, 204)" stroke-width="1px"></line><line x1="60" y1="98.88888888888889" x2="55" y2="98.88888888888889" style="visibility: inherit;" fill="rgb(0, 0, 0)" stroke="rgb(204, 204, 204)" stroke-width="1px"></line><line x1="60" y1="79.1111111111111" x2="55" y2="79.1111111111111" style="visibility: inherit;" fill="rgb(0, 0, 0)" stroke="rgb(204, 204, 204)" stroke-width="1px"></line><line x1="60" y1="59.33333333333334" x2="55" y2="59.33333333333334" style="visibility: inherit;" fill="rgb(0, 0, 0)" stroke="rgb(204, 204, 204)" stroke-width="1px"></line><line x1="60" y1="39.55555555555557" x2="55" y2="39.55555555555557" style="visibility: inherit;" fill="rgb(0, 0, 0)" stroke="rgb(204, 204, 204)" stroke-width="1px"></line><line x1="60" y1="19.7777777777778" x2="55" y2="19.7777777777778" style="visibility: inherit;" fill="rgb(0, 0, 0)" stroke="rgb(204, 204, 204)" stroke-width="1px"></line><line x1="60" y1="0" x2="55" y2="0" style="visibility: inherit;" fill="rgb(0, 0, 0)" stroke="rgb(204, 204, 204)" stroke-width="1px"></line></g><g transform="translate(50, 0)"><text x="0" y="178" dx="0em" dy="0.3em" style="text-anchor: end; visibility: hidden; font-family: &quot;Helvetica Neue&quot;, sans-serif; font-size: 12px; font-weight: 200;" fill="rgb(50, 49, 63)" stroke="none" stroke-width="1px">-0.05</text><text x="0" y="158.22222222222223" dx="0em" dy="0.3em" style="text-anchor: end; visibility: inherit; font-family: &quot;Helvetica Neue&quot;, sans-serif; font-size: 12px; font-weight: 200;" fill="rgb(50, 49, 63)" stroke="none" stroke-width="1px">0</text><text x="0" y="138.44444444444446" dx="0em" dy="0.3em" style="text-anchor: end; visibility: hidden; font-family: &quot;Helvetica Neue&quot;, sans-serif; font-size: 12px; font-weight: 200;" fill="rgb(50, 49, 63)" stroke="none" stroke-width="1px">0.05</text><text x="0" y="118.66666666666666" dx="0em" dy="0.3em" style="text-anchor: end; visibility: inherit; font-family: &quot;Helvetica Neue&quot;, sans-serif; font-size: 12px; font-weight: 200;" fill="rgb(50, 49, 63)" stroke="none" stroke-width="1px">0.1</text><text x="0" y="98.88888888888889" dx="0em" dy="0.3em" style="text-anchor: end; visibility: hidden; font-family: &quot;Helvetica Neue&quot;, sans-serif; font-size: 12px; font-weight: 200;" fill="rgb(50, 49, 63)" stroke="none" stroke-width="1px">0.15</text><text x="0" y="79.1111111111111" dx="0em" dy="0.3em" style="text-anchor: end; visibility: inherit; font-family: &quot;Helvetica Neue&quot;, sans-serif; font-size: 12px; font-weight: 200;" fill="rgb(50, 49, 63)" stroke="none" stroke-width="1px">0.2</text><text x="0" y="59.33333333333334" dx="0em" dy="0.3em" style="text-anchor: end; visibility: hidden; font-family: &quot;Helvetica Neue&quot;, sans-serif; font-size: 12px; font-weight: 200;" fill="rgb(50, 49, 63)" stroke="none" stroke-width="1px">0.25</text><text x="0" y="39.55555555555557" dx="0em" dy="0.3em" style="text-anchor: end; visibility: inherit; font-family: &quot;Helvetica Neue&quot;, sans-serif; font-size: 12px; font-weight: 200;" fill="rgb(50, 49, 63)" stroke="none" stroke-width="1px">0.3</text><text x="0" y="19.7777777777778" dx="0em" dy="0.3em" style="text-anchor: end; visibility: hidden; font-family: &quot;Helvetica Neue&quot;, sans-serif; font-size: 12px; font-weight: 200;" fill="rgb(50, 49, 63)" stroke="none" stroke-width="1px">0.35</text><text x="0" y="0" dx="0em" dy="0.3em" style="text-anchor: end; visibility: hidden; font-family: &quot;Helvetica Neue&quot;, sans-serif; font-size: 12px; font-weight: 200;" fill="rgb(50, 49, 63)" stroke="none" stroke-width="1px">0.4</text></g><line x1="60" y1="0" x2="60" y2="178" fill="rgb(0, 0, 0)" stroke="rgb(204, 204, 204)" stroke-width="1px"></line></g></g><g transform="translate(60, 0)" clip-path="url(#clip_0)"><clipPath id="clip_0"><rect width="270" height="178"></rect></clipPath><g><g><g><line x1="0" y1="0" x2="0" y2="178" fill="rgb(0, 0, 0)" stroke="rgb(60, 60, 60)" stroke-width="1px" opacity="0.25"></line><line x1="33.75" y1="0" x2="33.75" y2="178" fill="rgb(0, 0, 0)" stroke="rgb(60, 60, 60)" stroke-width="1px" opacity="0.25"></line><line x1="67.5" y1="0" x2="67.5" y2="178" fill="rgb(0, 0, 0)" stroke="rgb(60, 60, 60)" stroke-width="1px" opacity="0.25"></line><line x1="101.25" y1="0" x2="101.25" y2="178" fill="rgb(0, 0, 0)" stroke="rgb(60, 60, 60)" stroke-width="1px" opacity="0.25"></line><line x1="135" y1="0" x2="135" y2="178" fill="rgb(0, 0, 0)" stroke="rgb(60, 60, 60)" stroke-width="1px" opacity="0.25"></line><line x1="168.75" y1="0" x2="168.75" y2="178" fill="rgb(0, 0, 0)" stroke="rgb(60, 60, 60)" stroke-width="1px" opacity="0.25"></line><line x1="202.5" y1="0" x2="202.5" y2="178" fill="rgb(0, 0, 0)" stroke="rgb(60, 60, 60)" stroke-width="1px" opacity="0.25"></line><line x1="236.25" y1="0" x2="236.25" y2="178" fill="rgb(0, 0, 0)" stroke="rgb(60, 60, 60)" stroke-width="1px" opacity="0.25"></line><line x1="270" y1="0" x2="270" y2="178" fill="rgb(0, 0, 0)" stroke="rgb(60, 60, 60)" stroke-width="1px" opacity="0.25"></line></g><g><line x1="0" y1="178" x2="270" y2="178" fill="rgb(0, 0, 0)" stroke="rgb(60, 60, 60)" stroke-width="1px" opacity="0.25"></line><line x1="0" y1="158.22222222222223" x2="270" y2="158.22222222222223" fill="rgb(0, 0, 0)" stroke="rgb(60, 60, 60)" stroke-width="1px" opacity="0.25"></line><line x1="0" y1="138.44444444444446" x2="270" y2="138.44444444444446" fill="rgb(0, 0, 0)" stroke="rgb(60, 60, 60)" stroke-width="1px" opacity="0.25"></line><line x1="0" y1="118.66666666666666" x2="270" y2="118.66666666666666" fill="rgb(0, 0, 0)" stroke="rgb(60, 60, 60)" stroke-width="1px" opacity="0.25"></line><line x1="0" y1="98.88888888888889" x2="270" y2="98.88888888888889" fill="rgb(0, 0, 0)" stroke="rgb(60, 60, 60)" stroke-width="1px" opacity="0.25"></line><line x1="0" y1="79.1111111111111" x2="270" y2="79.1111111111111" fill="rgb(0, 0, 0)" stroke="rgb(60, 60, 60)" stroke-width="1px" opacity="0.25"></line><line x1="0" y1="59.33333333333334" x2="270" y2="59.33333333333334" fill="rgb(0, 0, 0)" stroke="rgb(60, 60, 60)" stroke-width="1px" opacity="0.25"></line><line x1="0" y1="39.55555555555557" x2="270" y2="39.55555555555557" fill="rgb(0, 0, 0)" stroke="rgb(60, 60, 60)" stroke-width="1px" opacity="0.25"></line><line x1="0" y1="19.7777777777778" x2="270" y2="19.7777777777778" fill="rgb(0, 0, 0)" stroke="rgb(60, 60, 60)" stroke-width="1px" opacity="0.25"></line><line x1="0" y1="0" x2="270" y2="0" fill="rgb(0, 0, 0)" stroke="rgb(60, 60, 60)" stroke-width="1px" opacity="0.25"></line></g></g></g><g><g><line x1="0" y1="158.22222222222223" x2="270" y2="158.22222222222223" fill="rgb(0, 0, 0)" stroke="rgb(153, 153, 153)" stroke-width="1.5px"></line></g></g><g><g><line x1="33.75" y1="0" x2="33.75" y2="178" fill="rgb(0, 0, 0)" stroke="rgb(153, 153, 153)" stroke-width="1.5px"></line></g></g><g><g><g><g><g><path stroke="rgb(255, 112, 67)" stroke-width="2px" d="M33.75,142.61477309134273L33.75,151.4152686036347L33.75,151.07727986719044L33.75,104.49224526009422L33.75,50.17073434768915L33.75,-20.488912678988783L33.75,4.4435702856181365L33.75,33.60851495376784L33.75,-33.64377899913387L35.4375,-25.867787655858052L35.4375,6.661316161825113L35.4375,22.2436811443784L35.4375,-34.52177417389339L37.125,-7.4123720370972705L37.125,13.242693075863059L37.125,6.065852101732673L37.125,-3.6879358986158195L37.125,2.595337757065522L37.125,25.831205130205774L37.125,13.984692827750933L37.125,54.588924055956895L38.8125,60.07124804864577L38.8125,55.41217701537367L38.8125,-8.32081668296081L38.8125,-27.73351012215491L40.5,40.61618871557977L40.5,81.94864080514178L40.5,11.05858768849302L40.5,44.401707450572104L40.5,68.99761023383921L40.5,68.38988951465146L42.1875,96.09063521789032L42.1875,100.78067400957384L42.1875,119.26015072370565L42.1875,107.12151059207173L43.875,90.85404033794423L43.875,-45.882688421309894L43.875,20.616610586505146L43.875,64.90464165765533L43.875,67.73382879013637L43.875,92.31122046505963L43.875,79.38487246566497L43.875,82.38044448059352L43.875,77.83887520249289L43.875,68.08262747480782L43.875,38.333646372650605L43.875,-18.729073723110275L43.875,41.984802079251835L43.875,83.80910563724608L45.5625,-74.49594708927219L45.5625,13.759886988124038L45.5625,54.33269389954654L45.5625,70.72488480964486L45.5625,96.0895731273183L45.5625,96.87370892104838L45.5625,91.03691110189487L47.25,84.05297688549194L47.25,-40.19877298464479L47.25,32.62979810892824L47.25,75.74186936029702L47.25,-5.4885805771879745L47.25,-24.102178073824746L47.25,33.65408993084486L47.25,62.16921499230685L47.25,95.57888346494832L48.9375,106.69964665454918L48.9375,103.29093151923064L48.9375,80.47039104748063L48.9375,87.65229052651898L48.9375,109.4217731509876L48.9375,104.24326978251966L48.9375,105.25703167592863L48.9375,59.03570241204791L48.9375,93.31229255878067L48.9375,104.1153836200954L48.9375,105.59170358149804L48.9375,76.941765832184L48.9375,99.86929290463556L48.9375,65.82310660198678L48.9375,75.82550193709676L48.9375,35.35726900139312L48.9375,76.66167337573218L50.625,102.0568492451574L50.625,110.06492052842106L50.625,106.79304817340132L50.625,118.6426491321406L50.625,82.55679317733664L50.625,68.25964654272741L50.625,81.6377972623199L50.625,88.1195205128485L50.625,114.41018106001381L52.3125,68.5351027045779L52.3125,17.366705196083842L52.3125,57.19642369434777L52.3125,65.79989545369803L52.3125,60.14581531380412L52.3125,88.6363165556412L52.3125,107.10061129206545L52.3125,104.89798779121183L52.3125,117.93153519066193L52.3125,65.32354236158277L54,99.8470466405901L54,63.89097247677893L54,94.31501682825925L54,114.47790015542003L54,126.33846078662835L54,130.94330871445527L54,98.30211102636873L55.6875,115.44647797150742L55.6875,97.53800733475552L55.6875,97.53828185684017L55.6875,119.4679244405553L55.6875,11.776466859835551L57.375,58.531417436144324L57.375,62.33515686728386L57.375,94.92824541756872L57.375,108.62242062957039L57.375,110.9411568354491L57.375,120.71849629480516L59.0625,128.71354121816813L59.0625,137.65968021795084L59.0625,104.96880812737965L59.0625,122.7042549256766L59.0625,135.49256473440963L59.0625,129.6104319644844L59.0625,137.33139128404113L60.75,99.59595899731272L60.75,113.03078682194364L60.75,130.42291030849475L62.4375,108.17299647204686L62.4375,127.28341862304575L62.4375,130.84008213459921L62.4375,125.6569253903066L62.4375,118.37947681952127L64.125,126.1714607706848L64.125,-105.74961491637333L64.125,-1.6986561635574162L64.125,45.43590965684939L65.8125,83.6285650540393L65.8125,102.83355273062L65.8125,-7.324625153484533L65.8125,29.14549365757017L65.8125,68.12407077157697L65.8125,102.19624068057391L65.8125,111.90483999745227L65.8125,115.23370176452107L65.8125,126.47286901545482L65.8125,135.6748326705877L65.8125,137.73738216945102L67.5,119.04929188906958L67.5,115.05706441944062L67.5,123.43274893953202L67.5,132.97526365475136L67.5,138.44780243741573L67.5,145.83627017124752L69.1875,148.90517369545722L69.1875,134.9312843592531L69.1875,137.97834381132722L69.1875,142.94228355621271L69.1875,128.1351588969858L69.1875,138.85663621193095L69.1875,136.3059036527033L69.1875,134.36786347591612L69.1875,142.13024937555102L69.1875,138.53691663146293L70.875,144.1151515895807L70.875,146.7786463425699L70.875,146.00677714437438L70.875,128.15849604024606L70.875,123.63711829472055L70.875,134.39753212888786L70.875,136.13378617580582L72.5625,139.911472530327L72.5625,130.05304803718832L72.5625,137.0046189814325L72.5625,141.8261008335858L72.5625,145.26490298551576L72.5625,143.99092853385892L72.5625,138.95701432153132L72.5625,120.13460516354834L72.5625,124.93868661641582L72.5625,133.337377515419L72.5625,52.833958203451715L74.25,72.5467203043376L74.25,63.69352250259631L74.25,38.96137046592344L74.25,67.16330389578621L74.25,100.8680600587496L74.25,92.22066933297926L75.9375,114.92719645331589L75.9375,127.34093507877495L75.9375,109.38586514708967L75.9375,126.23339887106296L75.9375,134.11061527781678L75.9375,141.2935277227408L75.9375,19.11456437398735L75.9375,65.56715974503605L75.9375,98.26587906125162L75.9375,112.7900861314845L75.9375,127.65010936463678L75.9375,139.4258413305006L77.625,141.79831151770946L77.625,134.00462555717533L77.625,123.58590280114277L77.625,133.4207264992184L77.625,138.5978732394727L77.625,142.60911146195707L77.625,139.71020844944834L79.3125,145.9418857179196L79.3125,144.10145616755884L79.3125,146.72784705760347L79.3125,151.10787623572375L79.3125,146.72065365117936L79.3125,149.30771375942186L79.3125,151.15142353258636L79.3125,151.95470859735474L79.3125,153.77046297137167L79.3125,153.4492649252534L79.3125,148.77437045930412L81,142.88929585803038L81,125.52162677294439L81,133.65652104763046L81,118.76395315655782L81,126.4737202939447L81,124.9443808499542L81,100.31279015098747L81,112.64298231336318L81,126.49202977908689L81,127.49325174334138L81,138.62463738781372L81,140.462249883254L81,145.63574089766587L82.6875,147.97583952443426L82.6875,131.07145284948723L82.6875,120.18853295779346L82.6875,72.43002131013411L82.6875,101.91284656581287L82.6875,86.21617320942417L84.375,113.82778952512994L84.375,123.89477265274836L84.375,128.47452559574896L84.375,139.65830814592712L86.0625,114.97220211676361L86.0625,108.95784768598902L86.0625,125.7005933948614L86.0625,119.87735073999775L86.0625,128.54731041002668L86.0625,139.25823367885454L86.0625,140.3508907631141L86.0625,107.6230939777422L86.0625,120.22384465115303L86.0625,132.1598026847795L86.0625,139.44577302113902L86.0625,141.2469199804343L87.75,124.65506443163352L87.75,132.5388467014004L87.75,137.18715139164874L87.75,126.66562476913738L87.75,138.2724714119868L87.75,145.81787657510392L87.75,140.63760146958322L87.75,146.62340961904275L87.75,150.96820959881677L87.75,153.2895331583398L87.75,152.91541320329108L87.75,152.88365522769212L89.4375,141.6580065182342L89.4375,139.98639174582854L89.4375,134.5507514679039L89.4375,142.44841712999636L89.4375,146.54816521909146L89.4375,148.37637495289695L91.125,131.50243853040143L91.125,136.67749327193926L91.125,137.99019765982433L91.125,136.64264528298685L91.125,-414.5257219664927L91.125,-50.881766427559626L91.125,2.947834055885579L91.125,59.51889791431586L92.8125,81.10441846389442L92.8125,110.50180431581194L92.8125,93.35798760479682L92.8125,114.9447413438121L92.8125,125.06446383384888L92.8125,134.49235244518667L94.5,136.7781168959772L94.5,145.2041536488806L94.5,133.686648361339L94.5,117.081855716446L94.5,132.36624846685268L94.5,123.59413279722469L94.5,131.42613238670629L94.5,141.2370828838506L94.5,141.43346087179071L94.5,140.8902607628858L96.1875,147.62813307504624L96.1875,143.2304426133281L96.1875,142.977281494252L96.1875,137.75791704057383L96.1875,141.19132793650928L96.1875,145.08932491564295L97.875,139.06979076055148L97.875,145.49647679520126L97.875,146.5895621255585L97.875,150.52094255275154L97.875,141.96659230224265L97.875,148.03248402528482L99.5625,150.69216476842607L99.5625,151.90964939606428L99.5625,148.1782924319043L99.5625,146.41369497287678L99.5625,135.02797081442387L99.5625,135.710269871914L101.25,144.17653791239343L101.25,147.72067601990324L101.25,117.81851418521973L101.25,131.87861552527397L101.25,129.61182542126554L101.25,132.13610900993518L101.25,128.6664450817627L101.25,133.38642186244263L101.25,135.4685130270848L101.25,112.25650872503893L102.9375,129.21632022654785L102.9375,117.96561569304066L102.9375,95.12423927848683L102.9375,107.56340108539416L102.9375,126.34857442049966L102.9375,132.80408701010484L102.9375,140.80127485419078L102.9375,141.77086355051918L104.625,146.60007357057845L104.625,148.10360366841968L104.625,149.11757489619475L104.625,145.72490941233133L104.625,146.7804935493206L104.625,149.27419905770628L104.625,147.52534099431784L104.625,149.6465265639011L106.3125,151.35820222454902L106.3125,150.66531034907945L106.3125,151.9456730398279L106.3125,150.61987642854237L106.3125,145.6475345794943L106.3125,145.10091200233356L106.3125,147.43627866364037L106.3125,135.6494393469947L106.3125,144.24428632721978L106.3125,147.3345441379753L108,145.94137263581135L108,147.5751580242083L108,128.7286497393839L108,127.86489201092941L108,139.03568020366166L108,143.243009093154L108,147.44031263025184L109.6875,144.14695015859883L109.6875,145.89809161279632L109.6875,150.09407998716586L109.6875,150.45637795021918L109.6875,142.1939583051318L109.6875,142.6499736802646L111.375,145.08400293238836L111.375,86.3747656374712L111.375,109.92292589522636L111.375,112.32367184108834L111.375,126.3286503673375L111.375,136.8404988499948L111.375,131.98152127578666L111.375,137.36196929907354L111.375,144.71121416539614L113.0625,147.15189064903788L113.0625,147.01294616478918L113.0625,148.58969695141855L113.0625,146.05325620501472L113.0625,145.71305662139463L113.0625,146.90751614418153L113.0625,148.99051786543177L114.75,151.08658575728947L114.75,151.1635159051675L114.75,150.2003875670587L114.75,150.2833187896662L114.75,152.44850654382094L114.75,132.7672142895111L116.4375,139.4439293981157L116.4375,144.9810223560536L116.4375,146.9140973662604L116.4375,148.43081544092908L116.4375,149.43288833450248L116.4375,145.28745401631377L116.4375,148.03443805679694L118.125,146.93774533453592L118.125,122.414048582744L118.125,129.59249476551233L118.125,137.03650787514644L118.125,136.35518318506067L118.125,144.57817176039208L118.125,141.43342050413074L118.125,128.15602375964193L118.125,135.58535068637718L118.125,134.0165715619321L118.125,140.28162576714857L119.8125,146.80440844770098L119.8125,143.29413745872338L119.8125,147.83786951180926L119.8125,148.98511468310465L119.8125,149.58772303425854L119.8125,141.2353351592172L119.8125,144.86590554656146L119.8125,149.91706103149323L119.8125,152.1920610734618L121.5,152.77966685274683L121.5,149.93210120374295L121.5,137.69468903963366L121.5,144.2384128751499L121.5,149.46434244390517L121.5,152.47957309245118L123.1875,152.97300739250673L123.1875,108.16472771727963L123.1875,120.66790852458962L123.1875,131.49874301592854L123.1875,140.11073824270773L123.1875,138.67655693460694L123.1875,139.88622799629815L123.1875,134.2827988412868L123.1875,136.72878229831338L123.1875,143.36411763160237L123.1875,142.65637777670176L123.1875,143.77992714631262L123.1875,145.46267979852976L124.875,147.44078047912228L126.5625,146.42593762382413L126.5625,147.82035519410564L126.5625,149.3498821480834L126.5625,150.48154969621945L126.5625,152.1653867976422L126.5625,147.53268379998866L126.5625,142.6661372166832L126.5625,147.7553160186452L128.25,145.2305429535613L128.25,149.94533952246144L128.25,151.61702374056333L128.25,148.02484695177486L128.25,147.46493255929875L128.25,126.15185002388593L129.9375,130.55087264717838L129.9375,137.3089392073095L129.9375,145.18614364007618L129.9375,148.8724774549773L129.9375,149.49179118522892L129.9375,147.72022125909064L129.9375,147.9291478038523L129.9375,149.2638287760565L129.9375,150.22786735137134L131.625,152.93990386484958L131.625,148.2229240554108L131.625,150.74277692011862L131.625,148.25815687758845L131.625,150.64541916559014L131.625,152.22032483126645L133.3125,153.03801135709108L133.3125,148.0060195952071L133.3125,151.13799857424178L133.3125,153.08687780015225L133.3125,151.37802084910405L133.3125,152.06870520720733L133.3125,62.52301370931248L133.3125,90.04386126895297L133.3125,104.82093900779613L135,112.28263728423751L135,129.63150904704102L135,138.79120550795443L135,143.5666649448848L135,148.6440266430165L135,149.67722270182816L135,152.38834345382347L136.6875,148.7975064862947L136.6875,150.97613885430908L136.6875,148.25056171142774L136.6875,140.9441347370634L138.375,139.28215472334495L138.375,144.70090833432465L138.375,147.91697868383125L138.375,134.14924486086483L138.375,143.41115067755277L138.375,146.8799982727871L138.375,121.08177697626586L138.375,132.81787013988398L138.375,136.17022283860464L138.375,141.11770897302085L140.0625,142.5226811758263L140.0625,147.90293887472316L140.0625,149.73209307786192L140.0625,141.008909537903L140.0625,139.18278795550953L140.0625,141.62824828401952L140.0625,139.48339747507157L141.75,143.71405816745033L141.75,146.90614846417733L141.75,150.23140988308512L141.75,150.77686593269303L141.75,149.75777556764746L141.75,145.91967685911985L141.75,148.74572178625093L143.4375,148.8202005718332L143.4375,150.17182558077994L143.4375,152.36876110794532L143.4375,153.58689928373462L143.4375,152.8623112240678L143.4375,153.51774616634324L143.4375,154.2804856893813L143.4375,153.28323592594305L143.4375,154.89871786636402L143.4375,152.02269844241977L143.4375,152.8134362162831L143.4375,154.14227094554332L143.4375,153.63681217546653L143.4375,147.66552505932816L145.125,147.81282583765395L145.125,150.73996814425115L145.125,148.50383918617695L145.125,120.81052077227879L145.125,132.6925118153138L145.125,141.11798916633649L146.8125,146.56746506053972L146.8125,148.8920087948302L146.8125,151.4566843666218L148.5,152.64015253198306L148.5,153.27966467758645L148.5,153.88923294145906L148.5,153.8125415591342L148.5,154.0435452635519L148.5,149.97138967764965L148.5,152.9476006237986L150.1875,144.084346110787L150.1875,143.92657281931864L150.1875,148.5972685358853L150.1875,141.79611720162882L150.1875,84.60551269429543L150.1875,105.29654660767883L151.875,119.65576065018385L151.875,123.36123750468855L153.5625,134.28342262158586L153.5625,135.9449454143631L153.5625,138.98787079622275L153.5625,140.71961294368197L153.5625,141.84645171483197L153.5625,145.04416619120607L153.5625,140.90840075109213L153.5625,147.38350518701426L155.25,140.98622282970055L155.25,134.76555013766085L155.25,135.98636984360996L155.25,143.02595647294987L155.25,146.32805282544894L155.25,147.6452075329398L156.9375,146.88255307795453L156.9375,144.23812830149905L156.9375,148.96370948970184L156.9375,150.2402878589622L156.9375,152.56656542873864L156.9375,125.04575265454474L158.625,133.85319350366132L158.625,142.59384023056361L158.625,144.71583787477903L158.625,142.6982084452391L158.625,143.100063002464L158.625,147.15975281776397L158.625,150.615760124811L158.625,151.2476554823449L158.625,139.2482565999877L160.3125,144.2592906524583L160.3125,146.49670341762305L160.3125,149.98915009258297L160.3125,151.25149597659572L160.3125,150.401663525511L160.3125,150.60201638291164L160.3125,153.2064143683506L160.3125,153.75087534979937L162,154.4187458944742L162,146.97489217209696L162,148.25099710530102L162,149.10660347087816L162,147.47927232761697L162,150.50138763494996L162,149.05772744494635L162,149.5527750325876L162,146.50824711226159L162,148.65438998111392L163.6875,150.7730735403397L163.6875,151.23042510058406L163.6875,149.3834429323364L163.6875,151.02475108144813L163.6875,152.21916701823022L163.6875,147.25274598192237L163.6875,144.2418519499034L163.6875,145.72399539205216L163.6875,145.5449123767184L165.375,147.67030714872482L165.375,148.3723559785598L165.375,151.74754990639568L165.375,151.80409429637626L165.375,152.13640076883127L165.375,152.77104930593399L165.375,143.70205576196275L165.375,147.48727292867147L165.375,151.34371650084177L165.375,152.67344736905818L165.375,149.920983242106L165.375,151.25931350416633L165.375,151.88221147871033L165.375,152.94079341950956L165.375,153.72239580893947L167.0625,148.26784258835838L167.0625,144.0530011440515L167.0625,149.35362117119496L167.0625,145.5230605308551L167.0625,149.24731503221093L167.0625,150.04399659145824L167.0625,152.10926736025715L168.75,153.8559276876571L168.75,149.59369104279082L168.75,152.35753537900382L168.75,152.27145157501712L168.75,153.30024678091905L168.75,145.93551782318374L170.4375,148.51787250998007L170.4375,149.7341520301908L170.4375,143.52183612195444L170.4375,144.84346480771578L170.4375,142.19220823078822L170.4375,146.031685835961L170.4375,142.41105111847926L170.4375,144.09404892239007L170.4375,149.19333026938457L172.125,151.41437315688887L172.125,148.2423880164605L172.125,147.64592454024842L172.125,142.0532300821266L172.125,145.19038994353275L172.125,138.07208885694303L172.125,139.43036692374469L172.125,142.87702103409615L172.125,143.3109983573894L173.8125,144.49538598812197L173.8125,133.3471347684391L173.8125,142.72281115793552L173.8125,146.65442805879005L173.8125,149.53536089164297L173.8125,151.36829500504368L173.8125,152.84107771977602L173.8125,151.23062390962136L175.5,140.62147993903028L175.5,143.41095974547733L175.5,149.19242886095583L175.5,135.81689555281008L175.5,143.13578630189264L177.1875,144.78124029987487L177.1875,149.37135016602338L177.1875,150.78718164373672L177.1875,153.64620967186696L177.1875,142.15997230165195L177.1875,146.21029663177129L177.1875,150.3083661861394L178.875,150.70406041280805L178.875,149.67860482244188L178.875,150.87578609253066L178.875,153.63683527760926L178.875,153.17084242269664L178.875,154.13908499498328L178.875,155.41514510250585L178.875,155.07732859255768L178.875,154.78322245844012L178.875,149.9926693767377L178.875,152.75300682457365L178.875,149.91655609597674L178.875,151.73206088795212L178.875,151.80274071738822L180.5625,131.01950161855177L180.5625,129.6732248828191L180.5625,140.64742947643603L180.5625,147.22330221863618L180.5625,149.21210499769336L180.5625,149.22621491584047L182.25,150.39020125289477L182.25,149.15371335809593L182.25,152.53655959136717L182.25,154.0118325132177L182.25,154.529703144414L182.25,151.14733962334824L182.25,150.55245179868982L182.25,152.35927438499874L183.9375,153.88141680698337L183.9375,152.762681630894L183.9375,152.35715685942438L183.9375,154.5022842326449L183.9375,151.37256142793882L183.9375,142.60979140578976L183.9375,145.33535926475355L183.9375,145.2480699926006L185.625,149.01274498723933L185.625,141.0003548355943L185.625,147.08846782001135L185.625,149.71435055810247L185.625,125.85026330888422L185.625,134.7388517527192L187.3125,142.87749192195258L187.3125,137.43183243651794L187.3125,141.77728778879938L187.3125,147.39462661037834L187.3125,138.4447061761286L187.3125,136.25011618466243L187.3125,134.9359580117991L187.3125,144.08607806511571L187.3125,146.1192160697319L187.3125,145.8511535344113L189,146.96036260497772L189,139.74714855786814L189,106.3481755521098L189,124.26426469482179L189,136.85887760670633L189,141.3173453720178L190.6875,143.63107098477346L190.6875,149.16196566371312L190.6875,149.76834002132793L190.6875,150.0699329859417L190.6875,147.65905891509595L190.6875,148.95490225345935L192.375,152.03496677956278L192.375,152.89037942424858L192.375,153.97231825727158L192.375,147.57699079834182L194.0625,149.29232657863355L194.0625,152.00196693786177L194.0625,152.87625640632956L195.75,150.08099829887036L195.75,142.6900472095358L195.75,144.8012446413883L195.75,147.61891577014683L195.75,143.71572476382005L195.75,147.74107333805463L197.4375,150.59995688635556L197.4375,147.59556404401596L197.4375,149.52099277797515L197.4375,148.48571323951654L197.4375,142.56479940706168L197.4375,147.41361771725488L199.125,147.48239111789454L199.125,139.16060447891255L199.125,145.95856890929892L199.125,148.57649302726213L199.125,148.3491199958371L199.125,144.71610623818253L199.125,147.41702277792461L199.125,138.52284845378446L199.125,145.3927067119201L199.125,134.66780563450445L199.125,141.8060793931678L200.8125,147.52460100716058L200.8125,150.09496364970428L200.8125,152.08606216597212L200.8125,152.57481580018262L200.8125,147.00704844882313L202.5,147.91647514357302L202.5,148.7547101854531L202.5,144.6478968733763L202.5,137.14444482636412L202.5,138.89677451372654L202.5,145.33829860414704L202.5,147.2543946694869L202.5,151.36879948757652L204.1875,149.2428626072692L204.1875,150.0713365287952L204.1875,148.20776035853459L204.1875,150.09888984939397L204.1875,152.16257622978983L204.1875,139.87958572723937L204.1875,146.33401685391283L205.875,141.42083748639277L205.875,146.98940812623889L205.875,149.26044233486886L205.875,152.6037794602331L205.875,152.3438376974513L207.5625,153.96574290161695L207.5625,155.1844854744529L207.5625,155.41531890915698L207.5625,154.7579658154526L207.5625,151.33995297031208L207.5625,141.89174980474144L207.5625,137.1249880466022L207.5625,144.72957956962068L207.5625,147.1092676186234L207.5625,150.47227136077504L209.25,151.73783485891965L209.25,153.03641578503644L209.25,141.80099930003865L209.25,132.58585911772002L209.25,141.56728303898186L209.25,145.90552263738002L209.25,147.45798809364874L209.25,139.7908004544304L209.25,141.00331140491124L210.9375,146.38580056190148L210.9375,150.14247963192523L210.9375,146.88934132805275L210.9375,150.52107113461182L210.9375,144.87069641003632L210.9375,141.52305449117995L210.9375,128.90284619174267L210.9375,136.84818715120474L210.9375,140.89313254315726L210.9375,144.72029760879389L210.9375,148.92773428451287L210.9375,146.82953011063827L212.625,150.2492919518635L212.625,147.9405684351045L212.625,150.19292296179177L212.625,152.47498281424072L214.3125,151.97460488453402L214.3125,153.27225039718817L214.3125,152.94308362660436L214.3125,153.76260278808982L216,151.68349606440543L216,153.08912120167727L216,148.77691090977115L216,148.434534310555L216,151.79774760211836L216,153.9588914659606L216,151.90258236542596L217.6875,145.10729362059783L217.6875,149.97597523954335L217.6875,151.37842940081583L217.6875,152.638870753914L217.6875,153.21494520125316L217.6875,153.4007800087384L217.6875,150.54630844980787L219.375,153.5143539630044L219.375,154.35882845771985L219.375,134.9564728533388L219.375,127.95786753069325L219.375,139.41299592798862L219.375,143.79324441758342L219.375,148.5782305790106L219.375,149.33705085276284L221.0625,152.54640268026355L221.0625,145.48359684589641L221.0625,146.6584633641695L221.0625,149.33629981033866L221.0625,135.16526435360362L221.0625,141.70639773004945L221.0625,130.50027229662953L221.0625,140.785591420522L222.75,139.917355359456L222.75,83.86301724034874L222.75,111.94538168924713L222.75,128.81982213183176L222.75,138.12728284254035L222.75,138.45593834061705L222.75,137.70378459377656L222.75,144.07757904360832L222.75,145.6541118271293L222.75,148.32722436106388L222.75,143.78737162381123L222.75,148.17971035074353L222.75,147.77315617540177L222.75,150.00907878210032L224.4375,150.73872109066707L224.4375,125.08819224721947L224.4375,136.70890457867307L224.4375,139.32709900733397L224.4375,145.09702272201187L224.4375,147.3769501804388L224.4375,132.94112756008366L226.125,140.99516963189848L226.125,147.43202861019907L226.125,144.63702139511403L226.125,149.02743870850554L226.125,143.9815711773272L226.125,146.79466787822724L226.125,137.52400037356824L227.8125,144.53725723351207L227.8125,147.9937062874943L227.8125,151.07096370998084L227.8125,147.06961614455616L227.8125,147.1822977391167L227.8125,149.0384248233209L227.8125,152.0233339145934L227.8125,153.47226559884945L227.8125,144.67367626157628L227.8125,149.39764171563587L227.8125,151.09825166298748L227.8125,146.41568979031788L227.8125,147.2244037851112L229.5,146.80700580662986L229.5,149.42095346548723L229.5,151.26330123125652L229.5,142.92573271063452L229.5,134.69606731786155L229.5,141.59789776542743L229.5,139.87555220236425L229.5,146.3963279875387L229.5,150.6381621012782L229.5,153.06596378847794L231.1875,142.51510156478057L231.1875,144.3518466257851L231.1875,149.1406098074993L231.1875,150.690184672379L231.1875,152.83793647950435L231.1875,144.64810637287954L231.1875,139.90578601418198L231.1875,144.99056139119756L231.1875,148.43627375050028L231.1875,151.60229692601678L232.875,151.20963112095438L232.875,145.50850893140833L232.875,149.5663394624849L232.875,151.88387847247216L232.875,151.66308544259763L232.875,150.1547921271016L232.875,152.51956142559985L232.875,140.6771966842665L232.875,145.2143982473392L232.875,129.5446786112945L232.875,140.69606111932956L234.5625,147.61196578833955L234.5625,148.0308623271793L234.5625,146.6732126276923L234.5625,150.5221787099116L234.5625,153.11285651441517L234.5625,154.25226112550823L234.5625,150.25561329332785L234.5625,142.10621252687122L236.25,146.04127707831205L236.25,150.34074825761667L236.25,151.0290799143987L236.25,149.72897165038648L236.25,152.1908654409423L236.25,148.80729065563924L236.25,150.13787193731454L236.25,110.71490031396276L237.9375,128.9793701723114L237.9375,138.38942469420738L237.9375,144.79266912232794L237.9375,148.820644532918L237.9375,142.7471754218149L237.9375,148.0417557887572L239.625,151.55507990364262L239.625,151.83746904220598L239.625,152.7171093204139L239.625,143.9278499246085L239.625,148.93437779773606L239.625,151.11705577205552L239.625,152.91529658004868L239.625,151.89102342995474L239.625,152.72731214924138L239.625,153.37025972702193L239.625,153.4296407888219L239.625,154.70009198310618L241.3125,154.86133994208694L241.3125,156.06080385840835L241.3125,156.72067215950761L241.3125,154.12012553493398L241.3125,113.48117714625064L243,131.08772307999476L243,124.50675960998264L243,133.88768691194372L243,141.96001020163354L243,146.5643769468271L244.6875,150.07064253282965L244.6875,127.14236323550793L244.6875,132.9060644551377L244.6875,134.65125543805192L244.6875,136.5046503824592L244.6875,144.96689312176343L246.375,147.10198662919993L246.375,148.44184865301764L246.375,149.56878567981272L246.375,151.89774738300372L246.375,145.5225327577437L246.375,149.08906051712702L248.0625,152.02002799761112L248.0625,153.81183562660638L248.0625,154.1434763953817L248.0625,154.1884451781484L248.0625,153.30477580542666L248.0625,154.0267167336661L248.0625,152.0566074962236L248.0625,153.79808369996388L248.0625,151.32961229450183L248.0625,150.2896205582222" style="fill: none;" fill="none"></path></g></g></g></g><g opacity="0.2"><g><g><g><path stroke="rgb(255, 112, 67)" stroke-width="2px" d="M33.75,142.61477309134273L33.75,156.6955659110099L33.75,150.75281068020396L33.75,49.70824456214905L33.75,-20.751430299546996L33.75,-118.2366419898139L33.75,40.097419844733366L33.75,76.13128426339891L33.75,-132.82784949408637L35.4375,-83.80597469541766L35.4375,20.61595243877835L35.4375,55.391243987613265L35.4375,45.5989121331109L35.4375,-119.62992175420129L37.125,-45.081214216020385L37.125,4.9535027080112L37.125,99.72114691469405L37.125,44.224882947074065L37.125,-4.699324342939576L37.125,-18.31854857338797L37.125,12.020221445295562L37.125,60.68494673569998L37.125,-3.785057438744417L37.125,115.49523349603018L38.8125,68.29473100768196L38.8125,48.42357201046414L38.8125,-103.9202945497301L38.8125,-56.852547963460324L40.5,143.14073207643298L40.5,143.9473171631495L40.5,-95.27649015850488L40.5,94.41638657781813L40.5,105.89146418041653L40.5,67.47830843925476L42.1875,137.6417536801762L42.1875,107.81573218769498L42.1875,146.97936577267117L42.1875,88.91355040338304L43.875,66.45283496379852L43.875,-250.9877815246582L43.875,120.36555908785927L43.875,131.3366882602374L43.875,71.97760948869917L43.875,129.17730797661676L43.875,59.99535046683418L43.875,86.87380250295004L43.875,71.02652128537497L43.875,53.44825588332283L43.875,-6.289825280507387L43.875,-104.32315386666193L43.875,133.05561578273773L43.875,146.5455609742138L45.5625,-311.95352617899573L45.5625,146.14363810420036L45.5625,115.19190426667532L45.5625,95.31317117479112L45.5625,134.13660560382738L45.5625,98.04991261164348L45.5625,82.28171437316472L47.25,73.57707556088766L47.25,-226.57639778984918L47.25,141.8726547492875L47.25,140.40997623735004L47.25,-127.3342554834154L47.25,-52.022574318779874L47.25,120.28849193784927L47.25,104.94190258449979L47.25,145.69338617391057L48.9375,123.38079143895044L48.9375,98.17785881625282L48.9375,46.23958033985562L48.9375,98.4251397450765L48.9375,142.07599708769055L48.9375,96.47551472981772L48.9375,106.77767451604208L48.9375,-10.296291483773103L48.9375,144.7271777788798L48.9375,120.3200202120675L48.9375,107.80618352360196L48.9375,33.96685920821298L48.9375,134.26058351331287L48.9375,14.753827148013642L48.9375,90.8290949397617L48.9375,-25.345080402162353L48.9375,138.6182799372408L50.625,140.14961304929523L50.625,122.07702745331659L50.625,101.88523964087169L50.625,136.41705057024956L50.625,28.428009245130767L50.625,46.81392659081354L50.625,101.70502334170872L50.625,97.84210538864137L50.625,153.84617188076177L52.3125,-0.2775148285759599L52.3125,-59.385891066657194L52.3125,116.94100144174365L52.3125,78.70510309272343L52.3125,51.664695103963226L52.3125,131.37206841839685L52.3125,134.7970533967018L52.3125,101.59405253993141L52.3125,137.48185628983708L52.3125,-13.588446882035981L54,151.6323030591011L54,9.956861231062163L54,139.95108335547977L54,144.72222514616118L54,144.12930173344083L54,137.85058060619565L54,49.34031449423898L55.6875,141.16302838921547L55.6875,70.67530137962767L55.6875,97.53869363996718L55.6875,152.36238831612798L55.6875,-149.76071951124408L57.375,128.66384330060748L57.375,68.04076601399316L57.375,143.81787824299602L57.375,129.1636834475729L57.375,114.4192611442672L57.375,135.38450548383923L59.0625,140.70610860321256L59.0625,151.07888871762486L59.0625,55.9324999915229L59.0625,149.30742512312202L59.0625,154.6750294475092L59.0625,120.78723280959659L59.0625,148.91283026337624L60.75,42.99281056722006L60.75,133.18302855889004L60.75,156.51109553832146L62.4375,74.79812571737502L62.4375,155.94905184954405L62.4375,136.17507740192943L62.4375,117.88219027386772L62.4375,107.46330396334331L64.125,137.85943669743008L64.125,-453.63122844696045L64.125,154.37778196566634L64.125,116.13775838745966L65.8125,140.91754814982414L65.8125,131.64103424549103L65.8125,-172.56189197964136L65.8125,83.8506718741523L65.8125,126.59193644258713L65.8125,153.30449554406934L65.8125,126.46773897276985L65.8125,120.22699441512427L65.8125,143.33161989185544L65.8125,149.47777815328703L65.8125,140.83120641774602L67.5,91.01715646849739L67.5,109.06872321499719L67.5,135.99627571966914L67.5,147.2890357275804L67.5,146.65661061141225L67.5,156.91897177199522L69.1875,153.50852898177175L69.1875,113.97045035494699L69.1875,142.54893298943838L69.1875,150.38819317354097L69.1875,105.92447190814549L69.1875,154.93885218434863L69.1875,132.47980481386185L69.1875,131.46080321073532L69.1875,153.77382822500334L69.1875,133.14691751533084L70.875,152.48250402675734L70.875,150.77388847205373L70.875,144.84897334708108L70.875,101.38607438405356L70.875,116.8550516764323L70.875,150.53815288013882L70.875,138.73816724618277L72.5625,145.5780020621088L72.5625,115.26541129748027L72.5625,147.43197539779874L72.5625,149.05832361181578L72.5625,150.4231062134107L72.5625,142.0799668563737L72.5625,131.4061430030399L72.5625,91.90099142657387L72.5625,132.14480879571704L72.5625,145.93541386392383L72.5625,-67.92117076449924L74.25,102.11586345566644L74.25,50.41372579998442L74.25,1.8631424109141221L74.25,109.46620404058034L74.25,151.42519430319467L74.25,79.24958324432373L75.9375,148.98698713382086L75.9375,145.96154301696353L75.9375,82.45326024956175L75.9375,151.50469945702287L75.9375,145.9264398879475L75.9375,152.0678963901268L75.9375,-164.15388064914282L75.9375,135.24605280160904L75.9375,147.313958035575L75.9375,134.57639673683377L75.9375,149.9401442143652L75.9375,157.08943927929633L77.625,145.35701679852275L77.625,122.31409661637413L77.625,107.95781866709392L77.625,148.17296204633183L77.625,146.36359334985414L77.625,148.62596879568366L77.625,135.36185393068524L79.3125,155.28940162062645L79.3125,141.3408118420177L79.3125,150.66743339267043L79.3125,157.67792000290422L79.3125,140.13981977436276L79.3125,153.18830392178563L79.3125,153.91698819233312L79.3125,153.15963619450727L79.3125,156.49409453239707L79.3125,152.96746785607604L79.3125,141.76202876038022L81,134.06168395611974L81,99.47012314531538L81,145.85886245965958L81,96.42510131994884L81,138.038371000025L81,122.65037168396844L81,63.36540410253737L81,131.13827055692673L81,147.26560097767248L81,128.99508468972311L81,155.32171585452227L81,143.2186686264144L81,153.39597741928367L82.6875,151.48598746458688L82.6875,105.71487283706666L82.6875,103.86415312025282L82.6875,0.7922538386451095L82.6875,146.13708444933096L82.6875,62.67116317484114L84.375,155.2452139986886L84.375,138.99524734417597L84.375,135.3441550102499L84.375,156.43398197119436L86.0625,77.9430430730184L86.0625,99.93631603982713L86.0625,150.81471195816994L86.0625,111.1424867577023L86.0625,141.55224991507L86.0625,155.32461858209638L86.0625,141.98987638950348L86.0625,58.53139879968431L86.0625,139.1249706612693L86.0625,150.0637397352192L86.0625,150.3747285256783L86.0625,143.94864041937723L87.75,99.76728110843236L87.75,144.3645201060507L87.75,144.15960842702123L87.75,110.88333483537039L87.75,155.6827413762609L87.75,157.1359843197796L87.75,132.86718881130219L87.75,155.60212184323206L87.75,157.48540956847785L87.75,156.77151849762433L87.75,152.354233270718L87.75,152.83601826429367L89.4375,124.81953345404732L89.4375,137.4789695872201L89.4375,126.39729105101692L89.4375,154.29491562313504L89.4375,152.69778735273414L89.4375,151.11868955360518L91.125,106.19153389665816L91.125,144.44007538424597L91.125,139.95925424165196L91.125,134.62131671773062L91.125,-1241.2782728407117L91.125,153.91608453210858L91.125,153.51908298167916L91.125,83.69223478105333L91.125,144.37549370196132L92.8125,113.48269928826227L92.8125,154.5978830936882L92.8125,67.64226253827414L92.8125,147.32487195233503L92.8125,140.24404756890402L92.8125,148.6341853621933L94.5,140.20676357216306L94.5,157.84320877823563L94.5,116.41039043002658L94.5,92.17466674910652L94.5,155.2928375924627L94.5,110.43595929278268L94.5,143.1741317709287L94.5,155.9535086295671L94.5,141.72802785370084L94.5,140.0754605995284L96.1875,157.73494154328688L96.1875,136.63390692075095L96.1875,142.5975398156378L96.1875,129.92887036005658L96.1875,146.34144428041247L96.1875,150.93632038434347L97.875,130.04048952791425L97.875,155.13650584717593L97.875,148.22919012109438L97.875,156.4180131935411L97.875,129.13506692647934L97.875,157.13132160984807L99.5625,154.6816858831379L99.5625,153.7358763375216L99.5625,142.58125698566437L99.5625,143.76679878433546L99.5625,117.9493845767445L99.5625,136.73371845814916L101.25,156.87593997311262L101.25,153.03688318116798L101.25,72.96527143319449L101.25,152.96876753535537L101.25,126.21164026525287L101.25,135.92253439293967L101.25,123.461949189504L101.25,140.46638703346252L101.25,138.59164977404805L101.25,77.43850227197012L102.9375,154.65603747881121L102.9375,101.08955889277989L102.9375,60.86217465665605L102.9375,126.22214379575519L102.9375,154.5263344231579L102.9375,142.4873558945126L102.9375,152.7970566203197L102.9375,143.2252465950118L104.625,153.84388860066733L104.625,150.35889881518153L104.625,150.6385317378574L104.625,140.63591118653616L104.625,148.3638697548045L104.625,153.01475732028484L104.625,144.9020538992352L104.625,152.82830491827593L106.3125,153.9257157155209L106.3125,149.62597253587512L106.3125,153.86621707595057L106.3125,148.63118151161405L106.3125,138.18902180592218L106.3125,144.28097813659244L106.3125,150.93932865560055L106.3125,117.96918037202624L106.3125,157.1365567975574L106.3125,151.9699308541086L108,143.8516153825654L108,150.0258361068037L108,100.45888731214735L108,126.56925541824765L108,155.79186249276003L108,149.55400242739253L108,153.73626793589858L109.6875,139.20690645111932L109.6875,148.5248037940926L109.6875,156.38806254872017L109.6875,150.99982489479913L109.6875,129.80032883750067L109.6875,143.3339967429638L111.375,148.735046810574L111.375,-1.6890903049045107L111.375,145.24516628185907L111.375,115.92479075988135L111.375,147.33611815671125L111.375,152.60827157398066L111.375,124.69305491447449L111.375,145.43264133400388L111.375,155.73508146488004L113.0625,150.81290537450047L113.0625,146.80452943841615L113.0625,150.9548231313626L113.0625,142.24859508540897L113.0625,145.20275724596448L113.0625,148.6992054283619L113.0625,152.11502044730716L114.75,154.23068759507603L114.75,151.2789111269845L114.75,148.75569505989552L114.75,150.40771562357745L114.75,155.69628817505307L114.75,103.24527590804631L116.4375,149.45900206102266L116.4375,153.28666179296044L116.4375,149.81370988157062L116.4375,150.7058925529321L116.4375,150.93599767486253L116.4375,139.0693025390307L116.4375,152.1549141175217L118.125,145.2927062511444L118.125,85.62850345505609L118.125,140.3601640396648L118.125,148.2025275395976L118.125,135.333196149932L118.125,156.91265462338924L118.125,136.71629361973868L118.125,108.23992864290874L118.125,146.72934107648L118.125,131.66340287526447L118.125,149.6792070749733L119.8125,156.58858246852955L119.8125,138.02873097525702L119.8125,154.65346759143802L119.8125,150.7059824400478L119.8125,150.49163556098938L119.8125,128.7067533466551L119.8125,150.31176112757788L119.8125,157.4937942588909L119.8125,155.60456113641462L121.5,153.66107552167443L121.5,145.6607527302371L121.5,119.33857079346976L121.5,154.05399862842427L121.5,157.30323679703804L121.5,157.00241906527015L123.1875,153.71315884259013L123.1875,40.952308204438964L123.1875,139.4226797355546L123.1875,147.7449947529369L123.1875,153.02873108287653L123.1875,136.52528497245578L123.1875,141.70073458883496L123.1875,125.87765510876974L123.1875,140.39775748385324L123.1875,153.31712063153586L123.1875,141.59476799435086L123.1875,145.46525120072894L123.1875,147.98680877685547L124.875,150.40793150001102L126.5625,144.9036733408769L126.5625,149.91198154952792L126.5625,151.64417257905006L126.5625,152.1790510184235L126.5625,154.69114244977632L126.5625,140.58362930350833L126.5625,135.36631734172502L126.5625,155.38908422158823L128.25,141.44338335593542L128.25,157.0175343758116L128.25,154.12455006771617L128.25,142.6365817685922L128.25,146.62506097058454L128.25,94.18222622076671L129.9375,137.14940658211708L129.9375,147.44603904750613L129.9375,157.00195028922624L129.9375,154.4019781773289L129.9375,150.42076178060637L129.9375,145.0628663698832L129.9375,148.24253762099477L129.9375,151.2658502343628L129.9375,151.6739252143436L131.625,157.00795863506696L131.625,141.14745434125265L131.625,154.52255621718035L131.625,144.53122681379318L131.625,154.22631259759268L131.625,154.5826833297809L133.3125,154.26454114582805L133.3125,140.45803195238113L133.3125,155.83596704279384L133.3125,156.01019663901792L133.3125,148.81473542253175L133.3125,153.10473174436225L133.3125,-71.79552353752987L133.3125,131.3251326084137L133.3125,126.9865556160609L135,123.4751846988996L135,155.6548166912463L135,152.53075019932456L135,150.72985410028033L135,156.26006919021407L135,151.22701679004564L135,156.45502458181647L136.6875,143.41125103500156L136.6875,154.24408740633064L136.6875,144.1621959971057L136.6875,129.98449427551694L138.375,136.78918470276727L138.375,152.8290387507942L138.375,152.7410842080911L138.375,113.49764412641527L138.375,157.3040094025847L138.375,152.0832696656386L138.375,82.38444503148398L138.375,150.42200988531113L138.375,141.1987518866857L138.375,148.5389381746451L140.0625,144.6301394800345L140.0625,155.97332542306847L140.0625,152.47582438257007L140.0625,127.92413422796463L140.0625,136.44360558191934L140.0625,145.29643877678447L140.0625,136.26612126164966L141.75,150.06004920601845L141.75,151.69428390926785L141.75,155.2193020114468L141.75,151.59505000710487L141.75,148.2291400200791L141.75,140.16252879632844L141.75,152.98478917694754L143.4375,148.93191875020662L143.4375,152.19926309420003L143.4375,155.66416439869337L143.4375,155.41410654741856L143.4375,151.7754291345676L143.4375,154.5008985797564L143.4375,155.42459497393833L143.4375,151.78736128078566L143.4375,157.3219407769955L143.4375,147.7086693065034L143.4375,153.99954287707806L143.4375,156.13552303943368L143.4375,152.8786240203513L143.4375,138.7085943851206L145.125,148.03377700514264L145.125,155.13068160414696L145.125,145.1496457490656L145.125,79.27054315143162L145.125,150.51549837986627L145.125,153.75620519287057L146.8125,154.74167890184455L146.8125,152.37882439626588L146.8125,155.30369772430925L148.5,154.41535478002496L148.5,154.23893289599152L148.5,154.80358533726798L148.5,153.69750448564687L148.5,154.39005082017846L148.5,143.86315629879633L148.5,157.411917043022L150.1875,130.7894643412696L150.1875,143.68991288211612L150.1875,155.60331211073532L150.1875,131.59439020024405L150.1875,-1.180394066704622L150.1875,136.33309747775397L151.875,141.19458171394137L151.875,128.91945278644562L153.5625,150.6667002969318L153.5625,138.43722960352898L153.5625,143.5522588690122L153.5625,143.3172261648708L153.5625,143.53670987155704L153.5625,149.84073790576724L153.5625,134.7047525909212L153.5625,157.09616184089748L155.25,131.39029929372998L155.25,125.43454109960132L155.25,137.81759940253363L155.25,153.58533641695976L155.25,151.2811973541975L155.25,149.6209395941761L156.9375,145.73857139547667L156.9375,140.27149113681583L156.9375,156.05208127200603L156.9375,152.15515541285276L156.9375,156.0559817834033L156.9375,83.76453349325392L158.625,147.06435477733612L158.625,155.7048103209171L158.625,147.89883434110217L158.625,139.67176430092917L158.625,143.70284483830133L158.625,153.24928754071394L158.625,155.7997710853815L158.625,152.19549851864576L158.625,121.24915827645196L160.3125,151.77584173116418L160.3125,149.85282256537013L160.3125,155.22782010502286L160.3125,153.14501480261484L160.3125,149.12691484888396L160.3125,150.9025456690126L160.3125,157.11301134650907L160.3125,154.56756682197252L162,155.42055171148644L162,135.80911158853107L162,150.16515450510713L162,150.39001301924387L162,145.03827561272516L162,155.0345605959495L162,146.89223715994092L162,150.29534641404948L162,141.94145523177252L162,151.87360428439246L163.6875,153.95109887917837L163.6875,151.9164524409506L163.6875,146.61296967996492L163.6875,153.4867133051157L163.6875,154.01079092340336L163.6875,139.80311442746057L163.6875,139.72551090187497L163.6875,147.9472105552753L163.6875,145.2762878537178L165.375,150.8583993067344L165.375,149.42542922331228L165.375,156.8103407981495L165.375,151.88891088134713L165.375,152.63486047751374L165.375,153.72302211158805L165.375,130.09856544600592L165.375,153.16509867873458L165.375,157.1283818590972L165.375,154.6680436713828L165.375,145.7922870516777L165.375,153.26680889725685L165.375,152.81655844052634L165.375,154.5286663307084L165.375,154.89479939308433L167.0625,140.08601275748677L167.0625,137.7307389775912L167.0625,157.3045512119101L167.0625,139.77721957034535L167.0625,154.83369678424464L167.0625,151.23901893032922L167.0625,155.20717351345553L168.75,156.47591817875704L168.75,143.20033607549138L168.75,156.50330188332333L168.75,152.14232586903705L168.75,154.84343958977195L168.75,134.8884243865808L170.4375,152.39140454017453L170.4375,151.55857131050692L170.4375,134.20336225959988L170.4375,146.82590783635774L170.4375,138.21532336539693L170.4375,151.79090224372015L170.4375,136.98009904225668L170.4375,146.61854562825627L170.4375,156.84225228987634L172.125,154.7459374881453L172.125,143.48441030581793L172.125,146.75122932593027L172.125,133.66418839494386L172.125,149.896129735642L172.125,127.39463722705841L172.125,141.4677840239472L172.125,148.0470021996233L172.125,143.96196434232922L173.8125,146.27196743422084L173.8125,116.62475793891483L173.8125,156.78632574218014L173.8125,152.5518534100718L173.8125,153.85676014092235L173.8125,154.11769617514477L173.8125,155.05025179187456L173.8125,148.81494319438934L175.5,124.7077639831437L175.5,147.59517945514784L175.5,157.86463253417364L175.5,115.75359559059143L175.5,154.11412242551646L177.1875,147.2494212968482L177.1875,156.2565149652461L177.1875,152.91092886030674L177.1875,157.93475171406237L177.1875,124.93061624632942L177.1875,152.28578312695026L177.1875,156.45547051769165L178.875,151.297601752811L178.875,148.1404214368926L178.875,152.67155799766383L178.875,157.7784090552272L178.875,152.47185314032765L178.875,155.59144885341325L178.875,157.32923526378968L178.875,154.57060382763544L178.875,154.34206325726376L178.875,142.8068397541841L178.875,156.89351299632756L178.875,145.66188000308142L178.875,154.4553180759152L178.875,151.90876046154233L180.5625,99.84464297029707L180.5625,127.65380977922015L180.5625,157.1087363668614L180.5625,157.0871113319364L180.5625,152.19530916627912L180.5625,149.24737979306116L182.25,152.13618075847626L182.25,147.29898151589765L182.25,157.610828941274L182.25,156.22474189599356L182.25,155.30650909120837L182.25,146.07379434174962L182.25,149.6601200617022L182.25,155.06950826446214L183.9375,156.1646304399603L183.9375,151.08457886675993L183.9375,151.74886970221996L183.9375,157.71997529247568L183.9375,146.67797722087965L183.9375,129.46563637256622L183.9375,149.42371105319924L183.9375,145.11713608437114L185.625,154.65975747919745L185.625,128.98176960812674L185.625,156.2206372966369L185.625,153.65317466523913L185.625,90.0541324350569L185.625,148.07173441847166L187.3125,155.08545217580266L187.3125,129.26334320836597L187.3125,148.29547081722154L187.3125,155.82063484274678L187.3125,125.019825524754L187.3125,132.95823119746314L187.3125,132.96472075250415L187.3125,157.81125814509062L187.3125,149.16892307665614L187.3125,145.44905973143048L189,148.6241762108273L189,128.9273274872038L189,56.24971604347229L189,151.13839840888977L189,155.75079697453313L189,148.005047019985L190.6875,147.10165940390692L190.6875,157.4583076821226L190.6875,150.67790155775018L190.6875,150.52232243286238L190.6875,144.0427478088273L190.6875,150.89866726100445L192.375,156.6550635687179L192.375,154.17349839127726L192.375,155.59522650680609L192.375,137.9839996099472L194.0625,151.86533024907112L194.0625,156.06642747670412L194.0625,154.18769060903125L195.75,145.88811113768153L195.75,131.60362057553397L195.75,147.96804078916708L195.75,151.8454224632846L195.75,137.86093825432988L195.75,153.77909619940652L197.4375,154.88828220880694L197.4375,143.08897478050656L197.4375,152.40913587891393L197.4375,146.9327939318286L197.4375,133.68342865837946L197.4375,154.68684518254466L199.125,147.58555121885405L199.125,126.67792452043957L199.125,156.15551555487843L199.125,152.503379204207L199.125,148.00806044869952L199.125,139.26658560170068L199.125,151.46839758753777L199.125,125.18158696757423L199.125,155.69749409912362L199.125,118.58045401838092L199.125,152.5134900311629L200.8125,156.10238342814975L200.8125,153.95050761351982L200.8125,155.0727099403739L200.8125,153.30794625149832L200.8125,138.65539742178387L202.5,149.28061518569788L202.5,150.01206274827322L202.5,138.48767690526114L202.5,125.88926675584582L202.5,141.52526904477014L202.5,155.00058473977776L202.5,150.12853876749674L202.5,157.5404067147109L204.1875,146.0539572868082L204.1875,151.31404741108418L204.1875,145.4123961031437L204.1875,152.93558408568302L204.1875,155.25810580038362L204.1875,121.4550999734137L204.1875,156.01566354392304L205.875,134.05106843511263L205.875,155.34226408600807L205.875,152.6669936478138L205.875,157.61878514827953L205.875,151.9539250532786L207.5625,156.39860070786543L207.5625,157.01259933370682L207.5625,155.76156906121307L207.5625,153.77193617489604L207.5625,146.21293370260133L207.5625,127.71944505638547L207.5625,129.9748454093933L207.5625,156.13646685414844L207.5625,150.67879969212743L207.5625,155.5167769740025L209.25,153.63618010613652L209.25,154.9842871742116L209.25,124.94787457254199L209.25,118.7631488442421L209.25,155.0394189208746L209.25,152.4128820349773L209.25,149.7866862780518L209.25,128.29001899560294L209.25,142.82207783063254L210.9375,154.4595342973868L210.9375,155.77749823696084L210.9375,142.00963387224408L210.9375,155.96866584445038L210.9375,136.3951343231731L210.9375,136.50159161289534L210.9375,109.97253374258678L210.9375,148.76619859039783L210.9375,146.96055063108602L210.9375,150.4610452072488L210.9375,155.23888929809132L210.9375,143.68222384982639L212.625,155.3789347137014L212.625,144.47748315996594L212.625,153.57145475182267L212.625,155.8980725929141L214.3125,151.22403798997402L214.3125,155.21871866616937L214.3125,152.44933347072867L214.3125,154.99188153031798L216,148.56483597887888L216,155.197558907585L216,142.30859547191196L216,147.92096941173077L216,156.84256753946343L216,157.20060726172395L216,148.81811871462398L217.6875,134.91436050335565L217.6875,157.27899766796165L217.6875,153.48211064272456L217.6875,154.52953278356128L217.6875,154.0790568722619L217.6875,153.67953221996626L217.6875,146.26460111141205L219.375,157.96642223279923L219.375,155.62554019979305L219.375,105.85293944676718L219.375,117.45995954672496L219.375,156.59568852393164L219.375,150.36361715197563L219.375,155.75570982115136L219.375,150.47528126339117L221.0625,157.36043042151465L221.0625,134.88938809434572L221.0625,148.4207631415791L221.0625,153.35305447959237L221.0625,113.90871116850111L221.0625,151.51809779471822L221.0625,113.69108414649965L221.0625,156.21357010636063L222.75,138.61500126785702L222.75,-0.2184899383121035L222.75,154.0689283625947L222.75,154.1314827957087L222.75,152.0884739086032L222.75,138.94892158773212L222.75,136.57555397351584L222.75,153.63827071835598L222.75,148.0189110024108L222.75,152.33689316196575L222.75,136.97759251793227L222.75,154.76821844114198L222.75,147.16332491238913L222.75,153.36296269214816L224.4375,151.83318455351724L224.4375,86.61239898204803L224.4375,154.13997307585345L224.4375,143.25439065032535L224.4375,153.7519082940287L224.4375,150.79684136807919L224.4375,111.28739362955095L226.125,153.07623273962074L226.125,157.08731707764997L226.125,140.44451057248645L226.125,155.61306467859282L226.125,136.41276988055972L226.125,151.0143129295773L226.125,123.6179991165797L227.8125,155.0571425234278L227.8125,153.17837986846766L227.8125,155.68684984371066L227.8125,141.06759479641914L227.8125,147.3513201309575L227.8125,151.82261544962725L227.8125,156.50069755150213L227.8125,155.6456631252335L227.8125,131.47579225566653L227.8125,156.48358989672528L227.8125,153.6491665840149L227.8125,139.3918469813135L227.8125,148.43747477730116L229.5,146.18090883890787L229.5,153.3418749537733L229.5,154.02682287991047L229.5,130.4193799297015L229.5,122.35156922870212L229.5,151.95064343677626L229.5,137.29203385776944L229.5,156.1774916653004L229.5,157.00091327188744L229.5,156.70766631927756L231.1875,126.6888082292345L231.1875,147.10696421729193L231.1875,156.32375458007058L231.1875,153.01454696969853L231.1875,156.05956419019236L231.1875,132.36336121294232L231.1875,132.79230547613568L231.1875,152.61772445672088L231.1875,153.6048422894544L231.1875,156.35133168929153L232.875,150.6206324133608L232.875,136.9568256470892L232.875,155.6530852590998L232.875,155.36018698745303L232.875,151.3318958977858L232.875,147.89235215385756L232.875,156.0667153733472L232.875,122.91364957226648L232.875,152.0202005919483L232.875,106.04009915722742L232.875,157.4231348813822L234.5625,157.98582279185453L234.5625,148.65920713543892L234.5625,144.63673807846175L234.5625,156.29562783324056L234.5625,156.99887322117058L234.5625,155.96136804214783L234.5625,144.2606415450573L234.5625,129.88211137718625L236.25,151.94387390547328L236.25,156.7899550265736L236.25,152.06157739957175L236.25,147.77880925436816L236.25,155.88370612677602L236.25,143.73192847768465L236.25,152.13374385982752L236.25,51.580442878935074L237.9375,156.37607495983443L237.9375,152.5045064770513L237.9375,154.39753576450877L237.9375,154.86260764880313L237.9375,133.63697175516023L237.9375,155.98362633917066L239.625,156.82506607597074L239.625,152.26105275005102L239.625,154.03656973772578L239.625,130.7439608309004L239.625,156.4441696074274L239.625,154.3910727335347L239.625,155.6126577920384L239.625,150.35461370481386L239.625,153.98174522817135L239.625,154.33468109369278L239.625,153.51871238152185L239.625,156.6057687745326L241.3125,155.10321188055806L241.3125,157.8599997328905L241.3125,157.7104746111565L241.3125,150.21930559807353L241.3125,52.52275456322565L243,157.49754198061095L243,114.63531440496445L243,147.95907786488533L243,154.06849513616828L243,153.47092706461748L244.6875,155.33004091183344L244.6875,92.74994428952536L244.6875,141.55161628458234L244.6875,137.26904191242323L244.6875,139.28474279907016L244.6875,157.66025723071976L246.375,150.30462689035468L246.375,150.45164168874422L246.375,151.25919122000536L246.375,155.39118993779024L246.375,135.95971081985368L246.375,154.438852156202L248.0625,156.41647921833726L248.0625,156.49954707009925L248.0625,154.64093754854468L248.0625,154.25589835229846L248.0625,151.97927174634404L248.0625,155.1096281260252L248.0625,149.1014436400599L248.0625,156.41029800557428L248.0625,147.62690518630876L248.0625,148.72963295380274" style="fill: none;" fill="none"></path></g></g></g></g></g></g><g transform="translate(60, 178)" clip-path="url(#clip_1)"><clipPath id="clip_1"><rect width="270" height="22"></rect></clipPath><g><g><line x1="0" y1="0" x2="0" y2="5" style="visibility: inherit;" fill="rgb(0, 0, 0)" stroke="rgb(204, 204, 204)" stroke-width="1px"></line><line x1="33.75" y1="0" x2="33.75" y2="5" style="visibility: inherit;" fill="rgb(0, 0, 0)" stroke="rgb(204, 204, 204)" stroke-width="1px"></line><line x1="67.5" y1="0" x2="67.5" y2="5" style="visibility: inherit;" fill="rgb(0, 0, 0)" stroke="rgb(204, 204, 204)" stroke-width="1px"></line><line x1="101.25" y1="0" x2="101.25" y2="5" style="visibility: inherit;" fill="rgb(0, 0, 0)" stroke="rgb(204, 204, 204)" stroke-width="1px"></line><line x1="135" y1="0" x2="135" y2="5" style="visibility: inherit;" fill="rgb(0, 0, 0)" stroke="rgb(204, 204, 204)" stroke-width="1px"></line><line x1="168.75" y1="0" x2="168.75" y2="5" style="visibility: inherit;" fill="rgb(0, 0, 0)" stroke="rgb(204, 204, 204)" stroke-width="1px"></line><line x1="202.5" y1="0" x2="202.5" y2="5" style="visibility: inherit;" fill="rgb(0, 0, 0)" stroke="rgb(204, 204, 204)" stroke-width="1px"></line><line x1="236.25" y1="0" x2="236.25" y2="5" style="visibility: inherit;" fill="rgb(0, 0, 0)" stroke="rgb(204, 204, 204)" stroke-width="1px"></line><line x1="270" y1="0" x2="270" y2="5" style="visibility: inherit;" fill="rgb(0, 0, 0)" stroke="rgb(204, 204, 204)" stroke-width="1px"></line></g><g transform="translate(0, 8)"><text x="0" y="0" dx="0em" dy="0.95em" style="text-anchor: middle; visibility: hidden; font-family: &quot;Helvetica Neue&quot;, sans-serif; font-size: 12px; font-weight: 200;" fill="rgb(50, 49, 63)" stroke="none" stroke-width="1px">-20</text><text x="33.75" y="0" dx="0em" dy="0.95em" style="text-anchor: middle; visibility: inherit; font-family: &quot;Helvetica Neue&quot;, sans-serif; font-size: 12px; font-weight: 200;" fill="rgb(50, 49, 63)" stroke="none" stroke-width="1px">0</text><text x="67.5" y="0" dx="0em" dy="0.95em" style="text-anchor: middle; visibility: inherit; font-family: &quot;Helvetica Neue&quot;, sans-serif; font-size: 12px; font-weight: 200;" fill="rgb(50, 49, 63)" stroke="none" stroke-width="1px">20</text><text x="101.25" y="0" dx="0em" dy="0.95em" style="text-anchor: middle; visibility: inherit; font-family: &quot;Helvetica Neue&quot;, sans-serif; font-size: 12px; font-weight: 200;" fill="rgb(50, 49, 63)" stroke="none" stroke-width="1px">40</text><text x="135" y="0" dx="0em" dy="0.95em" style="text-anchor: middle; visibility: inherit; font-family: &quot;Helvetica Neue&quot;, sans-serif; font-size: 12px; font-weight: 200;" fill="rgb(50, 49, 63)" stroke="none" stroke-width="1px">60</text><text x="168.75" y="0" dx="0em" dy="0.95em" style="text-anchor: middle; visibility: inherit; font-family: &quot;Helvetica Neue&quot;, sans-serif; font-size: 12px; font-weight: 200;" fill="rgb(50, 49, 63)" stroke="none" stroke-width="1px">80</text><text x="202.5" y="0" dx="0em" dy="0.95em" style="text-anchor: middle; visibility: inherit; font-family: &quot;Helvetica Neue&quot;, sans-serif; font-size: 12px; font-weight: 200;" fill="rgb(50, 49, 63)" stroke="none" stroke-width="1px">100</text><text x="236.25" y="0" dx="0em" dy="0.95em" style="text-anchor: middle; visibility: inherit; font-family: &quot;Helvetica Neue&quot;, sans-serif; font-size: 12px; font-weight: 200;" fill="rgb(50, 49, 63)" stroke="none" stroke-width="1px">120</text><text x="270" y="0" dx="0em" dy="0.95em" style="text-anchor: middle; visibility: hidden; font-family: &quot;Helvetica Neue&quot;, sans-serif; font-size: 12px; font-weight: 200;" fill="rgb(50, 49, 63)" stroke="none" stroke-width="1px">140</text></g><line x1="0" y1="0" x2="270" y2="0" fill="rgb(0, 0, 0)" stroke="rgb(204, 204, 204)" stroke-width="1px"></line></g></g></g></g></svg>